<?xml version="1.0" encoding="UTF-8"?>
<svg version="1.1" viewBox="0 0 2048 717" width="43" height="29" xmlns="http://www.w3.org/2000/svg">
<path transform="translate(202,144)" d="m0 0h130l20 2 17 4 22 8 22 12 9 7 8 7 6 4 7 9 5 5 6 8 6 9 9 15 6 16 5 15 3 18v155l-5 25-9 24h-2l-1 4-7 14h-2l-2 4-6 9h-2l-2 4-11 12h-2v2l-4 3h-2v2l-7 5-1 2-8 4h-2v2l-12 6-18 8-24 6-9 2-148 1-13-2-26-6-16-7-13-6v-2l-5-2-11-7-5-4v-2l-5-2-6-6v-2l-4-1v-3h-2v-2h-2l-2-4-4-4v-2h-2l-9-14v-2h-2l-8-18-5-13-6-27-1-6v-145l5-25 4-14 4-9 5-12 9-14 4-6h2l2-5h2l2-5 5-5 5-6 9-7 3-3 5-3h2v-2h2v-2l10-5 12-7 29-10 19-3zm-24 93-10 3-7 8-2 5v135l2 14 4 12 9 19 6 8 4 5h2v2l3 3h2l2 4 8 6 9 6 16 9 21 6 17 2 18-1 17-4 15-5 17-10 5-5 8-6v-2h2l3-5 5-5 8-13 4-6 7-21 2-9 1-9v-11l-2-16-4-14-4-12-5-9h-2l-3-9-3-3h-2l-2-5h-2l-2-4h-2v-2h-2v-2l-5-2-1-3-9-6-8-5-16-7-12-3h-13l-7 6-3 5-1 22 1 18 8 9 12 4 5 3h2l2 4 5 3 9 16 2 6v18l-3 10-5 9v2h-2v2h-2v2l-4 2-8 5-9 4-4 1h-17l-13-5-9-6-3-1-2-5h-2l-2-5-4-7-2-14-1-122-3-7-7-9-11-3z" fill="#026FDA"/>
<path transform="translate(542,214)" d="m0 0h103l23 1 22 3 13 4 16 8 12 11 7 9 7 17 2 7 1 19-2 16-7 16-3 6-5 5-8 7-5 2-2 4 4 3 8 4 5 5 5 3 7 9 4 6 5 13 2 9v21l-3 11-5 13-6 10-8 10-8 7-16 10-9 4-25 6-21 2h-112l-1-1zm58 55v56h57l10-2 9-3 8-7 3-6 1-4v-12l-3-9-5-5-7-5-14-3zm0 107v63h66l1-1 10-2 9-4 7-7 4-11v-12l-3-9-7-9-13-6-9-2z" fill="#026FDA"/>
<path transform="translate(1355,209)" d="m0 0h15l18 1 25 7 15 6 5 4 8 4 1 3h2l-2 10-4 14-4 10-6 19-5-2-5-4-16-8-15-5-9-2-17-1-12 1-16 6-5 6-3 7 1 15 5 8 1 3 5 1 4 4 7 4 20 6 25 9 25 11 12 7 4 5v2h2l5 6 8 14 3 11 1 8v24l-3 17-8 16-6 9-4 2-2 5-14 10-9 5-20 8-14 3-11 1h-25l-20-2-14-3-25-9-16-10-1-3 6-21 8-24 2-5 14 7 9 5 21 7 9 2 9 1h20l13-3 7-3 9-6 5-10 1-8-3-9-6-8-16-9-24-8-29-10-9-4-9-5-4-3v-2l-4-2-5-5-2-4h-2l-5-6-7-15-2-5-2-14v-24l2-12 5-12 6-11 3-4h2l1-3h2l2-4 12-9 12-7 22-7 9-2z" fill="#026FDA"/>
<path transform="translate(1565,274)" d="m0 0h45l21 5 11 4 13 8 5 5 9 8 7 10 6 12 6 18 3 21v41l-3 20-3 9-7 18-11 15-10 10-13 9-19 8-14 3-12 1h-27l-15-2-15-5-17-8-2-4-5-2-5-4-2-5h-2l-6-8-6-11-4-9-5-20-2-12-1-13v-18l2-18 5-21 4-11 9-16 9-11 3-3h2v-2h2v-2l3-3 10-5 4-3 11-4 15-4zm22 52-14 2-11 4-7 5-8 14-3 12-1 8v31l3 18 5 10 5 6h2v2l8 5 9 2h29l11-4 10-8 5-10 4-15 1-26-1-18-5-16-4-8-7-7-12-5-10-2z" fill="#026FDA"/>
<path transform="translate(900,279)" d="m0 0h68l7 8 7 11 5 6 6 9 4 5 1 3 4 4 6 9v3h4l2-5 7-10 2-3h2l2-5 7-10 2-3h2l2-6 7-9 4-6 1-1h69l-2 5-8 10-7 9-3 4-3 5-16 20-7 10-3 1-2 5-3 5h-2l-2 4-8 11-6 8-3 7 3 1 6 9 7 9 8 11v2l3 1 13 18 4 5 4 6 6 7 1 4h2l14 19 4 5 6 8 3 3-1 4h-68l-6-9-6-8-5-7v-2h-2l-3-3-4-8-4-5v-2h-2l-4-6v-2h-2v-3h-2l-7-11-2-3-4-1-2 6-4 5h-2l-2 5-4 7h-2l-2 5-3 3-1 3h-2l-2 5-5 6-3 5-7 9-8 11h-68l1-5 9-12 8-11 5-6 3-5 3-1 2-5 11-14 7-10 5-6 3-5 5-5 6-8 8-11 5-7 2-1-1-5-2-4-3-1-5-9-5-5-5-7v-2h-2l-9-13-2-5-4-1-3-6-1-3-3-1-5-8v-2h-2l-5-7v-2h-2l-6-9-6-8z" fill="#026FDA"/>
<path transform="translate(1803,179)" d="m0 0h32l17 2 13 3 2 4-5 36-3 13-4 1-10-3-17-2h-11l-13 3-9 6-3 8-1 9v19l68 1v52l-1 1h-68v163h-56l-1-1v-230l1-21 4-16 4-12 4-7h2l2-4 4-6 15-10 16-6 8-2z" fill="#026FDA"/>
<path transform="translate(1883,222)" d="m0 0 56 1v56h72v53h-72l1 95 3 8 5 5 5 3 4 1h21l17-3 14-5h2l3 18 4 22 1 14-11 5-19 3h-45l-16-4-9-4-11-6-5-6-6-5-8-14-3-8-2-10-1-11-1-207z" fill="#026FDA"/>
<path transform="translate(1163,279)" d="m0 0h57v215l-1 1h-56z" fill="#026FDA"/>
<path transform="translate(801,279)" d="m0 0h57v214l-2 2h-54l-1-1z" fill="#026FDA"/>
<path transform="translate(1183,181)" d="m0 0h17l8 3 6 4 9 11 2 9v14l-2 7-7 9-9 7-8 3-9 1-10-2-8-5-9-8-5-12v-15l5-12 5-6 5-2v-2z" fill="#026FDA"/>
<path transform="translate(821,181)" d="m0 0h16l6 2 9 5 4 6 2 4h2l2 4 1 6v13l-1 7h-2l-2 5-6 7-11 7-13 2-10-2-8-5-9-8-3-6-1-1-1-8v-10l2-9 6-8 5-5h2v-2z" fill="#026FDA"/>
</svg>
