<svg width="360.4850219726562px" height="124.64000549316405px" xmlns="http://www.w3.org/2000/svg" viewBox="69.75748901367189 12.679997253417973 360.4850219726562 124.64000549316405" style="background: rgba(0, 0, 0, 0);" preserveAspectRatio="xMidYMid"><defs><filter id="editing-hole" x="-100%" y="-100%" width="300%" height="300%"><feFlood flood-color="#000" result="black"></feFlood><feMorphology operator="dilate" radius="2" in="SourceGraphic" result="erode"></feMorphology><feGaussianBlur in="erode" stdDeviation="4" result="blur"></feGaussianBlur><feOffset in="blur" dx="2" dy="2" result="offset"></feOffset><feComposite operator="atop" in="offset" in2="black" result="merge"></feComposite><feComposite operator="in" in="merge" in2="SourceGraphic" result="inner-shadow"></feComposite></filter></defs><g filter="url(#editing-hole)"><g transform="translate(124.81002521514893, 98.04500007629395)"><path d="M34.56-27.13L34.56-6.16L34.56-6.16Q34.56-4.88 34.08-3.75L34.08-3.75L34.08-3.75Q33.59-2.63 32.77-1.80L32.77-1.80L32.77-1.80Q31.94-0.97 30.81-0.48L30.81-0.48L30.81-0.48Q29.69 0 28.41 0L28.41 0L11.25 0L11.25 0Q10 0 8.88-0.48L8.88-0.48L8.88-0.48Q7.75-0.97 6.92-1.80L6.92-1.80L6.92-1.80Q6.09-2.63 5.61-3.75L5.61-3.75L5.61-3.75Q5.13-4.88 5.13-6.16L5.13-6.16L5.13-46.09L11.25-46.09L11.25-27.41L11.25-27.41Q11.31-28.63 11.81-29.70L11.81-29.70L11.81-29.70Q12.31-30.78 13.14-31.58L13.14-31.58L13.14-31.58Q13.97-32.38 15.06-32.83L15.06-32.83L15.06-32.83Q16.16-33.28 17.41-33.28L17.41-33.28L28.41-33.28L28.41-33.28Q29.69-33.28 30.81-32.80L30.81-32.80L30.81-32.80Q31.94-32.31 32.77-31.48L32.77-31.48L32.77-31.48Q33.59-30.66 34.08-29.53L34.08-29.53L34.08-29.53Q34.56-28.41 34.56-27.13L34.56-27.13ZM28.41-27.13L11.25-27.13L11.25-6.16L28.41-6.16L28.41-27.13ZM45.13-33.28L51.28-33.28L51.28 0L45.13 0L45.13-33.28ZM44.81-39.69L44.81-46.09L51.59-46.09L51.59-39.69L44.81-39.69ZM83.41-33.28L90.84-33.28L78.75-17.03L91.41 0L83.97 0L75.03-12.03L66.06 0L58.63 0L71.31-17.03L59.22-33.28L66.63-33.28L75.03-22.03L83.41-33.28ZM98.75-33.28L104.91-33.28L104.91 0L98.75 0L98.75-33.28ZM98.44-39.69L98.44-46.09L105.22-46.09L105.22-39.69L98.44-39.69ZM114.81-6.16L135.56-6.16L135.56-13.88L120.97-13.88L120.97-13.88Q119.69-13.88 118.56-14.36L118.56-14.36L118.56-14.36Q117.44-14.84 116.61-15.67L116.61-15.67L116.61-15.67Q115.78-16.50 115.30-17.63L115.30-17.63L115.30-17.63Q114.81-18.75 114.81-20.03L114.81-20.03L114.81-27.13L114.81-27.13Q114.81-28.41 115.30-29.53L115.30-29.53L115.30-29.53Q115.78-30.66 116.61-31.48L116.61-31.48L116.61-31.48Q117.44-32.31 118.56-32.80L118.56-32.80L118.56-32.80Q119.69-33.28 120.97-33.28L120.97-33.28L140.44-33.28L140.44-27.13L120.97-27.13L120.97-20.03L135.56-20.03L135.56-20.03Q136.84-20.03 137.95-19.55L137.95-19.55L137.95-19.55Q139.06-19.06 139.91-18.23L139.91-18.23L139.91-18.23Q140.75-17.41 141.23-16.28L141.23-16.28L141.23-16.28Q141.72-15.16 141.72-13.88L141.72-13.88L141.72-6.16L141.72-6.16Q141.72-4.88 141.23-3.75L141.23-3.75L141.23-3.75Q140.75-2.63 139.91-1.80L139.91-1.80L139.91-1.80Q139.06-0.97 137.95-0.48L137.95-0.48L137.95-0.48Q136.84 0 135.56 0L135.56 0L114.81 0L114.81-6.16ZM180.09-27.13L180.09-6.16L180.09-6.16Q180.09-4.88 179.61-3.75L179.61-3.75L179.61-3.75Q179.13-2.63 178.30-1.80L178.30-1.80L178.30-1.80Q177.47-0.97 176.36-0.48L176.36-0.48L176.36-0.48Q175.25 0 173.97 0L173.97 0L157.44 0L157.44 0Q156.19 0 155.06-0.48L155.06-0.48L155.06-0.48Q153.94-0.97 153.11-1.80L153.11-1.80L153.11-1.80Q152.28-2.63 151.80-3.75L151.80-3.75L151.80-3.75Q151.31-4.88 151.31-6.16L151.31-6.16L151.31-27.13L151.31-27.13Q151.31-28.41 151.80-29.53L151.80-29.53L151.80-29.53Q152.28-30.66 153.11-31.48L153.11-31.48L153.11-31.48Q153.94-32.31 155.06-32.80L155.06-32.80L155.06-32.80Q156.19-33.28 157.44-33.28L157.44-33.28L173.97-33.28L173.97-33.28Q175.25-33.28 176.36-32.80L176.36-32.80L176.36-32.80Q177.47-32.31 178.30-31.48L178.30-31.48L178.30-31.48Q179.13-30.66 179.61-29.53L179.61-29.53L179.61-29.53Q180.09-28.41 180.09-27.13L180.09-27.13ZM173.97-27.13L157.44-27.13L157.44-6.16L173.97-6.16L173.97-27.13ZM213.63-39.94L202.69-39.94L202.69-33.28L213.63-33.28L213.63-27.13L202.69-27.13L202.69 0L196.53 0L196.53-27.13L188.41-27.13L188.41-33.28L196.53-33.28L196.53-39.94L196.53-39.94Q196.53-41.22 197.02-42.33L197.02-42.33L197.02-42.33Q197.50-43.44 198.34-44.28L198.34-44.28L198.34-44.28Q199.19-45.13 200.31-45.61L200.31-45.61L200.31-45.61Q201.44-46.09 202.69-46.09L202.69-46.09L213.63-46.09L213.63-39.94ZM220.03-27.13L220.03-33.28L228.16-33.28L228.16-43.53L234.31-43.53L234.31-33.28L245.25-33.28L245.25-27.13L234.31-27.13L234.31-6.16L245.25-6.16L245.25 0L234.31 0L234.31 0Q233.06 0 231.94-0.48L231.94-0.48L231.94-0.48Q230.81-0.97 229.97-1.80L229.97-1.80L229.97-1.80Q229.13-2.63 228.64-3.75L228.64-3.75L228.64-3.75Q228.16-4.88 228.16-6.16L228.16-6.16L228.16-27.13L220.03-27.13Z" fill="#ccc"></path></g></g><style>text {
  font-size: 64px;
  font-family: Arial Black;
  dominant-baseline: central;
  text-anchor: middle;
}</style></svg>