<svg width="360.4850219726562px" height="124.64000549316405px"  xmlns="http://www.w3.org/2000/svg" viewBox="69.75748901367189 12.679997253417973 360.4850219726562 124.64000549316405" style="background: rgba(0, 0, 0, 0);" preserveAspectRatio="xMidYMid"><defs><filter id="editing-hole" x="-100%" y="-100%" width="300%" height="300%"><feFlood flood-color="#000" result="black"></feFlood><feMorphology operator="dilate" radius="2" in="SourceGraphic" result="erode"></feMorphology><feGaussianBlur in="erode" stdDeviation="4" result="blur"></feGaussianBlur><feOffset in="blur" dx="2" dy="2" result="offset"></feOffset><feComposite operator="atop" in="offset" in2="black" result="merge"></feComposite><feComposite operator="in" in="merge" in2="SourceGraphic" result="inner-shadow"></feComposite></filter></defs><g filter="url(#editing-hole)"><g transform="translate(118.67003345489502, 104.76499938964844)"><path d="M5.13-6.16L5.13-27.13L5.13-27.13Q5.13-28.41 5.61-29.53L5.61-29.53L5.61-29.53Q6.09-30.66 6.92-31.48L6.92-31.48L6.92-31.48Q7.75-32.31 8.88-32.80L8.88-32.80L8.88-32.80Q10-33.28 11.25-33.28L11.25-33.28L28.41-33.28L28.41-46.09L34.56-46.09L34.56 0L28.41 0L28.41-5.63L28.41-5.63Q28.31-4.47 27.78-3.44L27.78-3.44L27.78-3.44Q27.25-2.41 26.42-1.64L26.42-1.64L26.42-1.64Q25.59-0.88 24.53-0.44L24.53-0.44L24.53-0.44Q23.47 0 22.28 0L22.28 0L11.25 0L11.25 0Q10 0 8.88-0.48L8.88-0.48L8.88-0.48Q7.75-0.97 6.92-1.80L6.92-1.80L6.92-1.80Q6.09-2.63 5.61-3.75L5.61-3.75L5.61-3.75Q5.13-4.88 5.13-6.16L5.13-6.16ZM11.25-27.13L11.25-6.16L28.41-6.16L28.41-27.13L11.25-27.13ZM72.97-27.13L72.97-13.50L50.94-13.50L50.94-6.16L72.97-6.16L72.97 0L50.94 0L50.94 0Q49.69 0 48.56-0.48L48.56-0.48L48.56-0.48Q47.44-0.97 46.61-1.80L46.61-1.80L46.61-1.80Q45.78-2.63 45.30-3.75L45.30-3.75L45.30-3.75Q44.81-4.88 44.81-6.16L44.81-6.16L44.81-27.13L44.81-27.13Q44.81-28.41 45.30-29.53L45.30-29.53L45.30-29.53Q45.78-30.66 46.61-31.48L46.61-31.48L46.61-31.48Q47.44-32.31 48.56-32.80L48.56-32.80L48.56-32.80Q49.69-33.28 50.94-33.28L50.94-33.28L66.81-33.28L66.81-33.28Q68.09-33.28 69.22-32.80L69.22-32.80L69.22-32.80Q70.34-32.31 71.17-31.48L71.17-31.48L71.17-31.48Q72-30.66 72.48-29.53L72.48-29.53L72.48-29.53Q72.97-28.41 72.97-27.13L72.97-27.13ZM66.81-27.13L50.94-27.13L50.94-19.66L66.81-19.66L66.81-27.13ZM112.66-27.13L112.66-6.16L112.66-6.16Q112.66-4.88 112.17-3.75L112.17-3.75L112.17-3.75Q111.69-2.63 110.86-1.80L110.86-1.80L110.86-1.80Q110.03-0.97 108.91-0.48L108.91-0.48L108.91-0.48Q107.78 0 106.50 0L106.50 0L89.34 0L89.34 0Q88.09 0 86.97-0.48L86.97-0.48L86.97-0.48Q85.84-0.97 85.02-1.80L85.02-1.80L85.02-1.80Q84.19-2.63 83.70-3.75L83.70-3.75L83.70-3.75Q83.22-4.88 83.22-6.16L83.22-6.16L83.22-46.09L89.34-46.09L89.34-27.41L89.34-27.41Q89.41-28.63 89.91-29.70L89.91-29.70L89.91-29.70Q90.41-30.78 91.23-31.58L91.23-31.58L91.23-31.58Q92.06-32.38 93.16-32.83L93.16-32.83L93.16-32.83Q94.25-33.28 95.50-33.28L95.50-33.28L106.50-33.28L106.50-33.28Q107.78-33.28 108.91-32.80L108.91-32.80L108.91-32.80Q110.03-32.31 110.86-31.48L110.86-31.48L110.86-31.48Q111.69-30.66 112.17-29.53L112.17-29.53L112.17-29.53Q112.66-28.41 112.66-27.13L112.66-27.13ZM106.50-27.13L89.34-27.13L89.34-6.16L106.50-6.16L106.50-27.13ZM120.97-27.13L120.97-33.28L129.09-33.28L129.09-43.53L135.25-43.53L135.25-33.28L146.19-33.28L146.19-27.13L135.25-27.13L135.25-6.16L146.19-6.16L146.19 0L135.25 0L135.25 0Q134 0 132.88-0.48L132.88-0.48L132.88-0.48Q131.75-0.97 130.91-1.80L130.91-1.80L130.91-1.80Q130.06-2.63 129.58-3.75L129.58-3.75L129.58-3.75Q129.09-4.88 129.09-6.16L129.09-6.16L129.09-27.13L120.97-27.13ZM185.88-27.13L185.88-6.16L185.88-6.16Q185.88-4.88 185.39-3.75L185.39-3.75L185.39-3.75Q184.91-2.63 184.08-1.80L184.08-1.80L184.08-1.80Q183.25-0.97 182.13-0.48L182.13-0.48L182.13-0.48Q181 0 179.72 0L179.72 0L162.56 0L162.56 13.44L156.44 13.44L156.44-33.28L162.56-33.28L162.56-27.66L162.56-27.66Q162.66-28.84 163.19-29.86L163.19-29.86L163.19-29.86Q163.72-30.88 164.53-31.64L164.53-31.64L164.53-31.64Q165.34-32.41 166.42-32.84L166.42-32.84L166.42-32.84Q167.50-33.28 168.72-33.28L168.72-33.28L179.72-33.28L179.72-33.28Q181-33.28 182.13-32.80L182.13-32.80L182.13-32.80Q183.25-32.31 184.08-31.48L184.08-31.48L184.08-31.48Q184.91-30.66 185.39-29.53L185.39-29.53L185.39-29.53Q185.88-28.41 185.88-27.13L185.88-27.13ZM162.56-6.16L179.72-6.16L179.72-27.13L162.56-27.13L162.56-6.16ZM214.94-27.13L202.25-27.13L202.25 0L196.13 0L196.13-33.28L202.25-33.28L202.25-27.41L202.25-27.41Q202.31-28.63 202.81-29.70L202.81-29.70L202.81-29.70Q203.31-30.78 204.14-31.58L204.14-31.58L204.14-31.58Q204.97-32.38 206.06-32.83L206.06-32.83L206.06-32.83Q207.16-33.28 208.41-33.28L208.41-33.28L214.94-33.28L214.94-33.28Q216.22-33.28 217.33-32.80L217.33-32.80L217.33-32.80Q218.44-32.31 219.28-31.48L219.28-31.48L219.28-31.48Q220.13-30.66 220.61-29.53L220.61-29.53L220.61-29.53Q221.09-28.41 221.09-27.13L221.09-27.13L221.09-21.50L214.94-21.50L214.94-27.13ZM257.53-27.13L257.53-6.16L257.53-6.16Q257.53-4.88 257.05-3.75L257.05-3.75L257.05-3.75Q256.56-2.63 255.73-1.80L255.73-1.80L255.73-1.80Q254.91-0.97 253.80-0.48L253.80-0.48L253.80-0.48Q252.69 0 251.41 0L251.41 0L234.88 0L234.88 0Q233.63 0 232.50-0.48L232.50-0.48L232.50-0.48Q231.38-0.97 230.55-1.80L230.55-1.80L230.55-1.80Q229.72-2.63 229.23-3.75L229.23-3.75L229.23-3.75Q228.75-4.88 228.75-6.16L228.75-6.16L228.75-27.13L228.75-27.13Q228.75-28.41 229.23-29.53L229.23-29.53L229.23-29.53Q229.72-30.66 230.55-31.48L230.55-31.48L230.55-31.48Q231.38-32.31 232.50-32.80L232.50-32.80L232.50-32.80Q233.63-33.28 234.88-33.28L234.88-33.28L251.41-33.28L251.41-33.28Q252.69-33.28 253.80-32.80L253.80-32.80L253.80-32.80Q254.91-32.31 255.73-31.48L255.73-31.48L255.73-31.48Q256.56-30.66 257.05-29.53L257.05-29.53L257.05-29.53Q257.53-28.41 257.53-27.13L257.53-27.13ZM251.41-27.13L234.88-27.13L234.88-6.16L251.41-6.16L251.41-27.13Z" fill="#ccc"></path></g></g><style>text {
  font-size: 64px;
  font-family: Arial Black;
  dominant-baseline: central;
  text-anchor: middle;
}</style></svg>