<?xml version="1.0" encoding="UTF-8"?>
<svg version="1.1" viewBox="0 0 1600 1439" width="1280" height="1280" xmlns="http://www.w3.org/2000/svg">
<path transform="translate(833,374)" d="m0 0h58l46 4 30 4 29 5 36 9 29 9 25 9 30 13 29 14 20 11 23 14 17 11 20 14 15 12 16 12 13 11 15 14 32 32 7 8 9 10 7 9 12 15 12 16 13 19 12 19 11 19 12 23 12 24 12 28 10 27 12 42 6 26 6 31 5 40 3 12-5 2-126 1h-49l-3-4-3-24-8-38-12-38-8-20-6-14-8-16-11-21-12-19-15-22-10-13-12-14-9-11-19-19-8-7-10-9-10-8-17-13-22-14-16-10-31-16-23-10-36-12-25-7-37-7-20-2-20-1h-49l-29 2-24 4-23 5-35 10-20 7-25 11-16 8-19 10-24 15-18 13-14 11-28 24-12 12-9 11-11 13-9 11-8 11-11 16-9 14-11 19-8 15-12 28-11 30-9 31-7 34-2 19-3 4h-177l-2-2 3-22 6-42 9-41 9-31 12-35 12-29 14-29 15-29 12-19 9-14 15-22 13-18 11-14 13-14 7-8 7-7 7-8 19-19 8-7 16-15 16-13 19-14 14-10 15-10 23-14 18-10 27-14 28-13 43-16 28-8 37-9 34-6 50-5z" fill="#FDAA4C"/>
<path transform="translate(837,618)" d="m0 0h40l28 1 27 3 30 7 26 9 27 11 25 12 23 14 17 12 12 9 13 11 10 9 32 32 2 5-8 6-18 10-13 8-28 16-26 15-24 14-26 15-29 17-26 15-24 14-15 9-7-1-10-4-12-2-12-1h-14l-18 2-16 5-14 7-13 10-8 8-9 13-9 14h-267l-6-2v-10l9-40 7-24 11-28 14-29 13-22 8-11 10-14 8-10 11-13 9-11 14-14 14-11 10-9 13-10 11-7 15-10 18-10 25-12 25-10 31-9 12-2 7-3 6-1h10l7-2z" fill="#FDA94B"/>
<path transform="translate(1054,403)" d="m0 0 27 9 26 11 30 14 23 12 20 12 19 12 19 13 12 9 18 14 13 10 12 11 8 7 35 35 7 8 9 10 7 9 12 15 12 16 13 19 12 19 11 19 12 23 12 24 12 28 10 27 12 42 6 26 6 31 5 40 3 12-5 2-126 1h-49l-3-4-3-24-8-38-12-38-8-20-6-14-8-16-11-21-12-19-15-22-10-13-12-14-9-11-19-19-8-7-10-9-10-8-17-13-22-14-16-10-31-16-23-10-29-10 4-8 20-59 7-19 12-33 12-39 3-11z" fill="#A0C751"/>
<path transform="translate(697,493)" d="m0 0 5 1 6 14 2 8 13 37 5 12v9l-27 10-33 15-22 12-24 15-18 13-14 11-28 24-12 12-9 11-11 13-9 11-8 11-11 16-9 14-11 19-8 15-12 28-11 30-9 31-7 34-2 19-3 4h-177l-2-2 3-22 6-42 9-41 9-31 12-35 12-29 14-29 15-29 12-19 9-14 10-15h3v-2l6-1 2 1v2l5 2 15 9 27 18 10 6 13 2-3 6 5-3h2v-2l4-3h2l2-4 3-4h2l1-3h2l2-5 8-7h2l2-4 15-15 10-8 6-7 5-2v-2h2v-2l5-2v-2h2v-2l8-6 9-7h2v-2l9-7h2v-2l4-3h2v-2l11-7 10-7 7-5 5-3 12-9 15-8 5-4 16-8 11-6 8-4 15-6 11-4z" fill="#E55232"/>
<path transform="translate(1028,488)" d="m0 0 2 3 3 3 23 8 19 8 16 8 23 12 25 15 11 7 17 12 12 9 12 10 22 18 7 7 3 2v2l3 1v2l4 2 18 18 2 1v2h2l4 4v2h2l5 6 5 5 16 17 5 4 10-2-2 4-4 3-5 1 2 3-4 3 5 3 7 8 6 8 14 25 8 17 4 9 8 21 4 10 6 17 6 19 3 13 2 4 4 16 3 13 5 19 4 16 2 10 1 8 1 16-1 1-47 1-36-1-1-2-3-24-8-38-12-38-8-20-6-14-8-16-11-21-12-19-15-22-10-13-12-14-9-11-19-19-8-7-10-9-10-8-17-13-22-14-16-10-31-16-23-10-29-10 4-8 20-59 5-14h2z" fill="#539032"/>
<path transform="translate(833,374)" d="m0 0h58l46 4 30 4 29 5 36 9 20 6 2 2-6 20-11 36-10 27-1 2h-6l-18-7-5-2-17-4-12-3-14-3-43-4-51-3-46 1-20 2-29 5-25 5-27 7-2 1h-9l-3-3-5-13-8-21-6-20-7-16-1-1h-10l-14 5-11 3-8 5-16 7-16 6-21 11-10 6-11 8-11 7-7 4-6 4-7 4-6 5-11 8h-2v2l-6 4-8 6-4 4h-2v2h-2v2l-17 13-3 3h-2l-2 4-9 7-4 4h-2v2l-7 6-13 13-5 6h-2l-2 4-9 8-14 14-4 8-7 6-4 4 2-5 13-16 12-13 7-8 7-7 7-8 19-19 8-7 16-15 16-13 19-14 14-10 15-10 23-14 18-10 27-14 28-13 43-16 28-8 37-9 34-6 50-5z" fill="#FED263"/>
<path transform="translate(1172,764)" d="m0 0h2v4l-9 7-15 13-10 9-14 11-10 9-8 7-11 10-8 7-13 12-11 9-13 12-14 12-12 11-8 7-11 10-11 9-10 9-12 11-13 12-11 9-7 7 2 10v9l-5 21-8 16-10 13-10 9-14 8-8 3-19 4h-18l-18-4-16-8-11-9-9-10-8-14-6-14-3-13v-15l4-19 6-14 7-10 9-10 11-9 16-8 15-4 6-1h17l17 4 10 4 5 4 8 1 11-7 39-22 24-14 26-15 17-10 21-12 17-10 29-17 23-13 14-8 15-9 17-10z" fill="#092653"/>
<path transform="translate(980,636)" d="m0 0 10 3 25 10 25 12 23 14 17 12 12 9 13 11 10 9 32 32 2 5-8 6-18 10-13 8-28 16-26 15-24 14-26 15-29 17-26 15-24 14-15 9-7-1-7-4v-7l5-16 24-73 19-55 13-40 15-47z" fill="#A0C751"/>
<path transform="translate(1353,625)" d="m0 0 4 1 5 7 8 7 13 20 15 25 14 27 11 22 12 28 10 27 12 42 6 26 6 31 5 40 3 12-5 2-126 1h-49l-1-2h42l40-1-1-18-1-9-3-9-5-21-2-8-3-15-4-12-2-8-2-7-6-20-5-16-6-16-9-23-5-11-10-21-8-13-5-9-7-8v-2l-3-1-2-3-4-2 4-3-2-3 7-3 5-5 5-4 5-3 3-1 2-4 3-1v-2l5-4h2l2-4 8-6 10-9 6-3h2z" fill="#49DA4B"/>
<path transform="translate(559,780)" d="m0 0 4 1 9 1 16 8 10 6 12 8 16 10 19 13 13 10 19 14 17 12 15 10 8 6 6 3 10 7 20 8 8 3h6l5-3 6 3h4v4h3v2h2l1 2v6l-6 8-2 5-10 16h-267l-6-2v-10l9-40 7-24 11-28 14-29 13-22 5-6z" fill="#DC474A"/>
<path transform="translate(367,635)" d="m0 0 4 2v2h8l16 10 21 14 11 7 10 6 4 4 2 1v2h-7l-6 7-4 8-6 10h-2l-2 6-8 14-11 23-10 20-5 11-6 16-1 5h-2l-3 13-4 11-5 17-7 28-3 13-3 12-4 21-1 13 3 6 9 2 54 1 21 1v1h-177l-2-2 3-22 6-42 9-41 9-31 12-35 12-29 14-29 15-29 12-19 9-14 5-5h2l2-5 3-3z" fill="#DC454A"/>
<path transform="translate(849,462)" d="m0 0h12l53 3 40 4 14 3 20 5 11 3 19 7 7 2-2 9-19 55-6 17-2 2-8-1-25-7-37-7-20-2-20-1h-49l-29 2-24 4-23 5-33 9-1-9-9-23-9-26-1-2v-6l4 1 1-2 2 1v-6l5-5 1-5 13-5 4-3 17-5 6-2 16-3-24 4-28 6-16 4h-5l-1-2 2-1h6v-2l21-6 17-4 33-6 18-3 17-1z" fill="#F4A632"/>
<path transform="translate(837,618)" d="m0 0h40l28 1 27 3 30 7 18 6-3 10-6 16-12 38-14 43-7 20-3-1-4-10-2-2h-3l-3-4v-2l-5-2-3-2-2-3-20-3-9-1h-9l-17 2h-24l-18 1-9 1-5 2-9-2-10-5-7-14-5-15-4-13-7-19-8-16-5-5-8-2-4-2-7 2-5 1-18 6-12 6-3-1 27-13 25-10 31-9 12-2 7-3 6-1h10l7-2z" fill="#FED163"/>
<path transform="translate(436,682)" d="m0 0 7 1 8 6 5 4 10 5 11 7 16 8 3 1h13l7-2 5 3 1 5-8 10-7 11-11 16-13 22-9 17-12 28-11 30-9 31-7 34-2 19-2 3h-36l-40-1-9-2-3-5-1-7 3-20 3-13 4-16 2-10 4-14 2-9 8-26 5-15h2l1-8 5-13 7-15 11-22 10-21 7-11 2-5h2l6-12 6-10 3-1z" fill="#AF121D"/>
<path transform="translate(1285,683)" d="m0 0 5 1-4 4 5 3 7 8 6 8 14 25 8 17 4 9 8 21 4 10 6 17 6 19 3 13 2 4 4 16 3 13 5 19 4 16 2 10 1 8 1 16-1 1-47 1-36-1-1-2-3-24-8-38-12-38-8-20-6-14-8-16-11-21-12-19-15-22-10-13-6-7-3-7-2-1-3-6 10 3 18 7 15 8h7l16-9 11-7 10-5z" fill="#01A31D"/>
<path transform="translate(1177,790)" d="m0 0 4 4 6 12 10 19 8 17 8 21 9 31 6 24 3 18v5l-4 2-221 1 2-4 8-8 11-9 7-7 8-7 11-10 8-7 10-9 11-9 12-11 13-12 8-7 28-24 11-9 7-7 8-7z" fill="#49D94A"/>
<path transform="translate(787,762)" d="m0 0 2 1 13 38 13 33 7 12 7 15 5 10v6l-1 3v5l-2 3-15 6-14 9-12 11-7 9-2-1 6-8v-8h-2v-2h-3v-4l-5 1-5-3-5 3h-6l-9-3-9-4-12-5-11-8-7-4-10-7-19-13-18-13-13-10-15-11-23-15-11-7-14-9-16-8-7-2h-6-3l-2-1 6-8 4-2 12 9 15 10 22 15 27 18 22 12 8 3 8 1 10-3 16-8 5-2 16-12 8-7 15-10 24-13h2l2-6 4-7 4-8z" fill="#F97257"/>
<path transform="translate(1028,488)" d="m0 0 2 3 3 3 23 8 19 8 16 8 23 12 25 15 11 7 17 12 12 9 12 10 22 18 7 7 3 2v2l3 1v2l4 2 18 18 2 1v2h2l4 4v2h2l5 6 5 5 16 17 5 4 10-2-2 4-4 3-7-1-3-1-4 1h-8l-10-5-4-5-9-6-9-1-11-7-4-3-5-1-17-9-11-6-8-3-8-6-7-5-6-2v-2l-4-1-5-4-9-4-3-2-3-6-4-2-6-1-3-2-1-3-5-2-2-4-4-3h-3l-3-3 1-1-17-12-12-7-11-6-7-3-9-6-14-9-7-1-4-1-4-9v-10l3-17h-2l-1 3h-2l3-11h2z" fill="#6BA432"/>
<path transform="translate(968,673)" d="m0 0 1 3-10 33-6 21-2 6-5 27v6h2l1 2h2v2l15-1 3-1 9 3 24 3 5 2 6-3 2 2 4-2 5 1 3-2 9 6v-2h16l6 3 4 1h5l1 5v2l-2 2 1 7-3 3h-2l-2 4-18 10-17 10-26 15-22 13-26 15-24 14-15 9-7-1-7-4v-7l5-16 24-73 19-55 13-40 4-13h2z" fill="#81B250"/>
<path transform="translate(703,529)" d="m0 0 5 1 5 5 5 8 2 7h2l6 15v9l-27 10-33 15-22 12-24 15-18 13-14 11-28 24-12 12-9 11-11 13-7 9-2-4-7-2-5 2h-13l-7-3-16-8-14-9-7-4-7-6-2-2 6 1 13 9 10 2 11-4 9-8h2l2-4 10-7h2v-2l6-4h2l2-4 10-8 17-12 11-9 10-8 5-3 3-3 11-7 10-7 2-4 7-4 10-8 9-5 6-6 12-6 5-5 7-6 8-4 9-7 6-3 10-6 6-4 3-1v-2l5-4z" fill="#D74725"/>
<path transform="translate(1187,693)" d="m0 0 10 3 18 7 15 8h7l16-9 11-7 2 1-8 6-11 9v2l4 1 6 7v2l4 1 4 6 1 8h2l5 22 2 1 4 13 2 10 4 12 2 2 2 6 18 45 10 26 8 21 3 8 3 3 11 22-1 8-4 4h-42l-1-2-3-24-8-38-12-38-8-20-6-14-8-16-11-21-12-19-15-22-10-13-6-7-3-7-2-1z" fill="#07901B"/>
<path transform="translate(708,511)" d="m0 0 3 4 5 12 4 7 2 1v2h11l14-2 20-4 40-2 11-1h18l30 2h27l31 1h12l12-1 22 3 7 2 10 2 12 1 7 3-3 15-5 14-2 2-8-1-25-7-37-7-20-2-20-1h-49l-29 2-24 4-23 5-33 9-1-9-9-23-9-26z" fill="#E08833"/>
<path transform="translate(697,493)" d="m0 0 5 1 6 14-1 3v-2h-2l-3-5-2-1-7 4-7 6-8 4-15 9-9 7-6 3-5 4-10 7-12 11-14 9-6 5-3 3-11 7-7 7-10 7-5 4-6 4-8 7-26 20-15 10-14 8-4 2-2 4-9 5-8 7-7 6h-2l-2 5-8 4h-6l-9-4-9-5-14-9-15-10-14-9-8-5-8-1v-2l-4-1-5 3-3 5-4 2 2-5 5-7h3v-2l6-1 2 1v2l5 2 15 9 27 18 10 6 13 2-3 6 5-3h2v-2l4-3h2l2-4 3-4h2l1-3h2l2-5 8-7h2l2-4 15-15 10-8 6-7 5-2v-2h2v-2l5-2v-2h2v-2l8-6 9-7h2v-2l9-7h2v-2l4-3h2v-2l11-7 10-7 7-5 5-3 12-9 15-8 5-4 16-8 11-6 8-4 15-6 11-4z" fill="#F87134"/>
<path transform="translate(1025,498)" d="m0 0 2 4-3 15v10l3 9 11 1 11 7 15 10 10 4 13 8 7 4 15 11 2 4h3l5 4v3l5 1 1 4 6 2 6 1 4 5v3l5 2 10 5 3 3 3 1v2l6 1 9 7 10 6 7 3 32 16 10 6 4 2 10 2 10 8 2 3 9 4h8l5-1 4 2-1 3-10 6-10 3-7 2h-12v-2h-5l-6-4-13-6-15-5v-2l-5-2-16-11-10-5-5-4-5-5-6-5-6-4-22-18-13-8-8-5-12-9-16-11-33-17-7-5-10-3-16-8-2-5-1-7v-18l-1 2h-2l2-9 5-14 3-1 1-4z" fill="#5C9930"/>
<path transform="translate(774,723)" d="m0 0h2l6 16 7 22-1 2-2 1-4 10-5 8-3 3-26 14-14 10-8 7-16 12-10 4-15 7-7 1-8-2-10-4-12-7-11-6-44-30-7-5 2-1 12 7v2l5 1 14 8 5 3 14 4h17l8-6 7 1 13-10 9-4 5-3 10-7 12-9 6-6 4-2 3-5 9-6 6-3 2-4 6-3h2l1-5 12-7z" fill="#FA9549"/>
<path transform="translate(787,762)" d="m0 0 2 1 13 38 13 33 7 12 7 15 5 10v6l-1 3v5l-2 3-4 1 1-4-2-15-7-17-5-14-7-18-3-9h-2l-1-3h-7v3l-5 5-7 8h-2l-1 3-13 5h-3l-1 3-9 6-14 9-10 6-5 2v2l-9 4h-9l-11-2-8-6-7-3-15-11-19-14-11-8-20-13-11-7-14-9-16-8-7-2h-6-3l-2-1 6-8 4-2 12 9 15 10 22 15 27 18 22 12 8 3 8 1 10-3 16-8 5-2 16-12 8-7 15-10 24-13h2l2-6 4-7 4-8z" fill="#FB8051"/>
<path transform="translate(1113,848)" d="m0 0 3 1-5 10h-2l-3 11v22l4 13 4 9h2l2 6 4 2 9 4 6 4 2 6-4 1-1 2-12 2-75 1-37-1 1-4 13-12 8-7 12-11 14-12 13-12 11-9 12-11 13-12z" fill="#40BC42"/>
<path transform="translate(692,872)" d="m0 0h8l9 7 5 2 20 15 15 10 24 15 8 3-2 5-8 12h-44l-15-1-16-2-3-1-27-6-5-4v-6l-1-4 2-5 3-3h2l2-5 1-8 10-20 5-1 1-2h5z" fill="#B0121D"/>
<path transform="translate(800,795)" d="m0 0 3 3 6 12 10 13 4 2 10 3h23l7-2 1-2 11-1 5-1 10 4 2-1 5 4 1 5 6 1 5 1 4-2-3 12-10 30-2 11-27-3h-14l-18 2-8 1 1-7 1-9-7-14-5-11-8-14-13-34z" fill="#F99548"/>
<path transform="translate(953,719)" d="m0 0 1 3-8 26-7 24-3 12-8 31-2 11 1 7h8v-2l9-4 3-3 6-1h8l3 1 1-2 13-2 4-1 3 1h13l3 1v2h3v2l5 2 1 4-5 5-12 7-4 4-24 14-26 15-22 13-5 3-7-1-7-4v-7l5-16 24-73 19-55 5-15z" fill="#6BA432"/>
<path transform="translate(1270,699)" d="m0 0h2l3 12 2 6 3 1 5 12 4 12 5 18 3 10 10 30 5 16 6 17 6 14 3 8 3 7 4 12 4 4 6 14 3 12v3l3 1 6 17 2 10-2 5-2 1-23 1v-1l8-1 2-11-11-22v-2l-3-1-7-18-9-25-5-12-11-28-7-17-3-7-4-9-6-24v-3l-3-1-4-19v-3h-2l-3-10-3-4-3-1-3-5-3-2v-2h-5l-1-3 10-4 10-6z" fill="#02981B"/>
<path transform="translate(708,508)" d="m0 0 3 2 4 8v2h6l5 1 14-1 12-2 4-1 14-1 5 1 2-1h21l10-1v1l51 1h54l20 1h28l25 2 2 1 1-2 7 2h10l7 1 2-7 1 3-11 32-1-4 2-5-7-2-12-1-10-2-12-3-19-2-12 1h-18l-34-1h-16l-35-2h-13l-30 2-22 1-24 5-16 1-4-1v-2l-3-1-8-16-3-7z" fill="#EC9833"/>
<path transform="translate(691,478)" d="m0 0 5 2 6 10 1 6-2-2-6 1-13 7-12 4-12 5-16 8-22 12-9 6-11 6-10 8-11 7-16 11-5 2v2l-4 3h-2v2l-8 6-3 1v2l-11 8-6 5h-2v2h-2v2l-5 2v2h-2v2l-5 3-3 4h-2l-2 4-9 7-25 25h-2l-2 5-3 3h-2l-2 4-5 5-4 2v2l-5 3h-2l2-5-12-2-12-7-33-22-12-7v-2l-2-1 5 1 8 5 16 9 10 7 7 4 10 2v-2h4l1-3 6-3 3 2 4-2 5-5 9-8 5-5 10-8 2-3h2v-2l6-3 5-3 6-4 11-10 6-4 15-13 9-7 10-8 24-18 10-6 12-8 3-1 4-4 21-11 14-6 3-3 5-2 12-7 5-1 1-2 3-3 4-2 9-4 10-6z" fill="#FA9549"/>
<path transform="translate(1288,681)" d="m0 0h6v2l3 1 6 10 9 13 11 22 6 9 4 10 6 12 4 10 5 10 11 30 9 27 8 31 5 26 5 19 5 13 3 5 1 9-1 1-7 1-41 1h-49l-1-2h42l40-1-1-18-1-9-3-9-5-21-2-8-3-15-4-12-2-8-2-7-6-20-5-16-6-16-9-23-5-11-10-21-8-13-5-9-7-8v-2l-3-1-2-3-4-2 4-3-2-3z" fill="#43BE46"/>
<path transform="translate(953,719)" d="m0 0 1 3-8 26-7 24-3 12-6 22h-2l-1 6-4 14-2 9-2 4-1 9 2 5 1 7 3 2 4-3h4l3 4v3l-4 1v3l-4 1v4l-2 1-2 7-5 1-2 4-7 3-6-1-5-3v-7l5-16 24-73 19-55 5-15z" fill="#619C33"/>
<path transform="translate(1030,482)" d="m0 0 2 2 2 7 6 3 18 6 25 11 23 11 18 10 15 9 23 15 18 13 8 7 2 1v2l5 2 8 7 10 8 8 7v2h2v2l4 2 34 34 7 6 5 6v2l3 1 7 8 5 3 12-3 11-4 8-6 2 1-4 2v2l-8 7-9 6-8 3-5-1-13-13-7-8-2-4-4-2-3-3v-2h-2l-4-4v-2h-2v-2l-4-2-18-18-5-4-13-13-9-7-12-10-11-9-19-14-28-18-26-15-26-13-26-11-22-8-3-5-3 3 1-5 1-2h2z" fill="#81B24F"/>
<path transform="translate(660,407)" d="m0 0 3 1-1 2-14 5-11 3-8 5-16 7-16 6-21 11-10 6-11 8-11 7-7 4-6 4-7 4-6 5-11 8h-2v2l-6 4-8 6-4 4h-2v2h-2v2l-17 13-3 3h-2l-2 4-9 7-4 4h-2v2l-7 6-13 13-5 6h-2l-2 4-9 8-14 14-4 8-7 6-4 4 2-5 13-16 12-13 7-8 7-7 7-8 19-19 8-7 16-15 16-13 19-14 14-10 15-10 23-14 18-10 27-14 28-13z" fill="#FED264"/>
<path transform="translate(723,655)" d="m0 0h9l8 3-2 1h-20l-17 4-9 4-3 3-13 4-14 9-2 5-7 6-6 2-2 5-4 6-5 5-8 9-14 11-11 10-2-1 18-18 10-14 1-6 5-8 13-10 11-7 15-10 14-8 8-2 5 1 5-2z" fill="#F5AA35"/>
<path transform="translate(1050,904)" d="m0 0 3 1-1 6-3 9 1 4h-3l-1 3-4 1-1 3-8 3-3 6h-18l2-4 10-11 8-7 12-11z" fill="#04A31E"/>
<path transform="translate(367,631)" d="m0 0 6 1v2l5 2 15 9 27 18 10 6 13 2-3 6h12l7-3 9-8 5-2 3-1v2l-5 3-5 5h-2l-2 5-8 4h-6l-9-4-9-5-14-9-15-10-14-9-8-5-8-1v-2l-4-1-5 3-3 5-4 2 2-5 5-7h3v-2z" fill="#FA7754"/>
<path transform="translate(699,495)" d="m0 0 3 2v2h2l4 9-1 3v-2h-2l-3-5-2-1-7 4-7 6-8 4-15 9-9 7-6 3-5 4-2-1 3-1v-2l4-3h2l1-4 8-6h2v-2l4-1v-2l5-3 9-3 1-2 2 1v-2l4-1v-2l7-5 1-2h2v-2h3z" fill="#F97255"/>
<path transform="translate(565,771)" d="m0 0 5 3 11 8 12 8 22 15 30 20-1 2-29-19-11-7-14-9-16-8-7-2h-6-3l-2-1 6-8z" fill="#F97556"/>
<path transform="translate(806,816)" d="m0 0h2l8 20 6 10 7 15 5 10v6l-1 3v5l-2 3-4 1 1-4-2-15-7-17-5-14-7-18z" fill="#FC8150"/>
<path transform="translate(254,918)" d="m0 0h1v21l58 1h96l21 1v1h-177l-2-2z" fill="#F57451"/>
<path transform="translate(1009,939)" d="m0 0 1 2h220l-3 2-221 1 2-4z" fill="#9CC453"/>
<path transform="translate(953,719)" d="m0 0 1 3-8 26-7 24-3 12-5 19h-1l1-9 2-12-2 1 2-9 18-53z" fill="#74AA3A"/>
<path transform="translate(718,556)" d="m0 0 4 4 3 6v7l2 1-10 4-5-1-3-5 2-6 5-9z" fill="#B1141D"/>
<path transform="translate(628,701)" d="m0 0 2 1-4 5-5 5-10 9h-2v2h-2l-2 4-9 10-5 5-4 2-1 3h-2l-1 3h-2l-2 4-4 2 6-8 12-14 11-12 7-7 14-11z" fill="#FFD263"/>
<path transform="translate(1094,863)" d="m0 0 3 1-5 8-8 8h-2v2l-5 1-2 5-4 5-9 6-1-4 11-11 6-7 11-9z" fill="#10A725"/>
<path transform="translate(660,407)" d="m0 0 3 1-1 2-14 5-11 3-8 5-16 7-13 4v-2l28-13z" fill="#FED87A"/>
<path transform="translate(474,663)" d="m0 0h2v2l-5 3-5 5h-2l-2 5-8 4h-6l-9-4 4-1h9l7-3 9-8 5-2z" fill="#F97257"/>
<path transform="translate(497,931)" d="m0 0h1v8l25 1 49 1v1h-74l-1-1z" fill="#F97356"/>
<path transform="translate(367,631)" d="m0 0 6 1v2l5 2 7 4 1 3-5-2-10-2v-2l-4-1-5 3-3 5-4 2 2-5 5-7h3v-2z" fill="#F97456"/>
<path transform="translate(1357,630)" d="m0 0 4 1 6 7 4 3 2 8-6-2-7-8-3-7z" fill="#53C24D"/>
<path transform="translate(968,673)" d="m0 0 1 3-10 33-2 2-2-1 3-11 5-16h2z" fill="#86B550"/>
<path transform="translate(597,794)" d="m0 0 5 2 23 16 17 11 3 2-1 2-29-19-11-7-7-5z" fill="#FA7754"/>
<path transform="translate(254,918)" d="m0 0h1v21h2v2h27v1h-31l-2-2z" fill="#FBA775"/>
<path transform="translate(938,769)" d="m0 0 1 3-3 12-5 19h-1l1-9 2-12-2 1 2-9z" fill="#6BA432"/>
<path transform="translate(1026,925)" d="m0 0v3l-4 6 2 2v4h-12l2-4 10-9z" fill="#018B18"/>
<path transform="translate(941,751)" d="m0 0 3 2-3 11-3 7-4 3 2-9z" fill="#74AA3A"/>
<path transform="translate(1227,923)" d="m0 0h2l2 13v5h-7z" fill="#338F42"/>
<path transform="translate(1430,756)" d="m0 0 2 3 6 13 2 3-1 3-5-5-7-14z" fill="#5CB944"/>
<path transform="translate(1144,651)" d="m0 0 8 4 4 4v4l5 6-4-2-7-7-5-4z" fill="#72BA72"/>
<path transform="translate(1016,932)" d="m0 0 2 1-6 7h18l1-4h4v3l3-1v3h-28l1-4z" fill="#58A740"/>
<path transform="translate(959,861)" d="m0 0 4 1-19 11-1-2h2v-4l9-4z" fill="#89B755"/>
<path transform="translate(956,709)" d="m0 0h1l-1 10-5 17-2 2 1-7 3-11-1-2 3-8z" fill="#7FB14B"/>
<path transform="translate(1400,697)" d="m0 0 3 1 7 13 1 5-5-5-6-9z" fill="#4ABE44"/>
<path transform="translate(1e3 559)" d="m0 0 1 3-4 9-1 1-8-1-3-2 10-3 2-3h2z" fill="#EC9F3C"/>
<path transform="translate(429,669)" d="m0 0 14 2-3 6-5-1-6-4z" fill="#FB7D52"/>
<path transform="translate(1248,785)" d="m0 0 4 4 8 17 3 6v2h-2l-13-27z" fill="#F8FAF4"/>
<path transform="translate(899,872)" d="m0 0 1 4-2 11-4-1-2-5 5-5z" fill="#EC9934"/>
<path transform="translate(1414,718)" d="m0 0 3 4 11 23-1 3-4-7-5-12-4-8z" fill="#FEFEFE"/>
<path transform="translate(1470,914)" d="m0 0h2l3 17 2 9-2 1-5-19z" fill="#FEFEFE"/>
<path transform="translate(385,641)" d="m0 0 5 2 15 10-4 1-14-9z" fill="#F97655"/>
<path transform="translate(1e3 486)" d="m0 0 6 2 8 4-1 2-5-1v2h-4z" fill="#FEAA4C"/>
<path transform="translate(660,407)" d="m0 0 3 1-1 2-14 5-3-1 4-3z" fill="#FED570"/>
<path transform="translate(968,673)" d="m0 0 1 3-5 16-4 3 2-9 1-3h2z" fill="#89B750"/>
<path transform="translate(367,631)" d="m0 0 6 1v2h-8v-2zm-5 3 3 1-6 9-4 2 2-5z" fill="#FB8455"/>
<path transform="translate(1454,827)" d="m0 0h2l4 16-1 4-5-14z" fill="#FEFEFE"/>
<path transform="translate(1376,651)" d="m0 0 4 4 7 11-1 2-5-4-4-9z" fill="#B8E6A0"/>
<path transform="translate(1374,656)" d="m0 0 4 2 6 8 1 5-5-5-5-6z" fill="#40BD43"/>
<path transform="translate(389,599)" d="m0 0 1 3-4 5-5 4-4 4 2-5 6-8z" fill="#FED56E"/>
<path transform="translate(1009,939)" d="m0 0 1 2 22 1v1l-26 1 2-4z" fill="#C5E2A4"/>
<path transform="translate(1447,803)" d="m0 0h2l4 13-1 4-4-8z" fill="#FEFEFE"/>
<path transform="translate(1044,907)" d="m0 0v3l-10 10-4 3-2-1z" fill="#43B63B"/>
<path transform="translate(946,741)" d="m0 0 1 4-3 8-2 1 1-9 1-3z" fill="#6EA637"/>
<path transform="translate(999,565)" d="m0 0h1v6h2v3l4 1-2 1-9-3z" fill="#77AC41"/>
<path transform="translate(1219,887)" d="m0 0 2 3 1 8-4-2v-8z" fill="#5F9737"/>
<path transform="translate(936,772)" d="m0 0 1 2-2 7-4 2 2-9z" fill="#6CA43A"/>
<path transform="translate(1240,770)" d="m0 0 5 5 3 5v5l-3-4-5-9z" fill="#F0F7EC"/>
</svg>
