<svg width="360.4850219726562px" height="124.64000549316405px"  xmlns="http://www.w3.org/2000/svg" viewBox="69.75748901367189 12.679997253417973 360.4850219726562 124.64000549316405" style="background: rgba(0, 0, 0, 0);" preserveAspectRatio="xMidYMid"><defs><filter id="editing-hole" x="-100%" y="-100%" width="300%" height="300%"><feFlood flood-color="#000" result="black"></feFlood><feMorphology operator="dilate" radius="2" in="SourceGraphic" result="erode"></feMorphology><feGaussianBlur in="erode" stdDeviation="4" result="blur"></feGaussianBlur><feOffset in="blur" dx="2" dy="2" result="offset"></feOffset><feComposite operator="atop" in="offset" in2="black" result="merge"></feComposite><feComposite operator="in" in="merge" in2="SourceGraphic" result="inner-shadow"></feComposite></filter></defs><g filter="url(#editing-hole)"><g transform="translate(73.78001880645752, 98.04500007629395)"><path d="M5.13-6.16L5.13-27.13L5.13-27.13Q5.13-28.41 5.61-29.53L5.61-29.53L5.61-29.53Q6.09-30.66 6.92-31.48L6.92-31.48L6.92-31.48Q7.75-32.31 8.88-32.80L8.88-32.80L8.88-32.80Q10-33.28 11.25-33.28L11.25-33.28L28.41-33.28L28.41-46.09L34.56-46.09L34.56 0L28.41 0L28.41-5.63L28.41-5.63Q28.31-4.47 27.78-3.44L27.78-3.44L27.78-3.44Q27.25-2.41 26.42-1.64L26.42-1.64L26.42-1.64Q25.59-0.88 24.53-0.44L24.53-0.44L24.53-0.44Q23.47 0 22.28 0L22.28 0L11.25 0L11.25 0Q10 0 8.88-0.48L8.88-0.48L8.88-0.48Q7.75-0.97 6.92-1.80L6.92-1.80L6.92-1.80Q6.09-2.63 5.61-3.75L5.61-3.75L5.61-3.75Q5.13-4.88 5.13-6.16L5.13-6.16ZM11.25-27.13L11.25-6.16L28.41-6.16L28.41-27.13L11.25-27.13ZM72.97-27.13L72.97-13.50L50.94-13.50L50.94-6.16L72.97-6.16L72.97 0L50.94 0L50.94 0Q49.69 0 48.56-0.48L48.56-0.48L48.56-0.48Q47.44-0.97 46.61-1.80L46.61-1.80L46.61-1.80Q45.78-2.63 45.30-3.75L45.30-3.75L45.30-3.75Q44.81-4.88 44.81-6.16L44.81-6.16L44.81-27.13L44.81-27.13Q44.81-28.41 45.30-29.53L45.30-29.53L45.30-29.53Q45.78-30.66 46.61-31.48L46.61-31.48L46.61-31.48Q47.44-32.31 48.56-32.80L48.56-32.80L48.56-32.80Q49.69-33.28 50.94-33.28L50.94-33.28L66.81-33.28L66.81-33.28Q68.09-33.28 69.22-32.80L69.22-32.80L69.22-32.80Q70.34-32.31 71.17-31.48L71.17-31.48L71.17-31.48Q72-30.66 72.48-29.53L72.48-29.53L72.48-29.53Q72.97-28.41 72.97-27.13L72.97-27.13ZM66.81-27.13L50.94-27.13L50.94-19.66L66.81-19.66L66.81-27.13ZM112.66-27.13L112.66-6.16L112.66-6.16Q112.66-4.88 112.17-3.75L112.17-3.75L112.17-3.75Q111.69-2.63 110.86-1.80L110.86-1.80L110.86-1.80Q110.03-0.97 108.91-0.48L108.91-0.48L108.91-0.48Q107.78 0 106.50 0L106.50 0L89.34 0L89.34 0Q88.09 0 86.97-0.48L86.97-0.48L86.97-0.48Q85.84-0.97 85.02-1.80L85.02-1.80L85.02-1.80Q84.19-2.63 83.70-3.75L83.70-3.75L83.70-3.75Q83.22-4.88 83.22-6.16L83.22-6.16L83.22-46.09L89.34-46.09L89.34-27.41L89.34-27.41Q89.41-28.63 89.91-29.70L89.91-29.70L89.91-29.70Q90.41-30.78 91.23-31.58L91.23-31.58L91.23-31.58Q92.06-32.38 93.16-32.83L93.16-32.83L93.16-32.83Q94.25-33.28 95.50-33.28L95.50-33.28L106.50-33.28L106.50-33.28Q107.78-33.28 108.91-32.80L108.91-32.80L108.91-32.80Q110.03-32.31 110.86-31.48L110.86-31.48L110.86-31.48Q111.69-30.66 112.17-29.53L112.17-29.53L112.17-29.53Q112.66-28.41 112.66-27.13L112.66-27.13ZM106.50-27.13L89.34-27.13L89.34-6.16L106.50-6.16L106.50-27.13ZM120.97-27.13L120.97-33.28L129.09-33.28L129.09-43.53L135.25-43.53L135.25-33.28L146.19-33.28L146.19-27.13L135.25-27.13L135.25-6.16L146.19-6.16L146.19 0L135.25 0L135.25 0Q134 0 132.88-0.48L132.88-0.48L132.88-0.48Q131.75-0.97 130.91-1.80L130.91-1.80L130.91-1.80Q130.06-2.63 129.58-3.75L129.58-3.75L129.58-3.75Q129.09-4.88 129.09-6.16L129.09-6.16L129.09-27.13L120.97-27.13ZM156.44-6.16L156.44-14.53L156.44-14.53Q156.44-15.81 156.92-16.92L156.92-16.92L156.92-16.92Q157.41-18.03 158.23-18.88L158.23-18.88L158.23-18.88Q159.06-19.72 160.19-20.20L160.19-20.20L160.19-20.20Q161.31-20.69 162.56-20.69L162.56-20.69L178.44-20.69L178.44-27.13L158.34-27.13L158.34-33.28L178.44-33.28L178.44-33.28Q179.72-33.28 180.84-32.80L180.84-32.80L180.84-32.80Q181.97-32.31 182.80-31.48L182.80-31.48L182.80-31.48Q183.63-30.66 184.11-29.53L184.11-29.53L184.11-29.53Q184.59-28.41 184.59-27.13L184.59-27.13L184.59 0L178.44 0L178.44-5.63L178.44-5.63Q178.34-4.47 177.81-3.44L177.81-3.44L177.81-3.44Q177.28-2.41 176.45-1.64L176.45-1.64L176.45-1.64Q175.63-0.88 174.56-0.44L174.56-0.44L174.56-0.44Q173.50 0 172.31 0L172.31 0L162.56 0L162.56 0Q161.31 0 160.19-0.48L160.19-0.48L160.19-0.48Q159.06-0.97 158.23-1.80L158.23-1.80L158.23-1.80Q157.41-2.63 156.92-3.75L156.92-3.75L156.92-3.75Q156.44-4.88 156.44-6.16L156.44-6.16ZM162.56-14.53L162.56-6.16L178.44-6.16L178.44-14.53L162.56-14.53ZM210.72 0L204.31 0L191-33.28L197.41-33.28L207.50-7.38L217.63-33.28L224.03-33.28L210.72 0ZM230.75-33.28L236.91-33.28L236.91 0L230.75 0L230.75-33.28ZM230.44-39.69L230.44-46.09L237.22-46.09L237.22-39.69L230.44-39.69ZM246.81-6.16L267.56-6.16L267.56-13.88L252.97-13.88L252.97-13.88Q251.69-13.88 250.56-14.36L250.56-14.36L250.56-14.36Q249.44-14.84 248.61-15.67L248.61-15.67L248.61-15.67Q247.78-16.50 247.30-17.63L247.30-17.63L247.30-17.63Q246.81-18.75 246.81-20.03L246.81-20.03L246.81-27.13L246.81-27.13Q246.81-28.41 247.30-29.53L247.30-29.53L247.30-29.53Q247.78-30.66 248.61-31.48L248.61-31.48L248.61-31.48Q249.44-32.31 250.56-32.80L250.56-32.80L250.56-32.80Q251.69-33.28 252.97-33.28L252.97-33.28L272.44-33.28L272.44-27.13L252.97-27.13L252.97-20.03L267.56-20.03L267.56-20.03Q268.84-20.03 269.95-19.55L269.95-19.55L269.95-19.55Q271.06-19.06 271.91-18.23L271.91-18.23L271.91-18.23Q272.75-17.41 273.23-16.28L273.23-16.28L273.23-16.28Q273.72-15.16 273.72-13.88L273.72-13.88L273.72-6.16L273.72-6.16Q273.72-4.88 273.23-3.75L273.23-3.75L273.23-3.75Q272.75-2.63 271.91-1.80L271.91-1.80L271.91-1.80Q271.06-0.97 269.95-0.48L269.95-0.48L269.95-0.48Q268.84 0 267.56 0L267.56 0L246.81 0L246.81-6.16ZM312.09-27.13L312.09-6.16L312.09-6.16Q312.09-4.88 311.61-3.75L311.61-3.75L311.61-3.75Q311.13-2.63 310.30-1.80L310.30-1.80L310.30-1.80Q309.47-0.97 308.36-0.48L308.36-0.48L308.36-0.48Q307.25 0 305.97 0L305.97 0L289.44 0L289.44 0Q288.19 0 287.06-0.48L287.06-0.48L287.06-0.48Q285.94-0.97 285.11-1.80L285.11-1.80L285.11-1.80Q284.28-2.63 283.80-3.75L283.80-3.75L283.80-3.75Q283.31-4.88 283.31-6.16L283.31-6.16L283.31-27.13L283.31-27.13Q283.31-28.41 283.80-29.53L283.80-29.53L283.80-29.53Q284.28-30.66 285.11-31.48L285.11-31.48L285.11-31.48Q285.94-32.31 287.06-32.80L287.06-32.80L287.06-32.80Q288.19-33.28 289.44-33.28L289.44-33.28L305.97-33.28L305.97-33.28Q307.25-33.28 308.36-32.80L308.36-32.80L308.36-32.80Q309.47-32.31 310.30-31.48L310.30-31.48L310.30-31.48Q311.13-30.66 311.61-29.53L311.61-29.53L311.61-29.53Q312.09-28.41 312.09-27.13L312.09-27.13ZM305.97-27.13L289.44-27.13L289.44-6.16L305.97-6.16L305.97-27.13ZM341.16-27.13L328.47-27.13L328.47 0L322.34 0L322.34-33.28L328.47-33.28L328.47-27.41L328.47-27.41Q328.53-28.63 329.03-29.70L329.03-29.70L329.03-29.70Q329.53-30.78 330.36-31.58L330.36-31.58L330.36-31.58Q331.19-32.38 332.28-32.83L332.28-32.83L332.28-32.83Q333.38-33.28 334.63-33.28L334.63-33.28L341.16-33.28L341.16-33.28Q342.44-33.28 343.55-32.80L343.55-32.80L343.55-32.80Q344.66-32.31 345.50-31.48L345.50-31.48L345.50-31.48Q346.34-30.66 346.83-29.53L346.83-29.53L346.83-29.53Q347.31-28.41 347.31-27.13L347.31-27.13L347.31-21.50L341.16-21.50L341.16-27.13Z" fill="#ccc"></path></g></g><style>text {
  font-size: 64px;
  font-family: Arial Black;
  dominant-baseline: central;
  text-anchor: middle;
}</style></svg>