<?xml version="1.0" encoding="UTF-8"?>
<svg version="1.1" viewBox="0 0 1600 1439" width="1280" height="1280" xmlns="http://www.w3.org/2000/svg">
<path transform="translate(0)" d="m0 0h1600v1439h-1600z" fill="#FDFCFC"/>
<path transform="translate(856,373)" d="m0 0h15l33 2 45 5 36 6 27 6 31 8 23 7 35 14 24 11 24 12 23 13 23 14 25 17 19 14 14 11 14 12 13 12 40 40 9 11 9 10 8 10 16 21 20 30 14 24 13 24 12 24 12 28 12 33 11 39 9 41 6 35 4 27v9h-174l-6-2-4-28-7-33-7-24-9-26-11-26-15-30-11-18-8-12-12-17-9-12-12-14-12-13-9-10-8-7-7-7-8-7-13-11-19-14-20-13-15-9-22-12-31-14-30-10-32-9-29-6-21-3-35-2h-35l-34 2-25 4-34 8-21 6-27 10-31 14-22 12-20 12-12 8-17 12-11 9-14 12-11 9-16 16-9 11-9 10-11 14-8 11-7 11-6 8-8 13-5 9-12 22-9 20-5 11-7 21-6 19-6 24-4 20-4 27-2 4-31 1h-100l-48-1-1-4 7-49 7-37 9-35 9-29 13-35 11-25 12-25 14-26 12-19 10-16 13-19 14-19 9-11 13-15 13-13 7-8 20-20 8-7 7-7 8-7 12-10 20-15 15-11 20-13 20-12 24-13 17-9 27-12 28-11 25-9 50-13 42-8 44-5 22-2z" fill="#FCA843"/>
<path transform="translate(860,618)" d="m0 0h28l28 2 19 3 31 8 18 6 27 11 29 14 14 8 24 16 13 10 11 9 13 12 31 31 3 6-5 3-29 17-11 7-29 17-26 15-15 9-17 10-18 10-26 15-53 31-10 6-14-6-20-4-7-1h-11l-20 4-12 4-16 8-10 7-10 9-8 10-9 14-3 5h-256l-18-1-1-2 6-30 7-28 10-30 10-23 8-16 9-17 7-11 12-18 11-14 9-10 7-8 9-10 15-15 11-9 13-11 17-12 19-12 18-10 25-12 34-12 17-5 33-7 18-2z" fill="#FCA843"/>
<path transform="translate(698,489)" d="m0 0 3 4 10 26 5 16v3h53l5-1 31-1h14l19 5 3 2v3l5 1 2 3 5 1v1l-9 2-34 2-25 4-34 8-21 6-27 10-31 14-22 12-20 12-12 8-17 12-11 9-14 12-11 9-16 16-9 11-9 10-11 14-8 11-7 11-6 8-8 13-5 9-12 22-9 20-5 11-7 21-6 19-6 24-4 20-4 27-2 4-31 1h-100l-48-1-1-4 7-49 7-37 9-35 9-29 13-35 11-25 12-25 14-26 12-19 10-16 8-8 5-1 2-2 14 8 31 21 14 10 11 8 4 2 2-5 10-14 4-5h2l2-4h2v-2h2l2-4 4-4h2l2-4h2v-2l5-5 20-18 4-5 6-4 10-9 5-2v-2l7-5 1-2 7-4 7-6 12-8 4-2v-2l10-7 7-6 11-6 5-4 6-5 6-3 5-3 7-5 5-2 30-15 16-7 10-4v-2l5-2z" fill="#DD464E"/>
<path transform="translate(1028,485)" d="m0 0h1l1 6 13 6 17 6 28 13 17 9 14 7 15 9 21 13 3 2v2l5 2 19 13 11 9 2 1v2l5 2 8 8 11 9 9 9 2 1v2l4 2 10 10 4 5 2 1v2h2l7 8 8 9v2h2l11 14 6 8 7-1 13-10 11-7 12-9 11-10 8-7 5-5 2-4 4 1 14 20 12 19 15 26 15 29 10 21 11 27 9 25 11 39 9 41 6 35 4 27v9h-174l-6-2-4-28-7-33-7-24-9-26-11-26-15-30-11-18-8-12-12-17-9-12-12-14-12-13-9-10-8-7-7-7-8-7-13-11-19-14-20-13-15-9-22-12-31-14-32-11 4-1 2-10 21-63 5-13z" fill="#6AA331"/>
<path transform="translate(883,712)" d="m0 0 33 2 15 2 9 4 3 3 1 20-12 36-14 41-14 44-6 22-1 1-11-1-17-3h-11l-20 4-12 4-16 8-10 7-10 9-8 10-9 14-3 5h-256l-18-1-1-2 6-30 7-28 10-30 10-23 8-16 9-17 7-11 4-6 4-3h5l8 3 10 5 35 24 10 7 14 3 10-1 4 1 5-2 10-5 2-3h2l2-4 4-2 1-3 8-6 6-5 6-4 4-3 8-4 7-7 10-6h2l1-3 7-3h4l1-5 9-4 10-9 4-6 3-9 1-13 3 3 7 21h2l2-4 13-5 11-5 17-4 6-3 13-2 25-1z" fill="#FCA743"/>
<path transform="translate(1054,404)" d="m0 0 9 2 36 14 26 12 24 12 23 13 23 14 25 17 19 14 14 11 14 12 13 12 40 40 9 11 9 10 8 10 11 15-6 8-9 9-8 7-10 8-16 11-11 8-6 4h-5l-13-16-4-5v-2h-2l-7-9-8-8v-2h-2v-2l-3-1v-2l-3-1-7-8-7-6v-2l-4-2-8-8-11-9-7-7-5-3v-2l-4-2-9-7-20-14-4-2v-2l-5-2-16-10-13-8-16-9-16-8-21-10-24-10-13-5-5-3-1-5-1-3 17-50 9-27z" fill="#9DC34E"/>
<path transform="translate(856,373)" d="m0 0h15l33 2 45 5 36 6 27 6 31 8 11 3-1 5-16 49-10 29-3 3-3-2v-2l-7-1-31-7-33-6-32-4-44-3h-39l-23 1-35 4-30 5-36 10-8 3h-4l-12-36-12-37-3-11 41-11 27-6 34-6 49-5 10-1z" fill="#FECF60"/>
<path transform="translate(1175,762)" d="m0 0h2l-1 4-7 7-11 9-14 12-11 9-15 14-11 9-12 11-11 9-11 10-8 7-11 10-8 7-14 12-12 11-11 9-14 13-8 7-26 24-13 10-4 6 1 10 1 9-7 25-7 12-7 9-12 12-13 8-17 6-9 2h-17l-20-4-10-4-14-9v-2l-5-2-9-10-8-13-5-11-4-17v-18l3-15 5-14 7-11 9-10 9-8 13-8 15-5 10-2h21l17 4 9 4 7 4 6 1 14-9 24-14 18-10 15-9 26-15 15-9 23-13 17-10 28-16 26-15 24-14 20-12 9-6z" fill="#092B5D"/>
<path transform="translate(972,634)" d="m0 0 6 1 26 10 24 11 23 12 27 18 13 10 11 9 13 12 31 31 3 6-5 3-29 17-11 7-29 17-26 15-15 9-17 10-18 10-26 15-53 31-10 6-14-6 4-13 9-30 40-120 19-63 6-24v-2z" fill="#9DC34E"/>
<path transform="translate(1355,624)" d="m0 0 4 1 14 20 12 19 15 26 15 29 10 21 11 27 9 25 11 39 9 41 6 35 4 27v9h-174v-1l84-1-1-8-5-24-7-37-8-28-12-36-9-24-6-15-7-15-8-16-7-13-13-22-13-19-2-4 4-1v-2l11-8 15-10 12-9 11-10 8-7 5-5z" fill="#41D74A"/>
<path transform="translate(698,489)" d="m0 0 3 4 10 26 5 16v3h53l5-1 31-1h14l19 5 3 2v3l5 1 2 3 5 1v1l-9 2-34 2-25 4-34 8-21 6-27 10-31 14-22 12-20 12-12 8-17 12-11 9-14 12-11 9-16 16-9 11-9 10-11 14-4 4-8-2-12-6-38-25-15-10-4-2 1-3 4 2 2-5 10-14 4-5h2l2-4h2v-2h2l2-4 4-4h2l2-4h2v-2l5-5 20-18 4-5 6-4 10-9 5-2v-2l7-5 1-2 7-4 7-6 12-8 4-2v-2l10-7 7-6 11-6 5-4 6-5 6-3 5-3 7-5 5-2 30-15 16-7 10-4v-2l5-2z" fill="#E84A2B"/>
<path transform="translate(560,777)" d="m0 0h5l8 3 10 5 35 24 16 11 16 12 28 20 36 26 15 11 10 7 11 8 13 10 5 4 4 1 3 3 6 2-1 4-7 11-3 5h-256l-18-1-1-2 6-30 7-28 10-30 10-23 8-16 9-17 7-11 4-6z" fill="#BC363F"/>
<path transform="translate(835,463)" d="m0 0h42l41 3 39 5 36 7 28 7v2l4 2-5 16-20 60-1 7-5 1-11-3-32-8-29-5-21-2-54-2v-3l-1-3-5-1-3-4-19-5h-14l-32 1-5 1h-50l-2-1-11-33-6-14v-4l26-8 23-6 36-6 28-3z" fill="#FBA742"/>
<path transform="translate(1286,681)" d="m0 0 5 4 8 12 13 21 10 18 8 16 7 16 5 11 10 26 12 36 7 24 4 17 9 48 2 10-1 2h-89l-1-1-4-28-7-33-7-24-9-26-11-26-15-30-11-18-8-12-12-17-9-12-2-3 1-3 10 9 7 1h6l11-5 32-20 11-7z" fill="#019B1B"/>
<path transform="translate(438,680)" d="m0 0 1 2 6 2 13 9 35 23 10 6 7 3 6 1-2 5-9 14-6 8-8 13-5 9-12 22-9 20-5 11-7 21-6 19-6 24-4 20-4 27-1 3-36-1-9-2h-11l-4-1-10-1-4-2-4-1-4-4v-16l-1-3 1-3-2-1 2-17 4-16h2v-9l2-12 4-11-1-4 3-9 11-32 12-27 19-38 14-24 15-24z" fill="#AE0F1A"/>
<path transform="translate(860,618)" d="m0 0h28l28 2 19 3 31 8 6 2v2l3 1-3 15-12 41-14 45-2 4h-1l-1-20-5-2-6-2-15-2-33-2-11 1-25 1-13 2-6 3-17 4-13 6-7 3h-4l-2 5-2 1-6-17-14-46-8-25-2-16-1-2 17-5 33-7 18-2z" fill="#FECF60"/>
<path transform="translate(1177,791)" d="m0 0 3 1 12 23 11 23 11 29 8 29 6 26 2 12v10l-8 1-215-1v-3l19-19 8-7 14-12 15-13 12-11 8-7 10-9 12-11 14-12 13-11 11-9 9-9 8-7 11-10z" fill="#42D74A"/>
<path transform="translate(560,777)" d="m0 0h5l8 3 10 5 35 24 7 5-2 1-7-5h-2l1 5-1 2 2 1-1 4v2l2 1-4 2-2 5-4 6-3 6h-5l-1 10-6 12h-2l-1 5h-2l-2 9-1 2-1 14-1 3 6 9v6l6 3v2h-2l1 8-2 4h2v2h2l1 2 9 3v4l144 1v1h-235l-18-1-1-2 6-30 7-28 10-30 10-23 8-16 9-17 7-11 4-6z" fill="#DD494E"/>
<path transform="translate(781,738)" d="m0 0 2 3 25 76 13 37 7 22 3 11v2l-14 6-15 9-13 12-7 9-9-3-1-3-5-1-14-11-14-10-17-12-12-9-14-10-18-13-3-3 2-2 7-3 11-8 8-4 4-5 11-7 15-11 8-6 18-12 10-7 6-5 7-20v-13z" fill="#FD7256"/>
<path transform="translate(1020,506)" d="m0 0 2 1-8 30-2 14 4 2 6 7h5l2-2 8 6 8 2 9 6 4 1 9 3 10 3 4 3 4 1 13 8 5 3 6 3 3 3 4 2 1 3 6 2 2 1v2l7 2 5 4 6 5 7 4v2l5 2 4 2v2l4 1 10 6v2l5 2 1 2 7 3 6 4 1 2 5 2 4 5 5 3 14 7 12 2 5 2 10 1 2-1 2 1 1 4 4 2v2l8 1v-2h8l11-4 3 1-13 10-14 8-20 13-9 5-7 3h-11l-11-9-4-1-11-12-7-8-11-12-8-7-7-7-8-7-13-11-19-14-20-13-15-9-22-12-31-14-32-11 4-1 2-10 18-54z" fill="#4B8F2E"/>
<path transform="translate(1252,703)" d="m0 0 2 1 1 9 4 6 2 5 3 2 1 9v4l2 5v2l4 13 10 24 5 13 9 23 3 8 5 16 4 9 2 7 2 3 5 13 2 1 3 7 4 3-1 5-2-1v10 4l1 7-1 1 2 8 3 1 4 7 2 6 6 4v2l14 1v1h-57l-1-1-4-28-7-33-7-24-9-26-11-26-15-30-11-18-8-12-12-17-9-12-2-3 1-3 10 9 7 1h6l11-5 16-10z" fill="#148619"/>
<path transform="translate(698,489)" d="m0 0 3 4-1 6h-2l-1 4-4 7-5 3-8 6-15 8-6 3-8 7-7 6h-2v2l-7 3-5 5-11 9-13 11-11 7-17 14-10 7-8 6-2 2-9 5-6 4-5 5-10 8-4 1-1 3-6 4h-2v2l-11 8-15 10-9 5-5 6h-2l-2 5-6 5-3 5-4 1-1 3-6-2-7-5 2-6 10-14 4-5h2l2-4h2v-2h2l2-4 4-4h2l2-4h2v-2l5-5 20-18 4-5 6-4 10-9 5-2v-2l7-5 1-2 7-4 7-6 12-8 4-2v-2l10-7 7-6 11-6 5-4 6-5 6-3 5-3 7-5 5-2 30-15 16-7 10-4v-2l5-2z" fill="#FA722C"/>
<path transform="translate(613,809)" d="m0 0 4 1 6 4 7 3 12 9 11 8-3 5-1 4-1 3 1 3h2l-1 4-2 5-2 9-1 4-1 6-2 7 2 10-1 3 2 1-1 2 4 2 8 7 4 4-1 4 5 9 2 7 3 2 12 2 14 1 3 2 73 1-1 3-186-1v-1h21v-4l-7-1-4-2 1-2h-2v-2h-2l-1-3 2-2-1-5 1-2h2v-2l-4-2-3-3-1-5-5-8 1-3 1-14 4-11h2l2-7 2-1 4-10 1-7 1-2 5-1 5-10 4-6 3-2-2-3 1-4-1-3 1-2-2-1z" fill="#CA3940"/>
<path transform="translate(700,494)" d="m0 0 2 1 4 10v2h-2l-2 15-4 9-4 5-11 8-10 6-7 6-6 4-10 7-5 4h-2l-1 5-10 6h-2v2h-2v2l-16 11-11 8-8 6-10 8-4 4-16 10-10 8-11 9-9 6-11 7-8 6h-2v2l-18 11-8 7-7 6-5 6-6-2-12-6-13-9-4-2 1-3 15 9h2l6-6 6-7h2l2-5 5-4 5-5 14-8 16-12h2v-2l8-5 3-3 6-4 9-7 5-5 9-6 4-2 5-4 12-9 14-11 14-10 10-8 11-9 6-5h2l2-4 7-2v-2l14-11 6-5 16-8 9-6 3-3h3l2-6 3-5h2z" fill="#EC5629"/>
<path transform="translate(1286,681)" d="m0 0 5 4 8 12 13 21 10 18 8 16 7 16 5 11 10 26 12 36 7 24 4 17 9 48 2 10-1 2h-18l-5-4-5-7v-4h-2l-5-9 3-5 1-5 3-1-1-15 1-3h-2v-2h-2l-2-11-3-1-2-6-3-3-6-14-2-1-9-27-1-4-2-1-2-9-4-9-3-9-1-5-6-19-3-4-3-9-4-13-3-9-3-11-3-3-4-8h-3l-2-10 3-7 1-4-4 1-10 3 3-3z" fill="#01AB21"/>
<path transform="translate(773,713)" d="m0 0 3 3 6 18v8l1 5v13l-5 15-3 6-11 9-16 10-9 7-30 21h-2l-2 4-5 4-8 4-11 8-7 2-14-10-11-8-19-14 2-1 11 2 9-1 4 1 5-2 10-5 2-3h2l2-4 4-2 1-3 8-6 6-5 6-4 4-3 8-4 7-7 10-6h2l1-3 7-3h4l1-5 9-4 10-9 4-6 3-9z" fill="#FD9246"/>
<path transform="translate(781,738)" d="m0 0 2 3 8 25 1 7 3 14v9l-3 9-2 7-5 6-3 3-10 8-9 4-5 4-6 3-4 5-7 4-1 2-9 4-8 5-6 4-12 5-6-1-17-12-7-5 2-3 7-3 11-8 8-4 4-5 11-7 15-11 8-6 18-12 10-7 6-5 7-20v-13z" fill="#FD804F"/>
<path transform="translate(943,743)" d="m0 0h2l-1 7-5 19-3 15-3 12-1 11v12l-2 7 11 2 7 2 4-1 5 1 7 2 5-1 10-1 12-2h6l2 6 1 2 7-1 9-5 2 1-13 8-22 12-15 9-26 15-22 13-10 6-14-6 4-13 9-30 29-87z" fill="#67A847"/>
<path transform="translate(1252,703)" d="m0 0 2 1 1 9 4 6 2 5 3 2 1 9v4l2 5v2l4 13 10 24 5 13 9 23 3 8 5 16 4 9 2 7 2 3 5 13 2 1 3 7 4 3-1 5-2-1v10 4l1 7-1 1 2 8 3 1 4 7 2 6 6 4v2l14 1v1h-11l-21-2-8-4-3-8-4-15-4-24-8-32-8-26-9-25-6-15-14-28-12-18-1-4-3-1-2-5-1-1v-11h2l1-7 4-6 2-1 2-4z" fill="#0A8E18"/>
<path transform="translate(805,536)" d="m0 0h14l19 5 3 2v3l5 1 2 3 5 1v1l-9 2-34 2-25 4-34 8-22 6-2-5v-3h-2l-4-11-4-14 1-3h51l5-1z" fill="#E48429"/>
<path transform="translate(688,458)" d="m0 0 1 2h2l8 24v5l-8 4h-2l-1 2-8 5-13 5-18 8-15 8-5 3-7 3-4 3-5 3-8 5-9 7-14 8-8 7-4 3h-2v2l-10 7-7 5h-2l-1 3-7 5h-3l-1 3-5 4h-2v2l-11 8-8 7h-2l-2 4-6 6h-2l-1 3-8 7-8 8h-2v2l-6 5-6 7h-2v2l-4 4h-2l-2 4-12 16-2 5-5-3-5-5 5 1 2-6 9-13 5-2 2-4 8-8 1-2h2v-2h2l1-3h2l2-4 25-25 8-7 10-9 14-11 6-5h2v-2l14-10 5-4 11-7 9-6 26-15 32-16 33-15 9-4 4-3 5-5 1-2 1-14z" fill="#FC9246"/>
<path transform="translate(711,528)" d="m0 0h3l7 22 4 16h2l2 5-1 4-20 7-36 16-9 5h-2l-1-5-5 1-9 3h-5l6-7 5-5 9-8 5-3 2-4 5-3 2-4 5-5 7-8 10-10 7-4 5-5z" fill="#D9402E"/>
<path transform="translate(953,537)" d="m0 0h20l9 1h8l11 1 2 7-1 13-2 6-1 7-5 1-11-3-32-8-29-5-21-2-6-2 4-4 6-4 13-5 6-1 22-1z" fill="#E48429"/>
<path transform="translate(820,853)" d="m0 0 5 2 5 8v2l7-3 1-1-3-2 9-2 19-2h9l18 2 4 1 5-2 4 3v9l-5 18-1 1-11-1-17-3h-11l-20 4-7 1-8-24z" fill="#FC9446"/>
<path transform="translate(545,675)" d="m0 0 2 2-1 2 2 1-3 7-1 3v4l-12 14-10 12-5 7-9-2-12-6-15-10 2-1 5 2 6-4h2l2-4 9-8 4-1 6-5 24-12z" fill="#DA402E"/>
<path transform="translate(432,676)" d="m0 0 5 2 2 2-7 10-17 28-13 24-10 19-12 27-6 15-11 33v4l-3 11-2 10-2 13h-2l-1 7-3 14-2 11 2 1 1 13v12l4 2 5 1 8 2h7l5 1h9l7 2 27 1 8 1v1h-68l-18-1-5-1-1-8 5-24 9-45 4-16 3-11 6-19 6-16 4-12 7-15 4-9 3-8 1-4h2l2-5 3-7 1-4h2v-2h2l1-5 2-11 3-1 2-9 4-6h2l2-5 4-8 3-5 4-6 2-1z" fill="#CC3A40"/>
<path transform="translate(432,676)" d="m0 0 5 2 2 2-7 10-17 28-13 24-10 19-12 27-6 15-8 23-1-4 4-13 6-16 5-12 5-11 4-8 2-8h2l2-5 3-7 1-4h2v-2h2l1-5 2-11 3-1 2-9 4-6h2l2-5 4-8 3-5 4-6 2-1z" fill="#C6383F"/>
<path transform="translate(1051,902)" d="m0 0 2 1-3 3-4 8-2 3h-2v2h-2l-2 5-1 7 2 6v4l-7 1h-23v-3l17-17 8-7 6-3z" fill="#04AB22"/>
<path transform="translate(911,868)" d="m0 0 6 2 6 7 6 1 10-3v2l-24 14-5 3-14-6 4-9 3-6z" fill="#48D54A"/>
<path transform="translate(558,843)" d="m0 0 1 3-4 11-5 17-4 20 1 6 2 8 7 11v8h-2l3 6 3 1-1 3h-3v-2l-3 1-6-2-1-4 4-3-1-10-3-1-4-9v-19l1-3 2-11 3-1 1-6 2-6 1-9h2z" fill="#DA402E"/>
<path transform="translate(765,919)" d="m0 0 5 2 4 3 6 2-2 5-6 9h-10l-7-1-1-3 1-2h2l2-4 5-5z" fill="#AF111B"/>
<path transform="translate(719,552)" d="m0 0h2l4 12v2h2l2 5-1 4-18 6-1-2 6-3 1-1 1-15z" fill="#CB3E3E"/>
<path transform="translate(432,676)" d="m0 0 5 2 2 2-7 10-17 28-8 14-1-2 4-9 5-10 4-9h2l5-10 4-9h2z" fill="#BC363F"/>
<path transform="translate(430,680)" d="m0 0h2v3l-2 1-3 8-6 10-2 1-5 13-5 9-2 5h-2l1-10 3-1 2-9 4-6h2l2-5 4-8 3-5z" fill="#CB3940"/>
<path transform="translate(698,489)" d="m0 0 3 4-1 6h-2l-1 4h-3l-6-4-4-2 2-2 3-2z" fill="#FC7355"/>
<path transform="translate(1026,922)" d="m0 0 2 1-4 6h-2l1 6-5 6-2 1h-7v-3z" fill="#1E8A1C"/>
<path transform="translate(763,941)" d="m0 0h8l-1 3-79-1v-1z" fill="#D94E4D"/>
<path transform="translate(561,772)" d="m0 0h5l9 7 3 3-12-3-1-1h-5l-3 2 2-5z" fill="#FB7555"/>
<path transform="translate(720,553)" d="m0 0 2 2 4 11v4l-5-1-2-4z" fill="#AE0F1A"/>
<path transform="translate(1174,682)" d="m0 0h2l7 8 10 11 5 5 2 5-6-5-9-11-11-11z" fill="#326151"/>
<path transform="translate(439,679)" d="m0 0 8 4 9 6 2 4-5-2-10-7-4-2z" fill="#DF462F"/>
<path transform="translate(365,629)" d="m0 0 5 2-2 4-6 2-3 2 2-5z" fill="#FB7757"/>
<path transform="translate(766,917)" d="m0 0 6 2 3 3 6 2-1 3-9-4-5-4z" fill="#D54449"/>
<path transform="translate(1075,879)" d="m0 0 2 1-6 7-5 3-5 5-2-1 8-8z" fill="#70A93F"/>
<path transform="translate(1028,922)" d="m0 0 1 2-4 10-2 1-1-6h2l2-5z" fill="#04971A"/>
<path transform="translate(943,743)" d="m0 0h2l-1 7-2 6-3 2 3-12z" fill="#78B149"/>
<path transform="translate(998,566)" d="m0 0h1v6l-5 1-5-1 1-3 8 1z" fill="#E4A242"/>
<path transform="translate(506,723)" d="m0 0h12l-2 4-8-2z" fill="#CD3B40"/>
</svg>
