<svg width="360.4850219726562px" height="124.64000549316405px" xmlns="http://www.w3.org/2000/svg" viewBox="69.75748901367189 12.679997253417973 360.4850219726562 124.64000549316405"  style="background: rgba(0, 0, 0, 0);" preserveAspectRatio="xMidYMid"><defs><filter id="editing-hole" x="-100%" y="-100%" width="300%" height="300%"><feFlood flood-color="#000" result="black"></feFlood><feMorphology operator="dilate" radius="2" in="SourceGraphic" result="erode"></feMorphology><feGaussianBlur in="erode" stdDeviation="4" result="blur"></feGaussianBlur><feOffset in="blur" dx="2" dy="2" result="offset"></feOffset><feComposite operator="atop" in="offset" in2="black" result="merge"></feComposite><feComposite operator="in" in="merge" in2="SourceGraphic" result="inner-shadow"></feComposite></filter></defs><g filter="url(#editing-hole)"><g transform="translate(96.06002044677734, 104.125)"><path d="M5.75 0L5.75-44.81L38.41-44.81L38.41-38.41L12.16-38.41L12.16-25.59L34.56-25.59L34.56-19.19L12.16-19.19L12.16-6.41L38.41-6.41L38.41 0L5.75 0ZM47.38-14.97L47.38-21.13L62.34-21.13L62.34-14.97L47.38-14.97ZM86.66-44.81L93.06-44.81L110.34 0L103.94 0L99.97-10.31L79.75-10.31L75.78 0L69.38 0L86.66-44.81ZM89.88-36.47L82.19-16.72L97.50-16.72L89.88-36.47ZM117.41-7.44L117.41-27.13L117.41-27.13Q117.41-28.41 117.89-29.53L117.89-29.53L117.89-29.53Q118.38-30.66 119.20-31.48L119.20-31.48L119.20-31.48Q120.03-32.31 121.16-32.80L121.16-32.80L121.16-32.80Q122.28-33.28 123.53-33.28L123.53-33.28L134.56-33.28L134.56-33.28Q135.78-33.28 136.88-32.83L136.88-32.83L136.88-32.83Q137.97-32.38 138.80-31.58L138.80-31.58L138.80-31.58Q139.63-30.78 140.14-29.70L140.14-29.70L140.14-29.70Q140.66-28.63 140.69-27.41L140.69-27.41L140.69-33.28L146.84-33.28L146.84 7.28L146.84 7.28Q146.84 8.56 146.36 9.69L146.36 9.69L146.36 9.69Q145.88 10.81 145.05 11.64L145.05 11.64L145.05 11.64Q144.22 12.47 143.09 12.95L143.09 12.95L143.09 12.95Q141.97 13.44 140.69 13.44L140.69 13.44L121.25 13.44L121.25 7.28L140.69 7.28L140.69-1.28L123.53-1.28L123.53-1.28Q122.28-1.28 121.16-1.77L121.16-1.77L121.16-1.77Q120.03-2.25 119.20-3.08L119.20-3.08L119.20-3.08Q118.38-3.91 117.89-5.03L117.89-5.03L117.89-5.03Q117.41-6.16 117.41-7.44L117.41-7.44ZM123.53-7.44L140.69-7.44L140.69-27.13L123.53-27.13L123.53-7.44ZM185.25-27.13L185.25-13.50L163.22-13.50L163.22-6.16L185.25-6.16L185.25 0L163.22 0L163.22 0Q161.97 0 160.84-0.48L160.84-0.48L160.84-0.48Q159.72-0.97 158.89-1.80L158.89-1.80L158.89-1.80Q158.06-2.63 157.58-3.75L157.58-3.75L157.58-3.75Q157.09-4.88 157.09-6.16L157.09-6.16L157.09-27.13L157.09-27.13Q157.09-28.41 157.58-29.53L157.58-29.53L157.58-29.53Q158.06-30.66 158.89-31.48L158.89-31.48L158.89-31.48Q159.72-32.31 160.84-32.80L160.84-32.80L160.84-32.80Q161.97-33.28 163.22-33.28L163.22-33.28L179.09-33.28L179.09-33.28Q180.38-33.28 181.50-32.80L181.50-32.80L181.50-32.80Q182.63-32.31 183.45-31.48L183.45-31.48L183.45-31.48Q184.28-30.66 184.77-29.53L184.77-29.53L184.77-29.53Q185.25-28.41 185.25-27.13L185.25-27.13ZM179.09-27.13L163.22-27.13L163.22-19.66L179.09-19.66L179.09-27.13ZM224.94-27.13L224.94 0L218.78 0L218.78-27.13L201.63-27.13L201.63 0L195.50 0L195.50-33.28L201.63-33.28L201.63-27.41L201.63-27.41Q201.69-28.63 202.19-29.70L202.19-29.70L202.19-29.70Q202.69-30.78 203.52-31.58L203.52-31.58L203.52-31.58Q204.34-32.38 205.44-32.83L205.44-32.83L205.44-32.83Q206.53-33.28 207.78-33.28L207.78-33.28L218.78-33.28L218.78-33.28Q220.06-33.28 221.19-32.80L221.19-32.80L221.19-32.80Q222.31-32.31 223.14-31.48L223.14-31.48L223.14-31.48Q223.97-30.66 224.45-29.53L224.45-29.53L224.45-29.53Q224.94-28.41 224.94-27.13L224.94-27.13ZM257.19-27.13L241.31-27.13L241.31-6.16L257.19-6.16L257.19-11.78L263.34-11.78L263.34-6.16L263.34-6.16Q263.34-4.88 262.86-3.75L262.86-3.75L262.86-3.75Q262.38-2.63 261.55-1.80L261.55-1.80L261.55-1.80Q260.72-0.97 259.59-0.48L259.59-0.48L259.59-0.48Q258.47 0 257.19 0L257.19 0L241.31 0L241.31 0Q240.06 0 238.94-0.48L238.94-0.48L238.94-0.48Q237.81-0.97 236.98-1.80L236.98-1.80L236.98-1.80Q236.16-2.63 235.67-3.75L235.67-3.75L235.67-3.75Q235.19-4.88 235.19-6.16L235.19-6.16L235.19-27.13L235.19-27.13Q235.19-28.41 235.67-29.53L235.67-29.53L235.67-29.53Q236.16-30.66 236.98-31.48L236.98-31.48L236.98-31.48Q237.81-32.31 238.94-32.80L238.94-32.80L238.94-32.80Q240.06-33.28 241.31-33.28L241.31-33.28L257.19-33.28L257.19-33.28Q258.47-33.28 259.59-32.80L259.59-32.80L259.59-32.80Q260.72-32.31 261.55-31.48L261.55-31.48L261.55-31.48Q262.38-30.66 262.86-29.53L262.86-29.53L262.86-29.53Q263.34-28.41 263.34-27.13L263.34-27.13L263.34-21.50L257.19-21.50L257.19-27.13ZM281.97 13.44L275.84 13.44L282.81-3L269.75-33.28L276.22-33.28L285.94-10.38L295.66-33.28L302.13-33.28L281.97 13.44Z" fill="#ccc"></path></g></g><style>text {
  font-size: 64px;
  font-family: Arial Black;
  dominant-baseline: central;
  text-anchor: middle;
}</style></svg>