<?xml version="1.0" encoding="UTF-8"?>
<svg version="1.1" viewBox="0 0 2048 2048" width="1280" height="1280" xmlns="http://www.w3.org/2000/svg">
<path transform="translate(0)" d="m0 0h1600v1600h-1600z" fill="#7F7F75"/>
<path transform="translate(738,220)" d="m0 0 7 1 9 9 8 7 25 25 7 8 14 14 3 5v8l-10 9-14 14-7 8-9 9-8 7-16 15-15 15-8 7-17 16-13 13-6 7 7-6 11-11 8-7 4-2v-2l3-1 3-5 14-13 6-1 8 3 8 6 14 10 16 9 35 10 17 4 15 2h16l17-2h14l2-7 2-2-2-2-3-5-14-18-6-8-8-8-5-3-11-13-4-9-9-10-9-11-2-5-3-1-9-12-5-4-2-6 2-5 7-6 6-7 6-4 7-7 8-7 13-12 8-8 10-8h7l8 4 12 11 8 8 8 7 7 7 7 8 17 17 7 8 11 11 7 8 14 15 12 12 7 8 16 17 14 15 9 10 12 13 9 9 7 8 8 8 7 8 12 13 9 10 7 7 7 8 8 8 7 8 12 13 11 12 7 8 30 32 14 15 22 24 9 11 9 10 7 8 4 5-1 5-6 8-9 9-11 9-13 12-10 9-13 11-14 9-6-2-14-14-7-8-9-9-7-8-10-11-9-11-15-16-9-11-6-7-7-9-12-11-8-4-11-10-6-4 8 9v5l-1 1-11 2-10 2-6 2 8 2 26 1 13 1 4 2 1 2v208l-3 149-1 98-2 73-1 18h-2l1 2v8l-1 1h-100l-2-1-2-11-1-53-3 2v2l-7 3-8-1v-2l-13-1h-11l-11 1-13 5-7 5h-2l-1 3-5 4-5 5-4 3-11 5h-2v2l-11 6 6-2 26-13 10-9 11-5 11-2h16l8 2 10-1h10l4-1 2 7v12l-6 3-7 1h-9l-5-1-16 3h-21l-7 4-3 3-5 2-11 6-10 4-6 2-18 4-5 1h-70l-29-1-21-1-8-3-11-3-26-1-15-1-8 2-11 1-3-1h-16l-2-1-4 7h-76l-6-1-19-1-2-1v-312l1-37v-83l1-38 1-90 7-8 3-8 12-12 11-12 23-23 8-7 25-25 8-7 15-15 8-7 9-9 8-7 14-12 9-9-4 2-26 24-32 30-9 9-8 7-10 10-8 7-26 26-8 7-9 9-8 7-12 12-8 7-17 17-4 5h-2l-2 4-13 13-8 7-30 30-8 7-13 12-9 6-4-1-9-6-10-9-5-4-7-8-21-21-5-6-7-6v-2h-2l-6-7 1-6 8-10 7-7 8-7 8-8 8-7 15-16 10-9 8-7 6-5 7-8 16-16 8-7 13-13 8-7 11-11 8-7 36-36 8-7 13-12 17-17 8-7 27-27 8-7 10-10 8-7 14-14 8-7 16-15 18-18 8-7 11-11 8-7 15-14 13-11z" fill="#7F7F75"/>
<path transform="translate(1501,838)" d="m0 0h15l22 2 22 4 17 5 12 4 11 5v742h-588l2-5 6-9h2l2-4 3-4h2v-2h2l2-4 5-5 6-7h2l1-4 15-16 2-4h2l2-4 8-9 5-7h2v-3h2l2-5 4-6h2v-2l4-4h2l2-5 2-3h3l2-4h2l2-5 10-12 7-9h2v-2h2v-3h2v-2h2l2-4 4-5 1-2h2l2-5 8-10 10-13 8-10 7-9h2l2-5 9-9 3-5 4-4 3-5 12-14 8-9 6-9 11-13 8-11 3-3 7-14 3-9v-21l-4-6-6-11-9-8v-2h-2l-7-11-2-1v-2l-4-2-5-5-5-6v-2h-2l-5-10-7-21-5-14-2-10-2-12-4-16-2-10v-10l1-9v-22l2-26 4-10 7-15 7-13 5-8 8-17 15-23 9-12 8-7 5-4 5-5 2-3h2l2-5 6-3 3-3 12-5 6-4 12-6 11-4 10-7 11-6 11-4h6l2 4 14-10 21-12 27-11 32-9 24-4z" fill="#7F7F75"/>
<path transform="translate(0)" d="m0 0h620l1 3h2v2l4 2 9 11 6 8-2 7-9 6-11 4-21 5-15 2h-16l3 9 1 7 1 1 1 9 1 1v31l-4 15-3 8h-2l-1 7-9 17h-2l-2 6-8 16-11 15-10 14-9 12-9 11-9 10-9 11-19 19-1 2h-2v2l-5 5-14 13-8 7-15 11-15 10-19 10-18 7-13 2-13 1h-35l-25-5-15-4-30-12-15-7-4-1v-2l-5-1-13-6-7-2h-9l-13 10-16 15-8 8-4 7v11l4 14 7 23 5 15 2 8 4 14 4 19 2 15v29l-3 17-3 12-8 20-11 19-12 16-39 39-7 6-13 10-13 11-14 11-14 10-23 16-14 8z" fill="#0C0D0F"/>
<path transform="translate(974)" d="m0 0h626v626l-6-4-52-52-5-4-4-5-2-1v-2h-2l-5-6-118-118-7-8-14-14-5-6-8-7-16-16-5-6-8-7-84-84-7-8-128-128-2-1v-2h-2v-2h-2v-2l-4-2-9-10-14-14-8-7-12-13-8-8-8-7-37-37-7-8-9-9-8-7-13-12-4-4v-2l-3-1z" fill="#EBECEC"/>
<path transform="translate(0,1041)" d="m0 0 4 2 22 18 14 12 10 8 15 13 14 12 14 11 12 11 11 9 15 14 11 9 17 14 15 13 13 12 8 7 13 12 10 9 14 12 15 13 10 9 8 7 12 11 11 9 10 9 11 9 10 9 8 7 15 14 12 11 10 9 11 9 26 22 13 12 11 9 10 9 11 9 14 12 20 18 13 12 10 9 11 9 10 9 11 9 12 11 8 7 12 11 14 12 11 9 14 12 12 11 8 7 11 10 6 5v1h-643z" fill="#1D2124"/>
<path transform="translate(1476,858)" d="m0 0h48l16 2 19 3 13 4 14 7 14 5v411l-18 4-13 5-10 3-21 4-12 2-5 1-12 2h-15l-29-2-17-3-21-5-19-7-16-8-16-9-17-12-12-10-7-8-9-10-13-17-11-17-8-15-9-20-11-33-4-20-1-9v-31l2-22 5-26 6-21 8-21 8-16 14-21 13-16 10-13 11-11 14-11 11-8 5-2v-2l3-2 9-3 4-1 7-2 25-10 11-3 22-3 6-2z" fill="#7F7F75"/>
<path transform="translate(182,606)" d="m0 0h6l12 10 5 6 3 6 4 4v10h2l6 8 2 5 5 3 9 6 8 5 3 5 7 4 10 3 7 6 4 11 6 2 16 1 9 2h21l35 8 2 5-4 12v9l4 8v7l-4 11 6 12-1 5-2 6-3 5-1 6 3 9 6 9 2 6v8l-4 20-2 5-2 15v8l-3 16-1 6 2 10 2 4 1 12-4 15-2 10-3 8-2 4-1 8-2 5v10l-1 6v11l-1 15-2 13-3 9-1 4 2 13 6 9 1 14-1 1-1 9-2 5-5 4-2 6-4 3-5 14-3 16-1 5v5h-2v2l-4 1v-3l-5-1-1-5 1-2h-2l-5-7-3-10v-3l-9-1-1-3-20-2-7-4v-2l-3-1-2-3-5-2-3-6v-15l-1-7v-8l-2-2v-6l6-3 2-2v-17l-2-8-2-4-4-2-7-3-6-1-3-3-5-3 1-6 1-2-1-5-2-1-1-3-3-1v-2l-9 2-4 8-11 8-2 3-6-2-6-4-4-6v-3l-4-2-5-3-6-7-4-11v-2l-5-2-7-2-13-2h-9l-9-5-3-13-4-6-12-6-10-6-17-4-10-2-18-6-5-3-14-2h-10l-12-3h-7v-184l11 3 7-1 5-7 2-5 3-4 2-5h2v-2l16-6 6-3 4-4 4-1v-2h2l1-3 9-3 1-4 5-2 1-3 3-3h2l2-4 7-5 6-1v-2l5-3h3v-2l7-4 10-1 5-6 9-4 5-2 5-6h2l2-4 12-6 3-5 4-7z" fill="#98998F"/>
<path transform="translate(1501,838)" d="m0 0h15l22 2 22 4 17 5 12 4 11 5v21l-10-3-10-4-8-4-13-4-19-3-17-2h-47l-8 1-6 2-22 3-16 5-20 8-7 2-4 1-10 4h-2v2l-11 7-14 11-13 12-7 8-7 9-12 15-15 23-9 20-9 27-6 27-2 14-1 15v31l3 20 5 19 10 28 10 21 8 14 11 16 8 10 11 13 8 9 14 11 18 12 22 12 21 8 19 5 15 3 19 2 17 1h17l11-2 9-2 18-3 18-4 10-4 9-3 11-2h3v24l-7 3-11 3-29 7-20 2-3 1-15 1h-26l-31-3v-2l-12-1-34-5-37-5-5-1-7 4-9 7-8 10-9 11-11 14-5 6-2 5-5 5h-2l-2 5-6 7-4 4-1 2h-2l-2 5h-2l-2 6-5 6h-2l-2 5h-2l-2 4-12 15h-2l-2 5-3 4h-2l-1 4h-2l-2 6-3 1v2l-4 4-5 7h-2l-2 5-5 6h-2l-2 5-8 10h-2l-2 5-3 4h-2v2h-2l-2 5-5 6h-2l-2 5h-2l-2 5h-2l-2 5-3 1-2 5-5 6h-2l-2 5h-2l-2 5-12 14-7 8-6 8h-2l-5 10-6 7h-121l2-5 6-9h2l2-4 3-4h2v-2h2l2-4 5-5 6-7h2l1-4 15-16 2-4h2l2-4 8-9 5-7h2v-3h2l2-5 4-6h2v-2l4-4h2l2-5 2-3h3l2-4h2l2-5 10-12 7-9h2v-2h2v-3h2v-2h2l2-4 4-5 1-2h2l2-5 8-10 10-13 8-10 7-9h2l2-5 9-9 3-5 4-4 3-5 12-14 8-9 6-9 11-13 8-11 3-3 7-14 3-9v-21l-4-6-6-11-9-8v-2h-2l-7-11-2-1v-2l-4-2-5-5-5-6v-2h-2l-5-10-7-21-5-14-2-10-2-12-4-16-2-10v-10l1-9v-22l2-26 4-10 7-15 7-13 5-8 8-17 15-23 9-12 8-7 5-4 5-5 2-3h2l2-5 6-3 3-3 12-5 6-4 12-6 11-4 10-7 11-6 11-4h6l2 4 14-10 21-12 27-11 32-9 24-4z" fill="#0C0D0F"/>
<path transform="translate(716)" d="m0 0h227l3 10 4 7v2h2l2 5 16 10 9 4 4 4v2h2l7 8v2l4 2 7 9 6 9 3 6 4 5 7 11 5 10v3h2l4 4 5 3 5 5 5 6v2h2l3 6 2 1 2 6-5 1h-4l-1 3-4 3v3l2 2-3 3-5 2-4 5-5 3-17 4-6 5-10 2-11 2h-4l-2 4-12 7-1 1-9 2-10 4h-2l-2 5-5 1-7 3-7-1v-2h-4l-2-4v-3l-9-4-7-5-8-3-17-3-6-3h-13l-6 1-4-1h-8l-7 3-4 5-4 2-28 2-10-4-8-3h-6l-4 2-13-1-3-2-11-1-4 1-1 3h-2l-1 3-2 1-3 9-3 2h-5l-1 4-10-2-9-2-11-4-21-1-18-3-11 4-12 1-10-4-6 1-1 4-4 4-3 6-8 5-12-1h-8l-5-5v-8l8-16 5-6 3-6 3-10 4-10 2-9 8-15 7-8 7-6 4-6 7-9 4-12 8-10 3-3h2l2-4 7-8 3-5 3-7 1-6 1-12-1-6 6-7 8-2h8l7-3 1-3 5-1v-2l7-1 6-5z" fill="#98998F"/>
<path transform="translate(738,220)" d="m0 0 7 1 9 9 8 7 25 25 7 8 14 14 3 5v8l-10 9-14 14-7 8-9 9-8 7-16 15-15 15-8 7-17 16-14 14-8 7-8 8-8 7-16 15-31 29-9 9-8 7-10 10-8 7-26 26-8 7-9 9-8 7-12 12-8 7-17 17-4 5h-2l-2 4-13 13-8 7-30 30-8 7-13 12-9 6-4-1-9-6-10-9-5-4-7-8-21-21-5-6-7-6v-2h-2l-6-7 1-6 8-10 7-7 8-7 8-8 8-7 15-16 10-9 8-7 6-5 7-8 16-16 8-7 13-13 8-7 11-11 8-7 36-36 8-7 13-12 17-17 8-7 27-27 8-7 10-10 8-7 14-14 8-7 16-15 18-18 8-7 11-11 8-7 15-14 13-11z" fill="#E1B89C"/>
<path transform="translate(412,52)" d="m0 0h57l31 2 25 2 9 7 2 5 1 13 5 10 1 7-2 7-1 3-2 1-6 18-2 9-4 10-5 10-11 16-11 15-8 11-9 11-11 12-13 14-5 7h-2v2h-2l-2 4-7 8-8 7-7 6-1 2h-2v2l-13 9-5 4-5 3h-3v2l-13 5-22 10-15 4-9 2h-19l-13-1-11-3-28-5-20-7-14-5-14-7-7-2-12-11-6-10-1-4v-18l3-9 6-10h2l2-6 2-4h2l2-5 16-23 11-14 8-10 9-12 16-20 11-13 8-10 8-7 2-3h2l2-4 15-16 7-8 7-5 5-1v4l17-3 20-4 20-3z" fill="#7F7F75"/>
<path transform="translate(883,223)" d="m0 0h7l8 4 12 11 8 8 8 7 7 7 7 8 17 17 7 8 11 11 7 8 14 15 12 12 7 8 16 17 14 15 9 10 12 13 9 9 7 8 8 8 7 8 12 13 9 10 7 7 7 8 8 8 7 8 12 13 11 12 7 8 30 32 14 15 22 24 9 11 9 10 7 8 4 5-1 5-6 8-9 9-11 9-13 12-10 9-13 11-14 9-6-2-14-14-7-8-9-9-7-8-10-11-9-11-15-16-9-11-6-7-7-9-13-12-9-7-7-8-10-9-2-5-4-2-7-8v-2l-3-1v-2h-3l-10-14-5-5-2-5-4-2-1-3-3-1-2-5h-3v-2h-2v-2h-2l-5-6-4-3-5-9-9-10v-2h-2l-8-10-14-15-11-12-16-17-21-21-7-8-7-7-8-7-14-14-7-8-9-10-7-8-8-10-7-9v-2l-3-1-9-12-5-4-2-6 2-5 7-6 6-7 6-4 7-7 8-7 13-12 8-8z" fill="#E1B89C"/>
<path transform="translate(629,1148)" d="m0 0 166 2 172 1 117 2 1 1 1 32v62l-1 8-5 4h-218l-36-1-109-1-99-1-60-1-23-2-10-2-1-1v-6h-2l-1-4-1-21v-39l1-28 2-4h100z" fill="#E1B89C"/>
<path transform="translate(993,590)" d="m0 0h92l6 3v208l-3 149-1 98-2 73-1 18h-2l1 2v8l-1 1h-100l-2-1-1-7v-27l1-65 2-232 1-63 1-30 1-90 1-40 2-4z" fill="#E1B89C"/>
<path transform="translate(524,583)" d="m0 0h32l18 1h29l21 2 4 3 1 4v107l-1 150-1 208-1 61-1 21-3 4h-80l-19-1-2-1v-312l1-37v-83l1-38z" fill="#E1B89C"/>
<path transform="translate(84,340)" d="m0 0h18l10 5 9 12 1 2 1 14 7 27 4 16 2 9 2 4 1 4 1 9h1l2 9v5l2 5 1 14v30l-1 4-1 5-4 16-6 10-3 3-9 11-9 12-7 9h-2l-2 5h-2l-1 3h-2l-2 4-7 6-4 4h-2l-1 3-11 8-14 12-14 11-11 9-21 14-4 2h-5l-1 2v-275l3-2h3v-2l16-8 16-9 27-15 15-6z" fill="#7F7F75"/>
<path transform="translate(0)" d="m0 0h273l-1 2-6 3-9 8-11 9-9 8-5 4h-2v2l-8 7-3 3h-2l-1 3-8 7-10 9h-2v2l-8 7-6 5-7 8-7 7-7 8-5 4-5 5-5 4-4 5-8 7-3 1-2 4-12 11h-2l-2 4-10 9-8 7-8 8-8 7-10 9-5 4-5 5-9 7-4 4h-2l-1 3-6 4-7 6-7 5-5 5-11 9h-2l-1 3-4 1z" fill="#7F7F75"/>
<path transform="translate(361)" d="m0 0h259l1 3h2v2l4 2 9 11 6 8-2 7-9 6-11 4-21 5-15 2h-16l3 9 1 7 1 1 1 9 1 1v31l-4 15-3 8h-2l-1 7-9 17h-2l-2 6-8 16-11 15-10 14-9 12-9 11-9 10-9 11-19 19-1 2h-2v2l-5 5-14 13-8 7-15 11-15 10-19 10-18 7-8 1 1-2 9-3 3-3 1-4 4 1-4-2h-8l-21 6h-25l-28-6-21-8-24-11-16-8-5-2v-2l-6-2-11-7 1-2 9 3 12 6 29 10 24 5 14 3 4 1 13 1h19l18-4 16-6 2-2 20-8h3v-2l8-4h2l1-3 11-7 4-2v-2h2l2-4 8-7 6-5 7-8 2-3h2v-2l5-5 9-11 10-10 2-3h2l2-4 11-13 11-16 11-15 8-12 3-7 3-6 4-16 5-15 3-1 2-10v-5l-6-12-1-13-3-6-7-5-25-2-31-2h-57l-17 1-37 6-12 3h-8v-4l-7 3-10 9-7 8-11 12-1 2h-2l-2 4-7 6 2-4 5-5 3-5 4-4h2l1-4 10-9 2-4 8-7 11-12 5-3 4-6 4-4 4-6 13-16 8-10-5 3-8 7-1-2 2-4-4 4h-2v2h-2l-1 3-5 5-4 6h-2l-2 4-7 8-9 11-12 12-9 11-4 2-2 5-14 15-9 8-10 8-4 4h-3l1-4 4-4 1-2h2l2-5 7-7 7-8 13-14 7-8 7-7 9-11 12-12 9-11 6-5 8-10z" fill="#091722"/>
<path transform="translate(273)" d="m0 0h53v4l-11 2-10 6-19 10-28 17-17 12-10 7-12 8-10 7h-2v2l-9 6-20 12-1 3 6-3 11-3 11-6 14-9 20-13 39-22 20-11 13-6 5-3 12-10 9-4 4-1-2 4-6 9-5 2-2 7-2 6-5 3-3 5h-2l1 3h-2l-1 2h-2l-16 14-3 3h-2l-2 4-8 7-4 6h-3l-2 4-3 3-3 5-10 11-6 5-7 9-16 20-9 11h-2l-1 4-9 10-11 14-13 16-10 13-5 7h-2v3l-2 1-3 5-6 8-4 5-5 5-4 7-10 10-7 9-17 17-9 7-9 3-13 8-16 11-3 3-9 4-13 9-7 5-12 6-6 4-3-1 19-12 8-7 28-20 15-12 5-2h-3l-8 6-4 1 1-7-4-3 1-8-2-3h-8l-5-6-1-2-4-1-9 3-3-7-1 3-4 2 3 4-6 5-1 2-7 1-3 5-4 1 1-3-5 3h-4v-41l4-2 5-5 11-9h2l1-3 8-6h2l1-3 9-6 4-4h2l1-3 10-8 5-5 11-10 8-7 10-9 7-7 8-7 5-4 5-5 11-10 5-5 9-8 5-6 5-3 5-6 7-6 7-8 21-21h2v-2l10-8 8-8 8-7 6-6h2v-2l14-11 11-10 10-8 4-3z" fill="#091722"/>
<path transform="translate(1352,958)" d="m0 0 5 1 4 4 4 10 5 20 8 68 5 43 3 53v7l3 25 5 45 1 11v30l3 9-1 3-9-3-15-9-14-10-12-10-5-6-3-5-8-10-2-5h-2l-11-16-4-7-5-8-7-15-5-12-12-32-4-13-2-11-1-12v-16l3-31 3-17 3-7 4-16 5-8h2v-2h2l2-4 6-9 13-12 5-5 11-12 13-5z" fill="#9AA3A3"/>
<path transform="translate(1353,882)" d="m0 0h6l2 3v3l-10 8-8 7-5 3-10 9-15 15-7 8-10 13-7 8-9 16-5 9-3 7-4 10-6 16-6 22-2 13-3 7-3 1-2 6-1 2-4-2v-27l5-20-1-8-5 1-2 5-6 10-5 14-2 8-5 18-3 27v13l1 10v10l2 12 7 26 5 13 7 12 11 12 2 4 4 2 8 6 6 1 2-10 3-9 5-3 3 2 10 36 8 20 6 10 1 7-3 7-10 12-7 8-11 13-13 17-8 11-13 15-11 14-11 13-9 11-13 15-26 32-11 14-12 14-8 10-9 11-13 15-10 11-10 13-22 26-18 22-9 10-11 12-5 6h-23l2-5 6-9h2l2-4 3-4h2v-2h2l2-4 5-5 6-7h2l1-4 15-16 2-4h2l2-4 8-9 5-7h2v-3h2l2-5 4-6h2v-2l4-4h2l2-5 2-3h3l2-4h2l2-5 10-12 7-9h2v-2h2v-3h2v-2h2l2-4 4-5 1-2h2l2-5 8-10 10-13 8-10 7-9h2l2-5 9-9 3-5 4-4 3-5 12-14 8-9 6-9 11-13 8-11 3-3 7-14 3-9v-21l-4-6-6-11-9-8v-2h-2l-7-11-2-1v-2l-4-2-5-5-5-6v-2h-2l-5-10-7-21-5-14-2-10-2-12-4-16-2-10v-10l1-9v-22l2-26 4-10 7-15 7-13 5-8 8-17 15-23 9-12 8-7 5-4 5-5 2-3h2l2-5 6-3 3-3 12-5 6-4 12-6 11-4 10-7 11-6z" fill="#4D4E47"/>
<path transform="translate(1501,838)" d="m0 0h15l22 2 22 4 17 5 12 4 11 5v21l-10-3-10-4-8-4-13-4-19-3-17-2h-47l-8 1-6 2-22 3-16 5-20 8-7 2-4 1-10 4h-2v2l-11 7-14 11-13 12-7 8-7 9-12 15-15 23-9 20-9 27-6 27-2 14-1 15v31l3 20 5 19 10 28 10 21 8 14 11 16 8 10 11 13 8 9 14 11 18 12 22 12 21 8 19 5 15 3 19 2 17 1h17l11-2 9-2 18-3 18-4 10-4 9-3 11-2h3v10l-10 4h-2v2l-21 7-25 6-16 2h-34l-31-3-9-1-21-1-38-8-21-7-16-8-11-9-10-8-14-14-3-4v-2h-2l-11-20-9-16v-3h-2l-2-4 2 12 6 14 3 8 7 12v9l-3 2-1-9-7-12-7-18-8-28-3-9-5 2-6 19h-6l-12-9-14-16-5-8-5-11-5-17-5-20-1-7v-16l-1-7v-10l3-27 5-18 5-17 7-14 4-6 5-1 2 4-1 8-4 16v27l3 2 2-6 5-6 2-8 2-13 4-14 4-12 6-17 3-4 3-7 3-6 9-16 9-10 9-12 15-16 14-14 5-4 6-3 8-8 5-4h2l1-3 15-10 17-10 14-6 18-7 29-8 24-4z" fill="#363736"/>
<path transform="translate(1207)" d="m0 0h183l7 8 25 25 7 8 11 11 8 7 15 15v2h2l-1 6-8 11-7 7-8 7-12 13-8 8-7 8-12 11-8 7-11 10-4 3-1 4-16-16-3-2v-2l-4-2-13-13-8-7-34-34v-2l-4-2-12-14-4-3v-2h-2v-2l-4-2-7-8-15-14-8-8-8-7-20-20-7-8-2-1z" fill="#EBEBEC"/>
<path transform="translate(1478,91)" d="m0 0 4 2 9 9 8 7 7 7 7 8 36 36 7 8 8 8 2 3v6l2 1-2 3h-2l-2 5-36 36-7 8-21 21-11 9-1 1h-5l1 4-8-6-9-9-8-7-22-22-8-7-20-20-7-8-6-7-4-5-4-4 6 2 6-8 18-20 42-42 14-11 6-4z" fill="#EAEBEC"/>
<path transform="translate(1327,1282)" d="m0 0 6 2 4 5 4 4 2 4v9l-7 14-24 32-13 16-8 10-9 10-8 10-11 13-9 11-3 4h-2l-2 4-9 10-10 13-13 15-14 17-10 13-10 12-11 14-11 12-8 10-12 14-8 10-13 15-10 13-2 2h-49l2-4 8-10 7-9 8-7 11-14 5-8h2l2-4 7-9 9-10 6-8 4-4h2l2-5 4-2 1-4 5-5 12-14 7-9h2l2-4 8-9 1-2h2l2-5 4-6h2v-2h2l2-4 3-5 12-16 3-5h2l1-4 4-4 3-5h2l2-4 11-13 9-10h2l2-5 3-4h2l1-4 3-3 9-11 2-3h2l2-4 2-3h2l2-5 5-5 8-9 3-4h2l2-5 9-11 4-5 12-9z" fill="#1E2124"/>
<path transform="translate(0,1041)" d="m0 0 4 2 22 18 14 12 10 8 15 13 14 12 14 11 12 11 11 9 15 14 11 9 17 14 15 13 13 12 8 7 13 12 10 9 14 12 15 13 10 9 8 7 12 11 11 9 10 9 11 9 10 9 8 7 15 14 12 11 10 9 11 9 26 22 13 12 11 9 10 9 11 9 14 12 20 18 13 12 10 9 11 9 10 9 11 9 12 11 8 7 12 11 14 12 11 9 14 12 12 11 8 7 11 10 6 5v1h-26l-13-12-10-8-5-5-13-12-11-9-12-11-11-9-11-10-8-7-6-5v-2l-4-2-13-11-5-4-4-4-2-1v-2h-2l-5-5-11-9-8-8-5-4-5-5-11-10-5-5-7-5-5-5-10-8-28-24-8-6-5-5-11-10-11-9-10-9-13-12-8-7-9-8-2-1v-2h-2l-5-5-3-2v-2h-2l-5-5-10-9-11-9-15-13-10-9-11-9-12-11-11-9-10-9-11-9-7-7-8-7-11-10-8-7-14-12-17-14-11-9-13-11-11-9-26-22-11-9-12-11-8-7-14-12-19-14-2-1z" fill="#4C4238"/>
<path transform="translate(875,227)" d="m0 0 1 3-10 9-9 9-8 7-13 12-8 6-8 9-2 1-1 6 4 6 5 5 7 9 4 4 6 8 11 13 3 3 3 8 9 10 3 4 5 3 10 10 10 14 10 13 4 4-1 2-3-2-1 6-2 3h-18l-14 2h-15l-21-3-14-4-18-5-14-4-19-11-11-8-8-6-8-3-6 1-7 7-8 7-2 4h-3v2l-8 7-12 11-9 9-2-1 15-16 14-14 8-7 17-16 15-15 8-7 16-15 15-16 5-5 10-9v-8l-6-8-17-17-7-8-23-23v-2h11l10-1h49l29 2 5 1 11-3z" fill="#4C4239"/>
<path transform="translate(121,1425)" d="m0 0 4 2 18 14 14 12 11 10 8 7 12 11 7 6-1 5-4 7h-2l-2 5-13 17-7 9h-2l-2 4-12 12-10 13-4 6-9 7-5 4h-2l1 3 3 3-2 1-9-5-8-6-8-5v-2l-7-1-1-4-11-10-7-5-1-4-4-2-5-4v-2l-4-2-7-8v-2h-2l-2-7 2-3h2l2-6 7-10 1-2h2l2-5 5-6h2l2-4 14-17 9-11 17-17 1-2h2l2-4z" fill="#0B0C0E"/>
<path transform="translate(217,1322)" d="m0 0 5 1 11 7 14 10 22 18 13 12 8 8-3 10-4 11-8 10-5 6-6 5-7 8-13 16-7 8-8 6-7 3-1 1-7 1-3 3-4-4-4 1-9-6-8-6v-2l-5-2-13-12-8-6-7-6-6-8-2-5-5-3 1-3h2l2-5 8-11 9-12 11-12 1-2h2v-2h2l2-4 20-20 8-7z" fill="#0B0C0E"/>
<path transform="translate(532,21)" d="m0 0 5 5 10 23 8 22 3 15v6l-1 2 3 9v17l-4 12-4 7h-2l-3 10-11 21-13 20-6 11-6 7-2 6 4-1v-2h2l2-4 4-2 4-7 5-3-2 4-13 18-11 13-12 14-12 13-12 12-1 2h-2v2l-5 5-14 13-8 7-15 11-15 10-19 10-18 7-8 1 1-2 9-3 3-3 1-4 4 1-4-2h-8l-21 6h-25l-28-6-21-8-24-11-16-8-5-2v-2l-6-2-11-7 1-2 9 3 12 6 29 10 24 5 14 3 4 1 13 1h19l18-4 16-6 2-2 20-8h3v-2l8-4h2l1-3 11-7 4-2v-2h2l2-4 8-7 6-5 7-8 2-3h2v-2l5-5 9-11 10-10 2-3h2l2-4 11-13 11-16 11-15 8-12 3-7 3-6 4-16 5-15 3-1 2-10v-5l-6-12-1-13-3-6-7-5-25-2-31-2h-57l-17 1-37 6-12 3h-8v-4l-7 3-10 9-7 8-11 12-1 2h-2l-2 4-7 6 2-4 5-5 3-5 4-4h2l1-4 10-9 2-4 8-7 11-12 5-3 4-6 4-3h3l-1 5-1 2h-2l-1 4-5 7-4 4-1 2 25-5 16-4 15-2 15-1h56l39 3 15 1 5-3 9-1 3 1v-5l-4-5-2-11-2-3 1-4z" fill="#363635"/>
<path transform="translate(392,1470)" d="m0 0 5 2 12 10 28 22 14 12 14 14-2 4-6 8h-2l-2 4-13 13-3 4h-2v2l-5 5-13 15-11 15h-52l-2-5-5-3v-2l-4-2-11-9v-2h-2v-2l-4-2v-2l-4-2-5-10-3-4 2-6 9-12 9-10 4-5h2l2-4 10-10 7-8 3-4h2l2-4 10-10 8-7z" fill="#0B0C0E"/>
<path transform="translate(1467)" d="m0 0h133v48l-4 2-2 4-13 13-8 7-21 21-8 7-10 10-1 2-4-1-5-5-11-10-8-7-9-9-7-8-11-11-8-7-23-23-3-2 1-4 12-14 9-11z" fill="#EBECED"/>
<path transform="translate(1582,200)" d="m0 0 4 1 6 4v2l5 2 3 1v157l-2 2h-6l-1 3-5 1-1 2-5-2-9-9-8-7-8-8-8-7-45-45-8-10 2-4 12-14 23-23 8-7 20-20 8-7 9-8z" fill="#EBECEC"/>
<path transform="translate(1581,406)" d="m0 0 9 3 10 6v181l-7-6-12-11-24-24-8-7-28-28-7-8-10-11-4-6 1-4 2-6h2l2-4 5-5 9-10 14-15 6-7 11-9 14-14 8-7 4-3 3-1z" fill="#EBEBEC"/>
<path transform="translate(304,1395)" d="m0 0 5 2 16 12 11 9 16 13 8 7 10 9 9 9v1l-9 1-4 10-6 14-8 7-4 5h-2l-2 5h-2l-2 5-4 5h-2l-1 4h-2v2l-3 3h-2v2h-2l-2 4-10 10-4 1-6-2 2-1 1-13 3-6 1-1-1-7-9-7 2-5 6 1-2-22 5-1h16l1-6h-22l-1-15-1-6-3 3-1 3v12l1 3-1 1-20 2-3 3-1 3-12-1 1-4v-2h-7v2l-9 7-5 6-1 3 13 11 11 9 13 12 14 11 6 4-2 1-2 5-4 1-8-5-5-2v-2l-4-1-14-11-2-4-4-2-7-7-8-7v-2h-2l-5-6v-2h-2l-2-3 1-7 10-14 5-8h2v-4h2l2-5 9-7 3-4h2v-3h2l3-6h2v-2h2l2-4 10-10 13-11z" fill="#0B0C0E"/>
<path transform="translate(1347,896)" d="m0 0 3 1-7 6-5 3-10 9-15 15-7 8-10 13-7 8-9 16-5 9-3 7-4 10-6 16-6 22-2 13-3 7-3 1-2 6-1 2-4-2v-27l5-20-1-8-5 1-2 5-6 10-5 14-2 8-5 18-3 27v13l1 10v10l2 12 7 26 5 13 7 12 11 12 2 4 4 2 8 6 6 1 2-10 3-9 5-3 3 2 10 36 8 20 6 10 1 7-3 7-10 12-7 8-11 13-13 17-8 11-13 15-11 14-11 13-9 11-13 15-26 32-11 14-12 14-8 10-9 11-13 15-10 11-10 13-22 26-18 22-9 10-11 12-5 6-2-1 3-7 8-10 10-10h2l2-5 2-2h4v-2h2l1-7 7-9 2-4 3-4h2v-3h2v-2l4-4h2v-2h2l2-4 8-11 7-8h2v-2l6-5 4-6h2l2-4 7-7 5-9 6-8 2-3h2l1-3h2v-2l7-6 4-5h2l2-4 7-8 3-1 6-13 4-7 5-5 9-11 1-2h2l2-5 5-6h2l2-5 4-4h2l3-6h2l2-4 8-11 10-12h2l2-5 5-4 4-9 7-11 7-6 8-4 3-4v-6l-1-1v-8l4-21-1-6-9-10-5-7-3-6-4-5-8-7v-2h-2v-2l-6-3v-2l-4-2-6-7v-2h-2l-7-14-5-12-8-26-5-25-1-17v-20l1-8v-14l4-21 7-19 4-7 7-11 8-17 6-10h2l2-4 9-12 4-6 10-8 10-5 10-4 6-5h2v-2l8-6 7-6 10-8h2v-2h2l1-3h2v-2h2v-2l9-7z" fill="#4B4137"/>
<path transform="translate(64,1377)" d="m0 0 12 6 16 13 10 10 9 7-2 5-5 10-2 1-1 3-1 2h-3l-2 5-9 13h-2l-2 5-7 8-7 10-6 10-4 5-7 4-9 4-8 1-4-2-5 1-21-14-4-2v-43l4-2 7-8 14-15 6-7h2l1-3 21-21z" fill="#0B0C0E"/>
<path transform="translate(1501,838)" d="m0 0h15l22 2 22 4 17 5 12 4 11 5v21l-10-3-10-4-8-4-13-4-19-3-17-2h-47l-8 1-6 2-22 3-16 5-20 8-7 2-4 1-10 4h-2v2l-11 7-14 11-13 12-7 8-7 9-12 15-15 23-9 20-9 27-6 27-2 14-1 15-1 40-4 1-5-6-1-8v-18l1-8 2-38 2-17 5-17 5-15 15-30 7-11 10-11 9-11 5-5 12-13 17-16 5-4h2l1-3 15-10 17-10 14-6 18-7 29-8 24-4z" fill="#0F1011"/>
<path transform="translate(522)" d="m0 0h98l1 3h2v2l4 2 9 11 6 8-2 7-9 6-11 4-21 5-15 2h-16l3 9 1 7 1 1 1 9 1 1v31l-4 15-3 8h-2l-1 7-9 17h-2l-2 6-8 16-11 15-9 9-3 5-5 3-1 2h-2v2l-5 2 1-5 6-8 4-7 10-16 8-13 10-19 3-8 3-3 5-12 1-4v-17l-3-10 1-1-1-12-4-15-5-12-5-13-6-14-9-16-4-7z" fill="#0A1722"/>
<path transform="translate(156,1270)" d="m0 0 6 1 11 6 12 9 14 14 3 5-1 8-7 14h-2v2h-2l-2 4-8 15-11 13h-2l-2 4-10 8h-2v2l-11 8-5 3-5-1-5-5v-8l4 1 6-13h-3l1-4 3-5 5-5 1-16v-11l-4-7-3-2 1 7-2 1 4 2 1 10-2 2-4-10-9 2-1 5 9 13 1 4-4 1-7-5-6-2-2-2-4 1-4 3 2 4 2 1v2l4 2 10 10 4 8v2l-4-1-5-3-2-5v-3h-2v-2l-4-2-4-3-5 1-6-3-4 3h-3l5 5 13 12 11 10 3 2v2l4 2 2 5-4 1-10-2-11-8-7-6-5-5v-2h-2l-8-10-1-6 6-9 13-15 9-10 1-2h2l2-4 12-16 7-6 2-3h2l2-4 5-4 3-3 6-4z" fill="#0B0C0E"/>
<path transform="translate(1058,563)" d="m0 0 4 2 14 12 9 5 15 14 8 11 10 11 7 8 11 12 9 11 12 13 11 12 7 7 7 8 7 7v3h3v2l-15 4-14 2h-9l-7 1-16 1-9 1-10 2-4-1h-7l-7 5-2 2v-125h-2v-2l-4-1-13-1-26-1-10-2 4-3 10-2 7-2 8-1v-5l-8-9z" fill="#4E4F48"/>
<path transform="translate(1412)" d="m0 0h55l-2 5-10 11-9 11-1 4 8 7 23 23 8 7 12 12 7 8 8 8 11 9 7 6v2l4 1 2-4 15-15 8-7 21-21 8-7 12-12h1v140l-5-2-36-36-7-8-15-16-12-13-11-10-8-7-10-9-71-71-10-13z" fill="#E7E8E8"/>
<path transform="translate(519,578)" d="m0 0 4 1-1 106-2 9-7-4-10-2-13-1-18 1-15-2-4-1-23-2-14-1-6-2 1-3 9-6 17-16 10-9 29-29 8-7 13-13 8-7 11-9z" fill="#1E2124"/>
<path transform="translate(209,1512)" d="m0 0 5 2 7 6 8 7 13 11 11 9 12 12 1 4-5 10-12 13-9 10-3 4h-83l-8-7-1-4 2-3h2l1-4 7-9 9-10 8-10 12-14 8-10 12-14z" fill="#807F75"/>
<path transform="translate(1281,1151)" d="m0 0h2l8 21 9 19 6 12 6 9 5 5 12 16 12 14 8 9 14 11 18 12 22 12 21 8 19 5 15 3 19 2 17 1h17l11-2 9-2 18-3 18-4 10-4 9-3 11-2h3v10l-10 4h-2v2l-21 7-25 6-16 2h-34l-31-3-9-1-21-1-38-8-21-7-16-8-11-9-10-8-14-14-3-4v-2h-2l-11-20-9-16v-3h-2l-2-4 2 12 6 14 3 8 7 12-1 3-4-7v-2h-2l-7-17-4-10-4-16-5-21-4-11-2-17 3-8z" fill="#1E2124"/>
<path transform="translate(977,1082)" d="m0 0h1l1 56 1 4v7h105v4h-60l-58-1-172-1-72-1-13-1-62-1h-127l-1-3 1-2h21l6 1 76 1 2-5 1-6 1 4h18l5 1 13-2 4-1 15 1 26 1 17 5 6 1 19 1 29 1h68l11-2 10-3 7-1 9-4 6-3 8-5 6-1 1-3 7-4h21l16-3 5 1h9l10-2 3-1-1-12-2-6-3 1h-13l-8 1-7-2h-17l-12 3-10 5-9 8-15 8-15 7-10 1 4-2 7-3 6-3h2v-2l16-8 3-3h2l2-4 8-7 9-5 10-4 11-1h11l13 2v2h8l7-2-1-3 4-1z" fill="#5E574C"/>
<path transform="translate(1353,882)" d="m0 0h6l2 3v3l-4 1-5-1-16 8-6 4-5 4-8 5-10 4-8 4-9 4-7 2-6 5-5 5-4 5h-2v2l-8 7-8 10-4 2-2 4-6 10h-2l-6 12-10 23-7 10-8 16-3 11-3 43-1 10 1 34 2 6 4 20 3 10 3 7 6 18 4 8v2h2l4 7 5 5 5 4 6 7v3h2l2 4 4 2 3 4v2h2l7 8 5 14-1 18-3 10-3 8-3 5h-2l-1 4-8 10-11 14-1 2h-2l-2 4-8 10-6 8-3 3-6 8-4 5h-2l-1 5-8 10h-2l-2 4-4 5-3 3h-2l-2 6h-2l-1 3h-2l-2 4-14 18-1 2h-2v2h-2l-2 6-6 8-3 5h-2l-2 4-6 5-4 6-9 12-6 7h-2l-1 3h-2l-2 5-7 8-3 3-4 6-5 5h-2l-1 4h-2l-2 5-2 3h-2l-2 4-3 4h-2l-2 5-9 11-1 3-7 6-7 9-5 4-3 5-6 5-3 5-3 10h-10l2-5 6-9h2l2-4 3-4h2v-2h2l2-4 5-5 6-7h2l1-4 15-16 2-4h2l2-4 8-9 5-7h2v-3h2l2-5 4-6h2v-2l4-4h2l2-5 2-3h3l2-4h2l2-5 10-12 7-9h2v-2h2v-3h2v-2h2l2-4 4-5 1-2h2l2-5 8-10 10-13 8-10 7-9h2l2-5 9-9 3-5 4-4 3-5 12-14 8-9 6-9 11-13 8-11 3-3 7-14 3-9v-21l-4-6-6-11-9-8v-2h-2l-7-11-2-1v-2l-4-2-5-5-5-6v-2h-2l-5-10-7-21-5-14-2-10-2-12-4-16-2-10v-10l1-9v-22l2-26 4-10 7-15 7-13 5-8 8-17 15-23 9-12 8-7 5-4 5-5 2-3h2l2-5 6-3 3-3 12-5 6-4 12-6 11-4 10-7 11-6z" fill="#5B5348"/>
<path transform="translate(532,21)" d="m0 0 5 5 10 23 4 11 2 9 1 5v8l-4 6 1 9-2 10-2 6v5l-3 3-2 8-8 16-6 9h-2l-2 5-7 8-6 9-2 1-2 5-6 8-3 2-2 5-9 12-11 13-8 10-9 11-9 9-7 8-6 7-8 7-7 7-13 10-8 6-16 10-9 5-11 6-7 1v2l-5 2-12 1-17-2-10-1-5-2-8-2-6-2v-2l-3 1-21-6-17-6-10-4v-2l-6-1-4-3 9 2 20 7 24 5 14 3 4 1 13 1h19l18-4 16-6 2-2 20-8h3v-2l8-4h2l1-3 11-7 4-2v-2h2l2-4 8-7 6-5 7-8 2-3h2v-2l5-5 9-11 10-10 2-3h2l2-4 11-13 11-16 11-15 8-12 3-7 3-6 4-16 5-15 3-1 2-10v-5l-6-12-1-13-3-6-7-5-25-2-31-2h-57l-17 1-37 6-12 3h-8v-4l-7 3-10 9-7 8-11 12-1 2h-2l-2 4-7 6 2-4 5-5 3-5 4-4h2l1-4 10-9 2-4 8-7 11-12 5-3 4-6 4-3h3l-1 5-1 2h-2l-1 4-5 7-4 4-1 2 25-5 16-4 15-2 15-1h56l39 3 15 1 5-3 9-1 3 1v-5l-4-5-2-11-2-3 1-4z" fill="#4D4D46"/>
<path transform="translate(0,1177)" d="m0 0 4 2 10 8 3 2v2l5 2 11 10 9 7v2l4 2 13 12 3 2-1 7-7 7-7 8-12 13-9 11-10 11-14 16h-2z" fill="#7F7F75"/>
<path transform="translate(28,1537)" d="m0 0 5 2 12 8 14 11 10 9 8 7 13 11 11 8 3 2v2l-2 1v2h-102v-40l11-9 13-11z" fill="#0B0C0E"/>
<path transform="translate(184,1376)" d="m0 0 4 1-4 6 4 1 3-3h5l4-5 5 1 3 4v3l11-4 2-3h6l3 2v3h-2l-2 4-4 2v4l5-3 4 2 1 3 3 2 1 6h-3l-1 7 4-1 2 3 1 8-10 14-7 10-7 11-1 3-4-1-11-9-15-14-10-9-8-8-8-7-4-6 4-2 2-4 13-13 6-4h2v-2h3z" fill="#1E2124"/>
<path transform="translate(474,1543)" d="m0 0 6 1 14 11 32 26 11 9 7 6v2h2v2h-129l6-7 9-10 13-14 8-7 4-5 8-7z" fill="#0B0C0E"/>
<path transform="translate(1e3)" d="m0 0h7v2l4 2 9 10 8 7 8 8 8 7 15 15 8 7 65 65 7 8 50 50 8 7 68 68 7 8 63 63 8 7 50 50 7 8 56 56 7 8 15 14 5 2v2l-7-1-15-14-8-7-34-32-20-20-7-8-20-20-7-8-6-5-38-38-8-7-177-177-2-1v-2h-2v-2h-2v-2l-4-2-1-3h-2v-2h-2v-2h-2v-2l-4-2-1-3h-2v-2h-2v-2l-4-2-42-42-2-1v-2h-2v-2l-4-2-36-36-7-8-12-12z" fill="#D5BAA8"/>
<path transform="translate(1214)" d="m0 0h116l-4 7-9 10-7 8-21 21-8 7-6 6-1 3-4-2-7-8-12-12-8-7-7-7-7-6-7-8-8-9z" fill="#EAEBEB"/>
<path transform="translate(1228,256)" d="m0 0 7 6 4 2v2l4 2 16 16 7 8 83 83 7 6 7 8 15 15 7 6 7 8 14 14 7 8 109 109v2l4 2 3 3v2h2v2l4 2 5 6 8 7 48 48 4 3v10l-7-6-9-10-2-6-5-5-4-2h-3l-9-7-13-12-26-26-6-5-7-8-7-7v-2h-2l-7-8-9-9-4-6-8-7-15-16-13-13-8-7-12-11-30-30-2-6h-2l-5-10-4-4-5-1-8-7-17-17-2-7-3-3v-2l-4-2-3-2-1 2-2-1v-2l-4-2-20-20v-2h-2l-1-6-10-10-5-1-5-3v-2h-2l-3-5-5-4-5-7-4-7-6-6v-2l-4-2-8-8-2-1v-2h-2l-5-5v-2h-2l-2-5h-2v-2h-2l-7-9z" fill="#4E4D45"/>
<path transform="translate(875,227)" d="m0 0 1 3-10 9-9 9-8 7-13 12-8 6-8 9-2 1-1 3-5 1-12-13-2-2-5-2-16-17-20-20v-2h11l10-1h49l29 2 5 1 11-3z" fill="#3A3A38"/>
<path transform="translate(0,1137)" d="m0 0 6 4 5 4v2l4 2 15 13 10 8 10 9 11 9 11 10 11 9 10 9 7 6-1 2-11 3-11 4-10 5-7 4h-3l4-7v-5l-11-9-8-7v-2l-4-2-15-13-6-4v-2l-4-2-13-10z" fill="#0B0C0E"/>
<path transform="translate(1062,516)" d="m0 0 3 1 2 5 4 2 1 4 5 1-3-9 1-2 1 3 4 2 7 8v2h2l1-3 5 6 5 5 5 4 5 5 8 9 3 1 2 6 6 8v2h2l3 4 1-1 5 4 5 8h1v-3l6 4 6 9-2 1 8 7 7 9-2 1 6 11 3 9-3-1v7l1 4-7-2 6 5-2 1-7-4v-2l-3-1-9-11-8-7-7-9-5-6-6-4-7-9-3-5-2-1v-2h-2l-6-11-12-13-6-8v-2h-2l-4-7-1-4-3-1-3-8-7-3-6-9-3-6z" fill="#D5BAA9"/>
<path transform="translate(1180)" d="m0 0h6l7 8 8 7 1 3h2l7 8 6 5 5 5 14 15 17 17 6 5v2l3 1v2h2v2h2v2l4 2 12 12v2l4 2 7 8 67 67 2 1v2l4 2 7 8 8 7 10 10 7 8 51 51 8 7 5 6 8 7 7 8 2 1v2l4 2 12 12 7 8 66 66v3h-2l-1 2 4 1v-2h3l-2 5-10 13-15 16-42 42-8 7-8 6 1-5 5-7 8-7 5-5 10-9 33-33 7-8 7-9v-7l-16-16-7-8-8-7-87-87-8-7-15-15-7-8-119-119-7-8-12-12-8-7-77-77-9-11-3-3z" fill="#46433D"/>
<path transform="translate(1093,593)" d="m0 0 5 4 8 11 12 13 7 9 11 13 2 6h2l7 8 2 1v2l4 2 16 16 7 8 8 10 1 3h-8l-13-5-11-5v-2l-9-3-12-7-4-1-11-4-15-5-7 1-1-1-1-48z" fill="#0B0D0F"/>
<path transform="translate(31,259)" d="m0 0 4 1-3 2 2 5 9-2 1-2v2l5 1 2 5 2 2h8l1 3 2 1-1 8 4 3-1 6 7-4 6-4 1 2-11 8-17 13-17 12-7 5-4 4-8 5-8 3-8 4v-58l7-3 3-1v3h2l2-5 4-2 4 1 2-4 3-4-2-3 4-3z" fill="#0B0C0E"/>
<path transform="translate(521,582)" d="m0 0h1v103l-2 9-7-4-10-2-13-1-18 1-15-2-4-1-23-2-14-1-6-2 1-3 9-6 17-16 10-9 29-29 8-7 8-8 1-2 2 1-7 8-9 9-8 7-13 13-7 8-17 17 3 2 23-3 17-5 4-3 14-5 7-1h14l4 2z" fill="#4C4238"/>
<path transform="translate(522)" d="m0 0h18l8 14 1 5h2l8 17 9 16 3 7 1 7 1 1 1 9 1 1v31l-4 15-3 8h-2l-1 7-9 17h-2l-2 6-8 16-11 15-9 9-3 5-5 3-1 2h-2v2l-5 2 1-5 6-8 4-7 10-16 8-13 10-19 3-8 3-3 5-12 1-4v-17l-3-10 1-1-1-12-4-15-5-12-5-13-6-14-9-16-4-7z" fill="#0E0F11"/>
<path transform="translate(1207)" d="m0 0h7l3 5 8 9 7 8 12 11 5 4v2l4 2 21 21 1-4 12-12 8-7 20-20 7-8 8-11h34l-2 4-12 13-10 9-33 33-7 6-7 8-3 3 2 5 9 9v2l4 2 51 51 8 7 8 8 3 2 4 7-1 2-16-16-3-2v-2l-4-2-13-13-8-7-34-34v-2l-4-2-12-14-4-3v-2h-2v-2l-4-2-7-8-15-14-8-8-8-7-20-20-7-8-2-1z" fill="#E6E6E6"/>
<path transform="translate(814,293)" d="m0 0 5 5 9 11 8 10 9 11 6 8 6 9 3 4-1 6-5 3-24 1-14-3-7-3-15-9-1-4-8-4h-7l-4-2 8-8 7-8 9-10 4-6 4-4 7-1z" fill="#1E2124"/>
<path transform="translate(86,337)" d="m0 0h17l6 3v2l5 2 7 8 9 14 7 14 7 26v12l-5 3 4 18 7 32 3-3 2 2v23l-4 10-2 9-2 11 2 3v7l-3 8h-2l-3 10-12 16-5 1-10 10-11 9-20 18-16 12-3 3-5 4-14 11-19 14-19 12-5 3h-2v-6l1-2 9-3 15-10 16-12 13-11 14-11 11-9 6-5h2l2-4 7-6 4-5h2l2-5h2l2-4 7-9 11-14 4-5 2-3h2l2-6 4-7 3-13v-5l1-1v-5h1v-35l-1-7-2-6-1-8-2-6-1-7-1-2v-6l-2-1-1-9-2-1-2-12-7-25-1-7-1-12-6-9-5-5-8-4h-18l-14 5-16 8-24 13-5 3-2-1 5-2v-2l6-3h3v-2l22-12h2l1-3 8-4 10-2h6z" fill="#363736"/>
<path transform="translate(1599,82)" d="m0 0h1v101l-5-3-12-11-36-36 2-4 29-29 8-7 9-8z" fill="#EAEBEC"/>
<path transform="translate(398,1525)" d="m0 0h3l-1 7-9 10-7 8 1 7 2 1h10l4 3 1 3v21h-2l-2 10-2 5h-23l-9-9-8-7-10-9-11-9-6-5 2-4 7 2 6 4h7 2l-4-4-3-1v-2l-5-2-9 1-4 1-1 3-2-2 1-4 5-3 4-5h2l1-2 5-2 6-4 7 1 6 9 7 9 2 1 2-5 9-11 9-9 5-6z" fill="#1E2124"/>
<path transform="translate(756,349)" d="m0 0 2 1-11 11 5-1 9 4 11 7 4 3v2l4 2 11 6 20 8 25 6 17-1 8-2 20-1 8-2 1-6-4-7-7-8-6-9v-2l4 2 10 10 10 14 10 13 4 4-1 2-3-2-1 6-2 3h-18l-14 2h-15l-21-3-14-4-18-5-14-4-19-11-11-8-8-6-8-3-6 1-7 7-8 7-2 4h-3v2l-8 7-12 11-9 9-2-1 15-16 14-14 8-7 17-16z" fill="#5C5449"/>
<path transform="translate(529,195)" d="m0 0v3l-12 16-11 14-10 11-9 11-19 19-1 2h-2v2l-5 5-14 13-8 7-15 11-15 10-19 10-18 7-8 1 1-2 9-3 3-3 1-4 4 1-4-2h-8l-21 6h-25l-28-6-21-8-35-16 3-1 14 6 10 5 29 8 8 3 12 3h12l6 3 6 1 9-1 15-4 6-2 14-2 9-4 21-11 18-13 10-8 6-5h2l2-5 1-3-15 9-5-1 3-5 14-14h2v-2l5-4 6-2v-2h8l4-3h2v-2h2l2-4 3-1v-4h-5l-1-1v-7l7-5h2v-2h2l1 7h4l6-7 1-2h2l2-4 8-11 6-7v3l-8 11-1 4 4-1v-2h2l2-4 4-2 4-7z" fill="#202225"/>
<path transform="translate(0)" d="m0 0h53l4 4-1 2h-3l-1 10-5 2v3l-6 14-2 7-1 2h-3l-1 5h-2l-2 4-4 5-3 2-1 3-4 2-10-1-5 6h-3z" fill="#98998F"/>
<path transform="translate(206,1506)" d="m0 0 3 1 5 1v2l4 1 1 3 5 2 3 2v2l3 1v2h2v2l4 2 11 9 5 4v2l4 2 6 4v2l5 2 10 7 2 6-1 5-8 9-9 11-2 4v6h-22l3-5 16-17 6-8 3-9-3-5-8-7-10-9-10-8-11-10-6-4-6-5-4 2-10 11-11 14-9 10-11 14-11 12-5 7-1 3h-2l-1 6 8 7v1h-25l3-11 2-1 2-6 5-9 6-8 4-8 4-4 8-12h2v-2h2v-2h2l1-4 4-4h2l2-4 3-3h2l2-4 15-10z" fill="#0D0E0F"/>
<path transform="translate(105,1491)" d="m0 0 4 1 9 6 5 2 5 6v12h2l3 6 2 3-1 11-5 12-7 11-2 4-4 1v-2l-4-2-13-11-11-10-8-7-10-10-8-7v-3l5-4h3l1-3 5-5 2-3 5-1-1 4-5 9v4l11 6v2h2v2l4 2 8 8 2 1v2h2l1 5h2l-2-6-6-7-8-7-6-7 1-7h4l11 7 6 7-1-4-1-1-1-12-4-8z" fill="#1E2124"/>
<path transform="translate(42,1416)" d="m0 0 2 1 1 7 3 4h3l-1-2 21 1-1 5-4 8-3 2-2 5-3 1-1 5-3 3-2-2h-6l-2 6-1 2h-2v16l-4 9-3 3-18-13-11-8-5-3v-7l5-3 4-5 5-3 5-2h5l4 2v-2l-4-3 1-5 4-4 10-6 2-1v-3l-2-1 1-5z" fill="#1E2124"/>
<path transform="translate(1478,91)" d="m0 0 4 2 9 9 8 7 7 7 7 8 36 36 7 8 8 8 2 3v6l2 1-2 3h-2l-2 5-36 36-7 8-21 21-11 9-1 1h-5l1 4-8-6-9-9-8-7-22-22-8-7-20-20-7-8-6-7-4-5-4-4 6 2 6-8 18-20 42-42 14-11 6-4zm1 5-79 79-6 5 1 4 11 12 39 39 13 12 20 20 4-1 13-10 17-16 37-37 14-16v-3h-2l-2-4-9-10-7-8-21-21-8-7-11-12-15-16-6-8-1-2z" fill="#2C2C2C"/>
<path transform="translate(1318,949)" d="m0 0h1v7l-1 2-1 9 7-1 8-5 5-5 5-6 12 1 7 2v3l2 1 4 13 2 14v6l-2-4-4-16-4-8v-2l-7-1-9 3-9 4-11 12-12 12-6 5-7 11h-2v2h-2l-2 5-3 5-4 17-3 8-3 21-2 23v16l2 19 3 11 7 20 6 14 4 11 5 12 8 15 4 5 5 9 6 8v2h2l7 10 6 7-1 2-10-11-13-17-11-17-8-15-9-20-11-33-4-20-1-9v-31l2-22 5-26 6-21 8-21 8-16 12-18z" fill="#98998F"/>
<path transform="translate(1370,1313)" d="m0 0 42 6 46 7v1l-29-2-3 1v2l-11 4-13 4-12 3-15 5-8 1-1 1-16 1-10 2-3 1v2l-8 7-8 9v-3l13-16 11-14 11-13 11-8z" fill="#4D4D46"/>
<path transform="translate(345,1359)" d="m0 0 5 2 2 1v2l4 2v2l5 2 5 4v2l4 2v2l4 1 13 12 11 9 13 12 9 7 4 3v2l4 2v2l4 1 7 6 2 3 3 1v2l4 2 8 7 5 6 8 6 10 10 6 5 3 4 3 1 4 4 14 11 13 12 8 7 10 9 11 9 9 8 4 3v2l4 2 13 11 14 12 5 4 2 1v2h2l2 2-1-3-8-7-7-7-11-9-14-13-2-1v-2h-2v-2l-4-1-13-12-5-6 4-1 11 8 7 6v2h2v2l4 2 12 11 2 1v2h2l5 5v2l4 2 15 14 22 22v2h-12l-13-12-10-8-5-5-13-12-11-9-12-11-11-9-11-10-8-7-6-5v-2l-4-2-13-11-5-4-4-4-2-1v-2h-2l-5-5-11-9-8-8-5-4-5-5-11-10-5-5-7-5-5-5-10-8-28-24-8-6-5-5-11-10-11-9-7-6z" fill="#5A5348"/>
<path transform="translate(955,838)" d="m0 0h7l5 3 3 7 2 6 1 5-4 11-4 6-6 5-4 2h-11l-9-2-5-5-4-5-7-14 2-6 4-5 4-2 16-2z" fill="#808076"/>
<path transform="translate(1326,920)" d="m0 0v3l-9 10-10 13-6 10-10 21-2 5-3 12-1 1v9l8-18 2-1-3 10-8 24-6 27-2 14-1 15-1 40-4 1-5-6-1-8v-18l1-8 2-38 2-17 5-17 5-15 15-30 7-11 10-11 9-11 5-5z" fill="#212426"/>
<path transform="translate(1595,1290)" d="m0 0h5v10l-15 6-21 6-21 5-7 1-33 1-25-2-19-3-5-3-24-7-15-5v-2l6 1 18 5 12 3 26 3 17 1h17l11-2 9-2 18-3 18-4 10-4 9-3z" fill="#4E4D46"/>
<path transform="translate(772,337)" d="m0 0h14l7 5 1 4 5 2 13 8 11 3 13 1 18-1 4-2 1-6v-3l11 14-1 4-2 4-6 3h-11l-9 3h-8l-15-2-15-6-10-7-13-11-3-2-8-2-7 1 6-7z" fill="#363736"/>
<path transform="translate(974,1140)" d="m0 0 4 1v9h-255l-13-1-62-1h-127l-1-3 1-2h21l6 1 76 1 1-3h5l1 1 21 1 111 3h134l14-2h29l6-2 18-2z" fill="#51473D"/>
<path transform="translate(519,578)" d="m0 0 4 1-1 3-1 54-1 3-3-1-5-12-7-5-8-2-7 3-9 7-12 9-9 4-6 2 2-4 7-8 14-14 8-7 8-8 4-6 8-7 11-9z" fill="#0B0C0E"/>
<path transform="translate(1093,619)" d="m0 0h1l1 48 8-1 10 3v2l8 1 9 4 6 2 8 5 9 4v2l5 1 15 7 4 1h9l1 2h-5v2h-14l-8-2-8-1-4-1-17-1-7-3-14-2-4-2h-8l-3 1-1-1-1-12z" fill="#373736"/>
<path transform="translate(1228,256)" d="m0 0 7 6 4 2v2l4 2 16 16 7 8 83 83 7 6 7 8 15 15 7 6 7 8 7 7 1 4 3 5 4 8-2 2-11-11-2-6h-2l-5-10-4-4-5-1-8-7-17-17-2-7-3-3v-2l-4-2-3-2-1 2-2-1v-2l-4-2-20-20v-2h-2l-1-6-10-10-5-1-5-3v-2h-2l-3-5-5-4-5-7-4-7-6-6v-2l-4-2-8-8-2-1v-2h-2l-5-5v-2h-2l-2-5h-2v-2h-2l-7-9z" fill="#5A5349"/>
<path transform="translate(756,354)" d="m0 0 7 1 6 2 10 8v2l4 2 4 4 9 5 10 4 19 6 9 1h17l6-3 16-2 5-2 2-8 1-2 9 11 1 7-2 3-8 2-20 1-8 2-17 1-28-7-20-8-12-8v-2l-4-2-11-7-9-4-6 1 1-2 5-3z" fill="#4D4E47"/>
<path transform="translate(855,244)" d="m0 0h3l-1 4-8 7-13 12-8 6-8 9-2 1-1 3-5 1-12-13-5-3-9-11-6-6v-3l6 1v2l3-1h23l12-1 8-3 17-2z" fill="#1F2124"/>
<path transform="translate(1094,639)" d="m0 0h1v7l2-1h7l22 9 14 11 6 5v2h2v2h2l3 3v2l5 2 4 3v2l5 2 4 1h5l1-2 7 9 1 3h-8l-13-5-11-5v-2l-9-3-12-7-4-1-11-4-15-5-7 1-1-1z" fill="#1E2124"/>
<path transform="translate(175,1213)" d="m0 0 4 2 14 13 11 9 12 11 11 9 12 11 11 9 11 10 11 9 15 13 11 9v2h2v2l4 2 4 3v2h2v2l4 2 8 7 14 13 8 7 5 4v2l4 2 11 9 10 9 5 4v2l4 2 11 9 11 10 7 6h-3l-7-5-1-2-5-2-6-4-12-10-5-3v-2l-3-1v-2l-4-2-9-9-16-11v-2l-4-2-5-4-4-4v-2l-4-2-3-2v-2h-2v-2l-4-2-24-24v-2h-2v-2l-5-2v-2l-4-2-7-5v-2l-4-2-6-4-12-10-10-8-13-12-4-6-4-3v-2h-2v-2l-7-2-3-3-8-6-12-11v-2h-2v-2h-3v-2l-3-1-5-7z" fill="#0C0E10"/>
<path transform="translate(1498,851)" d="m0 0h26l18 2 20 4 16 5 15 6 7 4v7l-10-3-10-4-8-4-13-4-19-3-17-2h-47l-8 1-6 2-22 3-16 5-20 8-7 2-7 1 1-2h2v-2l10-4 16-7 21-7 12-3 29-4z" fill="#4D4E47"/>
<path transform="translate(491,1521)" d="m0 0 3 1v3h2l3 3v2h2v2h2v2h5l10 4 2 4h6l-6-4-1-2-5-2-5-3-1-2 5 1 12 7 6 5v2l5 2 10 8 9 6-2-3 4 1 5 4v2l4 2 5 4 3 3v2h2l5 7v2l4 2 3 5v3l3 1 1 5h-20l-2-5-5-3-3-5-8-4 2-2 4-1h-2l-4-8-11-8-7-6-6-3-5-5-8-6-5-3-5-2-3-2v-2l-5-2-2-4h-2v-2l-5-2-3-3z" fill="#091722"/>
<path transform="translate(521,660)" d="m0 0h1v25l-2 9-7-4-10-2-13-1-18 1-15-2-4-1-23-2-14-1-6-2 1-3 3 1 8 1 4-2h10l9-1 14-1 3-1h8l26-5 9 1 10 2 5 3z" fill="#5C5449"/>
<path transform="translate(463,233)" d="m0 0v3l-3 4h-2l-2 4-4 4-4 7-26 26-13 10-8 6-16 10-9 5-11 6-7 1v2l-5 2-12 1-17-2-10-1-5-2-8-2-6-2v-2l-3 1-21-6-17-6-10-4v-2l-6-1-4-3 9 2 20 7 24 5v2l11 2 14 3 8 2h7l6 1 16-3 13-3 30-14 9-5h2v-2l11-8 4-3h2l1-3 8-7 18-18 7-8z" fill="#4D4E47"/>
<path transform="translate(790)" d="m0 0h66l-4 8-4 3h-3v3l-8 1-1 1-9 1-9 5-5 3-7 4-3-3-8-3-4-5-4-4 2-6 1-7z" fill="#808076"/>
<path transform="translate(1459,280)" d="m0 0 7 6 4 3 3-1 6 5v2l4 2 12 12 7 8 66 66v3h-2l-1 2 4 1v-2h3l-2 5-10 13-15 16-42 42-8 7-8 6 1-5 5-7 8-7 5-5 10-9 33-33 7-8 7-9v-7l-16-16-7-8-8-7-73-73z" fill="#313130"/>
<path transform="translate(202,158)" d="m0 0 1 2 2 1-13 16-11 14-8 10-8 11h-2v3l-2 1-3 5-6 8-4 5-5 5-4 7-10 10-7 9-17 17-9 7-9 3-13 8-16 11-3 3-9 4-13 9-7 5-12 6-6 4-3-1 30-19 16-10 15-11 9-6 14-12 10-9 13-13 8-7 6-5 5-3 1-4h2l2-4 8-8 6-8 12-14 13-16 12-15 10-13z" fill="#363736"/>
<path transform="translate(146,468)" d="m0 0 2 3 1 6v26l-2 10h-2l-1 17-4 9-2 1-4 9-5 8-6 8-4 5h-2l-2 4-8 6-3 1-2 4-5 5-3 5-11 10-16 12-3 3-5 4-14 11-19 14-19 12-5 3h-2v-6l1-2 9-3 15-10 16-12 13-11 14-11 11-9 6-5h2l2-4 7-6 4-5h2l2-5h2l2-4 7-9 11-14 4-5 2-3h2l2-6 4-7 3-13v-5l1-1v-5h1v-28z" fill="#4D4C44"/>
<path transform="translate(1581,406)" d="m0 0 9 3 10 6v5l-12-6-5-1-4 1v2l-11 9-13 12-40 40-8 10-1 2h-2l-1 7 4 1 31 31 7 8 22 22 5 4 6 7 18 18 1 2 3 1v6l-7-6-12-11-24-24-8-7-28-28-7-8-10-11-4-6 1-4 2-6h2l2-4 5-5 9-10 14-15 6-7 11-9 14-14 8-7 4-3 3-1z" fill="#808076"/>
<path transform="translate(1382)" d="m0 0h8l7 8 25 25 7 8 11 11 8 7 15 15v2h2l-1 6-8 11-7 7-8 7-12 13-8 8-7 8-12 11-8 7-11 10-5 3v-6l15-13 11-9 35-35 7-8 9-9 2-5v-5l-11-12-8-7-15-14-7-8-30-30z" fill="#383937"/>
<path transform="translate(814,293)" d="m0 0 5 5 9 11 6 8 1 5v2l3 6-3 3h-8l-15-5-4-1h-15l-7 1-1-4 8-8 6-8 7-8 7-1z" fill="#0D0E10"/>
<path transform="translate(532,21)" d="m0 0 5 5 10 23 3 11-5-4v-2l-8 1v-2l-13 1-6 1h-18l-31-2h-57l-17 1-37 6-12 3h-8v-4l-7 3-10 9-7 8-11 12-1 2h-2l-2 4-7 6 2-4 5-5 3-5 4-4h2l1-4 10-9 2-4 8-7 11-12 5-3 4-6 4-3h3l-1 5-1 2h-2l-1 4-5 7-4 4-1 2 25-5 16-4 15-2 15-1h56l39 3 15 1 5-3 9-1 3 1v-5l-4-5-2-11-2-3 1-4z" fill="#43433E"/>
<path transform="translate(361)" d="m0 0h8l-2 1-1 4-3 1-4 8h-2l-1 3-5 5-4 6h-2l-2 4-7 8-9 11-12 12-9 11-4 2-2 5-14 15-9 8-10 8-4 4h-3l1-4 4-4 1-2h2l2-5 7-7 7-8 13-14 7-8 7-7 9-11 12-12 9-11 6-5 8-10z" fill="#C0AC9C"/>
<path transform="translate(1329,326)" d="m0 0 6 2 13 12 18 18 5 3 23 23 7 8 56 56 7 8 15 14 5 2v2l-7-1-15-14-8-7-34-32-20-20-7-8-20-20-7-8-6-5-31-31z" fill="#989990"/>
<path transform="translate(875,227)" d="m0 0 1 3-10 9-4 3v-3l-32 2-7 1-15-2h-31l-13-4-5-1-2-4h11l10-1h49l29 2 5 1 11-3z" fill="#4F4F48"/>
<path transform="translate(1468,105)" d="m0 0 3 1-13 12-58 58-5 4 1 4 11 12 38 38 13 12 20 20 4-1 9-6 1 5-6 5h-5l1 4-8-6-9-9-8-7-22-22-8-7-20-20-7-8-6-7-4-5-4-4 6 2 6-8 18-20 42-42 2 1 5-4z" fill="#3D3E3B"/>
<path transform="translate(160,1205)" d="m0 0 5 2 1 3 3 3 5 10 5 13 10 9 7 6 9 7 13 13 4 1 5 5 14 12 10 7 2 3-4-2-3-2 3 4 7 3v3l-10-5-12-9-13-10-13-9v-2l-10-3-12-12-8-7-4-3-2-5-3-3-2-5v-11l-3-6-2-2-2-4z" fill="#091722"/>
<path transform="translate(964,831)" d="m0 0 5 1 4 4 5-3 1 2v30h-4l-2 4-9 11-6 5-6 2-15-1-7-3-1-3h-2l-3-5v-2l-3-1-6-10v-8l5-10 7-6 2-1h9l12-2 7-3zm-9 7-10 4-16 2-6 4-4 7 3 9 6 10 4 5 3 2 9 2h11l8-5 5-6 4-10 1-6-2-3-3-10-4-4-2-1z" fill="#6F665C"/>
<path transform="translate(135,375)" d="m0 0 2 1 10 28 7 28 3 15 1 22-1 26-4 16-4 15-3-3 3-14 3-12 2-4v-23l-2-1-2 3-2-4-8-38-2-9 5-3v-12l-7-26z" fill="#1E2124"/>
<path transform="translate(521,582)" d="m0 0h1v78l-2 2-8-4-14 1-7 2-8 2-10 4-17 4-16 2-7 1h-9l1-4 6-5 2-2 4 2 23-3 17-5 4-3 14-5 7-1h14l4 2z" fill="#373736"/>
<path transform="translate(42,1416)" d="m0 0 2 1 1 7 3 4h3l-1-2 21 1-1 5-4 8-3 2-2 5-3 1-1 5-3 3-5-3v-2h-2v-2h-2v2l-7-1-9-3-5-4 1-5 4-4 10-6 2-1v-3l-2-1 1-5z" fill="#2D3335"/>
<path transform="translate(1582,200)" d="m0 0 4 1 6 4v2l5 2 3 1v7l-11-7-8-5-10 9-11 9-62 62 1 4 8 7 57 57 8 7 13 13v2l-5-2-9-9-8-7-8-8-8-7-45-45-8-10 2-4 12-14 23-23 8-7 20-20 8-7 9-8z" fill="#242525"/>
<path transform="translate(209,1512)" d="m0 0 5 2 7 6 8 7 13 11 11 9 10 10-2 1 2 5-1 6-5 5 1-9-2-4-9-5-8-4-1-4-5-3-3-5-6-8-5-4v-2l-3-1-2 1v8l-1 4-5-2h-3l-9 1v2l-6 3v-2h2v-2h2l-1-4h2l2-5 1-2h2l1-2 2-3 2-6z" fill="#6F675D"/>
<path transform="translate(545,1255)" d="m0 0h13l6 1 22 1 207 2 142 3v1l-10 1h-66l-252-4-38-1-24-2z" fill="#544F46"/>
<path transform="translate(105,1491)" d="m0 0 4 1 9 6 5 2 5 6-1 7-4 6h-1v-6h-2l1 6-3 7-6 5-3 7-5-5-13-12-4-5 1-7h4l11 7 6 7-1-4-1-1-1-12-4-8z" fill="#808077"/>
<path transform="translate(187,298)" d="m0 0h9l11 4 14 6v2l6 1 20 9 29 11 27 6 7 1h35l18-1-4 2-21 2h-26l-16-2-15-2-8-1-9 1-6-2-19-2-4-1v-2l-4-2-7-8v-7h-2v-2l-9-3-13-6-6-2-7-1z" fill="#5A5248"/>
<path transform="translate(137,1310)" d="m0 0 4 2 4 7v11l-1 16-4 5-5 4-4 1v6l2 2-1 4-4-2-3-5v-2l-4-2-7-7-2-1v-2l-4-2v-4l5-4 4 1 2 2 6 2 6 4h4l-6-10-5-7 1-5 7-3 4 1 3 8h1l-1-10-4-2 3-1z" fill="#7F7F76"/>
<path transform="translate(977,1082)" d="m0 0h1v37h-1l-1-16-2-6-3 1h-13l-8 1-7-2h-17l-12 3-10 5-9 8-15 8-15 7-10 1 4-2 7-3 6-3h2v-2l16-8 3-3h2l2-4 8-7 9-5 10-4 11-1h11l13 2v2h8l7-2-1-3 4-1z" fill="#6F665C"/>
<path transform="translate(1162,1444)" d="m0 0v3l-3 4h-2v2l-8 7-9 14-3 4-2 5-10 11-9 11-9 10-11 14-13 15-9 11-14 17-9 10-11 12-5 6-2-1 3-7 8-10 10-10h2l2-5 2-2h4v-2h2l1-7 7-9 2-4 3-4h2v-3h2v-2l4-4h2v-2h2l2-4 8-11 7-8h2v-2l6-5 4-6h2l2-4 7-7 5-9 6-8 2-3h2l1-3h2v-2l7-6 4-5z" fill="#4C4238"/>
<path transform="translate(1359)" d="m0 0h5l-2 4-12 13-10 9-33 33-7 6-7 8-3 3 2 5 9 9v2l4 2 51 51 8 7 8 8 3 2 4 7-1 2-16-16-3-2v-2l-4-2-13-13-8-7-34-34v-2l-4-2-12-14-4-3 1-2 4 3h2l7-9 5-6 8-7 24-24 8-7 17-17z" fill="#2E2E2D"/>
<path transform="translate(682,420)" d="m0 0 3 1-14 14-11 9-33 31-12 12-8 7-25 25-8 7-24 24-4 5-5 5-7 8-3 7-6 7h-2v73h-1v-76l-4 1-9 8-8 7-3 2 2-4 22-22 8-7 12-12 8-7 9-9 8-7 26-26 8-7 10-10 8-7 12-12 8-7 8-8 8-7 7-7 8-7z" fill="#767167"/>
<path transform="translate(345,1359)" d="m0 0 5 2 2 1v2l4 2v2l5 2 5 4v2l4 2v2l4 1 13 12 11 9 13 12 9 7 4 3v2l4 2v2l4 1 7 6 2 3 3 1v2l4 2 8 7 5 6 8 6 10 10 6 5 3 4 3 1 4 4 14 11 14 13v3l4 2 2 3-4-1-8-7v-2l-4-2-13-11-5-4-4-4-2-1v-2h-2l-5-5-11-9-8-8-5-4-5-5-11-10-5-5-7-5-5-5-10-8-28-24-8-6-5-5-11-10-11-9-7-6z" fill="#635A50"/>
<path transform="translate(1297,981)" d="m0 0 1 3-4 11-2 9-6 21-5 24-3 27-1 11v16l2 19 3 11 7 20 6 14 4 11 5 12 8 15 4 5 5 9 6 8v2h2l7 10 6 7-1 2-10-11-13-17-11-17-8-15-9-20-11-33-4-20-1-9v-31l2-22 5-26 6-21 8-21z" fill="#808076"/>
<path transform="translate(200,1551)" d="m0 0 9 2 7 7 3 6 1 14-3 3h-4l-2-4-1-12-3-5-4-2h-8l-5 8v9l2 2 7 1 3-2h6l2 3-1 4-7 8-1-2-9-1-8-7-2-5v-11l5-9 3-3z" fill="#E9EAEA"/>
<path transform="translate(1092,612)" d="m0 0h1l1 66v24l7-4 14 1 8 1 18 1 13 2h11l12 1-4 2-15 1-23 2h-9l-14 3-4-1h-7l-7 5-2 2z" fill="#5E564B"/>
<path transform="translate(963,1132)" d="m0 0 11 1 3 1v6l-13 2-18 2-6 2h-29l-17 2h-23v-1l14-1 5-1 8-3 10-4 8-4 6 2h21l15-3z" fill="#4E4F48"/>
<path transform="translate(1433,462)" d="m0 0 4 2 85 85v2l4 2 3 3v2h2v2l4 2 5 6 8 7 48 48 4 3v10l-7-6-9-10-2-6-5-5-5-6v-2l-4-1-7-8-3-2v-2l-4-2-5-4-7-8-14-13-4-4v-2h-2l-7-8-6-6v-2h-2v-2h-2l-5-6-5-5-5-3-7-8-19-19-7-8-8-7-8-8-2-1v-2h-2v-2h-2l-2-3z" fill="#383836"/>
<path transform="translate(1180)" d="m0 0h6l7 8 8 7 1 3h2l7 8 6 5 5 5 14 15 17 17 6 5v2l3 1v2h2v2h2v2l4 2 12 12v3l-4-2-3-2-1 2-82-82-9-11-3-3z" fill="#615B51"/>
<path transform="translate(974,1140)" d="m0 0 4 1v9h-197v-1l13-1 103-1 14-2h29l6-2 18-2z" fill="#4C4238"/>
<path transform="translate(1418)" d="m0 0h44l-2 5-9 11-9 12-5-2-7-7-12-16z" fill="#E9EAEA"/>
<path transform="translate(195,1559)" d="m0 0h8l6 4 2 4 1 12 1 5 3 1 1 6-1 5 1 4h-21l-2-1-3-6v-2l-4-1v-3l5 2 10 2 7-7-1-6-7 2-5 1-5-2-2-2v-9z" fill="#56564F"/>
<path transform="translate(474,217)" d="m0 0v3l-7 7-6 8-9 10-2 3h-2l-2 4-23 23-11 9-7 5h-2v2l-11 6-30 14-13 3-17 3-9-1-6-1-15-3-15-4v-1h7l11 3 13 1h19l18-4 16-6 2-2 20-8h3v-2l8-4h2l1-3 11-7 4-2v-2h2l2-4 8-7 6-5 7-8 2-3h2v-2l5-5 9-11z" fill="#5C5449"/>
<path transform="translate(627,1134)" d="m0 0 1 4h18l5 1 13-2 4-1 15 1 26 1 17 5 3 3h-36l-45-1-17-1-6-2z" fill="#5A5349"/>
<path transform="translate(1412)" d="m0 0h6l4 7 11 14 7 6h2l9-12 8-10 3-5h5l-2 5-10 11-9 11-1 4 8 7 23 23 8 7 12 12 7 8 8 8 11 9 7 6v2h2l3 6-1 2-10-10-8-7-10-9-8-7-72-72-10-13z" fill="#333433"/>
<path transform="translate(1050,642)" d="m0 0 2 4v2h2v3l2 3 2 4-1 5v5l-2-1-1 4h1l-1 7h2v11l-2 17-1 25-2 8h-3l-1-4-1-32 1-42 1-17h2z" fill="#D5BAA9"/>
<path transform="translate(1102,677)" d="m0 0 18 5 10 3 11 3 4 2v2l7 1 7 2 7 3 16 3v1h-14l-8-2-8-1-4-1-17-1-7-3-14-2-4-2h-8l-3 1-1-1v-11z" fill="#4C4238"/>
<path transform="translate(383,1383)" d="m0 0 6 1 9 7v2l6 2v2l5 2 10 9 3 3v2h2v2h2v2l4 2 6 5v2l4 2 10 9 2 1v2h2v2l3 1v2l4 2 13 13 7 5v2h2v2l4 2 2 4h2v2l-3 1-13-11-13-13-8-7-7-7-14-11-12-11-7-6v-2l-5-2-12-11-9-7-5-6z" fill="#5B5348"/>
<path transform="translate(1207)" d="m0 0h7l3 5 8 9 7 8 12 11 5 4v2l4 2 21 21 1-4 12-12 8-7 20-20 7-8 8-11h8l-6 7-53 53-4 3 2 4 1 3-4-2-7-8-15-14-8-8-8-7-20-20-7-8-2-1z" fill="#3F403E"/>
<path transform="translate(1298,1208)" d="m0 0 4 1 10 16 5 10 5 6 5 9 1 3h2l8 11 5 6 1 7-5-2-5-5-9-8-13-17-9-16-5-12-1-8z" fill="#363736"/>
<path transform="translate(86,337)" d="m0 0h17l6 3v2l5 2 7 8 9 14 4 10 1 17-5-2 6 27-1 4-1-6-2-1-2-12-7-25-1-7-1-12-6-9-5-5-8-4h-18l-14 5-16 8-24 13-5 3-2-1 5-2v-2l6-3h3v-2l22-12h2l1-3 8-4 10-2h6z" fill="#4F4E46"/>
<path transform="translate(1389,1198)" d="m0 0h1l4 36 1 11v30l3 9-1 3-9-3-15-9-1-2h6l4-4 5-16 2-19z" fill="#98998F"/>
<path transform="translate(496,669)" d="m0 0 9 1 10 2 5 3h1l-1 10-15-7-5-1-12 1-29 3h-29l-6 2-8-1-6-2 1-3 3 1 8 1 4-2h10l9-1 14-1 3-1h8z" fill="#4E4F48"/>
<path transform="translate(103,1134)" d="m0 0 9 5v2l4 2 1 3 5 2 12 10 9 7 4 4 5 4v2l5 2v2h2v2l4 2 4 4v2l4 2 5 4 2 5h3v2h2v2l3 1 6 9-1 2-11-9-7-6v-2l-4-2-10-10-3-2v-2l-5-2-3-3v-2l-4-2-12-9v-2l-5-2v-2l-4-2-4-3v-2l-4-2-1-3-5-2-5-6v-2l-3-1z" fill="#5C5449"/>
<path transform="translate(301,1444)" d="m0 0h2l2 6v15l19-1 3 1-1 6-21 1 2 10 1 10-1 2-5-1-2-4v-15h2v-2l-7 1h-15l-4-1 2-4 1-1 20-2-1-3v-12z" fill="#E5E4E4"/>
<path transform="translate(196,1229)" d="m0 0h3v2l4 2 5 4 11 9 13 11 15 14 12 10 8 7 4 3v2l4 2 16 13 11 9 5 6 5 3 10 10 2 1v2h2v2h2v2l4 2v2l3 1v2l-4-1-12-11-9-7v-2h-2l-5-5-3-2v-2h-2l-5-5-10-9-11-9-15-13-10-9-11-9-12-11-11-9-10-9-7-6z" fill="#585045"/>
<path transform="translate(694,1112)" d="m0 0 10 1 14 4 22 13 18 5 37 5 13 1 14-2 2-1h9v1l-14 3-7 2h-16l-15-3-10-1-22-4-16-6-17-9-12-3h-13l-8 2h-17l-23 2-7 1v2l-5 3-2 5h-1v-13l1-2 4 1v2l19-2 12-2 24-2z" fill="#6F665C"/>
<path transform="translate(126,249)" d="m0 0h2l-2 4-7 8-15 13-8 9 10-6 10-9 8-8v3l-19 19-9 7-9 3-13 8-16 11-3 3-9 4-13 9-7 5-12 6-6 4-3-1 30-19 16-10 15-11 9-6 14-12 10-9 13-13 8-7z" fill="#373736"/>
<path transform="translate(912,406)" d="m0 0 7 6 7 8 12 13 11 12 13 14-2 2v-2l-5-1-3-2v2l-3 1h-16l-22-5-29-14-24-8v-1l8 1 20 7 18 8 6 2 11 1 9 3h9l3-1 1-6-2-7h-2v-2l-4-2-6-8-1-3-4-2-9-10-3-4z" fill="#6F665C"/>
<path transform="translate(441,259)" d="m0 0 2 1-6 7-8 7-7 7-13 10-8 6-16 10-9 5-11 6-7 1v2l-5 2-12 1-17-2-10-1-5-2-8-2-6-2v-2l-3 1-21-6-17-6 3-1 27 8 16 3 19 6 18 1 14-2 13-3 9-3v-2l16-8 17-11 13-10 10-9z" fill="#4C4238"/>
<path transform="translate(493,239)" d="m0 0h2l-2 4-14 15-11 11-1 2h-2v2l-5 5-14 13-8 7-15 11-15 10-19 10h-3v-2l13-8 18-12 6-5h2v-2l14-10 13-12 8-7 10-9 9-9h2l1-3h2l2-4z" fill="#363736"/>
<path transform="translate(1599,75)" d="m0 0h1v7l-13 11-7 7-8 7-24 24 2 4 41 41 9 7v5l-5-2-36-36-7-8-9-10 6-7 35-35z" fill="#222322"/>
<path transform="translate(1569,387)" d="m0 0h3l-2 5-10 13-15 16-42 42-8 7-8 6 1-5 5-7 8-7 5-5 10-9 33-33 7-8 8-11 1-3 4 1z" fill="#212222"/>
<path transform="translate(543,137)" d="m0 0 3 2-1 6h-2l-2 6-7 10-5 8-3 3-4 7-8 8-3 1-2 5-6 8-5 4-2-1 2-6 7-11 8-11h2l1-4 3-4h2l1-5 4-4h2l2-5 9-12 2-4z" fill="#1E2124"/>
<path transform="translate(1398,426)" d="m0 0 4 2 14 15 18 18 1 7h2v2h2v2l4 2 12 12 8 7v3h-3l-7-6-9-9-8-7-12-11-18-18-1-6-4-6-3-5z" fill="#4E4E47"/>
<path transform="translate(76,602)" d="m0 0 6 1h3l-10 8-8 6-3 3-5 4-14 11-19 14-19 12-5 3h-2v-6l1-2 9-3 15-10 16-12 13-11 14-11z" fill="#4C4B43"/>
<path transform="translate(1595,1298)" d="m0 0h5v2l-15 6-21 6-21 5-7 1-33 1-25-2-19-3-5-3-16-5 4-1 26 6 14 3 25 1h16l24-3 34-10 9-2z" fill="#363736"/>
<path transform="translate(1581,406)" d="m0 0 9 3 10 6v5l-12-6-5-1-4 1v2l-11 9-13 12-40 40-8 10-1 2h-2v7l3 3v3l-3-1-4-6 1-4 2-6h2l2-4 5-5 9-10 14-15 6-7 11-9 14-14 8-7 4-3 3-1z" fill="#353736"/>
<path transform="translate(268,1314)" d="m0 0 8 6 5 4h3v2l4 2 3 2v2l4 2 20 20v2l4 2 13 12-2 1-3-1 3 4-5-2-8-6-5-5-5-3-7-8-14-12-6-8-3-5-9-9z" fill="#091722"/>
<path transform="translate(846,253)" d="m0 0 1 4-10 9-9 7-8 9-2 1-1 3-5 1-12-13-4-4v-2l6 1 2 1h8l12-5 9-5 10-6z" fill="#0F1011"/>
<path transform="translate(1371,368)" d="m0 0 3 1v2h2l7 8 10 10 8 6 29 29 8 7 9 9 5 3 15 16 10 9 4 3 3 1v2l-7-1-15-14-8-7-34-32-20-20-7-8-20-20z" fill="#85867C"/>
<path transform="translate(1463,78)" d="m0 0 1 4-8 11-7 7-8 7-12 13-8 8-7 8-12 11-8 7-11 10-5 3v-6l15-13 11-9 35-35 7-8 9-9 4-5h2z" fill="#171819"/>
<path transform="translate(1348,1258)" d="m0 0 6 2 13 10 24 15v2l5 2 8 6-1 2h-7l-8-4-12-7-14-8-3-2v-2l-4-2-3-5v-3h-2v-3h-2z" fill="#0D0E10"/>
<path transform="translate(1058,563)" d="m0 0 4 2 14 12 9 5 8 7-2 1 1 3h-2v-2l-4-1-13-1-26-1-10-2 4-3 10-2 7-2 8-1v-5l-8-9z" fill="#5F574C"/>
<path transform="translate(1e3)" d="m0 0h7v2l4 2 9 10 8 7 8 8 8 7 10 10 3 5 2 3-4 1-4-3-5-3-26-26-7-8-12-12z" fill="#D1B9A8"/>
<path transform="translate(524,55)" d="m0 0 11 1 6 4 1 2 7 2 2 4-1 4-4-1-4-5-3 1 3 12 3 4v7l1 7-3 11-4 2-2 7v7l1 6-6 7-8 17-5 5 2-5 7-14 4-16 5-15 3-1 2-10v-5l-6-12-1-13-3-6-8-6z" fill="#5C5449"/>
<path transform="translate(1091,590)" d="m0 0 4 1 8 9 6 8 9 10 7 8 11 12 9 11 12 13 11 12 7 7 7 8 7 7v3h3v2l-3 1-7-1 4-2-3-3-9-11-15-16-8-8-2-1v-2l-4-2-5-5v-2h-2l-6-10-11-12-7-9-11-12-8-11-1-1-1 18h-1z" fill="#52483E"/>
<path transform="translate(1498,851)" d="m0 0h26l18 2 20 4 16 5 15 6 7 4-1 2-7-3-8-4-22-7-18-3-13-2-15-1h-25l-20 2-21 4-29 8-14 6-4-1 16-7 21-7 12-3 29-4z" fill="#363736"/>
<path transform="translate(1496,283)" d="m0 0h1l2 6 8 7 57 57 8 7 13 13v2l-5-2-9-9-8-7-8-8-8-7-45-45-8-10z" fill="#2E2E2D"/>
<path transform="translate(1468,105)" d="m0 0 3 1-13 12-58 58v-3l1-2h2l2-4 3-4 2-5 48-48 2 1 5-4z" fill="#7E7E74"/>
<path transform="translate(761,235)" d="m0 0 9 2 10 2h30l16 2 16-2h12l8-1-1 2-8 2-26 3-3 1h-17l-7-1-21-1-10-3 1 4-7-6z" fill="#4D4339"/>
<path transform="translate(1351,382)" d="m0 0 4 2 9 9 5 6 8 7 2 1 1-2 15 16 4 5 2 6 3 3 3 8h-3l-10-10-2-6h-2l-5-10-4-4-5-1-8-7-17-17-1-5z" fill="#5A5348"/>
<path transform="translate(279,71)" d="m0 0 2 1-6 8h-3l-2 4-3 3-3 5-10 11-6 5-7 9-16 20-9 11h-2l-1 4-7 8h-3l1-5 10-11 9-11 6-7 6-8 9-11 6-6 3-5 10-10 8-7 3-1v-3h2v-2z" fill="#383836"/>
<path transform="translate(1555,174)" d="m0 0 5 5 5 4 1 2 2 1-2 3h-2l-2 5-36 36-7 8-21 21-5 4-3-1 1-4 8-7 12-11 37-37 14-16 1-3h-2l-6-8z" fill="#151616"/>
<path transform="translate(1411,228)" d="m0 0 4 2 34 34 8 7 5 6 8 7 3 4-4 2-9-9-4-2-11-11-8-7-15-15v-5l-4-5-6-5z" fill="#4D473F"/>
<path transform="translate(42,1416)" d="m0 0 2 1 1 7 3 4h3l-1-2 21 1-1 5-4 8-5 3-7-2-9-3-2-3-2-11-2-1 1-5z" fill="#7C7D74"/>
<path transform="translate(289,1581)" d="m0 0 5 1 10 8v2l5 2 5 6h-34l3-9 4-8z" fill="#0F1011"/>
<path transform="translate(239,299)" d="m0 0 6 1 21 10 29 8 8 3 12 3h12l6 3 6 1 9-1 15-4 1-1h5v2l-21 6h-25l-28-6-21-8-35-16z" fill="#1E2124"/>
<path transform="translate(361)" d="m0 0h8l-2 1-1 4-3 1-4 8h-2l-1 3-5 5-4 6h-2l-2 4-2 2v-2l-5 1v2l-8 7-10 12h-2l-2 5-6 7-3-1 2-4 10-11 7-8 8-8 9-11 6-5 8-10z" fill="#D1AE96"/>
<path transform="translate(146,1296)" d="m0 0 4 1 9 7 8 11 2 3-1 5-5 5-11 9-3 2v-3h2l-3-3v-4l5 1-5-4-1-4 7 4 6-1-2-9-6-8-7-6z" fill="#7C7C72"/>
<path transform="translate(1478,91)" d="m0 0 4 2 9 9 8 7 7 7-1 3 17 17v3h2l-1 2-4-1-8-8-7-8-7-7-7-8-8-9-1-4-8 7-10 7-4 3 2-5 11-9 6-4z" fill="#4B4640"/>
<path transform="translate(1370,1313)" d="m0 0 42 6v1h-16l-9 3-28 4-9 3 6-8 11-8z" fill="#363736"/>
<path transform="translate(85,306)" d="m0 0h3l-2 5-12 10-19 13-15 10-15 9-18 10-2-1 17-11 15-9 10-7h2l2-5 9-7 13-9z" fill="#7E7E75"/>
<path transform="translate(522,156)" d="m0 0v3l-4 7-7 10-2 1-2 5-6 8-3 2-2 5-9 12-11 13-8 10-9 11-7 7v-3l6-7h2l2-4 3-7 7-8 3-5 2-3h2l2-4 11-13 11-16 11-15 4-6z" fill="#514E45"/>
<path transform="translate(510)" d="m0 0h9l2 10 7 14 2 8h-2l-1 2v-2l-5-1v-2l-5-5-1-4-9-3 1-3-1-6 1-5h2z" fill="#0B0C0E"/>
<path transform="translate(269,2)" d="m0 0 2 1-11 10h-2v2l-11 9-8 7-5 3-7 8-12 11-15 14-9 9-8 7-4 1-2 5-3 3-5 3-6 7-2-1 15-16 7-8 8-7 3-3h2v-2l10-8 8-8 8-7 6-6h2v-2l14-11 11-10 10-8z" fill="#535148"/>
<path transform="translate(519)" d="m0 0 4 1 4 8 6 9 1 4-3 1 1 5 1 1 2 11 4 5v6l-9-1-8 3h-3l7-8 1-4-1-2 3-8-4-12-6-11z" fill="#1E2124"/>
<path transform="translate(133,373)" d="m0 0 2 2 4 13 5 18v12l-5 3v5l-2-1-7-28v-6l5 2z" fill="#363736"/>
<path transform="translate(131,242)" d="m0 0 1 4-3 3-5 3-10 9-8 7-14 14-22 18-10 6-10 8-15 9-6 4-2-1 19-14 14-10 15-12 5-2v-2l12-9 8-7 10-9 12-11z" fill="#1E2124"/>
<path transform="translate(115,1158)" d="m0 0 6 1 14 12 10 7 5 5 1 3 4 2 9 9 4 3v2l4 2 13 13v2l-4-1-7-7-11-9-13-12-11-9-6-7-15-12z" fill="#574F45"/>
<path transform="translate(142,531)" d="m0 0 1 4 3-1 1 1v5l-3 1-3 10-12 16-5 1-10 10-11 9-7 5 2-4 6-7 12-9 1-2h2l2-4 6-7 5-9 4-7 2-5 2-1z" fill="#373836"/>
<path transform="translate(224,1377)" d="m0 0 5 1 1 4h-2l-2 4-4 2-2 6-10 11-4 5-3 1-5-1 2-5 9-11 2-2-1-4 5-2 1-2 4-2z" fill="#9DA3A1"/>
<path transform="translate(1382)" d="m0 0h8l7 8 12 12 1 4 22 22-2 4-7-6-7-8-30-30z" fill="#50493F"/>
<path transform="translate(539,1519)" d="m0 0 6 1 11 9 5 4v2h2v2l4 2 12 11 2 1v2h2l5 5v2l4 2v3l-2 1-11-9-14-13-2-1v-2h-2v-2l-4-1-13-12-5-6z" fill="#585248"/>
<path transform="translate(1423,1324)" d="m0 0h6l-1 2h-2v2l-11 4-13 4-12 3-15 5-8 1-1 1-16 1-10 2-4 1 3-4h2l1-2 22-3 14-3 15-4 11-3 5-1 11-3z" fill="#5C5449"/>
<path transform="translate(688,1145)" d="m0 0 75 2 31 1v1l-13 1h-58l-13-1-62-1v-1h40z" fill="#4E4B44"/>
<path transform="translate(57,323)" d="m0 0 3 1-9 7-2 4-14 9-26 16-6 6h-3v-7l10-5 6-4 4-4 4-1 2-3 5-2h3v-2l3-3h5l1-3 4-2h3v-3l3-1 1-2z" fill="#4A4943"/>
<path transform="translate(89,1508)" d="m0 0 5 2 10 7 5 6 1 7v7h-3l-6-7-8-7-6-7 1-7z" fill="#999F9D"/>
<path transform="translate(345,1359)" d="m0 0 5 2 2 1v2l4 2v2l5 2 5 4v2l4 2v2l4 1 13 12 11 9 13 12 4 4-1 2-4-2-10-9-11-9-16-14-10-9-11-9-7-6z" fill="#5F574D"/>
<path transform="translate(1507,503)" d="m0 0 4 2 7 8 5 5v2h2l7 8 5 2v3l6 6 2-1 2 5h2v2l5 2 6 7 5 4 7 8 15 14 6 4 4 5 3 1v6l-7-6-12-11-24-24-8-7-28-28-14-16z" fill="#47433D"/>
<path transform="translate(532,21)" d="m0 0 5 5 10 23 3 11-5-4v-2l-8 1v-2l-13 1-6 1-12-1v-1h15l5-3 9-1 3 1v-5l-4-5-2-11-2-3 1-4z" fill="#363736"/>
<path transform="translate(1377,192)" d="m0 0 7 6 7 7 7 8 14 14 2 5 7 6 2 4-2 2-39-39-3-5-3-4z" fill="#41413E"/>
<path transform="translate(1488,849)" d="m0 0h41l25 4 15 4 16 6 6 3-3 1-15-6-24-6-12-2-16-1h-23l-26 2-11 2h-8l2-2 25-4z" fill="#1E2124"/>
<path transform="translate(104,140)" d="m0 0 3 1-2 6-4 5-8 7-5 2-5 6-6 3-4 4-6 1-1-3 3-1-1-2 7-8 13-13 3 1-5 5v3l6-2 9-8 2-4-9 2 3-3z" fill="#6F665C"/>
<path transform="translate(151,224)" d="m0 0 1 2-7 11-5 6-1 3-30 30-12 8-2-1 12-13 14-12 11-13 13-13z" fill="#7E7E74"/>
<path transform="translate(1082,1149)" d="m0 0h3v4h-60l-58-1v-1l15-1z" fill="#676257"/>
<path transform="translate(1473,62)" d="m0 0 7 2 16 16 7 8 8 8 11 9 7 6v2h2l3 6-1 2-10-10-8-7-10-9-8-7-24-24z" fill="#2A2B2A"/>
<path transform="translate(540,556)" d="m0 0h2l-1 4-7 8-3 7-6 7h-2v73h-1v-76l-4 1-9 8-8 7-3 2 2-4 22-22 7-3 7-8z" fill="#5B5349"/>
<path transform="translate(226,135)" d="m0 0v3l-9 11-6 8-9 11-6 9h-2l-2 4-7 10-1 5-7 7-8 7-8 11-7 5 2-4 3-3 2-4h2v-3l5-5 8-11 14-17 11-14 12-14 1-3 5-5z" fill="#1E2124"/>
<path transform="translate(1330)" d="m0 0h8l-6 7-52 52-3-1 2-4 8-8 8-7 20-20 7-8z" fill="#101112"/>
<path transform="translate(1030,60)" d="m0 0 6 4 5 5 5 3 15 15 8 7 11 11 7 8 12 11 3 3-1 3-11-9-4-4v-2h-2l-7-8-9-9v-2l-4-2-14-12-20-20z" fill="#686861"/>
<path transform="translate(1599,48)" d="m0 0h1v7l-6 4-10 9-12 11-22 22-8 7-6 6h-2l1-4 15-15 8-7 21-21 8-7 8-8z" fill="#1F2020"/>
<path transform="translate(777,230)" d="m0 0h50l29 2 4 2-3 1h-45l-10-1-36-1 2-2z" fill="#5C5449"/>
<path transform="translate(398,1525)" d="m0 0h3l-1 7-9 10-8 9-5 6-4 3-3-1 1-6 12-14 7-7 5-6z" fill="#AAAAA5"/>
<path transform="translate(1107,134)" d="m0 0 4 2 5 6 2 1v2h2v2h2v2l4 2 3 3 3 5 49 49h-3l-12-9-3-3v-2h-2v-2h-2v-3h-2v-2h-2l-9-11-9-9-8-7-3-2v-2l-4-2-3-3v-2h-2v-2h-2l-9-12z" fill="#515048"/>
<path transform="translate(554,95)" d="m0 0h2v2h2l2 6v17l-4 12-5 2-1-1-1-7-1-2 1-4h2l2-20z" fill="#4A4A43"/>
<path transform="translate(1550,579)" d="m0 0 4 2 42 42 4 3v10l-7-6-9-10-2-6-5-5-5-6v-2l-4-1-7-8-3-2v-2l-4-2-4-5z" fill="#282A2B"/>
<path transform="translate(242,319)" d="m0 0 5 1 29 11 27 6 7 1h35l18-1-4 2-21 2h-26l-16-2-5-1v-2l-12-1-10-2v-2l-6-1-14-5-6-2z" fill="#474640"/>
<path transform="translate(1396,1319)" d="m0 0 21 1v1l-15 2-22 5-9 3-18 2-6 1 2-4 10-4 15-2 16-3z" fill="#4B4137"/>
<path transform="translate(118,1477)" d="m0 0 8 1v2l7-1 1-1h7l-3 15-3 5-5-3-3-5-9-9z" fill="#969B99"/>
<path transform="translate(1092,1531)" d="m0 0v3l-9 10-9 11-14 17-9 10-11 12-5 6-2-1 3-7 8-10 10-10h2l2-5 2-2h4v-2h2l2-4 5-7h2l2-5h2l2-4 9-10z" fill="#484037"/>
<path transform="translate(168,101)" d="m0 0h2l1 3-12 11-8 6-13 12-9 7-2-1 12-12 2-6 5-4 4-5 5-3 10-7z" fill="#0A0C0E"/>
<path transform="translate(1318,108)" d="m0 0 7 6 31 31 8 7 8 8 3 2 4 7-1 2-16-16-3-2v-2l-4-2-13-13-8-7-4-4-3-5-9-9z" fill="#2D2E2D"/>
<path transform="translate(545,1255)" d="m0 0h13l6 1 22 1 89 1 7 1v1l-9 1-66-1-38-1-24-2z" fill="#555249"/>
<path transform="translate(1343,164)" d="m0 0h6l11 11 2 1v2l4 2 7 8 4 3v6l5 5-1 2-38-38z" fill="#393A38"/>
<path transform="translate(1180)" d="m0 0h6l7 8 2 6h2v2l3 1 8 8v2l8 6 2 5 3 1v2l4 2 2 4 5 2 2 4 4 5-1 2-45-45-9-11-3-3z" fill="#61594F"/>
<path transform="translate(1460,493)" d="m0 0 1 2 5 2 24 24v2l4 1 3 7 4 3 1 6h-2l-7-8-9-9-4-6-8-7-12-13z" fill="#595248"/>
<path transform="translate(126,249)" d="m0 0h2l-2 4-7 8-15 13-8 9 10-6 10-9 8-8v3l-14 14-5 4-9 5-7 3v-4l11-12 12-12 8-7z" fill="#474640"/>
<path transform="translate(1228,256)" d="m0 0 7 6 4 2v2l4 2 16 16 7 8 10 10v1h-5l-7-7v-2l-4-2-8-8-2-1v-2h-2l-5-5v-2h-2l-2-5h-2v-2h-2l-7-9z" fill="#605F57"/>
<path transform="translate(1194,9)" d="m0 0 7 6 1 3h2l7 8 6 5 5 5 14 15 17 17 6 5-2 2-7-7-6-3-3-5-2-1-1 2-3-5-2-3-2-4-4-1-3-4-8-8-2-4-5-2-2-3-2-4-6-4v-2l-2-1v-2h-2z" fill="#777169"/>
<path transform="translate(1581,406)" d="m0 0 9 3 10 6v5l-12-6-5-1-4 1v2l-11 9-13 12-6 6h-2v-2l2-1 3-5 14-14 8-7 4-3 3-1z" fill="#3A3A38"/>
<path transform="translate(27,1435)" d="m0 0h11l5 3 2 2-1 6-2 3h-8l-8-4-2-2 1-5z" fill="#9AA09E"/>
<path transform="translate(352,37)" d="m0 0h3l-1 5-1 2h-2l-1 4-5 7-3-3-4 2-8 9-8 7-9 10-10 11-1 2h-2l-2 4-7 6 2-4 5-5 3-5 4-4h2l1-4 10-9 2-4 8-7 11-12 5-3 4-6z" fill="#333433"/>
<path transform="translate(1459,280)" d="m0 0 7 6 4 3 3-1 6 5v2l4 2 12 12 7 8 1 2h-3l-2-3-3-1-1 2-35-35z" fill="#45433E"/>
<path transform="translate(479,255)" d="m0 0 2 1-13 13-1 2h-2v2l-5 5-14 13-8 7-15 11-15 10-19 10h-3v-2l8-3 17-10 14-10 20-16 16-15z" fill="#4F4A41"/>
<path transform="translate(86,337)" d="m0 0h17l6 3v1h-25l-14 5-16 8-24 13-5 3-2-1 5-2v-2l6-3h3v-2l22-12h2l1-3 8-4 10-2h6z" fill="#3F3F3A"/>
<path transform="translate(436,1441)" d="m0 0 4 2 16 14v2l5 2v2l4 2 8 8 11 9-1 2-16-11-11-9-17-17-2-4z" fill="#0D0E10"/>
<path transform="translate(288,82)" d="m0 0v3l-6 7-1 4 4-3 3-6 5-1 2-1-2 4-11 11-14 11-5 5h-3l1-4 4-4 1-2h2l2-5 7-7 7-8z" fill="#7D7D73"/>
<path transform="translate(625,1142)" d="m0 0h5l1 1 21 1 36 1v2h-84l2-2h18z" fill="#433D37"/>
<path transform="translate(591,507)" d="m0 0v3l-9 9-8 7-24 24-4 5-8 4-12 12-2-1 18-18 8-7 9-9 8-7 14-14 5-3z" fill="#726C62"/>
<path transform="translate(1359)" d="m0 0h5l-2 4-12 13-10 9-18 18-4-2 13-13 8-7 17-17z" fill="#18191A"/>
<path transform="translate(1529,479)" d="m0 0 22 22 8 7 27 27 14 16-1 2-15-15v-2h-2l-7-8-30-30-8-7-8-10z" fill="#373837"/>
<path transform="translate(1411,132)" d="m0 0h6l-5 6-8 7-5 4-5 5-11 10-5 3v-6l15-13 11-9z" fill="#2D2E2E"/>
<path transform="translate(756,349)" d="m0 0 2 1-19 19-7 8-9 8-2 4h-3v2l-8 7-12 11-9 9-2-1 15-16 14-14 8-7 17-16z" fill="#6B655B"/>
<path transform="translate(808,41)" d="m0 0 8 2 2-1h6l4 4-3 3-15 1-5 1-1-2-4 1-4-4 2-3h5z" fill="#808076"/>
<path transform="translate(1468,105)" d="m0 0 3 1-13 12-18 18h-4v2l-3 1 2-6 9-8 7-8 7-7 2 1 5-4z" fill="#605B52"/>
<path transform="translate(1548,580)" d="m0 0 7 6 3 2v2l4 2 7 8 3 1 3 5-2 1h-3l-9-7-13-12-3-3 1-3z" fill="#494139"/>
<path transform="translate(1450,240)" d="m0 0 4 2 24 24 4-1 9-6 1 5-6 5h-5l1 4-8-6-9-9-8-7-9-9z" fill="#353534"/>
<path transform="translate(1411,228)" d="m0 0 4 2 31 31-7 2-17-17v-5l-4-5-6-5z" fill="#514B42"/>
<path transform="translate(146,468)" d="m0 0 2 3 1 6v26l-2 10h-2l-1 13-7 10v-3l4-9 2-10v-5l1-1v-5h1v-28z" fill="#565046"/>
<path transform="translate(1535,154)" d="m0 0h5l16 14 8 8 2 3-1 5-7-6-3-3-6-5-7-8-7-7z" fill="#363736"/>
<path transform="translate(795,271)" d="m0 0 4 1 10 10 3 4h5l1 5 5 5 10 13 4 4 6 8 6 7-1 2-4-3-3-5-9-11-4-4-9-11-4-4v-2h-2v6l-3 4-2-1 2-2v-8l-6-8-9-9z" fill="#69645A"/>
<path transform="translate(10,1070)" d="m0 0h7l8 8 6 4v2h2v2l4 2 15 15-1 2-10-8v-2l-4-2-9-8-5-2-11-9z" fill="#585146"/>
<path transform="translate(848,1261)" d="m0 0h45l42 1v1l-10 1h-62l-2-1-13-1z" fill="#585349"/>
<path transform="translate(187,1587)" d="m0 0 5 2 11 2v3l11 2 1-3 2 4v3h-21l-2-1-3-6v-2l-4-1z" fill="#494138"/>
<path transform="translate(1433,462)" d="m0 0 4 2 54 54-1 2-25-25-11-9-13-13-2-1v-2h-2v-2h-2l-2-3z" fill="#252729"/>
<path transform="translate(340,51)" d="m0 0 5 1-5 9 25-5 3-1 35-4 3 1-2 1-35 5-23 5h-8v-4l-5 2v-3z" fill="#4D4C44"/>
<path transform="translate(269,2)" d="m0 0 2 1-11 10h-2v2l-11 9-8 7-5 3-7 8-12 11-4 4-2-1 7-8 12-12h2v-2l14-11 11-10 10-8z" fill="#42433E"/>
<path transform="translate(105,1491)" d="m0 0 4 1 10 7 1 4-2 6-2-1-2-5-2-1-1 4-4-1-4-4-1-4z" fill="#989F9C"/>
<path transform="translate(1318,43)" d="m0 0 3 1-6 7-8 8-7 6-7 8-3 3v3h-2v-2l-3 1-5-4 1-2 4 3h2l7-9 5-6 8-7 9-9z" fill="#2A2C2C"/>
<path transform="translate(26,642)" d="m0 0 2 1 1 4-17 11-10 6h-2v-6l1-2 9-3 15-10z" fill="#4D4D46"/>
<path transform="translate(1e3)" d="m0 0h7v2l4 2 9 10 5 4 1 5-7-2-18-18z" fill="#84847A"/>
<path transform="translate(976,1145)" d="m0 0 2 1v4h-79v-1l18-1h24l9-1 23-1z" fill="#343534"/>
<path transform="translate(227,1566)" d="m0 0 5 1 6 8 3 6h8l5-5 3 1-4 4-8 6-4 1-6-5v-4l-3-1-4-7z" fill="#6E655B"/>
<path transform="translate(1595,1290)" d="m0 0h5l-1 2-18 4-11 6-12 2-18 4h-7l-8 1 1-2 23-4 18-4 10-4 9-3z" fill="#5C5449"/>
<path transform="translate(1272,630)" d="m0 0 2 1-8 11-9 8-11 9-15 14-8 7-4 2v2l-6 5h-2v2l-8 4v-2l13-10 12-11 20-18 11-9 8-8z" fill="#676258"/>
<path transform="translate(488,205)" d="m0 0v3l-12 14-8 10-9 11-7 7v-3l6-7h2l2-4 3-7 7-8 3-5 2-3 5-3z" fill="#4C473F"/>
<path transform="translate(493,600)" d="m0 0 2 1-7 8-9 9-8 7-13 13-7 8-17 17-2-1 4-6 12-11 28-28 8-7 8-8z" fill="#4C463E"/>
<path transform="translate(1387,418)" d="m0 0 5 2 4 2 3 4 2 6 3 3 3 8h-3l-10-10-2-6h-2l-3-7z" fill="#5B5348"/>
<path transform="translate(165,207)" d="m0 0 1 2-1 3h-2v3l-2 1-3 5-6 8-5 5 2-4 1-4-7 9-10 10-1-3h2l2-4 8-8 6-8 7-8z" fill="#484741"/>
<path transform="translate(1478,91)" d="m0 0 4 2 10 10v5l5 5-1 2-11-11-4-6v-2l-8 7-10 7-4 3 2-5 11-9 6-4z" fill="#323333"/>
<path transform="translate(1363,1310)" d="m0 0 13 1 24 5 5 1v1l-15-1-20-3-7 4-9 7v-3l8-11z" fill="#1E2124"/>
<path transform="translate(297,1316)" d="m0 0 7 4 3 3 5 3 10 10 2 1v2h2v2h2v2l4 2v2l3 1v2l-4-1-12-11-9-7v-2h-2l-5-5-3-2v-2h-2z" fill="#60584E"/>
<path transform="translate(1539,360)" d="m0 0 4 1 6 6 5 2 14 14v3h-2l-1 5h-1l-2-6-15-15-8-9z" fill="#3E3F3D"/>
<path transform="translate(1329,326)" d="m0 0 6 2 13 12 11 11-4 3-26-26z" fill="#ADA598"/>
<path transform="translate(552,65)" d="m0 0 2 3 4 18v6l-1 5-1-2h-2v11h-1v-5l-4 2 1-8-1-7 4-6v-8z" fill="#4B4137"/>
<path transform="translate(219,1567)" d="m0 0 2 3v11h2v13l-1 6h-5l-2-4 1-7-1-4-2-2 6-1z" fill="#A2A5A1"/>
<path transform="translate(301,1444)" d="m0 0h2l2 6v15h9v1h-10-2l-2 1h-10v-1l9-1-1-3v-12z" fill="#8F9591"/>
<path transform="translate(113,1337)" d="m0 0 4 1 2 2 5 1v3h-3v2l-3 1 2 5 5 6-4-1-7-7-2-1v-2l-4-2v-4z" fill="#919895"/>
<path transform="translate(126,1323)" d="m0 0h7l2 5 1 4-2 2v3l1 2 2-3 2 6h-2l1 4-4-2-7-11-3-4 1-5z" fill="#9DA3A1"/>
<path transform="translate(1398,426)" d="m0 0 4 2 14 15 18 18-2 3-3-3v-2l-4-2-8-7-5-6-2-1v-2h-2l-7-8-3-5z" fill="#3E3C39"/>
<path transform="translate(1531,246)" d="m0 0v3l-6 6-1 4-26 26-1-3 9-11z" fill="#343535"/>
<path transform="translate(305,1313)" d="m0 0 5 1 2 1v2l3 1v2h2v2h2l7 8 10 10 2 1 2 5-5-2-3-3v-2l-4-2-8-8-2-1v-2l-4-2-8-8z" fill="#5C5449"/>
<path transform="translate(224,1377)" d="m0 0 5 1 1 4h-2l-2 4-4 2-1 5h-3l-2 1 1-4-4 4-2-1-1-5 5-2 1-2 4-2z" fill="#9BA09D"/>
<path transform="translate(630,468)" d="m0 0 3 1-18 18-8 7-14 14-4 2-5 5-2-1 11-11 8-7 10-10 8-7z" fill="#746E64"/>
<path transform="translate(335,1553)" d="m0 0h6l5 3v2l4 1 4 4-3 2v-2l-7 1-7-5-6-1-1 2h-2v-4z" fill="#0A1722"/>
<path transform="translate(1507,503)" d="m0 0 4 2 7 8 5 5v2h2l7 8 5 2v3l6 6 2-1 2 5h2v2l5 2 4 6-3 1-34-34-14-16z" fill="#58554E"/>
<path transform="translate(160,237)" d="m0 0h2l-1 5-3 5h-2l-2 4-12 16-6 5-1-4 6-7 11-14 4-5 3-2z" fill="#7E7E74"/>
<path transform="translate(593,1579)" d="m0 0 5 3 12 11 7 6v1h-12l-3-6-7-11z" fill="#0D0E10"/>
<path transform="translate(1207)" d="m0 0h7l3 5 8 9 7 8 5 6-2 2-19-19-7-8-2-1z" fill="#303130"/>
<path transform="translate(144,1318)" d="m0 0h2v3l2 1 1 4 5 5-6-2v4l3 1v2h-2l1 6-6 8-3-1 2-3 1-16z" fill="#343837"/>
<path transform="translate(1398,390)" d="m0 0 7 6 44 44h-3l-14-14-8-7-26-26z" fill="#B0AAA1"/>
<path transform="translate(1030,60)" d="m0 0 6 4 5 5 5 3 15 15 7 8h-3l-10-9-8-7-17-17z" fill="#5A5850"/>
<path transform="translate(1045,582)" d="m0 0h23v4l-1 1h-23l-7-1 4-3z" fill="#5C5449"/>
<path transform="translate(1135,1480)" d="m0 0v3l-10 11-9 11-9 10-11 14-3 2 2-5 7-11 16-16 7-8z" fill="#363736"/>
<path transform="translate(1075,612)" d="m0 0 1 4v8h3l2 6-3 4-1 3-1-2-1 7-1 2-1 6h-1l-1-10v-11l3-15z" fill="#D5BBAA"/>
<path transform="translate(279,71)" d="m0 0 2 1-6 8h-3l-2 4-3 3-3 5-10 11v-3h-3l2-4 10-10 8-7 3-1v-3h2v-2z" fill="#1F2225"/>
<path transform="translate(1171,1436)" d="m0 0v3l-11 13-14 17-9 11v-3l10-16 8-8h2v-2l5-5 7-8z" fill="#363736"/>
<path transform="translate(120,1333)" d="m0 0 7 2 4 2 4 7v2l-4 1-7-5-6-2-4-4 6-1z" fill="#121A20"/>
<path transform="translate(1529,562)" d="m0 0 8 6 11 11-1 4-3 1-14-14v-2h2v-2h-2z" fill="#4D4A42"/>
<path transform="translate(128,364)" d="m0 0 3 4 3 8 1 17-5-2v5h-1l-2-11 3-9-2-8z" fill="#4A4137"/>
<path transform="translate(210,1583)" d="m0 0 5 1 2 7-3 5-8-1-3-1 1-5z" fill="#423D37"/>
<path transform="translate(227,1389)" d="m0 0 4 2 1 3 3 2 1 6h-5l-2-3-8 1-2-3-2 1 2-4 3-4v2z" fill="#1F2326"/>
<path transform="translate(1582,200)" d="m0 0 4 1 6 4v2l5 2 3 1v7l-11-7-8-5-3 2-2-3z" fill="#393835"/>
<path transform="translate(319,1464)" d="m0 0 8 1-1 6-21 1 3-3-3-1v-2z" fill="#959B99"/>
<path transform="translate(147,1314)" d="m0 0 6 3 2-1h3l2 2v7l-6 2-6-4v-2h-2v-3l-2-1z" fill="#1E2224"/>
<path transform="translate(688,1145)" d="m0 0 44 1v1l-15 1v1l-69-1v-1h40z" fill="#50463C"/>
<path transform="translate(195,1559)" d="m0 0h8l6 4 1 8-2 2v-3h-2l-1-5-2 1v3l-5-1-1-2-4-2 1-4z" fill="#303233"/>
<path transform="translate(1555,346)" d="m0 0 4 2 16 15 10 10v2l-5-2-9-9-8-7-9-9z" fill="#242525"/>
<path transform="translate(1274,306)" d="m0 0 4 2 6 6v2l4 2 5 5v2l3 1 3 4-4 1-3-3-3-1v-2h-2l-3-5-5-4-5-7z" fill="#5A5349"/>
<path transform="translate(1320,139)" d="m0 0 4 5 6 3 5 6 5 2 8 8v1l-6 1-23-23z" fill="#3C3C3A"/>
<path transform="translate(1042,35)" d="m0 0 4 2 9 9 3 5 2 3-4 1-12-11-3-3z" fill="#A1A6A4"/>
<path transform="translate(1548,438)" d="m0 0h2l-1 3h-2l1 3-21 21h-1v-5l9-9 6-7z" fill="#5F5F59"/>
<path transform="translate(26,342)" d="m0 0 3 1-3 5-6 3-9 6-5 5-1 3-5 1v-7l10-5 6-4 4-4 4-1z" fill="#3A3A38"/>
<path transform="translate(1463,78)" d="m0 0 1 4-8 11-7 7-3-1-6 5 2-4 13-13 4-5h2z" fill="#262626"/>
<path transform="translate(387,1394)" d="m0 0 4 2 10 9 8 7 6 5-1 3-4-2-10-9-11-9-1-4z" fill="#5C544A"/>
<path transform="translate(227,1398)" d="m0 0 4 2 1 2v6l-2 2h-6l-4-4v-5l2-2z" fill="#888B84"/>
<path transform="translate(1359,180)" d="m0 0 7 1 7 7 4 3v6l5 5-1 2-22-22z" fill="#383A39"/>
<path transform="translate(1275,95)" d="m0 0 4 2 4 1v3h2l3 5 8 7v2l3 1v3l4 2 3 5 3 4-4-2-9-9-7-8-12-12-2-1z" fill="#2D2F2F"/>
<path transform="translate(1599,75)" d="m0 0h1v7l-13 11-7 7-5 3 2-4 7-7 2-4z" fill="#2F302F"/>
<path transform="translate(1584,91)" d="m0 0m-1 1m-1 1m-1 1m-2 1 2 1-5 5-3 5-21 21h-2l1-4z" fill="#1B1C1D"/>
<path transform="translate(1283,1148)" d="m0 0 2 3 9 24 9 19 8 14 2 5-5-5-6-10-6-13-8-18-5-13z" fill="#43413C"/>
<path transform="translate(1265,81)" d="m0 0 5 3 12 12v3l-4-2-3-2-1 2-11-11z" fill="#575149"/>
<path transform="translate(1180)" d="m0 0h6l7 8 2 6h2v2l3 1 5 6-2 1-5-3-13-14-5-6z" fill="#504B43"/>
<path transform="translate(32,200)" d="m0 0 1 3-5 8-10 7-7 1 5-6h2l2-5 7-3h2l1-2-2-1z" fill="#6F665C"/>
<path transform="translate(136,422)" d="m0 0 4 5 6 26v15l-2-3-1-8-1-2-1-8-2-6-1-7-1-2v-6l-2-1z" fill="#48443D"/>
<path transform="translate(1529,345)" d="m0 0 7 6 16 16-3 1-7-7-5-1-7-7-3-6z" fill="#43433F"/>
<path transform="translate(234,292)" d="m0 0 9 2 20 7 24 5-1 2h-8l-26-7-8-3v-2l-6-1z" fill="#555148"/>
<path transform="translate(98,143)" d="m0 0h5l-2 5-11 9-4 1-1-4 9-9z" fill="#808076"/>
<path transform="translate(304,1472)" d="m0 0 2 2 2 18-1 2-5-1-2-4v-15l2 4h3z" fill="#9BA19E"/>
<path transform="translate(697,32)" d="m0 0 6 2 1 4-5 5-6-2-4-4 1-3z" fill="#808076"/>
<path transform="translate(1599,48)" d="m0 0h1v7l-6 4-10 9-12 11-3 2 2-4 14-14 7-8 4-5z" fill="#262625"/>
<path transform="translate(397,1530)" d="m0 0h2l-1 5-12 12-7 9-5 4-3-1v-4l6-2 8-8 3-5 5-4z" fill="#DDDAD7"/>
<path transform="translate(545,1255)" d="m0 0h13l6 1 51 2v1l-8 1-38-1-24-2z" fill="#575147"/>
<path transform="translate(1186,214)" d="m0 0 7 6 26 26-2 1-2-1v-2l-4-2-3-2v-2l-4-1-7-8-11-13z" fill="#595348"/>
<path transform="translate(1091,590)" d="m0 0 4 1 8 9 6 8 9 10 1 3-4-2-12-13-8-11-1-1-1 18h-1z" fill="#554C42"/>
<path transform="translate(1107,134)" d="m0 0 4 2 5 6 2 1v2h2v2h2v2l4 2 3 3 1 4h-4v-2l-4-2-3-3v-2h-2v-2h-2l-9-12z" fill="#5C5A51"/>
<path transform="translate(331,58)" d="m0 0 2 1-12 12-7 8-11 12-1 2h-2l-2 4-7 6 2-4 5-5 3-5 4-4h2l1-4 10-9 2-4 8-7z" fill="#353533"/>
<path transform="translate(432,298)" d="m0 0 2 1-5 6-18 12-16 9-6 3h-3v-2l8-3 17-10 14-10z" fill="#4E4A42"/>
<path transform="translate(294,1589)" d="m0 0h2l2 4 9 6v1h-18l1-5z" fill="#B6A495"/>
<path transform="translate(1267,264)" d="m0 0 7 4v2l4 2 14 14-2 1-5-2-18-18z" fill="#A6A8A5"/>
<path transform="translate(625,1142)" d="m0 0h5l1 1 10 1-1 3h-36l2-2h18z" fill="#463F37"/>
<path transform="translate(1403,221)" d="m0 0 2 1v2l3-1 4 4 2 5 7 6 2 4-2 2-18-18-1-4z" fill="#4A4239"/>
<path transform="translate(1353,145)" d="m0 0 5 1 14 14 3 2 4 7-1 2-16-16-3-2v-2l-4-2z" fill="#333432"/>
<path transform="translate(1462)" d="m0 0h5l-2 5-10 11-5 6h-3l2-5 9-10z" fill="#262726"/>
<path transform="translate(1384,199)" d="m0 0 7 6 7 8 9 9v2h-2l-2-2-1 3-7-7-1-5-4-5-7-6z" fill="#45413B"/>
<path transform="translate(1312,129)" d="m0 0 4 2 22 22-3 1-6-7-5-2-4-5h-3l-2-4-3-5z" fill="#544B41"/>
<path transform="translate(43,317)" d="m0 0v3l-10 7-7 5-12 6-6 4-3-1 30-19z" fill="#363736"/>
<path transform="translate(294,85)" d="m0 0v3l-12 12-5 4h-5l4-7 4-2 1-2v3l4-3 3-6 5-1z" fill="#8C8C82"/>
<path transform="translate(44,1585)" d="m0 0 3 1-1 9-1 5h-9l1-4z" fill="#9FA6A4"/>
<path transform="translate(46,1441)" d="m0 0 6 2 4 4 2 5-4 4-5-3-3-8z" fill="#868881"/>
<path transform="translate(1588)" d="m0 0h12v13l-8-6-4-5z" fill="#B3AAA0"/>
<path transform="translate(1583,614)" d="m0 0h2l5 6 5 5 5 4v7l-7-6-9-10z" fill="#4F4D45"/>
<path transform="translate(732,1144)" d="m0 0 19 1 29 1 3 2h-20l-31-1-3-2z" fill="#575248"/>
<path transform="translate(1459,280)" d="m0 0 7 6 4 3 3-1 6 5v2h2l-1 7-7-6-14-14z" fill="#3C3B39"/>
<path transform="translate(142,531)" d="m0 0 1 4 3-1 1 1v5l-3 1v2l-3 2h-3v2l-5 5-2 1 2-4 4-9 3-3z" fill="#494037"/>
<path transform="translate(555,132)" d="m0 0 1 3-8 17-12 20-2 1 2-5 11-21 3-8 3-3z" fill="#1E2124"/>
<path transform="translate(797,309)" d="m0 0 2 1-14 15-9 10-9 7-4 4-2-1 8-8 8-7 8-8 7-8z" fill="#605A4F"/>
<path transform="translate(556,541)" d="m0 0v3l-10 11-8 4-12 12-2-1 18-18 6-5 5-3z" fill="#625A4F"/>
<path transform="translate(129,1486)" d="m0 0h8v9l-3 3-5-5-3-4v-2z" fill="#E1E2E2"/>
<path transform="translate(42,1416)" d="m0 0 2 1 1 7 3 4-1 4 2 6-5-1-3-13-2-1 1-5z" fill="#949995"/>
<path transform="translate(415,520)" d="m0 0h3l-2 4-6 7-8 7-5 2 1-3h2l2-5 4-4h2v-2l5-4h2z" fill="#746E64"/>
<path transform="translate(1352,380)" d="m0 0 6 4 21 21v2l-5-2-3-3v-2l-4-2-12-13-3-3z" fill="#4C453C"/>
<path transform="translate(309,52)" d="m0 0 3 3-2 4-8 8-3-1v-5h2l2-4z" fill="#1E2021"/>
<path transform="translate(216,141)" d="m0 0h3l-1 4-2 3h-2l-1 4-7 8h-3l1-5 10-11z" fill="#45443F"/>
<path transform="translate(1092,1531)" d="m0 0v3l-9 10-9 11-13 16-1-3 1-3h3v-2h2l2-4 5-7h2l2-5h2l2-4 9-10z" fill="#363736"/>
<path transform="translate(499,439)" d="m0 0 2 1-2 4-20 20h-2v-2h2l2-4 2-3h2l2-4z" fill="#6B645A"/>
<path transform="translate(136,1311)" d="m0 0 2 3v3l-2 1 4 2 1 10-2 2-4-10h-5l1-5h2l1-4h2z" fill="#484943"/>
<path transform="translate(818,293)" d="m0 0 6 4 9 12 4 4 6 8 6 7-1 2-4-3-3-5-9-11-4-4-9-11z" fill="#7F7F75"/>
<path transform="translate(1393,148)" d="m0 0 2 1-4 5-1 4-11 9h-1v-6z" fill="#3F3F3C"/>
<path transform="translate(27,1435)" d="m0 0h11l5 3 1 2h-4l2 4-2 2h-3l-4-6-2-4z" fill="#7E7E75"/>
<path transform="translate(1369,1296)" d="m0 0 12 1 9 4 4 4-11-2-12-4-2-1z" fill="#363736"/>
<path transform="translate(59,348)" d="m0 0 4 1-38 21-2-1 5-2v-2l6-3h3v-2z" fill="#46443F"/>
<path transform="translate(499,186)" d="m0 0 1 4-2 2-2 5-6 8-9 7-2 1 2-4 11-13z" fill="#514D44"/>
<path transform="translate(345,1359)" d="m0 0 5 2 2 1v2l4 2v2l5 2 5 4v2l-3 1-11-9-7-6z" fill="#5E564C"/>
<path transform="translate(1382,1274)" d="m0 0 5 1 4 3v2h2l1 5-6-1-7-4v-5z" fill="#969D9B"/>
<path transform="translate(1312,959)" d="m0 0 1 2-2 4h-2v2h-2l-1 8-4 6-2-1v-6l7-11z" fill="#929997"/>
<path transform="translate(254,98)" d="m0 0v3l-11 14-6 2 2-4 9-10zm-18 19m-1 1m-1 1m-1 1m-1 1 1 3h-3z" fill="#373736"/>
<path transform="translate(1377,69)" d="m0 0h8l2 3-1 8-4 6-5 4-4 1 3-3 6-5 2-5v-6h-7l-10 5-2 2-3-1 9-6z" fill="#797C77"/>
<path transform="translate(1412)" d="m0 0h6l4 7 11 14 7 6-2 2-13-13-10-13z" fill="#484641"/>
<path transform="translate(471,1532)" d="m0 0 4 2 3 6v3l-7 1v-2h-2l-1-2v-7l3 1z" fill="#091722"/>
<path transform="translate(102,1508)" d="m0 0 4 2 1 4 3 7 1 6-3-4-6-7-8-5 3-2z" fill="#202326"/>
<path transform="translate(581,1145)" d="m0 0h25v1l17 1v1h-31l-12-1z" fill="#50463C"/>
<path transform="translate(1529,319)" d="m0 0 7 6 20 20-2 2-25-25z" fill="#303130"/>
<path transform="translate(222,1523)" d="m0 0 4 1 11 10 10 8 7 6-3 1v-2l-4-2-10-6-6-7-5-5z" fill="#7B796F"/>
<path transform="translate(1496,283)" d="m0 0h1l2 6 5 4 2 5 18 18h-3l-19-19-8-10z" fill="#282826"/>
<path transform="translate(978,1146)" d="m0 0 4 3v2h-69v-1h65z" fill="#554C42"/>
<path transform="translate(992,585)" d="m0 0 4 1h48v1l-29 1h-25l1-2z" fill="#6F665C"/>
<path transform="translate(1408,161)" d="m0 0v3l-5 7h-2l-2 5-4 4 1 7h-2l-4-5-4-4 6 2 6-8 9-10z" fill="#514E46"/>
<path transform="translate(200,1376)" d="m0 0 5 1 2 2v6l-5 2-5-6z" fill="#939997"/>
<path transform="translate(540,556)" d="m0 0h2l-1 4-7 8-3 7-6 7-2-1 2-5 5-5v-5z" fill="#575046"/>
<path transform="translate(1550,165)" d="m0 0 7 6 4 4 3 5 2-1-1 5-7-6-3-3-6-5z" fill="#544E45"/>
<path transform="translate(455,638)" d="m0 0h2l-2 4-21 21-2-1 4-6 12-11z" fill="#584F45"/>
<path transform="translate(1461,457)" d="m0 0 6 2 10 9 4 3 3 1v2l-7-1-16-15z" fill="#62615A"/>
<path transform="translate(716,387)" d="m0 0 2 1-10 10v2l-8 7-11 11-2-1 15-16z" fill="#746E64"/>
<path transform="translate(1234,52)" d="m0 0 7 5 7 6 11 10-2 2-7-7-6-3-3-5-2-1-1 2-3-5-2-3z" fill="#746F66"/>
<path transform="translate(126,249)" d="m0 0h2l-2 4-6 4-5 5-8 7-13 13-2-1 20-20 8-7z" fill="#383836"/>
<path transform="translate(196,1591)" d="m0 0h7v3l11 2 1-3 2 4v3h-12l-3-5-2-1v-2z" fill="#7D7C72"/>
<path transform="translate(1058,563)" d="m0 0 4 2 14 12 9 5 4 5-6-2-11-8-4-4-3-1-7-8z" fill="#6F665C"/>
<path transform="translate(1319,348)" d="m0 0 4 1 15 15v3l-4-2-15-15z" fill="#554F46"/>
<path transform="translate(580,1551)" d="m0 0 1 2h2l5 5v2l4 2v3l-2 1-11-9-1-2z" fill="#4E4F48"/>
<path transform="translate(1560,596)" d="m0 0 5 1 7 4 3 5-2 1h-3l-9-7-2-3z" fill="#504F47"/>
<path transform="translate(1585,408)" d="m0 0 9 3 6 4v5l-12-6-4-3 2-1z" fill="#252626"/>
<path transform="translate(1369,360)" d="m0 0 7 6 18 18-1 2-10-9-5-5-9-10z" fill="#B7AEA6"/>
<path transform="translate(813,290)" d="m0 0h2l2 5 4 2 8 10 4 4-1 2-8-7-9-12-2 5-2-1z" fill="#52483E"/>
<path transform="translate(1495,315)" d="m0 0 4 1 1 3 5 1 6 7-5-1h-3l-8-8z" fill="#363735"/>
<path transform="translate(1478,91)" d="m0 0 3 1-2 5-8 8-7 4-5 4 2-5 11-9 6-4z" fill="#4F4B45"/>
<path transform="translate(1334,328)" d="m0 0 8 6 17 17-3 1-22-22z" fill="#9BA4A4"/>
<path transform="translate(1411,228)" d="m0 0 4 2 21 21v2l-5-1-2-5-8-7-5-5-5-6z" fill="#5B5349"/>
<path transform="translate(1218,11)" d="m0 0 4 2 7 5 8 10-2 2-17-17z" fill="#262728"/>
<path transform="translate(131,1354)" d="m0 0h5l-2 6 4-1-5 12h-2v-2h-2l1-2h2l-2-8z" fill="#3C3D3A"/>
<path transform="translate(1379,405)" d="m0 0 6 5 7 8v3l-7-4-8-9 2-1z" fill="#5F5E56"/>
<path transform="translate(1599,360)" d="m0 0h1v7l-2 2h-6l-1 3-4 1 1-4z" fill="#4C4B48"/>
<path transform="translate(1504,294)" d="m0 0 7 6 12 12 6 7-4-2-10-9-11-11z" fill="#3B3C3A"/>
<path transform="translate(1286,77)" d="m0 0h2v2l4 2 9 9 1 6-2-1v-2l-4-2-10-12z" fill="#232424"/>
<path transform="translate(857,339)" d="m0 0 7 6 9 10v5l-5-5-9-10z" fill="#716C62"/>
<path transform="translate(1432)" d="m0 0h9l-2 5-4 4h-3l-2-7z" fill="#323433"/>
<path transform="translate(160,1326)" d="m0 0h3l-2 4-9 7-3 2v-3h2l-3-3v-4l6 2v-3h5z" fill="#888A83"/>
<path transform="translate(1511,128)" d="m0 0 4 1 7 7v3h2l-1 2-4-1-8-8z" fill="#5C564D"/>
<path transform="translate(340,51)" d="m0 0 5 1-4 7h-2v3l4 1h-5v-4l-5 2v-3z" fill="#4D4E47"/>
<path transform="translate(361)" d="m0 0h8l-2 1-1 4-3 1-1 2-4 3-2-1 2-3-2-1z" fill="#C3AD9C"/>
<path transform="translate(128,1491)" d="m0 0 2 3 1 7-5-2-2-1 3 5-1 2-4-5-4-2 3-1 1-3 1-1h4z" fill="#222528"/>
<path transform="translate(1208,1391)" d="m0 0v3l-11 12-10 13-3 2 2-4 7-10 5-5 3-5z" fill="#363736"/>
<path transform="translate(1435,432)" d="m0 0 5 3 4 5 8 7 9 8-3 1-10-10-8-7-5-5z" fill="#6D6960"/>
<path transform="translate(1298,325)" d="m0 0 7 6 6 7-2 3-10-10v-2l-3-1 2-1z" fill="#5A5951"/>
<path transform="translate(84,305)" d="m0 0 4 1-11 6-15 11h-2v-3h3v-2h3v-2h3l1-3 5-1v-2h3v-2h3v-2z" fill="#373937"/>
<path transform="translate(1018,51)" d="m0 0 7 6 4 4-1 3-4-1-8-8v-3z" fill="#6F665C"/>
<path transform="translate(1433,226)" d="m0 0 6 2 5 5 7 6-1 2-4-1-11-11-2-1z" fill="#343433"/>
<path transform="translate(121,1523)" d="m0 0 2 1v5l-2 2-6 2-4 3v-5l7-6h3z" fill="#0F1012"/>
<path transform="translate(1543,1311)" d="m0 0h6l-2 2-24 3h-16v-1l15-1z" fill="#4C4238"/>
<path transform="translate(1500,458)" d="m0 0 1 3-6 7-2 4-6 4 1-5 5-7z" fill="#707169"/>
<path transform="translate(1484,176)" d="m0 0h1l1 8h5v2l-5 4-4 8-4 2 2-5 3-5v-13z" fill="#A99E92"/>
<path transform="translate(160,1578)" d="m0 0 2 3-1 5 3 2 1 5-1 3h2l1 4-4-2-2-5-2-1v-9z" fill="#6F665C"/>
<path transform="translate(144,503)" d="m0 0 2 2v8l-2 13-7 10v-3l4-9 2-10v-5l1-1z" fill="#59544A"/>
<path transform="translate(1481,296)" d="m0 0 7 6 2 3-4 4-6-6z" fill="#4B4944"/>
<path transform="translate(124,253)" d="m0 0v3l-7 7-11 9-6 5 2-4 11-11 5-3 4-5z" fill="#534F46"/>
<path transform="translate(1450,240)" d="m0 0 4 2 9 9-2 1-1 2-12-12z" fill="#474845"/>
<path transform="translate(1575,205)" d="m0 0 3 1-1 3-11 9-6 4 2-4 12-12z" fill="#1E1F20"/>
<path transform="translate(1350,166)" d="m0 0 7 6 5 4v2l4 2-1 2-7-1-1-2 1-2-2-1 1-2-5-1z" fill="#4F483F"/>
<path transform="translate(298,1473)" d="m0 0 3 1-2 10-5 1-3-1v-5l6-3z" fill="#0B0C0E"/>
<path transform="translate(144,1330)" d="m0 0h1l1 11 2-8 3 1v2h-2l1 6-6 8-3-1 2-3z" fill="#3B3D3A"/>
<path transform="translate(1505,117)" d="m0 0 7 6 13 13-2 2-19-19z" fill="#28292A"/>
<path transform="translate(1052,582)" d="m0 0h16v4h-15l-4-2z" fill="#4E4F48"/>
<path transform="translate(187,298)" d="m0 0h9l11 4 14 6v1l-8-1-13-6-6-2-7-1z" fill="#47443E"/>
<path transform="translate(172,1273)" d="m0 0 6 1 5 5v2l2 1h-3v-2h-6l-8-5z" fill="#091722"/>
<path transform="translate(44,630)" d="m0 0 2 1-5 4-8 7-4 4v-2l-2-1 5-5 9-7z" fill="#4D473E"/>
<path transform="translate(1416,450)" d="m0 0 4 1 11 11v3l-4-2-11-11z" fill="#585248"/>
<path transform="translate(1587,270)" d="m0 0h2l-2 4-8 7-5 9-1 2h-2v-4h2l1-4 7-9z" fill="#3E3E3C"/>
<path transform="translate(1531,246)" d="m0 0v3l-6 6-1 4-5 2-10 10-2-1z" fill="#4D4E4B"/>
<path transform="translate(1582,200)" d="m0 0 4 1 4 4-3 3-6-3-3 2-2-3z" fill="#56524A"/>
<path transform="translate(1305,121)" d="m0 0 7 6 3 8 3 4-4-2-6-7-3-4z" fill="#443F39"/>
<path transform="translate(1294,66)" d="m0 0 4 1-6 7-2 4-2 1v-2l-3 1-5-4 1-2 4 3h2z" fill="#545551"/>
<path transform="translate(276,1472)" d="m0 0 14 2v5h-6l-8-5z" fill="#101113"/>
<path transform="translate(1582,532)" d="m0 0 10 10 8 9-1 2-15-15v-2h-2z" fill="#50504C"/>
<path transform="translate(1563,514)" d="m0 0 4 2 15 15-1 3-18-18z" fill="#42433F"/>
<path transform="translate(279,71)" d="m0 0 2 1-6 8h-3l-2 4-8 8v-3l9-10 3-1v-3h2v-2z" fill="#313232"/>
<path transform="translate(229,37)" d="m0 0 2 1-17 16-3 3-2-1 7-8 9-9z" fill="#393A38"/>
<path transform="translate(1560,427)" d="m0 0h3l-2 4-12 12h-2v-2l2-1 3-5z" fill="#1D1F20"/>
<path transform="translate(1490,259)" d="m0 0 2 4-5 5-7 2-1-3z" fill="#44433F"/>
<path transform="translate(1468,105)" d="m0 0 3 1-13 12-4 3 2-4v-2l-2-1 4-4 2 1 5-4z" fill="#716E64"/>
<path transform="translate(104,1503)" d="m0 0 3 3v8l-2 1v-5l-3-1-5 1 1-6z" fill="#0F1A22"/>
<path transform="translate(469,1498)" d="m0 0 5 1 2 1 3 6 5 5v2l4 1 6 4-3 1-5-4-3-1-7-8-1-4-5-2z" fill="#091722"/>
<path transform="translate(118,1477)" d="m0 0 8 1v2l8-1-1 4-3 1-1-2-5 1-6-2z" fill="#6E6E66"/>
<path transform="translate(100,580)" d="m0 0 2 1-2 1zm-1 2m-2 1 2 1-2 1zm-1 2m-1 1m-1 1m-1 1m-2 1 2 1-6 5 2-4zm-6 6 2 1-3 5-2 3h-5l2-4z" fill="#525047"/>
<path transform="translate(522,571)" d="m0 0 2 1-25 25v-3z" fill="#6C675D"/>
<path transform="translate(136,422)" d="m0 0 4 5 2 13 1 11-2-4-2-6-1-7-1-2v-6l-2-1z" fill="#534E46"/>
<path transform="translate(352,1355)" d="m0 0 7 3 7 8-2 1-9-6-3-4z" fill="#5C5449"/>
<path transform="translate(1085,591)" d="m0 0 5 1v5l-5 2-1-3-3 4-2-5 2-3z" fill="#D5BAA9"/>
<path transform="translate(1194,9)" d="m0 0 7 6 1 3h2l7 8v2l-4-1-2-4-6-4v-2l-2-1v-2h-2z" fill="#79756C"/>
<path transform="translate(12,335)" d="m0 0 2 1-8 5 6-1-3 3-7 4h-2v-5z" fill="#1E2124"/>
<path transform="translate(843,259)" d="m0 0m-1 1m-1 1m-1 1m-1 1m-1 1m-1 1m-1 1m-1 1m-2 1 2 1-17 17-1-3 8-7 6-7z" fill="#A48D7A"/>
<path transform="translate(548,103)" d="m0 0 2 2-3 8v5l-3 3-2 8-2 5-1-3 2-5 3-12 3-10z" fill="#4C4238"/>
<path transform="translate(1415,1297)" d="m0 0 6 1 17 5v2l-8-1-15-5z" fill="#44433F"/>
<path transform="translate(1588,584)" d="m0 0h5l4 5 3 1v6l-7-6-5-4z" fill="#3F3F3D"/>
<path transform="translate(1507,483)" d="m0 0 1 3-2 3h-2v7l3 3v3l-3-1-4-6 1-4 2-6z" fill="#3F3F3D"/>
<path transform="translate(1186,214)" d="m0 0 7 6 11 11 4 3v2l-4-2-8-8-6-5-4-5z" fill="#515048"/>
<path transform="translate(1128,158)" d="m0 0 4 1 18 18-1 3-9-10-12-11z" fill="#565248"/>
<path transform="translate(365,56)" d="m0 0 3 1-4 2-18 4-7-1 1-3v2z" fill="#41423E"/>
<path transform="translate(1382)" d="m0 0h8l1 5 3 4-4 1-8-9z" fill="#2C2E2E"/>
<path transform="translate(1548,438)" d="m0 0h2l-1 3h-2l1 3-9 9-3-1 11-13z" fill="#474641"/>
<path transform="translate(86,337)" d="m0 0h17l6 3v1h-7v-2h-16z" fill="#2A2C2D"/>
<path transform="translate(1180)" d="m0 0h6l5 8 1 4-4-2-5-6-3-3z" fill="#242525"/>
<path transform="translate(117,1586)" d="m0 0 4 1 6 5-2 5-1 3h-3v-9z" fill="#0B0C0E"/>
<path transform="translate(703,245)" d="m0 0 1 3-8 8-6 5-3-1 3-1 2-4z" fill="#736C62"/>
<path transform="translate(1524,139)" d="m0 0 5 5 4 5 3 3-2 2-13-13z" fill="#443F38"/>
<path transform="translate(556,103)" d="m0 0h2l1 5v7l-2 6-3-1 2-13z" fill="#808076"/>
<path transform="translate(339,5)" d="m0 0h2l-2 4-6 9-2 1-1-3 6-9z" fill="#1E2124"/>
<path transform="translate(971)" d="m0 0h3l7 8 8 8-1 2-15-14z" fill="#616057"/>
<path transform="translate(28,347)" d="m0 0m-1 1m-2 1 2 1-5 5-12 6-5 2 4-4z" fill="#7E7D73"/>
<path transform="translate(1599,75)" d="m0 0h1v7l-4 3-3-1-3 3-2-1z" fill="#3B3936"/>
<path transform="translate(552,65)" d="m0 0 2 3 4 18v6l-3 2v-10l-3-15z" fill="#363736"/>
<path transform="translate(201,63)" d="m0 0 2 1-12 12-8 7-2 1 2-4 8-8 8-7z" fill="#343534"/>
<path transform="translate(551,19)" d="m0 0 2 1 11 22-2 1-10-19z" fill="#1E2124"/>
<path transform="translate(45,1424)" d="m0 0 18 1 5 1v1h-17l1 2-5-1z" fill="#40413D"/>
<path transform="translate(641,1144)" d="m0 0h11l9 2v1h-21z" fill="#453E37"/>
<path transform="translate(380,554)" d="m0 0h2l-1 3-8 7h-3l-1-3 8-6z" fill="#6F675D"/>
<path transform="translate(1597,290)" d="m0 0h3v4h-5l-6 2-11 1 4-2z" fill="#2D2E2D"/>
<path transform="translate(212,282)" d="m0 0 8 2 14 7-3 1-14-5-5-3z" fill="#514E45"/>
<path transform="translate(288,82)" d="m0 0v3l-14 16-4 2 2-4 15-16z" fill="#716D63"/>
<path transform="translate(1330)" d="m0 0h8l-5 5-2-1v2l-5 3-2 1 2-4z" fill="#262828"/>
<path transform="translate(493,1479)" d="m0 0 5 1 1 2 7 7 2 3-3 1-12-12z" fill="#5B5348"/>
<path transform="translate(626,1143)" d="m0 0h2l-1 3-4 1h-19l2-2 18-1z" fill="#191B1E"/>
<path transform="translate(1272,630)" d="m0 0 2 1-8 11-8 7v-3l9-9z" fill="#4C4841"/>
<path transform="translate(1343,373)" d="m0 0 5 1 8 7-4 1-4-2-2-4-3-1z" fill="#636058"/>
<path transform="translate(1539,360)" d="m0 0 4 1 6 6 4 1-1 5-6-4-7-8z" fill="#1E2021"/>
<path transform="translate(177,84)" d="m0 0h2l-2 5-3 3-5 3-6 7-2-1 15-16z" fill="#4B4A43"/>
<path transform="translate(1588)" d="m0 0 4 1 8 9-1 3-10-9z" fill="#262524"/>
<path transform="translate(210,1583)" d="m0 0 5 1 2 7-5 1-2-1v-2h3z" fill="#4E4B42"/>
<path transform="translate(513,1504)" d="m0 0 4 2 6 6v3l4 2 2 3-4-1-8-7 1-2-5-5z" fill="#60584D"/>
<path transform="translate(1391,1285)" d="m0 0 17 8 7 3v1l-7-1-14-7-3-2z" fill="#3A3B39"/>
<path transform="translate(1585,614)" d="m0 0 4 2 7 7 4 3v3l-4-2-4-4v-2l-4-2-3-3z" fill="#363736"/>
<path transform="translate(1093,593)" d="m0 0 5 4 4 7-6-1-3-3z" fill="#1E2124"/>
<path transform="translate(125,566)" d="m0 0 4 2-6 5h-2l-1 4h-3l-2-1z" fill="#1E2124"/>
<path transform="translate(281,307)" d="m0 0 9 1 15 4 1 2-11-2-14-3z" fill="#4E4F48"/>
<path transform="translate(1402,141)" d="m0 0 1 2-3 2-2 6-7 5-1-3 10-11z" fill="#2F3131"/>
<path transform="translate(331,58)" d="m0 0 2 1-12 12-7 8v-3l4-4 2-4 8-7z" fill="#40403C"/>
<path transform="translate(201,1563)" d="m0 0 5 1 4 5-2 4v-3h-2l-1-5-2 1v3l-5-1-1-3h4z" fill="#363736"/>
<path transform="translate(146,1317)" d="m0 0 9 3-1 6-5-2-1-3h-2z" fill="#111C25"/>
<path transform="translate(545,1255)" d="m0 0h13l10 2v1h-12l-11-1z" fill="#686258"/>
<path transform="translate(45,631)" d="m0 0 4 1-16 12v-3l8-7z" fill="#4B4B44"/>
<path transform="translate(1091,590)" d="m0 0 4 1 5 5v2l-4-2-2-2-1 18h-1z" fill="#53493F"/>
<path transform="translate(1310,338)" d="m0 0 4 2 7 7-2 1-1 2-1-3-4-2-3-3z" fill="#585248"/>
<path transform="translate(201,220)" d="m0 0 1 2-7 15-2 9h-1v-7l3-9z" fill="#4B4740"/>
<path transform="translate(1384,199)" d="m0 0 7 6 7 8v2l-4-2-4-5-7-6z" fill="#574F45"/>
<path transform="translate(397,1530)" d="m0 0h2l-1 5-8 8-4 1 2-4 5-4z" fill="#D5D5D4"/>
<path transform="translate(318,1466)" d="m0 0h6v2h-3v2l-9 1v-4z" fill="#ECEDEE"/>
<path transform="translate(361,1400)" d="m0 0 4 2 7 6 6 7-1 2-9-8v-2h-2l-5-5z" fill="#091722"/>
<path transform="translate(356,577)" d="m0 0h3l-2 4-5 5-5 1 1-4z" fill="#756F65"/>
<path transform="translate(541,48)" d="m0 0 5 2v3h2l2 7-5-4v-2l-8 1 4-2z" fill="#473F37"/>
<path transform="translate(1235,25)" d="m0 0 7 6 5 5-5 1-6-6z" fill="#43433F"/>
<path transform="translate(108,1512)" d="m0 0 2 1 1 4 3 3v7h-2l-4-8z" fill="#959C99"/>
<path transform="translate(41,1427)" d="m0 0 2 2v6l-1-4-6 2v2h-7l4-4z" fill="#3B3C39"/>
<path transform="translate(1529,479)" d="m0 0 16 16-2 2-9-9-5-7z" fill="#686862"/>
<path transform="translate(105,341)" d="m0 0 6 1 8 7 2 5-6-4-5-5z" fill="#48453E"/>
<path transform="translate(659,287)" d="m0 0h2l-2 4-11 11-3-1 10-10h2v-2h2z" fill="#756F65"/>
<path transform="translate(220,288)" d="m0 0 9 2 15 6-4 1-15-5z" fill="#484037"/>
<path transform="translate(147,252)" d="m0 0v3l-6 7-5 6-1 5h-1v-7z" fill="#40413D"/>
<path transform="translate(1422,212)" d="m0 0 7 6 8 8-2 1-8-7-6-7z" fill="#4A4945"/>
<path transform="translate(1535,154)" d="m0 0h5l4 4 3 6h-3l-9-9z" fill="#423D37"/>
<path transform="translate(309,52)" d="m0 0 3 3-2 4-4 3-3-4z" fill="#252627"/>
<path transform="translate(542,552)" d="m0 0 2 1-18 18-2-1z" fill="#736E64"/>
<path transform="translate(149,503)" d="m0 0 2 1-3 13-2 1-1 5h-1l1-10h2l1-9z" fill="#3B3936"/>
<path transform="translate(1581,406)" d="m0 0 5 1 1 4-6 3h-2l-1 2-3-3 6-3z" fill="#555450"/>
<path transform="translate(234,292)" d="m0 0 9 2 11 4v3l-10-3v-2l-6-1z" fill="#514C43"/>
<path transform="translate(1520,259)" d="m0 0h2l-2 4-10 10-3-1 5-5z" fill="#292928"/>
<path transform="translate(1422,242)" d="m0 0 5 2 5 6-4 1-6-5z" fill="#4E473F"/>
<path transform="translate(1413,233)" d="m0 0 5 2 5 6-2 3-9-9z" fill="#453E37"/>
<path transform="translate(202,158)" d="m0 0 1 2 2 1-5 6h-3v2h-2l1-4z" fill="#403C36"/>
<path transform="translate(250,155)" d="m0 0v3l-8 10-4 3 1-4 8-10z" fill="#94968F"/>
<path transform="translate(1408,21)" d="m0 0 4 2 10 10-1 3-13-13z" fill="#424341"/>
<path transform="translate(221,1377)" d="m0 0h2l-2 5-2 2h-3l-2 4-3-3v-2l8-3z" fill="#272A2B"/>
<path transform="translate(151,551)" d="m0 0 1 2-6 10-5 5 1-5z" fill="#8D8E84"/>
<path transform="translate(795,271)" d="m0 0 4 1 10 10-1 4-7-8z" fill="#646057"/>
<path transform="translate(493,239)" d="m0 0h2l-2 4-10 11v-3l3-5z" fill="#48453F"/>
<path transform="translate(265,113)" d="m0 0v3l-5 5-4 3 1-6 3-4v2z" fill="#3F3F3B"/>
<path transform="translate(1461,73)" d="m0 0 2 1v2h2l-1 4h-2l-3 3-2-1 2-7h2z" fill="#757269"/>
<path transform="translate(555,71)" d="m0 0 2 4 2 9v16l-2-3-1-4 1-1-1-12z" fill="#1E2124"/>
<path transform="translate(1030,60)" d="m0 0 6 4 5 5 4 2-2 1-1 2-12-12z" fill="#5D564B"/>
<path transform="translate(1201,23)" d="m0 0h5l2 4 6 4-3 3-10-10z" fill="#615A50"/>
<path transform="translate(1390,2)" d="m0 0 7 6v4h-2l-1 2-3-4 2-2-4-5z" fill="#474540"/>
<path transform="translate(1412)" d="m0 0h6l4 7 2 4-4-1-5-7z" fill="#2B2C2A"/>
<path transform="translate(187,1587)" d="m0 0 5 2 3 2v2l2 7-3-1-3-6v-2l-4-1z" fill="#605B52"/>
<path transform="translate(210,1567)" d="m0 0h1l1 12 1 4h-3l-2-5h-6v-1l8-1z" fill="#A09C92"/>
<path transform="translate(52,1442)" d="m0 0h9l1 3-3 3-3 1-1-4-3-1z" fill="#161E24"/>
<path transform="translate(42,1416)" d="m0 0 2 1 1 7v3l-3-1-3-3 1-5z" fill="#7C7D74"/>
<path transform="translate(140,1350)" d="m0 0 2 1-4 5 4-2-2 5-4 1h-2l1-4 3-5z" fill="#1C1F21"/>
<path transform="translate(1580,574)" d="m0 0 7 6 5 3-4 2-7-6z" fill="#484945"/>
<path transform="translate(1459,280)" d="m0 0 7 6 4 3 3-1 1 5-2 2-13-13z" fill="#31312F"/>
<path transform="translate(315,54)" d="m0 0v3l-7 9-3-1 2-4z" fill="#DBB59B"/>
<path transform="translate(1e3 38)" d="m0 0 4 2 7 7-2 3-8-8z" fill="#70685E"/>
<path transform="translate(260,1556)" d="m0 0 5 3 1 4-5 10-1-3 2-6-1-5z" fill="#7C7B71"/>
<path transform="translate(364,1376)" d="m0 0 5 1 7 8-3 1-9-8z" fill="#625A50"/>
<path transform="translate(994,1262)" d="m0 0 14 1v1l-13 1-19-1v-1z" fill="#5C5449"/>
<path transform="translate(129,545)" d="m0 0 1 2-1 2h-2l-1 4-3 1-2 4-5 4 2-4 9-11z" fill="#5C5449"/>
<path transform="translate(144,230)" d="m0 0 1 3-12 12-1-3h2l2-4z" fill="#46433C"/>
<path transform="translate(228,183)" d="m0 0v3l-8 11-2 1 1-5 6-8z" fill="#91938B"/>
<path transform="translate(224,132)" d="m0 0 3 1-6 9-2 1v-2l-2-1z" fill="#403C36"/>
<path transform="translate(147,536)" d="m0 0h1l-1 9-5 6-1-4 3-6 2-1z" fill="#1E2124"/>
<path transform="translate(1390,420)" d="m0 0 5 1 4 5 1 4-4-2-6-6z" fill="#524E46"/>
<path transform="translate(1359,180)" d="m0 0 7 1 7 7-1 2-2-1v-2l-6-3-1 2-4-4z" fill="#373735"/>
<path transform="translate(1320,139)" d="m0 0 4 5 6 3 2 7-7-6-6-6z" fill="#3D3B38"/>
<path transform="translate(136,1311)" d="m0 0 2 3v3l-4 3-4 2 1-5h2l1-4h2z" fill="#2E3131"/>
<path transform="translate(682,420)" d="m0 0 3 1-14 14-2-1 7-7z" fill="#716A60"/>
<path transform="translate(1395,176)" d="m0 0h2l-2 4 1 7h-2l-4-5-4-4 6 2z" fill="#545450"/>
<path transform="translate(1272,88)" d="m0 0 4 2 6 6v3l-4-2-4-5-2-1z" fill="#59544C"/>
<path transform="translate(1244,35)" d="m0 0 5 2v2l3 1 1 4h-3l-7-7z" fill="#353635"/>
<path transform="translate(213,1553)" d="m0 0 9 1v2l3 1 1 5-11-7z" fill="#6F665C"/>
<path transform="translate(299,1447)" d="m0 0 2 3v10h-2l-1 2v-12z" fill="#808076"/>
<path transform="translate(326,1341)" d="m0 0h2v2l4 2v2l3 1v2l-4-1-7-6z" fill="#5D554B"/>
<path transform="translate(128,1340)" d="m0 0h5l2 6-4 1-4-4z" fill="#40413E"/>
<path transform="translate(0,1060)" d="m0 0 5 2 2 4-5 1-2-1z" fill="#5A5247"/>
<path transform="translate(1583,614)" d="m0 0h2l6 10 2 5-9-9z" fill="#595248"/>
<path transform="translate(881,367)" d="m0 0 6 5 8 11-1 2-7-8-6-8z" fill="#6F665C"/>
<path transform="translate(26,342)" d="m0 0 3 1-3 5-6 3-3-3 7-3z" fill="#2E3030"/>
<path transform="translate(1163,194)" d="m0 0 8 6 6 4 4 5-4-2-11-8-3-3z" fill="#5B5348"/>
<path transform="translate(214,49)" d="m0 0 2 1-12 13h-3v-2l8-7z" fill="#4D4C45"/>
<path transform="translate(1526,21)" d="m0 0 6 4 6 3-2 1-9-4-8 4 6-7z" fill="#61615C"/>
<path transform="translate(297,1453)" d="m0 0h1l1 10-5-1-1-4z" fill="#26282A"/>
<path transform="translate(38,1431)" d="m0 0h4v4h2v3l-6-2-4-3z" fill="#121C24"/>
<path transform="translate(11,1059)" d="m0 0 8 6v2l-6-1-3-4z" fill="#525048"/>
<path transform="translate(979,802)" d="m0 0 2 3-1 10-3-1v-8z" fill="#6F665C"/>
<path transform="translate(1217,682)" d="m0 0h2v2l-6 5h-2v2l-8 4v-2l13-10z" fill="#6D675D"/>
<path transform="translate(117,605)" d="m0 0 4 1-2 4-4 1-1 2-1-4z" fill="#5C5449"/>
<path transform="translate(338,595)" d="m0 0h2l-1 4-5 5-1 5h-1v-7l2-5z" fill="#726A60"/>
<path transform="translate(362,567)" d="m0 0h7l-6 8h-2v-7z" fill="#71695F"/>
<path transform="translate(231,31)" d="m0 0m-1 1m-1 1 1 3-8 7-3 3-2-1 1-2h2l1-3h2v-2h2v-2h2v-2z" fill="#808076"/>
<path transform="translate(203,1518)" d="m0 0h2l-2 7-7 3 2-4z" fill="#7A796F"/>
<path transform="translate(103,1514)" d="m0 0h4l3 7 1 6-9-12z" fill="#303333"/>
<path transform="translate(124,1506)" d="m0 0 4 1-1 6-1 2-3-1v-7z" fill="#98A09E"/>
<path transform="translate(215,1390)" d="m0 0h2v3l3-2-1 4-2 3-4-2 1-5z" fill="#BCB0A5"/>
<path transform="translate(117,352)" d="m0 0 5 2 1 1 1 11-1 5h-1l-1-12z" fill="#565046"/>
<path transform="translate(291,336)" d="m0 0h7l12 2v1h-14l-5-1z" fill="#4A4741"/>
<path transform="translate(216,141)" d="m0 0h3l-1 4-3 3h-2l-5 4 2-4z" fill="#42413C"/>
<path transform="translate(1408,137)" d="m0 0h2l-2 4-8 7-1-3z" fill="#191A1B"/>
<path transform="translate(1479,64)" d="m0 0 7 6 3 4-5-1-5-6z" fill="#494743"/>
<path transform="translate(1450,65)" d="m0 0 6 2 5 5-1 3-10-9z" fill="#252729"/>
<path transform="translate(1473,62)" d="m0 0 6 2 3 6 3 3-1 2-11-11z" fill="#272625"/>
<path transform="translate(240,26)" d="m0 0 2 1-3 4-5 3-2 3-6 2 2-3h2v-2z" fill="#4D4D46"/>
<path transform="translate(205,1403)" d="m0 0 2 1-2 4 1 2-3 1-5-1 2-4 1 1z" fill="#8F928C"/>
<path transform="translate(210,1395)" d="m0 0v3l-3 1-2 5-3 1-1 3-1-3 7-8z" fill="#BFB1A5"/>
<path transform="translate(1284,1221)" d="m0 0 4 1 1 5-1 2h-3z" fill="#4E4F48"/>
<path transform="translate(1570,566)" d="m0 0 4 2 6 5-1 4-9-9z" fill="#45433E"/>
<path transform="translate(22,349)" d="m0 0h2v2l-16 10-2-1 10-7h2l1-3z" fill="#4F4B42"/>
<path transform="translate(1555,174)" d="m0 0 5 5 5 4 1 2 2 1-3 3-2-5h-2l-6-8z" fill="#313130"/>
<path transform="translate(1341,157)" d="m0 0 7 6v1l-6 1-2-2z" fill="#4D4943"/>
<path transform="translate(1450,122)" d="m0 0 3 1-13 13-2-2 10-9z" fill="#7F7E74"/>
<path transform="translate(280,93)" d="m0 0 2 4-3 1-3 5-4 1 4-7 4-2z" fill="#999A90"/>
<path transform="translate(1226,43)" d="m0 0 4 2 11 11-1 2-10-10-4-3z" fill="#7C7B71"/>
<path transform="translate(1213,32)" d="m0 0 4 2 1 4 3 1 1 4-4-2-6-6z" fill="#5C554A"/>
<path transform="translate(1432)" d="m0 0h7l-4 4h-2v4l2 1h-3l-2-7z" fill="#76766D"/>
<path transform="translate(377,1547)" d="m0 0h2l1 4h-2l-1 3-5 1 2-5z" fill="#C1BBB4"/>
<path transform="translate(539,1519)" d="m0 0 6 1 5 5-7-1-4-4z" fill="#4E4F48"/>
<path transform="translate(122,1164)" d="m0 0 2 1 7 7 6 5h-3l-12-10z" fill="#443E37"/>
<path transform="translate(1128,635)" d="m0 0 5 4 5 8-1 2-8-10z" fill="#1E2124"/>
<path transform="translate(1447,443)" d="m0 0 14 12-3 1-11-11z" fill="#5A5750"/>
<path transform="translate(126,249)" d="m0 0h2l-2 4-6 4-5 5v-3z" fill="#403D39"/>
<path transform="translate(529,195)" d="m0 0v3l-8 11-1-3 6-9z" fill="#373633"/>
<path transform="translate(506,179)" d="m0 0h2l-2 4-5 7h-1v-6z" fill="#4E4A41"/>
<path transform="translate(1381,158)" d="m0 0h2l1 5-6 4v-6z" fill="#5C5A52"/>
<path transform="translate(1440,130)" d="m0 0 3 1-4 4-3 1v2l-3 1 2-6z" fill="#605D55"/>
<path transform="translate(159,102)" d="m0 0 2 1-8 9-5 3h-3l7-6 5-5z" fill="#2D3233"/>
<path transform="translate(519)" d="m0 0h2l3 7 2 5h-3l-4-7z" fill="#363736"/>
<path transform="translate(196,1591)" d="m0 0h7v3l6 1 1 2h-4l-1 3-3-5-2-1v-2z" fill="#6B6A61"/>
<path transform="translate(494,1519)" d="m0 0 9 3 3 4-1 2-11-7z" fill="#091722"/>
<path transform="translate(207,1381)" d="m0 0 1 3 4 1 1 2-4 1v3l-3-1z" fill="#131D25"/>
<path transform="translate(1420,1301)" d="m0 0 6 1v2l2 1-6 2-2-2z" fill="#0B1822"/>
<path transform="translate(83,602)" d="m0 0 2 1-10 8-2-3h2l2-4z" fill="#413C37"/>
<path transform="translate(1491,520)" d="m0 0 4 2 6 7h-4l-6-7z" fill="#333434"/>
<path transform="translate(131,242)" d="m0 0 1 4-3 3-5 3h-3z" fill="#282A2B"/>
<path transform="translate(168,203)" d="m0 0 1 4-4 4v-3l-7 6 2-4z" fill="#3C3A36"/>
<path transform="translate(1502,120)" d="m0 0 5 4h3l3 4h-2l-1 2-8-8z" fill="#453F38"/>
<path transform="translate(1503,114)" d="m0 0 3 3v3l2 2-1 3-7-7 1-2 2 1z" fill="#585249"/>
<path transform="translate(1492,103)" d="m0 0 6 5-1 3-4-1-2-4z" fill="#484742"/>
<path transform="translate(1451,68)" d="m0 0 4 2 5 5-1 2-4-2-4-5z" fill="#42413D"/>
<path transform="translate(324,44)" d="m0 0v3l-6 7-6 3 2-4z" fill="#D4B097"/>
<path transform="translate(1389,1198)" d="m0 0h1l2 18h-3z" fill="#999A90"/>
<path transform="translate(1525,462)" d="m0 0 1 4-6 5-2-2z" fill="#2B2C2C"/>
<path transform="translate(1496,256)" d="m0 0 3 1-5 5h-4l1-4z" fill="#2D2F30"/>
<path transform="translate(151,224)" d="m0 0 1 2-4 6h-2l2-5z" fill="#808076"/>
<path transform="translate(1302,92)" d="m0 0 7 6-3 3-4-4z" fill="#3E403D"/>
<path transform="translate(1427,42)" d="m0 0 5 5-3 3-4-4z" fill="#4A453E"/>
<path transform="translate(89,1515)" d="m0 0 5 5 5 6-4-1-6-7z" fill="#BAAB9E"/>
<path transform="translate(305,1466)" d="m0 0h7v5l-7 1 3-3-3-1z" fill="#979E9D"/>
<path transform="translate(219,1396)" d="m0 0 2 1-1 10-2-2-2-7z" fill="#0D0F11"/>
<path transform="translate(1551,546)" d="m0 0 5 3 2 4-3 1-5-5z" fill="#56524B"/>
<path transform="translate(1521,342)" d="m0 0 5 2 3 2v3 3l-8-8z" fill="#2E2F2E"/>
<path transform="translate(69,315)" d="m0 0 3 1-10 7h-2v-3h3v-2h3v-2z" fill="#3B3C39"/>
<path transform="translate(1474,263)" d="m0 0 3 1 5 7-1 2-9-8z" fill="#303130"/>
<path transform="translate(1484,188)" d="m0 0h2l-2 7-5 5v-3z" fill="#3D3F3D"/>
<path transform="translate(1093,122)" d="m0 0 5 1 4 4-1 3-8-7z" fill="#666157"/>
<path transform="translate(1593,83)" d="m0 0 3 2-8 7-2-2 5-5z" fill="#212325"/>
<path transform="translate(564,46)" d="m0 0h3l1 2 16 1v1h-16l-1 2z" fill="#282A2B"/>
<path transform="translate(354,45)" d="m0 0h2l-1 5-5 3-2-1z" fill="#0B0C0E"/>
<path transform="translate(1540,29)" d="m0 0 2 1-8 11-4 2 6-9z" fill="#60615C"/>
<path transform="translate(33,1449)" d="m0 0 8 1 1 3-4 1-5-3z" fill="#121415"/>
<path transform="translate(61,1431)" d="m0 0h6l1 6-4-1z" fill="#9AA2A2"/>
<path transform="translate(1544,538)" d="m0 0 3 3v2h2v2h2l-1 3-7-6z" fill="#59574F"/>
<path transform="translate(1520,336)" d="m0 0 7 6 2 3-6-1-3-5z" fill="#524E47"/>
<path transform="translate(99,276)" d="m0 0 1 2-4 5-5 3-3 2 2-4z" fill="#4F4D45"/>
<path transform="translate(1483,264)" d="m0 0 5 2-2 3-6 1-1-3z" fill="#6D6960"/>
<path transform="translate(488,205)" d="m0 0v3l-5 4-2-1zm-8 7m-3 1 3 1-5 4z" fill="#504C43"/>
<path transform="translate(1396,185)" d="m0 0 5 5 1 4-4-2-3-3z" fill="#2F302F"/>
<path transform="translate(1544,159)" d="m0 0 6 3v5h-3l-2-5z" fill="#363634"/>
<path transform="translate(1515,128)" d="m0 0 4 2 6 7h-3l-7-7z" fill="#252423"/>
<path transform="translate(215,1386)" d="m0 0 1 3-3 5-2-1-1-5z" fill="#80827A"/>
<path transform="translate(205,1378)" d="m0 0 2 1v6l-1-3-4 2-1-5z" fill="#7E7E74"/>
<path transform="translate(1329,1355)" d="m0 0h2l-2 4-8 9v-3z" fill="#494740"/>
<path transform="translate(338,1351)" d="m0 0 5 4v2h2v2l-4-1-4-4z" fill="#62594F"/>
<path transform="translate(738,367)" d="m0 0 2 1-9 10-2-1z" fill="#635C52"/>
<path transform="translate(102,281)" d="m0 0 3 1-9 7h-3v-2z" fill="#26282A"/>
<path transform="translate(459,275)" d="m0 0h2l-2 4-7 6v-3z" fill="#514D44"/>
<path transform="translate(487,202)" d="m0 0 2 1-2 4-8 6 2-4z" fill="#565148"/>
<path transform="translate(269,2)" d="m0 0 2 1-10 9-3-1z" fill="#454541"/>
</svg>
