<svg width="400.4850219726562px" height="124.64000549316405px"  xmlns="http://www.w3.org/2000/svg" viewBox="69.75748901367189 12.679997253417973 360.4850219726562 124.64000549316405" style="background: rgba(0, 0, 0, 0);"  preserveAspectRatio="xMidYMid"><defs><filter id="editing-hole" x="-100%" y="-100%" width="300%" height="300%"><feFlood flood-color="#000" result="black"></feFlood><feMorphology operator="dilate" radius="2" in="SourceGraphic" result="erode"></feMorphology><feGaussianBlur in="erode" stdDeviation="4" result="blur"></feGaussianBlur><feOffset in="blur" dx="2" dy="2" result="offset"></feOffset><feComposite operator="atop" in="offset" in2="black" result="merge"></feComposite><feComposite operator="in" in="merge" in2="SourceGraphic" result="inner-shadow"></feComposite></filter></defs><g filter="url(#editing-hole)"><g transform="translate(18.810012817382812, 104.125)"><path d="M5.75 0L5.75-44.81L38.41-44.81L38.41-38.41L12.16-38.41L12.16-25.59L34.56-25.59L34.56-19.19L12.16-19.19L12.16-6.41L38.41-6.41L38.41 0L5.75 0ZM46.72-6.16L67.47-6.16L67.47-13.88L52.88-13.88L52.88-13.88Q51.59-13.88 50.47-14.36L50.47-14.36L50.47-14.36Q49.34-14.84 48.52-15.67L48.52-15.67L48.52-15.67Q47.69-16.50 47.20-17.63L47.20-17.63L47.20-17.63Q46.72-18.75 46.72-20.03L46.72-20.03L46.72-27.13L46.72-27.13Q46.72-28.41 47.20-29.53L47.20-29.53L47.20-29.53Q47.69-30.66 48.52-31.48L48.52-31.48L48.52-31.48Q49.34-32.31 50.47-32.80L50.47-32.80L50.47-32.80Q51.59-33.28 52.88-33.28L52.88-33.28L72.34-33.28L72.34-27.13L52.88-27.13L52.88-20.03L67.47-20.03L67.47-20.03Q68.75-20.03 69.86-19.55L69.86-19.55L69.86-19.55Q70.97-19.06 71.81-18.23L71.81-18.23L71.81-18.23Q72.66-17.41 73.14-16.28L73.14-16.28L73.14-16.28Q73.63-15.16 73.63-13.88L73.63-13.88L73.63-6.16L73.63-6.16Q73.63-4.88 73.14-3.75L73.14-3.75L73.14-3.75Q72.66-2.63 71.81-1.80L71.81-1.80L71.81-1.80Q70.97-0.97 69.86-0.48L69.86-0.48L69.86-0.48Q68.75 0 67.47 0L67.47 0L46.72 0L46.72-6.16ZM81.28-27.13L81.28-33.28L89.41-33.28L89.41-43.53L95.56-43.53L95.56-33.28L106.50-33.28L106.50-27.13L95.56-27.13L95.56-6.16L106.50-6.16L106.50 0L95.56 0L95.56 0Q94.31 0 93.19-0.48L93.19-0.48L93.19-0.48Q92.06-0.97 91.22-1.80L91.22-1.80L91.22-1.80Q90.38-2.63 89.89-3.75L89.89-3.75L89.89-3.75Q89.41-4.88 89.41-6.16L89.41-6.16L89.41-27.13L81.28-27.13ZM116.75-6.16L116.75-14.53L116.75-14.53Q116.75-15.81 117.23-16.92L117.23-16.92L117.23-16.92Q117.72-18.03 118.55-18.88L118.55-18.88L118.55-18.88Q119.38-19.72 120.50-20.20L120.50-20.20L120.50-20.20Q121.63-20.69 122.88-20.69L122.88-20.69L138.75-20.69L138.75-27.13L118.66-27.13L118.66-33.28L138.75-33.28L138.75-33.28Q140.03-33.28 141.16-32.80L141.16-32.80L141.16-32.80Q142.28-32.31 143.11-31.48L143.11-31.48L143.11-31.48Q143.94-30.66 144.42-29.53L144.42-29.53L144.42-29.53Q144.91-28.41 144.91-27.13L144.91-27.13L144.91 0L138.75 0L138.75-5.63L138.75-5.63Q138.66-4.47 138.13-3.44L138.13-3.44L138.13-3.44Q137.59-2.41 136.77-1.64L136.77-1.64L136.77-1.64Q135.94-0.88 134.88-0.44L134.88-0.44L134.88-0.44Q133.81 0 132.63 0L132.63 0L122.88 0L122.88 0Q121.63 0 120.50-0.48L120.50-0.48L120.50-0.48Q119.38-0.97 118.55-1.80L118.55-1.80L118.55-1.80Q117.72-2.63 117.23-3.75L117.23-3.75L117.23-3.75Q116.75-4.88 116.75-6.16L116.75-6.16ZM122.88-14.53L122.88-6.16L138.75-6.16L138.75-14.53L122.88-14.53ZM153.22-27.13L153.22-33.28L161.34-33.28L161.34-43.53L167.50-43.53L167.50-33.28L178.44-33.28L178.44-27.13L167.50-27.13L167.50-6.16L178.44-6.16L178.44 0L167.50 0L167.50 0Q166.25 0 165.13-0.48L165.13-0.48L165.13-0.48Q164-0.97 163.16-1.80L163.16-1.80L163.16-1.80Q162.31-2.63 161.83-3.75L161.83-3.75L161.83-3.75Q161.34-4.88 161.34-6.16L161.34-6.16L161.34-27.13L153.22-27.13ZM216.84-27.13L216.84-13.50L194.81-13.50L194.81-6.16L216.84-6.16L216.84 0L194.81 0L194.81 0Q193.56 0 192.44-0.48L192.44-0.48L192.44-0.48Q191.31-0.97 190.48-1.80L190.48-1.80L190.48-1.80Q189.66-2.63 189.17-3.75L189.17-3.75L189.17-3.75Q188.69-4.88 188.69-6.16L188.69-6.16L188.69-27.13L188.69-27.13Q188.69-28.41 189.17-29.53L189.17-29.53L189.17-29.53Q189.66-30.66 190.48-31.48L190.48-31.48L190.48-31.48Q191.31-32.31 192.44-32.80L192.44-32.80L192.44-32.80Q193.56-33.28 194.81-33.28L194.81-33.28L210.69-33.28L210.69-33.28Q211.97-33.28 213.09-32.80L213.09-32.80L213.09-32.80Q214.22-32.31 215.05-31.48L215.05-31.48L215.05-31.48Q215.88-30.66 216.36-29.53L216.36-29.53L216.36-29.53Q216.84-28.41 216.84-27.13L216.84-27.13ZM210.69-27.13L194.81-27.13L194.81-19.66L210.69-19.66L210.69-27.13ZM241.16-44.81L247.56-44.81L264.84 0L258.44 0L254.47-10.31L234.25-10.31L230.28 0L223.88 0L241.16-44.81ZM244.38-36.47L236.69-16.72L252-16.72L244.38-36.47ZM271.91-7.44L271.91-27.13L271.91-27.13Q271.91-28.41 272.39-29.53L272.39-29.53L272.39-29.53Q272.88-30.66 273.70-31.48L273.70-31.48L273.70-31.48Q274.53-32.31 275.66-32.80L275.66-32.80L275.66-32.80Q276.78-33.28 278.03-33.28L278.03-33.28L289.06-33.28L289.06-33.28Q290.28-33.28 291.38-32.83L291.38-32.83L291.38-32.83Q292.47-32.38 293.30-31.58L293.30-31.58L293.30-31.58Q294.13-30.78 294.64-29.70L294.64-29.70L294.64-29.70Q295.16-28.63 295.19-27.41L295.19-27.41L295.19-33.28L301.34-33.28L301.34 7.28L301.34 7.28Q301.34 8.56 300.86 9.69L300.86 9.69L300.86 9.69Q300.38 10.81 299.55 11.64L299.55 11.64L299.55 11.64Q298.72 12.47 297.59 12.95L297.59 12.95L297.59 12.95Q296.47 13.44 295.19 13.44L295.19 13.44L275.75 13.44L275.75 7.28L295.19 7.28L295.19-1.28L278.03-1.28L278.03-1.28Q276.78-1.28 275.66-1.77L275.66-1.77L275.66-1.77Q274.53-2.25 273.70-3.08L273.70-3.08L273.70-3.08Q272.88-3.91 272.39-5.03L272.39-5.03L272.39-5.03Q271.91-6.16 271.91-7.44L271.91-7.44ZM278.03-7.44L295.19-7.44L295.19-27.13L278.03-27.13L278.03-7.44ZM339.75-27.13L339.75-13.50L317.72-13.50L317.72-6.16L339.75-6.16L339.75 0L317.72 0L317.72 0Q316.47 0 315.34-0.48L315.34-0.48L315.34-0.48Q314.22-0.97 313.39-1.80L313.39-1.80L313.39-1.80Q312.56-2.63 312.08-3.75L312.08-3.75L312.08-3.75Q311.59-4.88 311.59-6.16L311.59-6.16L311.59-27.13L311.59-27.13Q311.59-28.41 312.08-29.53L312.08-29.53L312.08-29.53Q312.56-30.66 313.39-31.48L313.39-31.48L313.39-31.48Q314.22-32.31 315.34-32.80L315.34-32.80L315.34-32.80Q316.47-33.28 317.72-33.28L317.72-33.28L333.59-33.28L333.59-33.28Q334.88-33.28 336-32.80L336-32.80L336-32.80Q337.13-32.31 337.95-31.48L337.95-31.48L337.95-31.48Q338.78-30.66 339.27-29.53L339.27-29.53L339.27-29.53Q339.75-28.41 339.75-27.13L339.75-27.13ZM333.59-27.13L317.72-27.13L317.72-19.66L333.59-19.66L333.59-27.13ZM379.44-27.13L379.44 0L373.28 0L373.28-27.13L356.13-27.13L356.13 0L350 0L350-33.28L356.13-33.28L356.13-27.41L356.13-27.41Q356.19-28.63 356.69-29.70L356.69-29.70L356.69-29.70Q357.19-30.78 358.02-31.58L358.02-31.58L358.02-31.58Q358.84-32.38 359.94-32.83L359.94-32.83L359.94-32.83Q361.03-33.28 362.28-33.28L362.28-33.28L373.28-33.28L373.28-33.28Q374.56-33.28 375.69-32.80L375.69-32.80L375.69-32.80Q376.81-32.31 377.64-31.48L377.64-31.48L377.64-31.48Q378.47-30.66 378.95-29.53L378.95-29.53L378.95-29.53Q379.44-28.41 379.44-27.13L379.44-27.13ZM411.69-27.13L395.81-27.13L395.81-6.16L411.69-6.16L411.69-11.78L417.84-11.78L417.84-6.16L417.84-6.16Q417.84-4.88 417.36-3.75L417.36-3.75L417.36-3.75Q416.88-2.63 416.05-1.80L416.05-1.80L416.05-1.80Q415.22-0.97 414.09-0.48L414.09-0.48L414.09-0.48Q412.97 0 411.69 0L411.69 0L395.81 0L395.81 0Q394.56 0 393.44-0.48L393.44-0.48L393.44-0.48Q392.31-0.97 391.48-1.80L391.48-1.80L391.48-1.80Q390.66-2.63 390.17-3.75L390.17-3.75L390.17-3.75Q389.69-4.88 389.69-6.16L389.69-6.16L389.69-27.13L389.69-27.13Q389.69-28.41 390.17-29.53L390.17-29.53L390.17-29.53Q390.66-30.66 391.48-31.48L391.48-31.48L391.48-31.48Q392.31-32.31 393.44-32.80L393.44-32.80L393.44-32.80Q394.56-33.28 395.81-33.28L395.81-33.28L411.69-33.28L411.69-33.28Q412.97-33.28 414.09-32.80L414.09-32.80L414.09-32.80Q415.22-32.31 416.05-31.48L416.05-31.48L416.05-31.48Q416.88-30.66 417.36-29.53L417.36-29.53L417.36-29.53Q417.84-28.41 417.84-27.13L417.84-27.13L417.84-21.50L411.69-21.50L411.69-27.13ZM436.47 13.44L430.34 13.44L437.31-3L424.25-33.28L430.72-33.28L440.44-10.38L450.16-33.28L456.63-33.28L436.47 13.44Z" fill="#ccc"></path></g></g><style>text {
  font-size: 64px;
  font-family: Arial Black;
  dominant-baseline: central;
  text-anchor: middle;
}</style></svg>