<?xml version="1.0" encoding="UTF-8"?>
<svg version="1.1" viewBox="0 0 1895 907" width="464" height="300" xmlns="http://www.w3.org/2000/svg">
<path transform="translate(0)" d="m0 0h1895v907h-1895z" fill="#010000"/>
<path transform="translate(1571,367)" d="m0 0 1 2 17 1 12 3 2 3 3-1 3 1v3l5 1v3l3-1 1 3 3 1v2h3l1 4 3 2 2 5-4 2h5l2 3-2 1 2 2-1 2 2 1h-2l1 2 2 2 3 6h-2l2 6h-5v-2l-4-1 2 4-4 2-1 3-3-3 1-2-5 1-1 2-1-3-2-1-1 2-1-1-2 2v-2l-3 1-2 8 5-2v-3l3 1v2l2 1-2 4v4l5-2-3-4 2-3 5 1h3l2 1-1 4-8 3-2 6v2h2v-3h2v-2l3 1-2 1-1 4 3 1-3 1 3 2-1 4-1 3h2l2-7 2 4h-2v3l2 1v3l-2 1-1 6 6 1-2-6 2-4h2l1 6h-2v3l2 1v3l1 5-2 3 4 1-1 5 1 5h-3-3l-1-3 3-2-3-3-5-1 1-4-2-1 1 9 2-1 1 4v3l9 3v3l-1 4h-2v2h-6l-2-2v2l-2 1 1 2-1 3h2l1-2 2 5-3 5-7-2v3l4 1-1 3 3 2v7l1 2h3l-1 3 5 2-2 1v2h-3l1 4v5l4 2v2l-5 1-2-4 1-5h-2l-1 5-6 1v-2l2-1-4-2-1-2-4 9h-3v3l-11-1-1-13 2-1-2-6 1-13v-3-8-3l-1-10 1-7v-1-3-7l2-1 1-3h-2l-1-5 2-1-2-1v-7-4l1-5h2v-2h-2v-2l2-1-3-2-1-6 2-6h-2l1-7v-4l-2-2v-5h-2l-2-8-3-2v-3l-5-2-2-2h-2l-2-3-3 1-7-1-1-3-2 2-11 1-3-1v2l-9 4-5 1-1 5-3 2-4 8h-2l-1 5h-4l3 4-1 6-6-1-1 2 2 2-66 1 53 1 17 2 6 3 1 1v42l-4 3-7 2-10 1h-16l4-2 13-2 3-2 1-9-1-9 1-10v-13l-5-3-4-1h-18l-4 2-3 1v9l1 2-3 12 2 1v3 14h-2l-1 4-13 2-164 1h-424l-89-1-24-1v-1l14-1h41l9-1h59l5-3 7 1 1-2 10 1-2 2 6 1 1-5 2-2h6l2 1 1-3-2-2 1-1h-27l-3-1 1-3v2l2-2h3v-2l3 1 2 2 9 1v-2l-9-1v-1l8-1h-15l-8-1v-1h19l-7-2-4-1-6-1-7-2v-2l-2-1h27l-12-1v-1l9-1 9-2 2-3-6-1h-22l-13-1-3-2h-8l-7-1h-60l-84-1-44-1h-106l-39-1-6-1v3l-6-1h-3v-2h-34l-22 1-7 2-2 3v41l17 3 8 1v1h-28l-12-2-5-3-1-1v-42l6-4 14-2 12-1h20l36 1v-2h-15l1-2h3l-4-5 1-3-1-9 1-7-1-3 1-12-1-3 1-2h2l-3-3 1-13 9-2h-3-5l1-3-1-3h7 2l1-1h5l1 1h7l9-1h6l2 1-1 5h-3l3 2 1 7-2 7 2 1v7 3 6l-1 7v14l1 2-2 2 1 5-1 2h-7-2-8l-1 2 160-1h82l461-1 4-2 6-4 4-4-1-3h4v-2h16l20-1-1-1v-9l11-2h32l2 1 3-1-21-1h-7v-2l-3-3 1-1-1-5 2-7h-2v-10l1-5 5 2v-2l-5-1v-5l1-2h7v3h-2v2l3-1v-4l4-1h14v-2h2v2h10l1 5h-2v3h2l1 7 1 4-2 8v3l2 1h-2l1 6v3 3l64-1h-27l-2-4v-9l1-4-1-3h-2v-2l2-1 1-4 5-2h4v-6l-1 2h-3v2l3-1v2l-6 2-1-5v-2l2-1-2-4h2l1-2h8l11 1v4l-2 1-1 3-4-2 1-3-1-2-5 1 1 2 3 1-1 2h-2l2 3 3-1 1 2 3-2 1-3 2-1 2-3 2-1 1 2 2-1-1-2h11l-1 2 6 1v8l-1 2 4-1-1-4h2v2h2l-1-4 6 2v-2h2v-2h5v-4l4-1 3 2v-3l17-2h14l6 2h1l10 1 2 3 5 3 3 1h2v3h4v-4h-2v-2h3l1-3h9l1 3-5 1-5-1v7l2 3-2 1 1 1 8-3-1 3h-2l-1 2-3 1 4 5v3l2 1-1 3 4-2v-2l3-3 3-5v-2h-3l-1 5h-2v-7l14-3 3-1 1-4 5-1 2-5 3 3 1-3 18-3 6-2zm-289 59m341 8 2 1z" fill="#7C7C78"/>
<path transform="translate(1571,367)" d="m0 0 1 2 17 1 12 3 2 3 3-1 3 1v3l5 1v3l3-1 1 3 3 1v2h3l1 4 3 2 2 5-4 2h5l2 3-2 1 2 2-1 2 2 1h-2l1 2 2 2 3 6h-2l2 6h-5v-2l-4-1 2 4-4 2-1 3-3-3 1-2-5 1-1 2-1-3-2-1-1 2-1-1-2 2v-2l-3 1-2 8 5-2v-3l3 1v2l2 1-2 4v4l5-2-3-4 2-3 5 1h3l2 1-1 4-8 3-2 6v2h2v-3h2v-2l3 1-2 1-1 4 3 1-3 1 3 2-1 4-1 3h2l2-7 2 4h-2v3l2 1v3l-2 1-1 6 6 1-2-6 2-4h2l1 6h-2v3l2 1v3l1 5-2 3 4 1-1 5 1 5h-3-3l-1-3 3-2-3-3-5-1 1-4-2-1 1 9 2-1 1 4v3l9 3v3l-1 4h-2v2h-6l-2-2v2l-2 1 1 2-1 3h2l1-2 2 5-3 5-7-2v3l4 1-1 3 3 2v7l1 2h3l-1 3 5 2-2 1v2h-3l1 4v5l4 2v2l-5 1-2-4 1-5h-2l-1 5-6 1v-2l2-1-4-2-1-2-4 9h-3v3l-11-1-1-13 2-1-2-6 1-13v-3-8-3l-1-10 1-7v-1-3-7l2-1 1-3h-2l-1-5 2-1-2-1v-7-4l1-5h2v-2h-2v-2l2-1-3-2-1-6 2-6h-2l1-7v-4l-2-2v-5h-2l-2-8-3-2v-3l-5-2-2-2h-2l-2-3-3 1-7-1-1-3-2 2-11 1-3-1v2l-9 4-5 1-1 5-3 2-4 8h-2l-1 5h-4l3 4-1 6-6-1-1 2 2 2-66 1v1l-13 1-678-1v-1l461-1 4-2 6-4 4-4-1-3h4v-2h16l20-1-1-1v-9l11-2h32l2 1 3-1-21-1h-7v-2l-3-3 1-1-1-5 2-7h-2v-10l1-5 5 2v-2l-5-1v-5l1-2h7v3h-2v2l3-1v-4l4-1h14v-2h2v2h10l1 5h-2v3h2l1 7 1 4-2 8v3l2 1h-2l1 6v3 3l64-1h-27l-2-4v-9l1-4-1-3h-2v-2l2-1 1-4 5-2h4v-6l-1 2h-3v2l3-1v2l-6 2-1-5v-2l2-1-2-4h2l1-2h8l11 1v4l-2 1-1 3-4-2 1-3-1-2-5 1 1 2 3 1-1 2h-2l2 3 3-1 1 2 3-2 1-3 2-1 2-3 2-1 1 2 2-1-1-2h11l-1 2 6 1v8l-1 2 4-1-1-4h2v2h2l-1-4 6 2v-2h2v-2h5v-4l4-1 3 2v-3l17-2h14l6 2h1l10 1 2 3 5 3 3 1h2v3h4v-4h-2v-2h3l1-3h9l1 3-5 1-5-1v7l2 3-2 1 1 1 8-3-1 3h-2l-1 2-3 1 4 5v3l2 1-1 3 4-2v-2l3-3 3-5v-2h-3l-1 5h-2v-7l14-3 3-1 1-4 5-1 2-5 3 3 1-3 18-3 6-2zm-289 59m341 8 2 1z" fill="#3D3A35"/>
<path transform="translate(509,372)" d="m0 0h5l1 1h7l9-1h6l2 1-1 5h-3l3 2 1 7-2 7 2 1v7 3 6l-1 7v14l1 2-2 2 1 5-1 2h-7-2-8l-1 2 160-1h27l25 1-3 2 150 1 17 1h65l41 1h42l5 1h8l7 1h9l7 3-1 2h-26l1 1h6v2l3-1v2l3 2-1 1h-8l-1 1h13l3 2-3 2-6 1-10-1v2h12l-1 3 22 1-1 4h-6l-3-1-1 1h-10l4 2v2l10 1-4 2h-6l-3 2 3 2-16 1h-3l5 1-1 2-8 1h-26v2l13-1h406l1-45 5 1 2-1 1 45 20-1v-2h2l-1-6 1-5-1-6v-13l1-4v-3l1-5 6-2v-3h-10v-1h39l17 2 6 3 1 1v42l-4 3-7 2-10 1h-16l4-2 13-2 3-2 1-9-1-9 1-10v-13l-5-3-4-1h-18l-4 2-3 1v9l1 2-3 12 2 1v3 14h-2l-1 4-13 2-164 1h-424l-89-1-24-1v-1l14-1h41l9-1h59l5-3 7 1 1-2 10 1-2 2 6 1 1-5 2-2h6l2 1 1-3-2-2 1-1h-27l-3-1 1-3v2l2-2h3v-2l3 1 2 2 9 1v-2l-9-1v-1l8-1h-15l-8-1v-1h19l-7-2-4-1-6-1-7-2v-2l-2-1h27l-12-1v-1l9-1 9-2 2-3-6-1h-22l-13-1-3-2h-8l-7-1h-60l-84-1-44-1h-106l-39-1-6-1v3l-6-1h-3v-2h-34l-22 1-7 2-2 3v41l17 3 8 1v1h-28l-12-2-5-3-1-1v-42l6-4 14-2 12-1h20l36 1v-2h-15l1-2h3l-4-5 1-3-1-9 1-7-1-3 1-12-1-3 1-2h2l-3-3 1-13 9-2h-3-5l1-3-1-3h7 2z" fill="#3A3631"/>
<path transform="translate(287,301)" d="m0 0 1 4h3l1-3h10l-1 3h2v-2l2 1 3 2v-2h-2v-2l9-1 4 1v2h2v-2h9v2h-4v3l5-3 1-2h5l1 1 2-2 15 2 5-1 4 3h2l-1-3 7-1 2 1h31l4 1 5-1h10v3l5 2v-2l-3-1v-2h21l1 1 9-1 12-1 2 2v9l2 4h-2v10l1 7 4-1-1 6-1-2h-4v2l-6-1-4 1h-9v2h-3v-3h-10l-5 1h-15l-4-1-2 1-6-1v3l-4-1-2 2-1-3h-8v12 3h-2v2l6 2v2h-4v-2h-2v5l2 7h-3l3 1 1 3-1 9v4 42l-2 7h2v21 4l-1 6 1 3v16 2l1 4h-2l1 18v7l2 1-3 1 2 8-1 5 1 4h-2l1 24v4h-20-3l-5 1-6-3 2-5h5l1-4 6 1 1-3-2-3-5-2-1 4-1 2-7-1-1-3 5-1-5-5h2v-2h2l-1-3h2l3 5 1-3h-1v-5l-2-1 3-1-5-2 1-3-2-6h2v2h2l1 2h2l1-1 2-1-2-1-2 2-6-5-1-4 1-1 2-1-1-4h-2l-2 4-2-4-3-1v-2h2l1-2 2 2v-5l-3-1v-4l-4-1 1-8 2-1 2-2 6 1-1-2-3-1v-7h-2v-3h5l-1-3-4 2-2-5v-9l2-3-4-8 2-2v-8l1-2-1-5 4-2v-3l-5 1-1-2 1-1-2-1 1-5 2 1 1-5-1-4-3-1 2-4v-2h2v3h2l2-5h-2v-2l4 2 3 2v-2h3-4l-1-3h-7l-1 4h-2l1-6-2-1 1-2 4 1v-2h-2l-2-5 1-2-2-1 2-1 2 1-1-2h-2l-1-11 1-3 3 1v2h2l-1-4h-2l-1-8-1-1v-8-3l-1-4 1-3h-7l-7 1-10-2-1 2-2-1-10 1-5-1h-1l-9 1-2-1h-23l-1-5-1-4 1-1-2-2v-6-4l-1-8h2v-5l6 2 2-1 5-1z" fill="#3A3732"/>
<path transform="translate(977,369)" d="m0 0h16l11 2 6 2 4 2h3l5 2v3l2-1-1 5h2v-2h2v3l-2 1h2l5-1-1 3h4l1 2v9l1-1 1-4 2 6 4 1 3 10 4 12-1 3h2v13l-1 4h-41v-14h-2l-1-9h-2l-3-3v-3l-4-2-5-5h-3l-1-2-16-2-2 2v-2l-9 1-7 2-6 3h-4l-2 4-3 2-3 5-2 1-2 5h-2v6l-3 2v4l-1 5h-13-2-25l-1-3 1-4-1-9v-3h2l-1-11 2-4-2-1v-9h2v2l5-2v-2l-3 2-4-2v-3l-2-1-1 3-1-5h2l2-7-1-3 2-3-2-1v-2h2v-2l9-1h22v-2h2l1 2 4 2v7l-1 2 2 1-1 11h-4l5 1v2h2l2-4 6-7h2l2-4 5-3h2l1-3 3 1v-2l6-1v-2h2v2l2-1v-2l10-2z" fill="#6F6F6A"/>
<path transform="translate(1168,502)" d="m0 0h16v4l1-1 1-3h22l4 9 2 6 8 8 6 4 10 3h17l10-3 11-6 3-4h3v-3h5l1-2 1-1-4-1h3l-1-5 2-5h41l1 1v7l2 5-3 3 3 3-1 6h-3l3 1v4 7l-1 5 1 5h-2l2 4-1 7v3l-4-2-4 2-4-1h-3v-3l-1 4-4-1-6-2-2 3h-2v-2l-6 2-3-1v-4l-1-11 2-2-1-1v-11l-1-1v6l-3 1-2 5h-2l-2 4-4 1-1 3h-2l-1 3h-2l-3 4-3-1-1 2h-2v-2h-3l1 4h-4v-3h-2v3h-3v3l-3-1-1 2h-7l-5-3-1 3-9 1-7-2 6-2h-3l-2-4-9-2h-7l5 1v2l5-2 4 2-2 2-9 1-4-1-1-2h-2v-2l-4-1 3-1-1-2h-4l-5-1v-4l-3 1v-2h-2l-1-4h-2v-5l3-1-5-1-1 2-1-3h-2l-2-7-1-5h-2l-1-11-1-1z" fill="#373430"/>
<path transform="translate(605,315)" d="m0 0 5 1-1 5-4 1-1 2 7-1 3-3 3 1-1 1 6 1h7l1 5-1 7 1 9v28h33l3 2-1 3v8 3l1 5h-2l1 8-2 4-7-2-6 2h-20l-1 1 1 11-1 3 1 4v19h-18l-3-2v2h-20v-16l1-4-1-1v-9-4-4l-21-1h-6l-1-13v-4h2l-2-5v-7-3l4 1 6-1 2 1h4v5h-3l1 2 6 1v-2l-3-1v-4-1h7l2 1v-2h2v-6-2l-1-3 1-7h-2l-1 2-1-4 3 1v-4l2-1-2-4 1-5 2 1v3h2l-2-4-3-2 2-11 1-3h9l3-3h4z" fill="#403D38"/>
<path transform="translate(1440,403)" d="m0 0h14l10 3 6 2 1 2 3 1 1 2 11 1 1-3 2 3 5 1 1-2v2l3 1 1 10-1 2h-10l3-1v-10l-43-1-2 5 1 5h17v-9h16l1 9 5 1v1l-7 1-1 1 2 1h11l1-1h6l3 3-5 2-6 1 7 2 11 3-2 2-54 1v1l-13 1-678-1v-1l461-1 4-2 6-4 4-4-1-3h4v-2h16l20-1-1-1v-9l11-2h32l1 1 1 10h2v-8l5-1v10l26-1v-7l1-2h19v9h25l-1-7v-2h16l1 9h10l1-9 2 1 1 10h3l1-12h-8l-1-3 2-4 10-3z" fill="#38342F"/>
<path transform="translate(688,502)" d="m0 0h7v3h2l-1-3h32l1 6-4-1v2l3 1-1 2 2 1 1 4 4 7 1 3 5 1v2h4l1 2 18 2h6l12-3h6l1-3h3v2l2-1 1-4h2l2-4h2l1-4 2-2 2-4h4l-1-2 2-6 2-1h8v2l1-2h8v2h2l2 2 2-1v-2l-4-1h19l1 8v16l-1 3 1 2-3 4h2l1 9v11 4l-1 4-4-1-3 1-1-4 2-3 1-2-4-1-1 1 2 1-2 5-4 2-3 1-6-4h-2l-1-3-5 1-1 1 4 2v3l-5-1-2-1v2l-4-1v-2h3l-1-2-3-3 2-4-2-3 1-9v-4l1-1-4 1-1 3-2 1v3h-2v2h-5l1 4-6 5-3 1v2l-8 4h-5-3v-2l-3 3h-2l-1 4h-3-2v-6l-2 3h-2l-1 2v-2l-7 2v-2h2v-2l-5 3-2 3-2-4v-3h-5l-1 2v-3l-2 2-1 2h-2v-4l1-1-1-3v-1l-3 7h2v2l-5-1-3-1v-2l-6 1-2-2h2l-1-4v2l-6-1-2-1v-2l-2-1v-2l-1-3-5 1-2-4-3-5v-2h-2l-3-6v-7h-2v-2h3v-2l-4 1z" fill="#34312C"/>
<path transform="translate(775,363)" d="m0 0h3l1 4-3 2 3 1 1-2 3 1v2h2v-2l8-1 1 2 5 1v2l10 1 6 3v2h5l4 2v2l5 2 7 7v2l4 2 5 9 1 4 2 4v6l2 3v12l1 9h-40l-1-5 1-3-1-4v-2l-2-9-2-5h-2l-2-4h-2v-2l-4-2-9-3-10-2v-5l-6-1v3l3-1 2 4h-9l-4-1v2l-9 2-3 1-3 3h-3l-1 3-3 1-1 3h-2l-3 10-2 3h-10l-7 1-13-1-7 1 1-8 1-4 4-13 3-5h2l2-5 4-4h3v-2l3-3 2-1 5-6 5-1 2 1 1-3 4-1 6-1 1-2 13-2 4 1v-2h9l1 1z" fill="#72716D"/>
<path transform="translate(937,738)" d="m0 0h46l8 4 5 4 5 9 1 4v9l-4 10-4 5-8 5-3 1h-46l-8-4-5-4-5-9-1-4v-9l4-10 4-5 8-5z" fill="#7D7D79"/>
<path transform="translate(919,370)" d="m0 0h2l1 2 4 2v7l-1 2 2 1-1 11h-4l5 1 2 6 4-1 5 1-4-1-2-3 3-1 1-2h3v-3h3l1 3h-2l2 3 7 2-1-6-2-1 3-1 1 3 4 2h6v3 2h2v-2h3l-3-3h3l-1-3 10-1 2 3-4 1v2l4 1 1-7h3l-3-1 1-2h9l1 5-1 2h-5l-1 1 8 1-1-3h4l-1 4h2l1 5 2 1h-2l-1 2-4-1-1-2-16-2-2 2v-2l-9 1-7 2-6 3h-4l-2 4-3 2-3 5-2 1-2 5h-2v6l-3 2v4l-1 5h-13-2-25l-1-3 1-4-1-9v-3h2l-1-11 2-4-2-1v-9h2v2l5-2v-2l-3 2-4-2v-3l-2-1-1 3-1-5h2l2-7-1-3 2-3-2-1v-2h2v-2l9-1h22z" fill="#43403C"/>
<path transform="translate(605,315)" d="m0 0 5 1-1 5-4 1-1 2 7-1 3-3 3 1-1 1 6 1h7l1 5-1 7 1 9v28h33l3 2-1 3v8 3l1 5h-2l1 8-2 4-4-5-3-1v-2l3-1-2-5-3 3-4-2-2 2 1 3h3v2h-7l-3-3-3 3-2-2 1-2-2-1 2-3 8-1v-6h-1l-1 3h-2l-1 2-3-1 1-2-5 1v-5l-6-1-2-1v-2l-3 1-2-1-3-9-3 3-1 2-2-1 2-5h-4l-2-3-2 1v-3l-2 2-5 6h-2l2 4-1 6h-2v6l-2-1-1-5h2l-2-2-3 6-5 3 1 4h-3l-2-3 1-2-5 1v-3l-2-1 1 7-1 2-3-1v-2l-7-1 2 3v3l-3-1-1-5h-2v-2h2l-2-5v-7-3l4 1 6-1 2 1h4v5h-3l1 2 6 1v-2l-3-1v-4-1h7l2 1v-2h2v-6-2l-1-3 1-7h-2l-1 2-1-4 3 1v-4l2-1-2-4 1-5 2 1v3h2l-2-4-3-2 2-11 1-3h9l3-3h4z" fill="#706F6B"/>
<path transform="translate(590,502)" d="m0 0h20l1 3 2-3h2 14l1 5-1 6 3 1-2 2 4 12v2l4 1v2l18 2 9-1v29h-3l-2-1-2 4h-3v-2l-4 2-6-2v2l-6 1v-2l-5 1v-2h-2l-1-3h3l1-2-6-1-2 4-6-1v2l-4-1 2-3-3 2h-4v-4l-1 3-3-1v-2h-2l-2-3-3-1 1-4-3 1-1-4-3-1 4-2 1-1v-5h6l-1-3-3 1-4-1-2 1v3l-3 1v-8l-1-1h-2l-1-14v-4-5-3z" fill="#34302C"/>
<path transform="translate(1170,372)" d="m0 0 5 1v2l5-3h18l4 1 4-1 2 2-3 1v2h2v10h-2l2 1-1 2 1 1v8l-2 1 2 1v5h2l-2 37h-40v-16l1-2-2-18 1-11v-10l2-1v-2l-2-1v-7z" fill="#423F3B"/>
<path transform="translate(1096,372)" d="m0 0 1 2 7-1 14-1-1 4h2v-3l3-1 7 2v5 2l1 5v7l-2 2 2 4-1 9 1 15v4 10l1 2h-2v4h-39l-2-6 1-10v-29l3-2-2-3h3v-2h-3v-18z" fill="#45423D"/>
<path transform="translate(1289,502)" d="m0 0h41l1 1v7l2 5-3 3 3 3-1 6h-3l3 1v4 7l-1 5 1 5h-2l2 4-1 7v3l-4-2-4 2-4-1h-3v-3l-1 4-4-1-6-2-2 3h-2v-2l-6 2-3-1v-4l-1-11 2-2-1-1v-11l-3-1-1 3-1-3-2-1 1 7-1-2-3 1-3-2v-2h4l-1-6 2-1 2 1-2-5v-2l-4-1h2v-3h5l1-2 1-1-4-1h3l-1-5z" fill="#312D29"/>
<path transform="translate(1319,370)" d="m0 0h2v2h10l1 5h-2v3h2l1 7 1 4-2 8v3l2 1h-2l1 6v3 3h90l8 1v10l-1 2h-3l-2-10-1 8-1 1h-10l-1-1v-9h-16l1 7v2l-3 1h-22l-1-2v-7l-18-1-1 8 3 1-3 1h-26v-10l-4 2v7h-4v-9l4-2-21-1h-7v-2l-3-3 1-1-1-5 2-7h-2v-10l1-5 5 2v-2l-5-1v-5l1-2h7v3h-2v2l3-1v-4l4-1h14z" fill="#46433E"/>
<path transform="translate(1011,502)" d="m0 0h8l4 3v-2l-2-1h25 3 3v8l-1 5-1 1 1 3v3l1 3v18l-2 5 1 4v5l1 2-1 4-2-1h-2l-5 1 1-4-1-3h-3l1 3-3 3-18 2-2-1h-6v-8-3l1-5-1-5v-19-3l1-9-1-2z" fill="#34312D"/>
<path transform="translate(888,502)" d="m0 0h18v2l-4 4 6 1v-5l2-2h15l2 2v13l-1 4 1 9v33h-2l-1-1-3 1h-3-9-1-6l1-3-2 1v2l-4-2-1-2-1 3-7 1-2 1 1-6-1-8 1-2-1-9 2-2-2-2 1-5v-10l-1-5 1-10z" fill="#37332F"/>
<path transform="translate(1090,502)" d="m0 0h5l1 1 3-1 3 1 2-1h10l1 3v-3h3l1 6 2-3 1-1h-3v-2h10l1 7h-3l2 1 1 11-2 1 1 3h-2v2h2v31 3h-2v2l-9-2-2-2-1 3-3 1-1-2 1-1h-2l-1 3-10 1-9-2-1-14v-18l1-8-1-1v-18z" fill="#34312D"/>
<path transform="translate(1369,502)" d="m0 0h7l2 1 2-1v2h2v-2h7l2 2-2 1-2-1v2h2l1 3 1-4 2-3h2l-1 4h2v-4h6 4l3 1-1 4-1 1 3 3-2 5-2 1-1-3v2l3 4 2 9-2 1 2 4h-2l-1 3h2l1 6h-3l2 1-1 4-2 5h3v2l-4-1-1 2v-2l-6 1-2-6-1 5-3 2 1 2-2 5-4-1-5 1v-2l2-1v-2l-3 3h-3v2h-2v-2l-4 2-4-1 1-7v-26-2l-1-4 2-3 2 1-1-2-3-1 2-6 3-1h-4l1-5z" fill="#322F2B"/>
<path transform="translate(1495,501)" d="m0 0 7 1v2l1 1v-3l6-1 4 2 5-2 3 1-1 2h-3v2h5l1 4v3h-4v2l4-1v4h-2l2 6-1 1 1 2h-3l3 6h-3l-1-1v3h4l-1 6h-3v-2h-3-2v3h3l-1 3-4 2-1 2-2 1 7-1v-3l3 1v3l2 1v-3l2 1-1 5h-2v3l-4 1-1-3-2 3 6 3v2l-7-1-2-2-2 1-3-3 2-5-1-5h-1l-3 4-3 1v2l3-1 2 4v3l2 1-6 1-5-1-9 1 1-3h-3l-1-7v-4-19-3-5-2l1-6 1-2-2-1h2l1-5h-2v-4z" fill="#34312D"/>
<path transform="translate(1466,445)" d="m0 0h39l17 2 6 3 1 1v42l-4 3-7 2-10 1h-16l4-2 13-2 3-2 1-9-1-9 1-10v-13l-5-3-4-1h-18l-4 2-3 1v9l1 2-3 12 2 1v3 14h-2l-1 4-13 2-164 1v-2l139-1 1-45 5 1 2-1 1 45 20-1v-2h2l-1-6 1-5-1-6v-13l1-4v-3l1-5 6-2v-3h-10z" fill="#38342F"/>
<path transform="translate(522,502)" d="m0 0h2 1l6 1-1 2h3v-3h5v6 3 10l1 3-1 1v3 32l-3-1v2h3v2h-12l-1-4 3-3 1-3-3-1 1 4-5 1 1-6-2 2-3 1v-4l2-2v-3h2v-2l-4 2-1 5-2 3-2-1-1-4-2 1-5-1-3 3 1 3h-3v4h-2v-5h2v-2h-3l2-9v-2l-2-1 1-3v-3-16-2-6l3-4h6l2 3v2l5 1 4-3 4 1 2 2-2-4z" fill="#322F2A"/>
<path transform="translate(764,383)" d="m0 0 1 2 4-1 3 5 1-3 3 2v5l4-1 1 5 4 1 1 4h2l1-3 2-2-2-1-1 2v-3l2-1-2-2 2-1 1-2 5 2-2 4h7v5l1-1 3-2 2 1-1 6h2v-2l3-1 2 2-2 3h2l3-4v-3l2-1 2 2v-4h2l3 4-2 2-2 1 1 4 5-1v2h2l1-4v3l4 2h-2l-1 2-2 2-2-1v2h4v2h-2l1 3-3 3 3 3 1-4 3 2 1-4-3-2-1-5h3l1 5h2l-1-4 2-1 4 1v-2l5 1 1 1v6l2 3v12l1 9h-40l-1-5 1-3-1-4v-2l-2-9-2-5h-2l-2-4h-2v-2l-4-2-9-3-10-2v-5l-6-1v3l3-1 2 4h-9l-2-4h3v-5l-3-2v-2h3l-3-3v2h-3l-1 2-1-3 4-1z" fill="#4E4B47"/>
<path transform="translate(1e3 391)" d="m0 0h2l2 8v-5l4-1-1 7 3 1 5-1v3h1l1-2h2l1-2v2l5-3h2v3l3 2-1 2-3-1-3-3v2l-4 1 3 2-1 4h2l1-2 2 2 4 2v4l2 1-1-4h3v2h2l-1-3 5-1 3 1 3 11-1 3h2v13l-1 4h-41v-14h-2l-1-9h-2l-3-3v-3l-4-2-3-3 4-3-2-6h-2l-1-7 7 1h3 2z" fill="#44413D"/>
<path transform="translate(1109,298)" d="m0 0h7l2 4 3-1 2 1v3l4 1 3 4v4h4l1 3h-3l1 8h-2l-1 8-3 1-1 4-6 4-3 1h-7l-5 1-8-3-6-6v-3l-2 1v-2l-2-1-1-9 1-8 4-7 5-3 3-3z" fill="#70706C"/>
<path transform="translate(513,299)" d="m0 0 8 1h4 5 3l-1 2 3 3v2l4-1v3l2 2v15l-1 4h3v2l-5-2-4-1-4 2v2h2v-2l4 1 1 3h-2l1 3-5 3h-5l-3 3h-10l-2-1-1 2h-2v-4h-2v-2h-2l-1-2-3 1-2-7h-2l-2-2-2-1 1-3 2 1v-7l2-3-1-2 1-2 4 1v-5l1-4 7-4z" fill="#72726E"/>
<path transform="translate(1440,403)" d="m0 0h14l10 3 6 2 1 2 3 1 1 2 11 1 1-3 2 3 5 1 1-2v2l3 1 1 10-1 2h-10l3-1v-10l-43-1-2 5 1 5h17v-9h16l1 9 5 1v1l-7 1-1 1 2 1h11l1-1h6l3 3-5 2-6 1 7 2 11 3v1h-48v-2l8-2v-5l-6-1v-3l-32-1 1-12h-8l-1-3 2-4 10-3z" fill="#010000"/>
<path transform="translate(919,370)" d="m0 0h2l1 2 4 2v7l-1 2 2 1-1 11h-4l4 1-1 7-4 3-4 1-1-4-3-1 1 3h-4v-4l-2-1-1 2-2-3h2v-2h-2l-3 3v-3h-2l3 6h-2v2h4v-2l3 1-1 3h-8l-2-4 1-3h-2l-2 6-3 2-1 7v1h2v3l5-3-2 7-3 4-5-1 1-6-1-1v-6l2-4-2-1v-9h2v2l5-2v-2l-3 2-4-2v-3l-2-1-1 3-1-5h2l2-7-1-3 2-3-2-1v-2h2v-2l9-1h22z" fill="#73736F"/>
<path transform="translate(444,445)" d="m0 0h31v1l-21 2-7 2-2 3v41l17 3 8 1v1h-28l-12-2-5-3-1-1v-42l6-4z" fill="#7D7D79"/>
<path transform="translate(464,301)" d="m0 0h5l2 2v11l-3-2-6 1 1-3 2-3-6 1-2-1-1 3h-3-7l-4-2h-3l-1 2 2 1v1l5-1 5 1 4 8-5-2-2 2v-4l-2-1v3l-5-1v2h2v2l-2 1 4 1 1-2 1 2-1 3-4-1-3 3-4-1-3 3-6 2 1-5 2-3v-4l-5-1 4-2-6-2v-2h4l-1-2 2-1-5-2-1 4h-2v2l-2-1-2-2-5 1-1 4-3-1-1-2-2 4 4 2v2l-4 2v-4l-7 1-1-2 4-2v-6l-5-1 3-1v-2l-6 2 6 3-3 1-2 4-2-1v-2h2v-2l-4-1-1 2 1 3-6-1-4-6 2-4-3-2h29l4 1 5-1h10v3l5 2v-2l-3-1v-2h21l1 1 9-1z" fill="#6E6D69"/>
<path transform="translate(598,346)" d="m0 0 5 5 2-2v3 2l2-1 1-4h3l1-3h4l1 4-4-1v2l-2 1h8l2 2-5 1 1 5 3-3 3 2-1 7-11-1-2-2-3 3v-3l-2 2-5 6h-2l2 4-1 6h-2v6l-2-1-1-5h2l-2-2-3 6-5 3 1 4h-3l-2-3 1-2-5 1v-3l-2-1 1 7-1 2-3-1v-2l-7-1 2 3v3l-3-1-1-5h-2v-2h2l-2-5v-7-3l4 1 6-1 2 1h4v5h-3l1 2 6 1v-2l-3-1v-4-1h7l2 1v-2h2v-6-2l-1-3 1-7h-2l-1 2-1-4 3 1 1-4v3l5-1 1-4z" fill="#55534E"/>
<path transform="translate(737,396)" d="m0 0 3 1-2 5 2 1 2-5 1-2 3 1v2h2v-2l5 1v3l4-2 4 2-1 3-6 1-3 1-3 3h-3l-1 3-3 1-1 3h-2l-3 10-2 3h-10l-7 1-13-1-7 1v-5l4-2 3 2 1-4 2-1-1-5 2-1v-2l5-2 3 1 1-7 2-2 2-5 6 2-1 3-3-1h-1v2h2v2h3l1 2 9 1h2v-2l-7 1-4-2v-4l9 2z" fill="#44413D"/>
<path transform="translate(622,361)" d="m0 0 4 1h3l1 10h33l3 2-1 3v8 3l1 5h-2l1 8-2 4-4-5-3-1v-2l3-1-2-5-3 3-4-2-2 2 1 3h3v2h-7l-3-3-3 3-2-2 1-2-2-1 2-3 8-1v-6h-1l-1 3h-2l-1 2-3-1 1-2-5 1v-5l-6-1-2-1v-2l-3 1-2-1-3-9-3 3-1 2-2-1 2-5h-4l-1-5 6 1 7 2z" fill="#73726E"/>
<path transform="translate(1170,372)" d="m0 0 5 1v2l5-3h18l4 1 4-1 2 2-3 1v2h2v10h-2l2 1-1 2 1 1v8l-2 1 2 1v3l-4 2-1 2-4-5h-2l-1-3h3l2 1 1-10 1-2-7 3-1-3-10 4v-2h-2l1 4-1 2h-2v-3l-3 1v4l-2-1 1-2h-2l-1 5-2 1 1 2h-5v-18l2-1v-2l-2-1v-7z" fill="#6F6E6A"/>
<path transform="translate(1096,372)" d="m0 0 1 2 7-1 14-1-1 4h2v-3l3-1 7 2v5 2l-1 8-1 2-2-1-1 1-6-3-2 3h-3l1 3-5 1-2-4v-3l-1 3h-2v-3h-2l-1 2 2 1v2l3 1v5l1-3h2v2h5v2h3l-1 3-5-1-11 2-2 2h-3l-1 3-5-1v-10l3-2-2-3h3v-2h-3v-18z" fill="#72726E"/>
<path transform="translate(1481,445)" d="m0 0h24l17 2 6 3 1 1v42l-4 3-7 2-10 1h-16l4-2 13-2 3-2 1-9-1-9 1-10v-13l-5-3-15-2-12-1z" fill="#7D7D79"/>
<path transform="translate(1619,525)" d="m0 0 4 1-1 3 3 2v7l1 2h3l-1 3 5 2-2 1v2h-3l1 4v5l4 2v2l-5 1-2-4 1-5h-2l-1 5-6 1v-2l2-1-4-2-1-2-4 9h-3v3l-11-1-1-13 2-1-2-6v-7l3-1v2l5-1v-2l-3-1h2l1-3 2 3 4-1-1-3 7-1 3-1z" fill="#312E2A"/>
<path transform="translate(500,505)" d="m0 0h7l2 3v2l4 1-1 3 5 1h2l5-1 1 2 3 1h-2l-1 2-1-2h-4l3 7-4-1 1 3-3 1 3 1 1 5-2 2v-2h-6v2l4-1 1 3 3-1 1-1 2-1 1 4-3 3-2-1-2 6-1 4-2 3-2-1-1-4-2 1-5-1-3 3 1 3h-3v4h-2v-5h2v-2h-3l2-9v-2l-2-1 1-3v-3-16-2-6z" fill="#1C1A17"/>
<path transform="translate(688,502)" d="m0 0h7v3h2l-1-3h27v3l2 1-2 1v2h-2v3l-4 1 2 8 2 1v4l-7 2-1-6-4 4 1 3-5-2-2 5-1 5h-2l-2 3-2-5h-2l-3-6v-7h-2v-2h3v-2l-4 1z" fill="#312E2A"/>
<path transform="translate(440,306)" d="m0 0 3 1 4 2h6 3l1-2h8l-3 6 7-2 2 2 2 3h-2v10l1 7 4-1-1 6-1-2h-4v2l-6-1-4 1h-9v2h-3v-3l-4-1-2-2-4-2 4-1 1-1-4-1 1-5 5 2v-4l-5 1v-3l2 1v-2h-2v-2l5 1v-3l3 1v2l2-2 2 2-1-4h-5l1-2-5 1-1 1-3-1v-2l-2-2z" fill="#4A4743"/>
<path transform="translate(842,411)" d="m0 0 5 1 1 1v6l2 3v12l1 9h-40l-1-5 1-3-1-4 4-2 4 1v3l5-2 2 3 3 1 1-4-2-6h3l1-4 3 2 1-4-3-2-1-5h3l1 5h2l-1-4 2-1 4 1z" fill="#46433E"/>
<path transform="translate(1371,428)" d="m0 0h51l4 2-4 4-6 2h-15l-3-1-13 1-3 2h-11l-5-3-11-1-8 2h-15l-7-3v-3l-6 1v1h-6l-4-3z" fill="#7D7D79"/>
<path transform="translate(608,362)" d="m0 0 2 4v2l4-1 1 2h-2v8h-3l1 3v3h-4l-4 2v2l3 1-2 2-9 1h-3v2l-5 2-2 3h-3l-3-1v2l-3-1 1-2h-2l-1 4-4 4h-8l-1-13v-2h2l2 5 2 1-2-6 3-1 6 2-1 2 2 1v-5l-1-2 1-2 3 1-1 3 5-1 1 4h2l-1-4 4-1 1-2 2-3 3-3 1 3h-2l2 5 1-5h2v-6l-1-4 4-4 1-3 4-1 1 2z" fill="#423F3A"/>
<path transform="translate(897,519)" d="m0 0 7 2-1 2-3 2-1 4h2l2 3 3-1-1 4-3 2v3l2 2-4 1-1-3h-2l1 3-4 1h9v2 1l3 1h-2v2l5-1 2 3 2 4h-2l-1 2-2-1v2l-5 2h-2v2l-4-2-1-2-1 3-7 1-2 1 1-6-1-8 1-2-1-9 2-2-2-2 1-11 4 1v2h2l1-3 4 1z" fill="#2F2C28"/>
<path transform="translate(1628,422)" d="m0 0 5 2 4 4-1 7h-2v2l4-2-1 4 1 1v2h-5l2 1v2h3v2l-2 1 2 3v4h-2v6l-10 2 1-4-1-2-2 6h-2l1-7-3-2 3-1-2-1 2-5-2-1v2h-2v3h-2l-1-3 3-6 8-3-1-3-4 1-4-3v4l1 3-5 2-1 3-1-2 2-5-2-1 3-3-2-3-1 1-1 2-5 1v-6l3-4 3 1 5-1 2 2 5-1 2 4v-3h2l1-2 2 1v-2l-3-1z" fill="#040303"/>
<path transform="translate(1440,403)" d="m0 0h14l10 3 6 2 1 2 3 1 1 2 11 1 1-3 2 3 5 1 1-2v2l3 1 1 10-1 2h-10l3-1v-10l-31-1h-37l-1-3 2-4 10-3z" fill="#010000"/>
<path transform="translate(1319,370)" d="m0 0h2v2h10l1 5h-2l1 5-4 2v2l-5-1-2 4-1-2-4 2-1-4v2h-3l-1 2h-5v3l1 4-4-1-1-2-4-2v-2l-5 1v-9l5 2v-2l-5-1v-5l1-2h7v3h-2v2l3-1v-4l4-1h14z" fill="#757571"/>
<path transform="translate(1396,512)" d="m0 0 4 3 5 1 3 4 2 9-2 1 2 4h-2l-1 3-2 1v3h-2l2 5-3 7-1-3-2-1h2l-1-2-5 1-4 2h-2l-6 3h-2l-3-6 1-5 1 2 4 1v2l6-6-1 4 4-2 1-2h-2v-3l-2-1 4-4-5-1 1-5 3-5h-2l1-3v2h2v3h5v-3l-5-1-1-3h-3l-1 3-2-1 2-4h3l1-2 3 2z" fill="#3A3732"/>
<path transform="translate(1285,415)" d="m0 0h32l1 1 1 12-34 1-10-2-1-1v-9z" fill="#030202"/>
<path transform="translate(523,312)" d="m0 0 3 1 1 7-2 1-3 1 3 3h4v2l-5 1 3 1v2h-2l4 5v4l-3 1-3 3h-10l-2-1-1 2h-2v-4h-2v-2h-2l-1-2-3 1-2-7h-2l-2-2-2-1 1-3 2 1v-3l5 2v7l3 1v-2l-2-1h2v-3h-2l1-7 4-1 1 4-3 1-1 2 3-1 1 2v1l4 2v-2h-2v-3l4-1 2 2v-2l-4-2 2-2v2l6-1-1-4 1-4 3 1z" fill="#45423D"/>
<path transform="translate(1331,380)" d="m0 0 2 2v6l1 3-2 9-5-1 3-1-3-1v-3h-2l-1 2-2 1-4-4-4 1-4 3v3l-2 1 1 4 2 3-8 1-1-2-4-1-1 5 4-1-1 3-6 1v-2l-3-3 1-1-1-5 2-7h-2v-10l1 4 5-1v2l6 2v2l1-1v-4l1-2h5l4-1v-2l2 1 1 1h4l1-2 5 1-1-3 5-1z" fill="#46433E"/>
<path transform="translate(376,302)" d="m0 0h29l4 1 5-1h10v3l5 2 1-2v2l3 1-3 2 4 2-3 5-9-1-1-3h4l-1-2 2-1-5-2-1 4h-2v2l-2-1-2-2-5 1-1 4-3-1-1-2-2 4 4 2v2l-4 2v-4l-7 1-1-2 4-2v-6l-5-1 3-1v-2l-6 2 6 3-3 1-2 4-2-1v-2h2v-2l-4-1-1 2 1 3-6-1-4-6 2-4z" fill="#74736F"/>
<path transform="translate(419,443)" d="m0 0h31v1l-26 2-7 3-1 17v26l5 5 6 1-5-4-1-4v-38l1-3 7-3h5l-4 2-5 3v42l5 3 12 2h20v-1h11l10 1v1l-5 1-56 1-7-2-3-4v-46l4-5z" fill="#43403B"/>
<path transform="translate(1192,389)" d="m0 0h2l2 4h3l-1 4h-2l-2 3h-3l-1 3-2-4-1 2-10 1 6 3v4l2 1v-2h4v2l-5 3v2l-3 1-2 5v2l-6 1-2 5 4 2-1 4h-5v-2h-2v-6l1-2-2-18 1-3 4-1-1-2 3-3 1-2h2l1 2-1-4h4v3h2l-1-6 4-1v2z" fill="#3F3C37"/>
<path transform="translate(339,301)" d="m0 0 16 2 5-1 4 3h2l-1-3h2l1 4 2 1v4l-3-1-6 2-2 2v-2h-6l-1-1-2 4-4 1 2 1 1 4-4 1h-2v-9h-3l-4 1-6 3v-2l-4-4 2-2 2 2 1-1-9-3-1 6h3l-2 4h-3l-1-4-2-1 2-5-2-1-2-2v-2h5v2h2v-2h9v2h-4v3l5-3 1-2h5l1 1z" fill="#73736F"/>
<path transform="translate(1322,417)" d="m0 0h4v10l26-1v-7l1-2h19v9h25l-1-7v-2h16l1 9 13 1v1l-19 1-87-1 1-2v-8z" fill="#030202"/>
<path transform="translate(978,390)" d="m0 0h10l1 5-1 2h-5l-1 1 8 1-1-3h4l-1 4h2l1 5 2 1h-2l-1 2-4-1-1-2-16-2-2 2v-2l-9 1-7 2-4 2h-3v-7h-5l-1 2h-2l2 4h-3l-1-6-5-1-1-2 3-1 1-2h3v-3h3l1 3h-2l2 3 7 2-1-6-2-1 3-1 1 3 4 2h6v3 2h2v-2h3l-3-3h3l-1-3 10-1 2 3-4 1v2l4 1 1-7h3l-3-1z" fill="#3F3C37"/>
<path transform="translate(522,502)" d="m0 0h2 1l6 1-1 2h3v-3h5v6 3 10l1 3-1 1-1 4h-2v-2h-4l-1-2h-3-1l-3 8v5l-5-1-1-2-2 1-2-1v-2h7v-5l-4-1 2-3 1-1h3l-2-3v-3l4-1-4-1-2 2-4-2-3-1 5-5 2-1 4 1 2 2-2-4z" fill="#35322D"/>
<path transform="translate(1374,415)" d="m0 0h49l8 1v10l-1 2h-3l-2-10-1 8-1 1h-10l-1-1v-9h-16l1 7v2l-3 1h-16l-2-1v-8l-3-2z" fill="#7D7D79"/>
<path transform="translate(355,515)" d="m0 0 3 1 6 6 2-2 3 2-3 1v2l2 1h-3v-2l-4 1 1-3h-2v-2h-2l2 3v3l4 1h-5v2h5v2l-2 1 2 5 2 2h-2l-1 3-3-4-1 1h-2l1 6 4 1-6 2v2l7 1 2-6 6 1 1 4 2 1h-3v2h-6l-1 3-4 1-8-3h-1l-2 1v-6l1-1-2-1v-2h2l-1-6 2-2h1v-4l-1-4h2l-1-6-2-7h3v2h2z" fill="#37332E"/>
<path transform="translate(1304,533)" d="m0 0h2v2h8l1 5 1-3 3 1 1 7-1 4h4l-2 1v2l-2 1 7 4-1 4-4 1-3-4-4-1v-2l-3-1-1 3h-2v-4h-4v3h-3l-1-6h5v-2l-8 1-1 5-3-2h2v-6l4-1v-7l3-3h2z" fill="#2D2A26"/>
<path transform="translate(711,522)" d="m0 0h2l1 6 4-1h3l5 1v3l2 1-1 2-4 4v3l-5 2 3-6-4 2-2 4 3 3v3l2 1-5 1-2-3 1-3-2 2-2 3-3-6-3 2-4-1-1-4v-5h2l1-4 3-6 1 2 4 1v-2l-2-1z" fill="#282522"/>
<path transform="translate(812,535)" d="m0 0h2l1 4h4l1 2 3-1 3 1 5-2 3 3-2 1v2l4-1-1 2h-2l-1 4 3 1-1 3h-3l-1 2h-10l-2 2 4 2v3l-5-1-2-1v2l-4-1v-2h3l-1-2-3-3 2-4-2-3 1-9v-3z" fill="#282521"/>
<path transform="translate(1457,369)" d="m0 0h14l6 2h1l7 2-5 5-1-3-2 1v2l-8 1v2l4-1-1 3-12 3-3-3-3-1v-4h-4l-5 2 1 3h-2l-1-2h-2v-2h2l1-2 1-1-1-4 3-2z" fill="#45423D"/>
<path transform="translate(509,372)" d="m0 0h5l1 1h7l9-1h6l2 1-1 5h-3l3 2 1 7-2 4-2 2-3 2-1-3 1-5h2l-1-5-1 1 1 3h-7l2-5h-2v3l-4 1-2 2-4-1 1-5h3l-3-1-1-2-1 4-3-1-2 1v-2l-3-1h-3-5l1-3-1-3h7 2z" fill="#6E6D69"/>
<path transform="translate(561,372)" d="m0 0 4 1 6-1 2 1h4v5h-3l1 2 6 1v-2l-3-1 1-3 1 3 6 1v2l3 1 2-5h2l-2 7-6 4 1 4h-3l-2-3 1-2-5 1v-3l-2-1 1 7-1 2-3-1v-2l-7-1 2 3v3l-3-1-1-5h-2v-2h2l-2-5v-7z" fill="#71706C"/>
<path transform="translate(1095,461)" d="m0 0h64v1l-62 1-6 4-1 2v7l5 3 2 1h65l4-4 1-6-3-6 4 1 2 3v8l-3 5-3 2-19 1h-42l-11-3-5-5-2-9 5-5z" fill="#292522"/>
<path transform="translate(1448,415)" d="m0 0 41 1 2 1v10h-10l-1-1v-9l-15 1v8l-1 1h-17l-2-6v-3l-5-1v-1z" fill="#7D7D79"/>
<path transform="translate(1372,372)" d="m0 0h9l11 1v4l-2 1-1 3-4-2 1-3-1-2-5 1 1 2 3 1-1 2h-2l2 3 3-1 1 2 3-2 1-3 2-1 2-3 2-1 1 2 2-1-1-2h8v4l2 1-7 1-1 2v-2l-4 2 1 4-9 1 2 3-2 1v-2h-3l-1 3-2-1-1-3 1 6-3 1v-4h-2l-1-3-2-1v4l-4 1-2 1v-5l5-2h4v-6l-1 2h-3v2l3-1v2l-6 2-1-5v-2l2-1-2-4h2z" fill="#7A7A75"/>
<path transform="translate(1197,312)" d="m0 0h8l2 4 1 9 2 1-5 1h-3l-2 6h-4l-3 5h-2v-3l-2-1v-3l-3-3v-2l-2-1h5l-1-4-3-1v-2l5 1 1-3 4-1z" fill="#040302"/>
<path transform="translate(857,170)" d="m0 0h12l4 2 2 4-1 7-4 4-8 1v9h-5z" fill="#7D7D79"/>
<path transform="translate(500,505)" d="m0 0h7l2 3v2l4 1-1 3 5 1h2l5-1 1 2 3 1h-2l-1 2-1-2h-4l3 7-4-1 1 3h-5v2l-3-1 2-1-8-3-5-2-1 5h-2v-9-2-6z" fill="#302D29"/>
<path transform="translate(1334,415)" d="m0 0h40l3 3-1 8 2 1h-6l-1-2v-7l-18-1-1 8 3 1-3 1h-20l1-5v-5z" fill="#38342F"/>
<path transform="translate(1022,170)" d="m0 0h12l5 5v7l-4 5-9 1v9h-4z" fill="#7D7D79"/>
<path transform="translate(1062,178)" d="m0 0h7l5 4 1 8-3 5-4 2-9-1-3-4-1-5 3-7z" fill="#7D7D79"/>
<path transform="translate(906,178)" d="m0 0h7l5 5v9l-4 4-2 1h-7l-5-4-1-2 1-9 3-3z" fill="#7D7D79"/>
<path transform="translate(1521,443)" d="m0 0h16l6 4 1 2v46l-2 3h-2v2l-6 1-5-1 4-3 6-3v-44l-8-4-10-2z" fill="#494642"/>
<path transform="translate(1586,21)" d="m0 0h6l5 4 1 2v10l5 4v3l-4-1-3-4h-10l-4-2-2-4v-6l4-5z" fill="#040202"/>
<path transform="translate(737,396)" d="m0 0 3 1-2 5 2 1 2-5 1-2 3 1v2h2v-2l5 1v3l4-2 4 2-1 3-6 1-3 1-3 3h-3l-1 3-3 1-1 3h-2v2l-3-1 4-2-1-3-1 2-3-1v-3h-6v-3l5 1h5v-2l-7 1-4-2v-4l9 2z" fill="#3F3B36"/>
<path transform="translate(1127,422)" d="m0 0 4 2-1 9 1 6h-2v4h-14v-3-2h-2l1-4h-2v-2l4-4h2l2-4 5 1v-2z" fill="#4A4743"/>
<path transform="translate(1285,415)" d="m0 0h32l1 2-1 10h-9l-2-5v-4h-22v8l-2 1h-7l-1-1v-9z" fill="#38342F"/>
<path transform="translate(764,383)" d="m0 0 1 2 4-1 3 5 1-3 3 2v5l4-1 1 5 4 1 1 4h2l1-3h6l1-2 3 2v7l-2 2-10-4-10-2v-5l-6-1v3l3-1 2 4h-9l-2-4h3v-5l-3-2v-2h3l-3-3v2h-3l-1 2-1-3 4-1z" fill="#6E6E69"/>
<path transform="translate(272,20)" d="m0 0 1 4-1 1 5 2-1 9h2l-2 5-4 2h-8l-4-7v-7l3-3h6l1-5z" fill="#7D7D79"/>
<path transform="translate(449,448)" d="m0 0h5l-4 5v41l12 2v1h-8l-9-3-1-2v-39z" fill="#38342F"/>
<path transform="translate(1389,531)" d="m0 0h6l4 2v-2h2v2l4 1 1 2-6-2-2 4-3-2 3 3h7v2h-2l2 5-3 7-1-3-2-1h2l-1-2-5 1-4 2h-2l-6 3h-2l-3-6 1-5 1 2 4 1v2l6-6-1 4 4-2 1-2h-2v-3l-2-1 4-4-5-1z" fill="#1A1816"/>
<path transform="translate(429,446)" d="m0 0h5l-4 2-5 3v42l5 3 12 2h20v-1h11l10 1v1l-5 1-47 1-2-4-5-1-2-2-1-4v-38l1-3z" fill="#37332E"/>
<path transform="translate(830,414)" d="m0 0 1 2h-2l1 3-3 3 1 3-1 2 2 1 1 4h-2v3l-4-1-2-2-4 1v-3l-4 1v-2h-4v-6l1-2h2v-2l2 1h4v-3l1-2 1 3 3-1 1-2z" fill="#383430"/>
<path transform="translate(1498,447)" d="m0 0 10 1 6 4v18l-1 10 1 7-2 7-3 2-5 1h-8v-1l9-2 2-1 2-5v-6l-1-7v-16l1-8-11-3z" fill="#38342F"/>
<path transform="translate(1331,380)" d="m0 0 2 2v6l1 3-2 9-5-1 3-1-3-1v-3h-2l-1 2-2 1-4-4-4 1-4 3h-3v-6l4-4h3v-2l2 1 1 1h4l1-2 5 1-1-3 5-1z" fill="#4B4844"/>
<path transform="translate(842,411)" d="m0 0 4 1v7 3l-4 1 1 3-2 4h-4-2l1 4-6-1-3-6v-2h3l1-4 3 2 1-4-3-2-1-5h3l1 5h2l-1-4 2-1 4 1z" fill="#3F3B36"/>
<path transform="translate(1186,372)" d="m0 0h12l4 1 4-1 2 2-3 1v2h2v10l-5-2-4-2-6 2-3-1v2l-2-1 1-4-2-2 1-3 3-1-5-1z" fill="#72716D"/>
<path transform="translate(339,301)" d="m0 0 2 2 1 4h-2v2l-1 1 2 1-3 3h-2l-6 3v-2l-4-4 2-2 2 2 1-1-9-3-1 6h3l-2 4h-3l-1-4-2-1 2-5-2-1-2-2v-2h5v2h2v-2h9v2h-4v3l5-3 1-2h5l1 1z" fill="#767571"/>
<path transform="translate(950,178)" d="m0 0h6l4 4 1 7h-13l1 3 7 1h3v3l-2 1h-8l-5-4-1-6 3-7z" fill="#7D7D79"/>
<path transform="translate(912,547)" d="m0 0h4l1 3 8 3 2 5v5h-2l-1-1-3 1h-3-9-1-6l4-4h2v-2l4-2-3-3v-4z" fill="#312E2A"/>
<path transform="translate(879,168)" d="m0 0h4l1 12 3-2h5l3 3v16h-4l-1-14-4-1-2 2-1 13h-4z" fill="#7D7D79"/>
<path transform="translate(1268,463)" d="m0 0 4 3 1 3v7l-5 6-3 1-17 1h-35l-15-2v-1l67-1 4-3 1-7-3-6z" fill="#2E2B27"/>
<path transform="translate(355,515)" d="m0 0 3 1 6 6 2-2 3 2-3 1v2l2 1h-3v-2l-4 1 1-3h-2v-2h-2l2 3v3l4 1h-5v2h5v2l-2 1 2 5 2 2h-2l-1 3-3-4-1 1-3-1-1-3-4-4v-2h2l-1-6-2-7h3v2h2z" fill="#0D0C0B"/>
<path transform="translate(991,170)" d="m0 0h13v4h-9l-1 6h6l5 4v8l-3 4-3 1h-8l-1-5 6 1 4-2v-5l-1-1-8-1z" fill="#7D7D79"/>
<path transform="translate(939,392)" d="m0 0h3l1 3h-2l2 3 7 2-1-6-2-1 3-1 1 3 4 2h6v3 2h2v-2l4 2-1 2-5 1-9 2-4 1v-7h-5l-1 2h-2l2 4h-3l-1-6-5-1-1-2 3-1 1-2h3z" fill="#413E39"/>
<path transform="translate(657,389)" d="m0 0 2 4 1 4h-4v2l4 1 2 4-6-1-6 2-13-1-2-5 4-1h2l1-3 3 3 7 1v-2h-3v-2l-2-1 3-3 4 2h2z" fill="#484541"/>
<path transform="translate(1457,369)" d="m0 0h10l-1 6 2-1-1 5-4-1-2-1 1-4h2v-2h-5v8l-2 4-3-1v-4h-4l-5 2 1 3h-2l-1-2h-2v-2h2l1-2 1-1-1-4 3-2z" fill="#70706B"/>
<path transform="translate(1646,19)" d="m0 0h6l3 4 5 3v16l-2 2h-18l-2-2v-16l5-3zm-6 7v16h18v-16z" fill="#72726F"/>
<path transform="translate(923,178)" d="m0 0h4l1 2 3-2h5l3 3 1 4v12h-5l-1-14-6-1-1 15h-4z" fill="#7D7D79"/>
<path transform="translate(1512,510)" d="m0 0 1 2h3l1 2h6v4h-2l2 6-1 1 1 2-7 3-3-2-2 1 1-4-2-3-4 1 2-1v-2l-4-1h8l-3-1 2-7zm4 0 2 1-2 1z" fill="#25221E"/>
<path transform="translate(1430,415)" d="m0 0h18l-2 6 1 6h-15l-1-1z" fill="#38342F"/>
<path transform="translate(1517,446)" d="m0 0 9 1 6 3 1 28-1 15-3 3-5 2h-6l10-5v-42l-6-3-5-1z" fill="#38342F"/>
<path transform="translate(1028,401)" d="m0 0 4 2 4 1 8-3 2 10-2 2h-3v2h-2l-2-2v4l-3-1v-4l-5-3-3 1v-4l-3-2 5-1z" fill="#3C3833"/>
<path transform="translate(1319,370)" d="m0 0h2v2h10l1 5h-2l1 5-4 2v2l-6-2h-3l1-5-4-1-1-3h2v-2l3-1z" fill="#676662"/>
<path transform="translate(567,388)" d="m0 0 7 2v3l1 4-2 5-5 2h-6l-1-13v-2h2l2 5 2 1-2-6z" fill="#47443F"/>
<path transform="translate(1608,426)" d="m0 0 4 1 5-1 2 2 5-1 1 5 3 2h-2l-1 3-3-1-4-2v4l1 3-5 2-1 3-1-2 2-5-2-1 3-3-2-3-1 1-1 2-5 1v-6z" fill="#201D1A"/>
<path transform="translate(421,308)" d="m0 0 6 2-2 2 1 2-5-1 1 7-3 1v-2l-6 5-1-3 2-1-1-3-2 4-2-3-6 2-2-5 2-3 3 1v2h2l1-3h2l1-2 4 1 2 3v-2h2z" fill="#52504B"/>
<path transform="translate(1129,384)" d="m0 0 1 2v7l-2 2 2 4-8 3-1-3-6-1-3-1 1-6 3-1 2-3 4 1 1 2h3l1-1v-4z" fill="#585651"/>
<path transform="translate(835,511)" d="m0 0h2l1 2 2-1v3l3 1-1 2h-2v2h2l-1 3-4-3v3h-6l-1 2-1-2 1-2h-2l-1 2-3-4v-2h-3l1-5 2 1-1 3h4l-1-4h2l1 2 6-1z" fill="#292522"/>
<path transform="translate(1631,465)" d="m0 0h2l1 6h-2v3l2 1v3l1 5-2 3 4 1-1 5 1 5h-3-3l-1-3 3-2-3-3-5-1 2-10 1-3h3l-2-6z" fill="#302C28"/>
<path transform="translate(358,427)" d="m0 0 5 1-1 2h3v3l-4-1v4l5 1-3 6-3-1v2l-3-1-3 3-1-3h-2v-8l1-5h6z" fill="#211E1B"/>
<path transform="translate(503,539)" d="m0 0h2v2l6 2 1-2 4 2 2 3-1 4-2 3-2-1-1-4-2 1-5-1-3 3 1 3h-3v4h-2v-5h2v-2h-3l2-9z" fill="#070605"/>
<path transform="translate(790,389)" d="m0 0 6 2-2 4h7v5l1-1 3-2 2 1-1 6h2v-2l3-1 2 2-1 2-7 3-3 3h-2v-2h-2v-10h-3l-5 1 1-3-2-1-1 2v-3l2-1-2-2 2-1z" fill="#423F3A"/>
<path transform="translate(431,313)" d="m0 0 5 1-2 7h2v-2l3 1 1 2 4 1 1-2 1 2-1 3-4-1-3 3-4-1-3 3-6 2 1-5 2-3v-4l-5-1v-1l8-1z" fill="#3B3833"/>
<path transform="translate(1464,417)" d="m0 0h16l1 10h-17z" fill="#34302B"/>
<path transform="translate(1203,549)" d="m0 0h2v2l3-1v2h5l1 2 3 2-4 1h-9l5 1v2l5-2 4 2-2 2-9 1-4-1-1-2h-2v-2l-4-1 3-1-1-4z" fill="#2B2824"/>
<path transform="translate(1082,825)" d="m0 0h7l3 6-1 8-4 4h-6l-1-3h6l2-4h-6l-3-4 2-6z" fill="#7D7D79"/>
<path transform="translate(646,554)" d="m0 0 6 3v3l4-1v-4l4-1 1 3h4v6h-3l-2-1-2 4h-3v-2l-4 2-3-1-4-2 1-4-1-2h2z" fill="#43403C"/>
<path transform="translate(1396,417)" d="m0 0h16l1 10h-19l3-1-1-7z" fill="#332F2A"/>
<path transform="translate(1197,312)" d="m0 0h8l2 4 1 9 2 1-5 1h-3l-2 6h-2l1-4h-2v-2l6-1 2-9h-4v1l1 4-7-2v-2h-3v5l-4 1v-3l-3-1v-2l5 1 1-3 4-1z" fill="#46433E"/>
<path transform="translate(1026,830)" d="m0 0h7l3 4-1 7-2 2h-7l-3-2-1-5 2-5z" fill="#7D7D79"/>
<path transform="translate(1096,825)" d="m0 0h6l3 4v8l-3 5-1 1h-7v-3h7l1-4h-7l-2-3v-5z" fill="#7D7D79"/>
<path transform="translate(1069,825)" d="m0 0h6l3 4v8l-3 5-1 1h-7v-3h7l1-4h-7l-2-3v-5z" fill="#7D7D79"/>
<path transform="translate(922,825)" d="m0 0h6l3 3v10l-4 5h-7v-3h6l2-4h-6l-3-3v-5z" fill="#7D7D79"/>
<path transform="translate(909,825)" d="m0 0h6l3 4v8l-3 5-1 1h-7v-3h7l1-4h-7l-2-3v-5z" fill="#7D7D79"/>
<path transform="translate(366,481)" d="m0 0 3 2-1 3-3 2-1 3h-3l-1 2v-2h-3v-2l-2 1 2 4h-3-6l1-8 2-1 2-2 7 2 1-3z" fill="#282522"/>
<path transform="translate(967,830)" d="m0 0h7l3 3v7l-3 3h-7l-3-3v-6z" fill="#7D7D79"/>
<path transform="translate(839,830)" d="m0 0h7l3 3v7l-3 3h-7l-3-3v-6z" fill="#7D7D79"/>
<path transform="translate(1486,411)" d="m0 0 3 3 5 1 1-2v2l3 1 1 10-1 2h-10l3-1v-10l-31-1v-1l19-1 2-1 5 1z" fill="#070505"/>
<path transform="translate(1057,823)" d="m0 0h3v2h3v3h-2l-1 6 4 2v5l-4 2v3h-3v-3l-4-1v-2h3l1-6-3-1-1-5z" fill="#797975"/>
<path transform="translate(1099,429)" d="m0 0h2v5l2 1h-2l1 3-2 5h-10l-2-6 2-5 4-1 5-1z" fill="#37332E"/>
<path transform="translate(1515,382)" d="m0 0 3 1 1 3h-2l1 5-1 3h2l1-5h3l1 3-3 4-2 3h-2l1 3-5 1-2-9-3-1-1-3 7-3 2-3-2-1z" fill="#070606"/>
<path transform="translate(943,830)" d="m0 0h17l2 2v11h-3l-1-10-3 1-1 9h-3l-1-10h-2l-2 10h-3z" fill="#7D7D79"/>
<path transform="translate(851,830)" d="m0 0h17l2 2v11h-3l-1-10-3 1-1 9h-3l-1-10h-2l-2 10h-3z" fill="#7D7D79"/>
<path transform="translate(608,537)" d="m0 0h2l-1 4 3-1 1 2-2 1h4v2l3 1-1 4h-2l-1 3-2-1 4 5v2l-4-2-3-1-2-3v-3l-4-2-1-2 4-2-1-3h3z" fill="#2E2A26"/>
<path transform="translate(598,346)" d="m0 0 5 5 2-2v3 2l2-1 1-4h3l1-3h4l1 4-4-1v2l-2 1h8l2 2-5 1-1 4-2-1 1-2h-3v2l-8 1-1-4 1-2h-3v2h-2v-3l-4-1 1-4z" fill="#3C3833"/>
<path transform="translate(510,524)" d="m0 0h4l-1 3 2 1 1-2 4 2 1 5-2 2v-2h-6v2l4-1 1 3 3-1 1-1 2-1 1 4-3 3-2-1-2 2-6-3-1-5-2-1 1-2h-2v-4h2z" fill="#040303"/>
<path transform="translate(1619,541)" d="m0 0 4 1v2h2l1 2h2l1 6v5l4 2v2l-5 1-2-4 1-5h-2v2l-4-1v-2l-4 1-1-4 1-1-2-1 4-4z" fill="#0F0D0C"/>
<path transform="translate(1621,498)" d="m0 0 12 1 5 3-2 6h-2v2h-6v-1h-7v-2h2l-1-6v-1l-2-1z" fill="#181614"/>
<path transform="translate(1622,448)" d="m0 0h2v3l5-1v2l6-2v5l1 4v2l-10 2 1-4-1-2-2 6h-2l1-7-3-2 3-1-2-1z" fill="#2B2824"/>
<path transform="translate(1095,461)" d="m0 0h64v1l-62 1-6 4-1 2v7l4 5-5-2-3-7-1-5 5-5z" fill="#35312C"/>
<path transform="translate(884,823)" d="m0 0h2v2l4 1v2l-4-1 1 6 4 4-1 5-4 1v3h-2v-3l-4-1v-2l4 1-2-7-2-2v-5l4-2z" fill="#787774"/>
<path transform="translate(1517,501)" d="m0 0 4 1-1 2h-3v2h5l1 4v3h-4v2l-3-1v-2l-4-1-3 7 4 1-4 1-5-1 2-4-2-5h3l8-2-1-5zm-1 9 1 2 1-2z" fill="#37332E"/>
<path transform="translate(843,412)" d="m0 0 5 1v6l2 3v10l-4 1h-8l-2 1-1-4 5-2 1-1 1-4 3-2-1-2h2v-6z" fill="#484540"/>
<path transform="translate(1586,21)" d="m0 0h6l5 4 1 2v10l5 4v3l-4-1-3-4h-10l-4-2-2-4v-6l4-5zm0 2-4 4v6l4 4h6l4-4v-6l-4-4z" fill="#7D7D79"/>
<path transform="translate(1192,389)" d="m0 0h2l2 4h3l-1 4h-2l-2 3h-3l-1 3-2-4-1 2-6-2 4-1v-2h-2l-2-5 4-1v2z" fill="#4F4C48"/>
<path transform="translate(575,384)" d="m0 0 3 1-1 3 5-1 1 4 4 2v-2l5-3 3 1-1 2h-2v2l-5 2-2 3h-3l-3-1v2l-3-1 1-2h-2l-1-3 1-5-1-2z" fill="#44413C"/>
<path transform="translate(1407,373)" d="m0 0 3 1-1 1 6 1v8l-1 2h2l1 3h-2l-1 4-1-2 1-2h-3l1 6-2 3v-5l-3-7-4 1 4-5-1-4z" fill="#2C2925"/>
<path transform="translate(1319,416)" d="m0 0h16l-2 1 1 9-2 1h-6v-10l-4 2v7h-4v-9z" fill="#7D7D79"/>
<path transform="translate(1312,415)" d="m0 0h5l1 2-1 10h-9l-2-5v-4l-3-2z" fill="#7D7D79"/>
<path transform="translate(981,170)" d="m0 0h2v27h-4v-21l-5 2v-4z" fill="#7D7D79"/>
<path transform="translate(1493,550)" d="m0 0 2 4h7l2 4v3l2 1-6 1-5-1-9 1 2-4v-2h-2v-2l5 1 1-5z" fill="#44413C"/>
<path transform="translate(1251,416)" d="m0 0h15l-1 7-1 4h-6l-1-10-3 1-1 8-4 1v-10z" fill="#7D7D79"/>
<path transform="translate(1629,440)" d="m0 0 2 1-1 2 3-1 2 1v2h3v2l-2 1 2 3v4l-3 1-1-3 1-3-4 3-3-1 1-2-5 1 1-3 1-2h-2l1-4z" fill="#2F2B27"/>
<path transform="translate(622,361)" d="m0 0 4 1h3v7h-2v2h-2l-2-2-2 4-3-2v-2l-3 3-1 2-2-1 2-5h-4l-1-5 6 1 7 2z" fill="#6E6E69"/>
<path transform="translate(829,539)" d="m0 0 4 1 1 3h-2v2l4-1-1 2h-2l-1 4 3 1-1 3h-3l-1 2h-4v-2h-8l-2-6 4-1 4 5 3 1 1-3 2 1-1-6h-3l-1-3z" fill="#070605"/>
<path transform="translate(1326,546)" d="m0 0 4 2 2 5-1 7v3l-4-2-4 2-2-1 4-1-1-4-6-4 1-2 2 1v-2l4-2z" fill="#262320"/>
<path transform="translate(1619,525)" d="m0 0 4 1-1 3 3 2v7l1 2h3l-1 3 5 2-2 1v2h-3v-2h-2l-1 2v-4h-2l-1-2-3-2 2-4-2-3h2l-1-2-4-1z" fill="#3A3732"/>
<path transform="translate(835,407)" d="m0 0 7 4v2h-5v4h-2l-1-5-2 5 4 2-2 7-3-4-1 3-3-1-1-3 3-3v-2l1-1-3-1v-2l2-1 3-2z" fill="#72726D"/>
<path transform="translate(1e3 824)" d="m0 0h3l1 6h6l2 3v10h-3l-1-11-3 1-2 10h-3z" fill="#7D7D79"/>
<path transform="translate(1334,415)" d="m0 0h7l3 2-1 7 1 3h-12l1-5v-5z" fill="#35322D"/>
<path transform="translate(341,302)" d="m0 0h5l4 3-2 5v2h-3l1 4 2 1 1 4-4 1h-2v-9l-8-4h5l1-3-1-3z" fill="#3D3A35"/>
<path transform="translate(1064,181)" d="m0 0 6 2 1 6-2 4-5 1-4-3v-7z" fill="#070605"/>
<path transform="translate(908,181)" d="m0 0 5 2 1 1v7l-4 3-6-2-1-6 2-4z" fill="#070605"/>
<path transform="translate(1408,537)" d="m0 0 2 3v3h-3l2 1-1 4-2 5h3v2l-4-1-1 2v-2l-6 1-2-7 5-2v4l3-5-1-4h2v-2z" fill="#393530"/>
<path transform="translate(1618,434)" d="m0 0 5 1h3l2 1-1 4-8 3-2 6-1 5-1-2h-2v-3h-2v-3h3v-3l5-2-3-4zm5 0 2 1z" fill="#322F2A"/>
<path transform="translate(1174,415)" d="m0 0 2 1 3 5v2l-6 1-2 5 4 2-1 4h-5v-2h-2v-6l1-5 1-4h3z" fill="#74736F"/>
<path transform="translate(1389,531)" d="m0 0h6l4 2v-2h2v2l4 1 1 2-6-2-2 4-3-2 3 3h7v2h-2l2 5-3 7-1-3-2-1h2l1-5-1-3-7 1-2-1v-3l-2-1 4-4-5-1z" fill="#030101"/>
<path transform="translate(1345,463)" d="m0 0 5 1 3 6-1 7-5 5-3 1h-21l-5-1v-1l26-1 5-4v-8z" fill="#38342F"/>
<path transform="translate(505,528)" d="m0 0 2 1-1 6 5-1 1 5 6 2v4l-6-4-1 3-4-1-4-2h2v-2l-3 1 1-3 2-1-3-3-2-1 1-3 3 1z" fill="#070605"/>
<path transform="translate(1043,178)" d="m0 0h4l1 2 2-2h4v4l-6 1-1 14h-4z" fill="#7D7D79"/>
<path transform="translate(358,536)" d="m0 0h2l3 5 1-2 7 1v2l-3 1-1 2h-2l-1 4-1 2-7-1-1-3 5-1-5-5h2v-2h2z" fill="#3E3B36"/>
<path transform="translate(1388,372)" d="m0 0h6 4 5l-3 2v3l-5-1-2 3h-2l-1 4-5 2 1-3h-2l-1 2-2-4 2-2h-3v-3l5-1 3 2-2 3 3 1 1-2-2-1 3-2 1-2z" fill="#37332E"/>
<path transform="translate(1230,318)" d="m0 0 2 1 1 2 4-1v-2h2v2l5 1v9l-6 1-1-8h-2l-1 2-3-2 1 5-3-1-2-5 3-1z" fill="#423F3B"/>
<path transform="translate(979,830)" d="m0 0h10l2 3v10h-3l-1-11-3 1-1 10h-4z" fill="#7D7D79"/>
<path transform="translate(1033,388)" d="m0 0h2l1 2v9l1-1 1-4 2 6 3 1-1 2-8 2v-2l-3-2-2-4 3-1-1-7z" fill="#7A7A76"/>
<path transform="translate(423,302)" d="m0 0 2 2-1 1 5 2 1-2v2l3 1-3 2 4 2-3 5-9-1-1-3h4l-1-2 2-1-6-3-1-4z" fill="#787874"/>
<path transform="translate(387,429)" d="m0 0 2 2h-2l1 3 3 1v8l-2 4-8-1 1-4v-3-4l4 1-1-3z" fill="#5A5853"/>
<path transform="translate(888,513)" d="m0 0 4 2 1 2 4 1 1 7h-4l-1 2h-2v-2l-4-1-1-9z" fill="#433F3B"/>
<path transform="translate(509,372)" d="m0 0h5l1 3v4 3l-3-1-2 1v-2l-3-1h-3-5l1-3-1-3h7 2z" fill="#72726E"/>
<path transform="translate(365,545)" d="m0 0 6 1 1 4 2 1h-3v2h-6l-1 3-4 1v-4l-5 1-1-5 9 2z" fill="#0A0908"/>
<path transform="translate(376,302)" d="m0 0h9l3 3-1 7h-2l2 1v2l-6-1-4-6 2-4z" fill="#6F6F6A"/>
<path transform="translate(1407,522)" d="m0 0 2 2 1 5-2 1 2 4h-2l-1 3-5 3h-5l-2-4h4l1-2 5 1-4-3h2l1-5 2-2z" fill="#38342F"/>
<path transform="translate(523,312)" d="m0 0 3 1 1 7-2 1-3 1 3 3h4v2l-8 1v-2l-3-2-2 2-1-2-4-2 2-2v2l6-1-1-4 1-4 3 1z" fill="#37332E"/>
<path transform="translate(735,551)" d="m0 0h7v2h5v2h-2v3h2l-1 2-7-1-1 2v-3l-2 2-1 2h-2v-4l1-1-1-3z" fill="#282421"/>
<path transform="translate(411,302)" d="m0 0h7l3 3-1 7h-2v2l-2-1-2-2-3-1-1-7z" fill="#696763"/>
<path transform="translate(510,512)" d="m0 0 8 4 3-2h4v2l3 1h-2l-1 2-1-2h-4l3 7-4-1 1 3h-4l-3-7 1-2-4-2z" fill="#1B1916"/>
<path transform="translate(431,497)" d="m0 0 11 1h20v-1h11l10 1v1l-5 1-47 1-1-2z" fill="#38342F"/>
<path transform="translate(1113,333)" d="m0 0 3 2v3h3v2l2 1-4 2h-7l-5 1-2-2 2-1 1-3 5 1v-4h2z" fill="#55534E"/>
<path transform="translate(1046,411)" d="m0 0 2 1 3 11-1 3-9-1-1-8 2-1 2-2 2-1z" fill="#54514D"/>
<path transform="translate(795,397)" d="m0 0 4 2v7l-2 2-10-4-5-1 3-4 1 3h2l1-3h6z" fill="#514E4A"/>
<path transform="translate(361,317)" d="m0 0 8 2 1-2 3 1-3 1 2 5-4 3h-2v2l-4 1v-2h2l-3-4z" fill="#575550"/>
<path transform="translate(620,296)" d="m0 0 1 4-2 4v2l5 1v3l-1 2-3-1-1 2-5-2v-6-2l2-4 2 1z" fill="#4B4843"/>
<path transform="translate(811,552)" d="m0 0 2 2 4-1h2l7 1v2h-6l-2 2 4 2v3l-5-1-2-1v2l-4-1v-2h3l-1-2-3-3z" fill="#3F3B36"/>
<path transform="translate(816,825)" d="m0 0h10v2h-7v6h7v2h-7v8h-3z" fill="#7D7D79"/>
<path transform="translate(764,383)" d="m0 0 1 2 4-1 3 5 1-3 3 2v5l4-1v3h-7v-3l-5 1-3-2v-2h3l-3-3v2h-3l-1 2-1-3 4-1z" fill="#38342F"/>
<path transform="translate(1125,406)" d="m0 0h3l1 5-2 7h-4l-5 3-3-3h2l1-2 4-2-2-5 7 1v-2l-3 1z" fill="#767672"/>
<path transform="translate(939,392)" d="m0 0h3l1 3h-2l2 3 7 2-1 4-1-3h-5l-1 2h-2l2 4h-3l-1-6-5-1-1-2 3-1 1-2h3z" fill="#38342F"/>
<path transform="translate(390,306)" d="m0 0h6v2l3 3v5l-6 4-9-2 1-2h6l3-5-5-2z" fill="#44413C"/>
<path transform="translate(995,826)" d="m0 0h3v4h3v2h-3v9h3v2h-5l-2-3v-8h-2v-2h2z" fill="#7D7D79"/>
<path transform="translate(1135,299)" d="m0 0 4 5v1h2l1 2 3 1v-3h-2l1-3h2l2 5-1 5h-2v2h-2l-1-4-2-1v-2l-5 1h-5l-2-3 6 1z" fill="#55524E"/>
<path transform="translate(1026,174)" d="m0 0h7l2 3-1 5-2 2h-6z" fill="#0C0A09"/>
<path transform="translate(503,539)" d="m0 0h2v2l4 2v2l-5-1 1 4-3 3 1 3h-3v4h-2v-5h2v-2h-3l2-9z" fill="#34312C"/>
<path transform="translate(1633,427)" d="m0 0 4 1-1 7h-2v2l4-2-1 4 1 1v2h-5v-3l-4-1v-7h3z" fill="#34302C"/>
<path transform="translate(1104,423)" d="m0 0 1 2-2 3v4l4 2-3 3-2 4-3-2 2-2v-8l-1 2h-5l-3 2v-3l5-5z" fill="#74736F"/>
<path transform="translate(1320,548)" d="m0 0 3 1-2 1v2l-2 1 7 4-1 4-4 1-3-4-4-1v-2h-2v-2l4-1z" fill="#050404"/>
<path transform="translate(989,392)" d="m0 0 5 1 1 7h2l3 7-5 1-1-8-3 1 2-5-3 1v2h-8l-1-4 6 1 2-1z" fill="#7D7D79"/>
<path transform="translate(1314,385)" d="m0 0 2 1 1 1h2l1 5-6 2-4 3h-3v-6l4-4h3z" fill="#605E5A"/>
<path transform="translate(387,310)" d="m0 0 4 1v2h-2l2 4h-6v4h-2v-2l-7-2-1-2 2-2 1 1 1-3h2v3l6 1v-2l-4-2z" fill="#393530"/>
<path transform="translate(847,178)" d="m0 0h4v19h-4z" fill="#7D7D79"/>
<path transform="translate(1298,403)" d="m0 0 8 2h3l2 3-8 1-1-2-4-1-1 5 4-1-1 3-6 1v-2l-3-3 2-3h3v-2z" fill="#7B7B77"/>
<path transform="translate(500,505)" d="m0 0h7l2 3-1 5-6 1-4 1v-6z" fill="#2E2B27"/>
<path transform="translate(1279,519)" d="m0 0 7 1-1 4 1 3h-3l-2 4-2-3-5-2v-2z" fill="#5E5D58"/>
<path transform="translate(889,410)" d="m0 0 1 3v3h2v3l5-3-2 7-3 4-5-1 1-6-1-1v-6z" fill="#7A7A75"/>
<path transform="translate(591,377)" d="m0 0h2l-2 7-6 4 1 4h-3l-2-3 1-2h-2v-3h2l1-3 6 1z" fill="#55534E"/>
<path transform="translate(862,174)" d="m0 0h6l2 2v6l-3 2h-5z" fill="#020101"/>
<path transform="translate(366,481)" d="m0 0 3 2-1 3-3 2-1 3h-3l-1 2v-2h-3l1-4 3-5z" fill="#1F1D1A"/>
<path transform="translate(1470,369)" d="m0 0 7 2h1l7 2-5 5-1-3-2 1v2l-5 1-2-6-2-1v-2z" fill="#7B7A76"/>
<path transform="translate(616,369)" d="m0 0h2l3 5-1 7-2-1v-2l-4-1v2h-2l-1 3-3-6 4 1 2-5z" fill="#37332F"/>
<path transform="translate(441,311)" d="m0 0h3l6 1 4 8-5-2-2 2v-4l-2-1v3l-5-1v2h2v2l-4-2 1-5z" fill="#7A7975"/>
<path transform="translate(1482,497)" d="m0 0h14v1h22v1l-8 1h-30l-3-2z" fill="#38342F"/>
<path transform="translate(1632,478)" d="m0 0h2l1 5-2 3 4 1-1 5 1 5h-3-3l-1-3 3-2v-5h-2v-6l-3-1z" fill="#3C3833"/>
<path transform="translate(1229,311)" d="m0 0 3 1-3 2 3 1v2l-7 2v-2h-2v3l3 1-2 7h-2v-3h-2v-2l2-2-1-5 5-1 1-3z" fill="#484540"/>
<path transform="translate(1067,30)" d="m0 0h6l2 2v5l-2 2h-4l-2 4z" fill="#464542"/>
<path transform="translate(1518,528)" d="m0 0 3 1 2 4h-3l-1-1v3h4l-1 6h-3v-2h-3l-4-1v-2h3l-1-4h2z" fill="#3B3732"/>
<path transform="translate(1042,405)" d="m0 0 3 1 1 5-2 2h-3v2h-2l-2-2v4l-3-1v-4l-5-3v-1h5l4 1 3 1z" fill="#7D7D79"/>
<path transform="translate(1092,396)" d="m0 0 5 1-1 2-3 2 3 2 4 1-2 2h-3l-1 3-5-1v-10z" fill="#7D7D79"/>
<path transform="translate(1103,318)" d="m0 0 4 1h-2v7l1 3-7 2 1-5-5-1v-4h7z" fill="#3D3934"/>
<path transform="translate(1198,313)" d="m0 0h2v3l-2 1 4 1-1 4-6-2v-2h-3v5l-4 1v-3l-3-1v-2l5 1 1-3 5-2z" fill="#46433F"/>
<path transform="translate(566,313)" d="m0 0 5 2h3v2h-4l-1 2-1 1 3 1h-3v3h-7l2-3-3-1 1-3 4 1v-2l-1-2z" fill="#46433E"/>
<path transform="translate(334,305)" d="m0 0 3 1v4l4 1-3 3h-2l-6 3v-2l-4-4 2-2 2 2 2-3-2-1z" fill="#6A6965"/>
<path transform="translate(1396,502)" d="m0 0h6v3h2l-1 5h-9l-1-4h3z" fill="#2F2C27"/>
<path transform="translate(778,30)" d="m0 0 5 1 1 1v5l-2 2h-5l-2-3 1-5z" fill="#3F3E3C"/>
<path transform="translate(939,825)" d="m0 0h3l-1 5-6 15-4 1 6-16z" fill="#7D7D79"/>
<path transform="translate(706,538)" d="m0 0 5 2h5v4l2 2v3l2 1-5 1-2-3 1-3-2 2-2 3-2-5 4-1v-2l-3 1-3-2z" fill="#010000"/>
<path transform="translate(1391,519)" d="m0 0 1 2h2v3h3l2 5h-2l2 1v3l-9-2v-4l3-5h-2z" fill="#1B1816"/>
<path transform="translate(1057,30)" d="m0 0h6l2 5-2 4h-4l-2 4z" fill="#444341"/>
<path transform="translate(899,825)" d="m0 0h2v18h-3l-1-13h-3l1-3z" fill="#7D7D79"/>
<path transform="translate(1635,530)" d="m0 0 3 2-1 4-4 6h3v2l-5-1 1-5-5-1 1-3h3l1-3 2 1z" fill="#3B3833"/>
<path transform="translate(619,502)" d="m0 0h10l1 5-3 3-2 1-1-4h-5z" fill="#4D4A46"/>
<path transform="translate(1128,411)" d="m0 0h1l1 9-3 3h-2v2h-3v-2l-4-1v-2l5-3 3 1z" fill="#44413C"/>
<path transform="translate(1532,383)" d="m0 0m-1 1 1 2-1 2h-3l-1 2 2 1-1 2h-5v-4h-3l-1 5h-2v-7z" fill="#37332E"/>
<path transform="translate(517,508)" d="m0 0 5 1 2 3 2-1-2 4h-4l-2 2-4-2-3-1 5-5z" fill="#3B3732"/>
<path transform="translate(882,464)" d="m0 0h12l8 3-4 2h-3-6l-5-2v-2z" fill="#312E29"/>
<path transform="translate(790,389)" d="m0 0 6 2-2 4h7v7h-2l-1-3h-3l-5 1 1-3-2-1-1 2v-3l2-1-2-2 2-1z" fill="#36322D"/>
<path transform="translate(1202,314)" d="m0 0 1 3h2v7h-2v2l-5 1-2-1 1-5 2-1 2 1v-2l-3-1z" fill="#131110"/>
<path transform="translate(1079,30)" d="m0 0 5 1 1 1v5l-2 2-6-1-1-4 1-3z" fill="#3E3D3A"/>
<path transform="translate(960,30)" d="m0 0 5 1 1 1v5l-2 2-6-1-1-4 1-3z" fill="#3E3D3A"/>
<path transform="translate(1617,410)" d="m0 0 8 3-1 4v-2h-2l1 4h-2l-1 3h-3v-2l-2-1 2-7z" fill="#070505"/>
<path transform="translate(1344,416)" d="m0 0h5v10l-5 1-2-2v-6z" fill="#7D7D79"/>
<path transform="translate(535,397)" d="m0 0 4 4v4 5l-5 1-1 2v-3l3-1-2-4-2-2v-5z" fill="#676661"/>
<path transform="translate(608,537)" d="m0 0h2l-1 4 3-1 1 2-2 1h4v2l3 1-2 2-5-2h-3l-1 4-4-2-1-2 4-2-1-3h3z" fill="#010000"/>
<path transform="translate(753,388)" d="m0 0 3 1-1 1 4 3 5-2 3 3v2l-4 2-7-4-6-2 1-3 2 1z" fill="#38342F"/>
<path transform="translate(1101,387)" d="m0 0 3 1v3h2l1-4 2 4v4h3l1 3-2 1-2-1-1 1h-3v-5l-4-2v-2z" fill="#37332E"/>
<path transform="translate(500,380)" d="m0 0h7l3 4v3l-4 2h-2l-3-4v-2l-3-1z" fill="#767571"/>
<path transform="translate(588,349)" d="m0 0 1 3 4-1 3 3 1 5-2 1v3h-2l-1-7-1 2v4l-3-1 1-7h-2l-1 2-1-4 3 1z" fill="#393530"/>
<path transform="translate(1175,321)" d="m0 0 2 1v4l4 4 4 1-1 2-4-1-1 4h-2v4h-2v-4h-2v-3l4 2-1-8h-3v-3h2z" fill="#494641"/>
<path transform="translate(1271,325)" d="m0 0 2 2 1-2h4v2h3v4l-10-1 2 1-2 4h-2l1-8z" fill="#4E4B46"/>
<path transform="translate(298,302)" d="m0 0 4 1-1 2h2v-2l2 1 3 2v-2h-2v-2h3l1 5-1 3-3-1-3-2 1 3h-4-2l1-5z" fill="#7A7A76"/>
<path transform="translate(706,545)" d="m0 0h2l2 3 1-3h3l1 5 5 1-3 2v2l-6-1-2-1v-2l-2-1v-2z" fill="#38342F"/>
<path transform="translate(1184,325)" d="m0 0h4v2l5-1 2 2h-2v3l4-1-4 8h-2v-3l-2-1v-3l-3-3v-2z" fill="#42403C"/>
<path transform="translate(446,327)" d="m0 0 3 1v2l4-2-2 4-4 1h4v2h-5l-1 2-3-3-4-2 4-1h2v-3z" fill="#797975"/>
<path transform="translate(901,531)" d="m0 0h3 2l-1 4-3 2v3l2 2-4 1-1-3h-3l-3-3v-2h2v2h3v-2h2z" fill="#090807"/>
<path transform="translate(820,403)" d="m0 0 2 4 5-1v2h2l1-4v3l4 2h-2l-1 2-2 2-6-2v-2h-2l-2-2-1-2h2z" fill="#35312D"/>
<path transform="translate(1200,389)" d="m0 0h2v7l-1 2-1 4-6-3 1-1-2-2 4-1 1 1 1-3-4 1v-3z" fill="#37332E"/>
<path transform="translate(594,368)" d="m0 0h2l-1 5 4 2-1 6h-2v6l-2-1-1-5h2l-1-3 3-1-7-4 2-2-1-2z" fill="#7A7A76"/>
<path transform="translate(969,832)" d="m0 0 5 1v7l-5 1-2-2v-5z" fill="#070505"/>
<path transform="translate(841,832)" d="m0 0 5 1v7l-5 1-2-2v-5z" fill="#070505"/>
<path transform="translate(1622,546)" d="m0 0h2l1 4h3l1 2v5l4 2v2l-5 1-2-4 1-5h-2v2h-2l-2-4z" fill="#36322D"/>
<path transform="translate(1107,396)" d="m0 0h2v2h5v2h3l-1 3-5-1-7 1-6-1-3-2h8l4-1z" fill="#7A7A76"/>
<path transform="translate(1184,394)" d="m0 0h4l1 2 7 1-2 3h-3l-1 3-2-4-1 2-6-2 4-1v-2l-2-1z" fill="#797974"/>
<path transform="translate(657,389)" d="m0 0 2 4 1 4-8 1-3-1v-2l-2-1 3-3 4 2h2z" fill="#37332F"/>
<path transform="translate(1540,378)" d="m0 0 1 2h2l2 2v-2l4 2h-2v2l-4 1h-2v3l-4 1v-2h-2v-2l4-2-3-4z" fill="#777773"/>
<path transform="translate(339,301)" d="m0 0 2 2 1 4h-2v2l-4-1 1-2-5 1v2l-5-1 5-6h5l1 1z" fill="#7B7B77"/>
<path transform="translate(939,26)" d="m0 0h5l2 2-1 5-5 1v5h-1z" fill="#464543"/>
<path transform="translate(835,511)" d="m0 0h2l1 3-5 2-5 1v3l-1 3-3-4v-2h-3l1-5 2 1-1 3h4l-1-4h2l1 2 6-1z" fill="#010000"/>
<path transform="translate(1027,832)" d="m0 0 5 1 1 5-2 3-5-1v-7z" fill="#070505"/>
<path transform="translate(499,527)" d="m0 0 3 1-1 3 2 1 3 5-3 1-1 2h-5l1-4v-3z" fill="#35312D"/>
<path transform="translate(1396,512)" d="m0 0 4 3h3l1 5-5-2v-2h-2l1 4h-4l-1-3h-3l-1 3-2-1 2-4h3l1-2 3 2z" fill="#010000"/>
<path transform="translate(604,381)" d="m0 0 4 1-1 2-5 2 4 2-2 2-4 1-4-2 2-6z" fill="#7A7A76"/>
<path transform="translate(1404,502)" d="m0 0h5l-1 5-1 1 3 3-2 5-2 1-1-7-2-1v-6z" fill="#3A3631"/>
<path transform="translate(1560,371)" d="m0 0 7 1-1 3h2v3l2 1-8 2 1-4v-2l-4-1h-5l1-2z" fill="#7A7A76"/>
<path transform="translate(533,328)" d="m0 0h3l2 1 2 4h5l2 3-1 3-2-1v-2h-6l-3-4-3-1v2h-2l-1-3z" fill="#3B3833"/>
<path transform="translate(828,830)" d="m0 0h8v2l-4 2-1 9h-3z" fill="#7D7D79"/>
<path transform="translate(1277,416)" d="m0 0 3 1-1 9-4 1-1-1v-9z" fill="#7D7D79"/>
<path transform="translate(1370,393)" d="m0 0h7v2l2 1v2h-2v3h-4l-2-3-2 1z" fill="#6F6E6A"/>
<path transform="translate(904,388)" d="m0 0 4 2v5l5-2v2h2l1-4 2 1-1 4-4 1-1 2-3-3-1 3-2-3-1-4z" fill="#393530"/>
<path transform="translate(431,313)" d="m0 0 5 1-2 6-3 3-3 1v-4l-5-1v-1l8-1z" fill="#514F4A"/>
<path transform="translate(1038,830)" d="m0 0h7v2l-3 2-1 9h-3z" fill="#7D7D79"/>
<path transform="translate(913,555)" d="m0 0h2l-1 4 1 4h-6-1-6l4-4h2v-2z" fill="#47443F"/>
<path transform="translate(818,547)" d="m0 0 3 1 3 4 3 1 1-3 3 4-1 2h-4v-2h-8l-2-6z" fill="#030201"/>
<path transform="translate(1398,541)" d="m0 0h3l2 5-5 2-6-1 1-4z" fill="#211E1B"/>
<path transform="translate(357,516)" d="m0 0 7 6 2-2 3 2-3 1v2l2 1h-3v-2l-4 1 1-3h-2v-2h-2l2 3v3l4 1h-5l-3-5z" fill="#020100"/>
<path transform="translate(1608,426)" d="m0 0 4 1 2-1 1 4-3 3-1 2-5 1v-6z" fill="#110F0E"/>
<path transform="translate(835,407)" d="m0 0 7 4v2h-5v4h-2l-1-5-5-1 3-2z" fill="#777773"/>
<path transform="translate(354,396)" d="m0 0 4 2 2 3-3 3-3 1-1 3-5-2 2-4v-2h2v3h2l2-5h-2z" fill="#403C37"/>
<path transform="translate(598,346)" d="m0 0 5 5 2-2v3l-2 3v-2h-3v2h-2v-3l-4-1 1-4z" fill="#413E39"/>
<path transform="translate(839,554)" d="m0 0 3 1-2 5-4 2-3 1-4-2 1-3 4-2v2l4-3z" fill="#3D3935"/>
<path transform="translate(1634,551)" d="m0 0 10 1 3 5h-4-6l-3-3z" fill="#34312C"/>
<path transform="translate(1505,509)" d="m0 0 6 2-1 5-1 2 4 1-4 1-5-1 2-4-2-5z" fill="#484541"/>
<path transform="translate(1571,367)" d="m0 0 1 2h3v5h-2l-1 2-2-2 1-2h-2l-1 3h-2v-2l-3-2 2-2 5-1z" fill="#3C3833"/>
<path transform="translate(868,30)" d="m0 0 5 1v8h-6l-1-4z" fill="#4A4A47"/>
<path transform="translate(1300,537)" d="m0 0 2 4-1 6 4-1v2l-8 1-1 5-3-2h2v-6l4-1v-7z" fill="#050403"/>
<path transform="translate(1289,503)" d="m0 0 3 1zm-1 1 1 2 4-1 1 5h-3v-3h-2l2 7-3 3-5 1-1-2h5l1-2 1-1-4-1h3l-1-5z" fill="#787874"/>
<path transform="translate(1486,411)" d="m0 0 5 4v2l-31-1v-1l19-1 2-1 5 1z" fill="#1B1816"/>
<path transform="translate(942,400)" d="m0 0 6 1 1 4-3 3-5-2-1-3 2-2z" fill="#676661"/>
<path transform="translate(1375,386)" d="m0 0 3 1 1 4-2 2h-7l1 3h-3v-2h-2v-2l5-2h3l-1-2h2z" fill="#3C3934"/>
<path transform="translate(536,383)" d="m0 0h3l-1 5-1 3-2 2-3 2-1-3 1-5h2z" fill="#6B6A66"/>
<path transform="translate(402,312)" d="m0 0 4 1v2l7 1-2 5-2-3-6 2-2-5zm7 2 2 1z" fill="#53514C"/>
<path transform="translate(1508,554)" d="m0 0h3v5l3-1 5 3v2l-7-1-2-2-2 1-3-3z" fill="#2E2B27"/>
<path transform="translate(1396,549)" d="m0 0 2 1v4l3 2v2h-2l-1 2v-2h-2l-1 5-2-1v-5l-2-1 4-3z" fill="#191715"/>
<path transform="translate(1636,514)" d="m0 0 2 1-1 9-5 1v-3l-2-1v-3l3-1 2 1z" fill="#3A3631"/>
<path transform="translate(1632,499)" d="m0 0 6 3-2 6h-2v2h-6l-2-4h4v2l4-1v-4h-5z" fill="#3B3732"/>
<path transform="translate(894,469)" d="m0 0h12l-2 2h4v2h-15v-3z" fill="#060505"/>
<path transform="translate(1629,463)" d="m0 0 2 3-1 4 1 5h-7l1-8h3z" fill="#090707"/>
<path transform="translate(1622,448)" d="m0 0h2v3l5-1-2 4-3 9h-2l1-7-3-2 3-1-2-1z" fill="#060505"/>
<path transform="translate(771,393)" d="m0 0 1 2-1 4 3-1 2 4h-9l-2-4h3l1-4z" fill="#4E4B46"/>
<path transform="translate(619,357)" d="m0 0 4 2-1 7-7-1-1-2 2-4 2 1z" fill="#3D3934"/>
<path transform="translate(628,556)" d="m0 0 1 2 3-1v2h3l-1 3h-2l1 4h-5l-2-6z" fill="#1B1816"/>
<path transform="translate(604,548)" d="m0 0 2 1 3 5v2l3 1-1 3-3-1v-2h-2l-2-3-3-1 1-4z" fill="#3B3833"/>
<path transform="translate(355,515)" d="m0 0 2 1v7l2 4-5-2-3-3-1-6h3v2h2z" fill="#36322E"/>
<path transform="translate(1090,410)" d="m0 0 1 2h2l1 7h-3v2l5-1-3 3h-3l-1-4v-8z" fill="#6E6D68"/>
<path transform="translate(287,301)" d="m0 0 1 4 3 1-3 1 1 2h-2l1 5 3 1-4 2-1-2 1-3-4 2-1-4h3l1-8z" fill="#7D7D79"/>
<path transform="translate(270,302)" d="m0 0 6 2 2-1 6-1-1 6h-2l-1-2-1 3-6-2h-1-2z" fill="#757570"/>
<path transform="translate(1205,558)" d="m0 0h4v2l5-2 4 2-2 2-9 1-4-1v-3z" fill="#3E3A35"/>
<path transform="translate(1119,533)" d="m0 0 1 3 2 1h-2l1 4-4 2-4-2v-4l5-2z" fill="#0D0B0A"/>
<path transform="translate(843,412)" d="m0 0 5 1v6l2 4-3 3-5-1v-2l3-2-1-2h2v-6z" fill="#7B7B77"/>
<path transform="translate(1254,417)" d="m0 0h3l1 5v5h-6l1-9z" fill="#38342F"/>
<path transform="translate(355,393)" d="m0 0 1 2h3l1 2 4-1v2h-3v2l-4-2-3-2v2h2l-2 5h-2l-1-6 1-2h3z" fill="#020101"/>
<path transform="translate(623,352)" d="m0 0h6l1 5v9l-2-4-2-1-1-8z" fill="#504E49"/>
<path transform="translate(498,305)" d="m0 0 5 1-1 7h-3l-2-1 1 3 1 2-3 1-1-5 1-5 2-1z" fill="#3C3833"/>
<path transform="translate(1514,502)" d="m0 0m-5 1h5l2 5-9 3z" fill="#1C1A18"/>
<path transform="translate(1303,417)" d="m0 0 4 1v6l1 3h-5l-1-1v-8z" fill="#38342F"/>
<path transform="translate(814,389)" d="m0 0h2v2l3-1v3h-3l-1 3v-3h-2v2l-4-1v2l3 1-2 1-6-2 2-4h9z" fill="#35312C"/>
<path transform="translate(341,302)" d="m0 0h5l4 3-2 4-6-1-2-5z" fill="#5F5D59"/>
<path transform="translate(724,552)" d="m0 0 2 3 1 5h-3v-2l-6 1-2-2h2l1-4h3z" fill="#3C3934"/>
<path transform="translate(1629,519)" d="m0 0 1 2 3 1-2 9h-2l-2-5v-5z" fill="#1B1916"/>
<path transform="translate(1096,395)" d="m0 0 3 1v2l4 1v2h-5l2 2-5 1-3-4 3-2-1-2z" fill="#34302B"/>
<path transform="translate(978,390)" d="m0 0h10l1 5-1 2h-5l-2-3 1-1-4-1z" fill="#37332F"/>
<path transform="translate(1115,331)" d="m0 0h3v4l2-1v-3l3 1v3h-2v5h-2v-2h-3l-2-6z" fill="#767672"/>
<path transform="translate(559,311)" d="m0 0h1v7l-2 3h-4l-1-6 5-1z" fill="#43403C"/>
<path transform="translate(1316,537)" d="m0 0 3 1 1 7v2l-6-2-1-2h2l-2-4 2-1z" fill="#040303"/>
<path transform="translate(510,512)" d="m0 0 8 4 3-2h4v2l3 1h-2l-1 2-1-2h-4l1 4-3-1-2-3-5-1z" fill="#010000"/>
<path transform="translate(1196,462)" d="m0 0 3 1-6 5-1 5 1 5-3-3v-10l2-2z" fill="#36322D"/>
<path transform="translate(1322,417)" d="m0 0h4v10h-5v-9z" fill="#38342F"/>
<path transform="translate(1545,373)" d="m0 0 8 2-1 4-3 1-7-1v-2l2-1z" fill="#666460"/>
<path transform="translate(622,368)" d="m0 0 3 1v2h2l-1-3h4v4l3 1-1 2h-7l-1-2h-2z" fill="#403C37"/>
<path transform="translate(794,30)" d="m0 0 5 1v4h-5l1 2 3 2h-5l-1-7z" fill="#565652"/>
<path transform="translate(862,26)" d="m0 0h2v13h-2l-1-5-3 5-1-3z" fill="#696863"/>
<path transform="translate(1382,516)" d="m0 0 1 2h2v3h4l2 1-1 2-7 1-1-2h-5l1-2 3-1z" fill="#050303"/>
<path transform="translate(1164,464)" d="m0 0 4 1 2 3v8l-4 4-1-2 2-4-1-6z" fill="#25221E"/>
<path transform="translate(1266,416)" d="m0 0 4 1h-2v9l-4 1v-9z" fill="#38342F"/>
<path transform="translate(445,315)" d="m0 0 3 1v5l-6 2h-3l1-3 2 1v-2h-2v-2l5 1z" fill="#37332E"/>
<path transform="translate(440,306)" d="m0 0 3 1 4 3v2l-5 1-1 1-3-1v-2l-2-2z" fill="#36322D"/>
<path transform="translate(426,302)" d="m0 0h9l1 5-1 2-5-2v-2l-4-1z" fill="#5D5B56"/>
<path transform="translate(661,534)" d="m0 0h4v9l-4 2-1-9z" fill="#585652"/>
<path transform="translate(520,528)" d="m0 0 4 1-1 9-5-1-1-2-2 1-2-1v-2h7z" fill="#3B3732"/>
<path transform="translate(1622,441)" d="m0 0m-3 1h3l2 4h2l1 3-6-3v2h-2v3h-2l-1-3z" fill="#010000"/>
<path transform="translate(1127,422)" d="m0 0 4 2v2l-4 2-3 1-1-1h-5l2-4 5 1v-2z" fill="#6F6E6A"/>
<path transform="translate(1111,403)" d="m0 0 1 2 3 1-4 3h-2l-1 2-3 3-3-1h2l-1-4 3 1 1-4 3-1z" fill="#7D7D79"/>
<path transform="translate(732,392)" d="m0 0h5v2h-3v3h2v2l-4-1v-2h-2l-1 4-3-3v-2h6z" fill="#36322D"/>
<path transform="translate(1505,373)" d="m0 0h10l1 3-5 1-5-1-1 6-1-4h-2v-2h3z" fill="#514F4A"/>
<path transform="translate(1113,333)" d="m0 0 3 2v3h3v2l2 1-4 2-4-3 2-1h-4v-4h2z" fill="#3A3631"/>
<path transform="translate(437,321)" d="m0 0 7 2 1-2 1 2-1 3-4-1-3 3-4-2z" fill="#797975"/>
<path transform="translate(361,317)" d="m0 0 8 2 1-2 3 1-3 1 2 5-5 3 2-6-5-1-3 1z" fill="#7D7D79"/>
<path transform="translate(1329,409)" d="m0 0h3l2 2-2 3 1 2h-11v-1h5v-3l-2-1z" fill="#35312C"/>
<path transform="translate(594,358)" d="m0 0 3 1 1 3 6 3-5 5-1-2 1-2-6-1v-2h2z" fill="#7D7D79"/>
<path transform="translate(1230,318)" d="m0 0 2 1 1 2 2-1v2h4v2l-4-1-1 2-3-2 1 5-3-1-2-5 3-1z" fill="#62605C"/>
<path transform="translate(435,309)" d="m0 0 5 1-1 7v2h-3v2h-2l1-5 1-2-2-1z" fill="#6B6A66"/>
<path transform="translate(848,555)" d="m0 0v3l3 1-1 4-4-1-3 1-1-4 3-3z" fill="#2C2925"/>
<path transform="translate(354,534)" d="m0 0 3 2-1 4-2 1-1 3-3-1-1-4 2-2h1v-2z" fill="#3D3934"/>
<path transform="translate(502,513)" d="m0 0h3l-1 3-2 2-2 8h-2v-9z" fill="#3D3934"/>
<path transform="translate(1237,435)" d="m0 0 7 1 1 3-8 1-2-1z" fill="#7D7D79"/>
<path transform="translate(1167,427)" d="m0 0h2l1 2 5 2-1 4h-5v-2h-2z" fill="#5F5E59"/>
<path transform="translate(1430,415)" d="m0 0h18v1l-6 1v1h-11z" fill="#292622"/>
<path transform="translate(1181,407)" d="m0 0 4 3v-2h4v2l-5 3v2l-5 1-1-4 2-1z" fill="#7B7B77"/>
<path transform="translate(992,400)" d="m0 0h2l1 5 2 1h-2l-1 2-4-1-1-2h-2v-2z" fill="#4A4742"/>
<path transform="translate(757,395)" d="m0 0 8 2 1 4h-3v2l-5-2-1-4z" fill="#7B7B77"/>
<path transform="translate(515,329)" d="m0 0h2l1 5v1l-2 3-1-2-3 1v-2l-4-2 4-1 2 1z" fill="#7B7B77"/>
<path transform="translate(1125,331)" d="m0 0 5 1-1 2h-2l-1 4-5 2v-5h2v-3z" fill="#4B4944"/>
<path transform="translate(906,502)" d="m0 0 3 1-1 6-4 1-4-2 2-2 4-2z" fill="#1B1916"/>
<path transform="translate(1249,430)" d="m0 0h6l6 3v1h-12z" fill="#010000"/>
<path transform="translate(580,375)" d="m0 0 6 1h3l2 2-2 4-4-1 1-2-6-1z" fill="#37332F"/>
<path transform="translate(622,361)" d="m0 0 4 1h3v7h-2v2h-2l-1-4 1-2h-3z" fill="#7D7D79"/>
<path transform="translate(1284,328)" d="m0 0 4 1-2 1v2l4 1v3h-2v-2l-8 2 2-4z" fill="#484541"/>
<path transform="translate(1110,318)" d="m0 0 2 4 2-2 2 5h-4-5v-3-3z" fill="#3B3733"/>
<path transform="translate(468,311)" d="m0 0 4 2 1 3-3 1h-7l-1-4z" fill="#3F3B37"/>
<path transform="translate(465,307)" d="m0 0h5l1 7-3-2-6 1 1-3z" fill="#7B7B77"/>
<path transform="translate(815,558)" d="m0 0 6 1 1 4-5-1-2-1v2l-4-1v-2z" fill="#3A3631"/>
<path transform="translate(619,546)" d="m0 0 2 3-1 3h-2l-2 5-4-3v-2h2l1-2h2z" fill="#3B3833"/>
<path transform="translate(511,545)" d="m0 0h4l3 1-1 4-2 3-2-1-1-4-2 1-4-2h5z" fill="#36332E"/>
<path transform="translate(1400,534)" d="m0 0 4 1 1 4-7 1-3-2v-2h4z" fill="#2E2B27"/>
<path transform="translate(688,502)" d="m0 0h7l-1 6-6 1z" fill="#45423D"/>
<path transform="translate(1272,416)" d="m0 0h5l-3 1 1 10h-4v-10z" fill="#38342F"/>
<path transform="translate(575,396)" d="m0 0h2v2l2 1v-2l4 1-1 2h-5v3l-5 1 2-5z" fill="#35322D"/>
<path transform="translate(609,363)" d="m0 0 7 2v2l2 1-4 6-2-1 2-5h-4z" fill="#777672"/>
<path transform="translate(486,346)" d="m0 0h4v2l-3 1 1 3-4 1-1 4h-1v-9z" fill="#423F3B"/>
<path transform="translate(1400,546)" d="m0 0 1 4 1 5-5-1-1-6zm2 5h2v2h-2z" fill="#423F3A"/>
<path transform="translate(897,519)" d="m0 0 7 2-1 2-3 2v3l-3 1-1-4h2z" fill="#020101"/>
<path transform="translate(1512,510)" d="m0 0 1 2h3l-2 5-5 1 2-7zm4 0 2 1-2 1z" fill="#0A0808"/>
<path transform="translate(1612,481)" d="m0 0h6v2h-2l1 3-2 2-7 2v-2l5-4z" fill="#040202"/>
<path transform="translate(727,409)" d="m0 0 7 1-1 3v-2l-4 1v3h2l-1 2-4-2 1-2-3 1-1-4 1 2z" fill="#7D7D79"/>
<path transform="translate(1028,401)" d="m0 0 4 2 2 3-6 1v3h-2v-4l-3-2 5-1z" fill="#797874"/>
<path transform="translate(1293,373)" d="m0 0h7v3l-3 3-4-1-1 2v-5z" fill="#6D6C68"/>
<path transform="translate(598,356)" d="m0 0 4 1v4l2 1-4 3v-2l-4-2z" fill="#3E3A36"/>
<path transform="translate(1101,336)" d="m0 0 8 1-3 1-1 4-3 1-3-2z" fill="#777672"/>
<path transform="translate(503,319)" d="m0 0h3l1 4-3 1-1 2 3-1 1 2-4 3v-3h-2l1-7zm-2 11 2 1z" fill="#393531"/>
<path transform="translate(409,317)" d="m0 0 2 3v-3h2v2l2 1-3 4-5-1-2-2z" fill="#36322D"/>
<path transform="translate(360,317)" d="m0 0 1 4 3 1h-3l3 4-1 2-2-1-1 3-1-4 1-2h-3v-2h2z" fill="#33302B"/>
<path transform="translate(1097,827)" d="m0 0 4 1 1 4-2 2-4-1v-5z" fill="#090706"/>
<path transform="translate(1070,827)" d="m0 0 4 1 1 4-2 2-4-1v-5z" fill="#090706"/>
<path transform="translate(910,827)" d="m0 0 4 1 1 4-2 2-4-1v-5z" fill="#090706"/>
<path transform="translate(356,539)" d="m0 0 2 4v2l4 1-6 1-5-1v-3h2v-3z" fill="#070605"/>
<path transform="translate(1024,389)" d="m0 0 6 2 1-2 1 5v2l-4 1-3-6z" fill="#37332F"/>
<path transform="translate(592,388)" d="m0 0 3 1-1 2h-2v2l-5 2-2 3-1-3 1-2h2v-2z" fill="#7D7D79"/>
<path transform="translate(1305,379)" d="m0 0 3 2v3l-3 1h-2l-4-1v-3z" fill="#383530"/>
<path transform="translate(1385,373)" d="m0 0h7v4l-2 1-1 3-4-2 1-3z" fill="#7D7D79"/>
<path transform="translate(592,353)" d="m0 0h1v10 3 2h-4v-4l1-9z" fill="#7D7D79"/>
<path transform="translate(595,352)" d="m0 0h3v3h2v-2h3l1 5-2 1-2-2-1 2-4-2z" fill="#7D7D79"/>
<path transform="translate(459,311)" d="m0 0 1 2 4 2-1 2h7l-1 2-2-1-1 3-2-1-5-4-1-3z" fill="#7D7D79"/>
<path transform="translate(951,181)" d="m0 0 5 1 1 4h-9l1-4z" fill="#090706"/>
<path transform="translate(924,827)" d="m0 0h3l1 6-4 1-2-2 1-4z" fill="#090707"/>
<path transform="translate(1305,548)" d="m0 0 3 1v4h-4v3h-3l-1-6h5z" fill="#010000"/>
<path transform="translate(1404,546)" d="m0 0 3 1-1 6h3v2l-4-1-1 2v-2l-2-1h2v-2h-2z" fill="#332F2A"/>
<path transform="translate(510,534)" d="m0 0 2 2v3l6 2v4l-6-4-1 3-1-4z" fill="#46433E"/>
<path transform="translate(1631,465)" d="m0 0h2l1 6h-2v3l2 1-3 3-2-1v-2h2l-2-6z" fill="#34302C"/>
<path transform="translate(1313,462)" d="m0 0 3 1-5 3-2 4v7l-2-2v-9l3-3z" fill="#38342F"/>
<path transform="translate(1008,412)" d="m0 0h3v2l3-1 1 5h-2v-3l-2 4-5 1 1-7z" fill="#7A7A76"/>
<path transform="translate(1168,406)" d="m0 0h2v2l4 1-3 4h2v2l-6-2z" fill="#7D7D79"/>
<path transform="translate(1299,403)" d="m0 0 7 2h3l2 3-8 1-1-2-4-2z" fill="#7D7D79"/>
<path transform="translate(411,310)" d="m0 0 5 1v3l-3 3-4-2v-3h2z" fill="#3E3B36"/>
<path transform="translate(352,555)" d="m0 0 2 1-1 2 3 1v2h-2v2l-5-2 2-5z" fill="#2F2B27"/>
<path transform="translate(607,550)" d="m0 0 5 1 3 5 1 3-4-2-3-1-2-3z" fill="#070605"/>
<path transform="translate(1619,525)" d="m0 0 4 1-1 3 3 2-1 3-4-3-4-1z" fill="#3C3934"/>
<path transform="translate(533,436)" d="m0 0 5 1v6h-4l-1-3-2-2z" fill="#5A5854"/>
<path transform="translate(841,426)" d="m0 0h2l1 6-8 2-1-4 5-2 1-1z" fill="#7A7A76"/>
<path transform="translate(1598,409)" d="m0 0 3 3v2h-10v-4l4 1h1z" fill="#040302"/>
<path transform="translate(1043,401)" d="m0 0 1 4h-2v3h-5l-1-2 4-4z" fill="#54514D"/>
<path transform="translate(1382,374)" d="m0 0 6 1-4 4-4-1v-3zm1 5h1v5l-3-2v-2z" fill="#3C3833"/>
<path transform="translate(578,373)" d="m0 0h11l2 4-4-1-4 1z" fill="#7D7D79"/>
<path transform="translate(453,329)" d="m0 0m-1 1m-6 1h6v6l-1 3h-3v-3h-2v-2h5v-2l-4 1z" fill="#3C3833"/>
<path transform="translate(1198,313)" d="m0 0h2v3l-2 1 4 1-1 4-6-2v-5z" fill="#3B3834"/>
<path transform="translate(1084,827)" d="m0 0 4 1v5l-4 1-1-1v-5z" fill="#020101"/>
<path transform="translate(535,555)" d="m0 0h3v5l-3-1v2h3v2h-6l2-4h-2v-2z" fill="#46433F"/>
<path transform="translate(1321,554)" d="m0 0 5 4-1 3-4 1-3-4 2-1z" fill="#040303"/>
<path transform="translate(1517,543)" d="m0 0h2l-1 2zm-1 1 1 2-1 3-5 2-4-1 4-1 1-3z" fill="#0D0B0A"/>
<path transform="translate(896,538)" d="m0 0 4 2v3l3 1-1 1h-8v-3l4 1z" fill="#3C3833"/>
<path transform="translate(1092,434)" d="m0 0h7l1 3-5 3-3-1h-3l-1-2h4z" fill="#7D7D79"/>
<path transform="translate(1092,396)" d="m0 0 5 1-1 2-3 2 1 3h-4l-1-6z" fill="#767571"/>
<path transform="translate(1471,380)" d="m0 0h2l-1 3-12 3-2-4 5 1 1-2v2z" fill="#7D7D79"/>
<path transform="translate(514,339)" d="m0 0 6 1v3l2 1h-9l-2-2h3z" fill="#34302B"/>
<path transform="translate(1144,302)" d="m0 0h2l2 5-1 5h-2v2h-2v-6h2v-3h-2z" fill="#4A4742"/>
<path transform="translate(373,311)" d="m0 0 5 1 1 3-3 1 1 2-9-3 4-2v2h2z" fill="#7D7D79"/>
<path transform="translate(518,296)" d="m0 0 5 1h3l1 3-3 1v-2h-2l-1 2-6-2 3-1z" fill="#36332E"/>
<path transform="translate(1616,550)" d="m0 0 1 3 4-1 3 4v2l-6 1v-2l2-1-4-2-1-3z" fill="#38342F"/>
<path transform="translate(770,545)" d="m0 0 10 3v1l-5 1-2 4-4-1 2-3h2z" fill="#010000"/>
<path transform="translate(1258,534)" d="m0 0 6 1-4 4-5 2v-4-2z" fill="#7D7D79"/>
<path transform="translate(387,513)" d="m0 0h3l-1 4 2 1-1 3h-4l-1-4z" fill="#615F5B"/>
<path transform="translate(1633,450)" d="m0 0h2v6l-1 2h-3v-2l-3-1v-2z" fill="#010000"/>
<path transform="translate(1628,422)" d="m0 0 5 2 1 3-2 4h-4v-5l3 1v-2l-3-1z" fill="#080606"/>
<path transform="translate(1176,401)" d="m0 0h9l2 2-2 1-2 4-1-3-2 1-2-2z" fill="#7A7A76"/>
<path transform="translate(1623,400)" d="m0 0h2l1 5h-5l1 4h-2v-2l-3-1h2l2-5z" fill="#020101"/>
<path transform="translate(498,382)" d="m0 0 3 1 3 4-1 4-5-3z" fill="#53514C"/>
<path transform="translate(1197,334)" d="m0 0h2v2l7-2v4l-3 1-8-2v-2z" fill="#43403B"/>
<path transform="translate(1501,555)" d="m0 0 3 3v3l2 1-6 1-1-5v-2z" fill="#3F3C37"/>
<path transform="translate(906,549)" d="m0 0h3l2 3 2 4h-2v-2h-3v-2h-4v2l3 1h-4v-4z" fill="#020101"/>
<path transform="translate(1611,540)" d="m0 0 5 2-1 2h-2l1 5-5-2v2l-3-1 4-3 2 1z" fill="#080706"/>
<path transform="translate(1389,541)" d="m0 0v3l3 1v2l2 1-3 2v-2l-4 2-1-6z" fill="#010000"/>
<path transform="translate(839,532)" d="m0 0 2 1 1 4 2-1 1 4-2 1v-2l-4-1-1 2-1-5v-1z" fill="#010000"/>
<path transform="translate(711,522)" d="m0 0h2l1 6 4-1-3 3-3-2-2 1v-2l-2-1z" fill="#040303"/>
<path transform="translate(824,509)" d="m0 0 4 2-1 5h-4l-1-3-3-1z" fill="#4B4843"/>
<path transform="translate(1628,501)" d="m0 0 1 2 6-1-1 5-4 1-3-3z" fill="#080706"/>
<path transform="translate(351,467)" d="m0 0 4 1h-2v2l5-3 1 4-4 1-2-1v3h-2z" fill="#020101"/>
<path transform="translate(1614,437)" d="m0 0 5 2v2l-5 2-1 3-1-2 2-5-2-1z" fill="#040303"/>
<path transform="translate(916,419)" d="m0 0 1 2 3-1 2 2h-4v2l-5 4-1-4 2-2-1-2z" fill="#7D7D79"/>
<path transform="translate(1611,412)" d="m0 0h4l1 4-2 2v-2h-2l1 3h-3v-3l-2-2z" fill="#010000"/>
<path transform="translate(1046,411)" d="m0 0 2 1 1 7h-3l-4-2 1-3 3-1z" fill="#7D7D79"/>
<path transform="translate(720,397)" d="m0 0 6 2-1 3-3-1h-1v2l-4 3v-3z" fill="#38342F"/>
<path transform="translate(656,397)" d="m0 0 7 1 2 3-2 4-4-5-3-1z" fill="#7D7D79"/>
<path transform="translate(1322,388)" d="m0 0 3 1v3h2v2h-2l-1 2-2 1-2-5z" fill="#7D7D79"/>
<path transform="translate(526,381)" d="m0 0h2l-1 4-4 4-3-1 2-4 2-1 2 1z" fill="#4D4A45"/>
<path transform="translate(1428,377)" d="m0 0 5 1v2h-2v-2h-2l2 5-3 1v-2l-4-1h2v-2h2z" fill="#36322D"/>
<path transform="translate(614,377)" d="m0 0 4 1 2 2 1 3-2 1v-2l-6-1-1 2v-4h2z" fill="#7D7D79"/>
<path transform="translate(591,377)" d="m0 0h2l-2 7-5 2-1-4h4z" fill="#7A7A76"/>
<path transform="translate(495,323)" d="m0 0 5 2-2 5-1-2-3 1-2-1 1-3 2 1z" fill="#484540"/>
<path transform="translate(1199,305)" d="m0 0h2v2l-3 3-5 2h-3v2h-2v-3l5-2h3v-3z" fill="#4F4D48"/>
<path transform="translate(618,306)" d="m0 0 6 1v3l-1 2-7-2v-2h2z" fill="#2A2724"/>
<path transform="translate(464,301)" d="m0 0h5l2 2v7l-1-3h-5l4-1v-2h-4z" fill="#3F3B36"/>
<path transform="translate(1616,559)" d="m0 0 2 1 8-1 1 2-5 1-2-1v2l-6-1v-2z" fill="#3F3B36"/>
<path transform="translate(509,556)" d="m0 0h4l-1 4 3 1v3l-5-2-1-1z" fill="#38342F"/>
<path transform="translate(1619,546)" d="m0 0h3l1 9-2-1v-2l-4 1-1-4z" fill="#010000"/>
<path transform="translate(705,526)" d="m0 0 1 2 4 2v3l-4 1-2-3z" fill="#040303"/>
<path transform="translate(723,502)" d="m0 0h5l1 6h-6v-3z" fill="#3F3B36"/>
<path transform="translate(384,497)" d="m0 0h6l1 8-7-1v-2h4v-2z" fill="#24211E"/>
<path transform="translate(1628,475)" d="m0 0 1 2 3 1-2 2 1 1v6l-5-5z" fill="#010000"/>
<path transform="translate(1603,424)" d="m0 0 5 2-1 7-4-2-1-4 2 1 1-2-3-1z" fill="#585551"/>
<path transform="translate(1377,408)" d="m0 0 4 4-2 2h-6v-2h2v-3z" fill="#787773"/>
<path transform="translate(352,407)" d="m0 0 5 2 2 3h-3l-1 2-3-1-1-5z" fill="#221F1C"/>
<path transform="translate(820,396)" d="m0 0h2l3 4-2 2-5 1-2-5h2l2 2z" fill="#34312C"/>
<path transform="translate(994,393)" d="m0 0 3 1 1 6 4 1-4 2-1-3h-2z" fill="#38342F"/>
<path transform="translate(1557,379)" d="m0 0 3 2 1 3 2 2-3 1-4-4v2l-3-1v-2l4-1z" fill="#7D7D79"/>
<path transform="translate(1459,371)" d="m0 0h5l-1 4h-2l-1 6h-2v-8z" fill="#3B3833"/>
<path transform="translate(343,313)" d="m0 0h2l1 3 2 1 1 4-4 1h-2z" fill="#7A7A76"/>
<path transform="translate(1022,558)" d="m0 0 6 2-1 2-8 2-2-3 5-1z" fill="#47443F"/>
<path transform="translate(1405,522)" d="m0 0 2 1-1 4-1 2h-2l-1 2-1-5-2-1 5-1z" fill="#0B0908"/>
<path transform="translate(1400,505)" d="m0 0h4l-1 5h-7l1-3z" fill="#090706"/>
<path transform="translate(589,430)" d="m0 0 5 4-1 5-1-2h-3z" fill="#292622"/>
<path transform="translate(1617,410)" d="m0 0 8 3-1 4v-2l-6 1z" fill="#171513"/>
<path transform="translate(898,402)" d="m0 0 3 1v2h4v-2l3 1-1 3h-8l-2-4z" fill="#7D7D79"/>
<path transform="translate(1542,373)" d="m0 0 2 4h-2v2l4-1 3 1v2l-4-1 1 3-3-1v-2h-2l-1-4z" fill="#35322D"/>
<path transform="translate(468,330)" d="m0 0 2 4v4l-4-1-2-2z" fill="#7D7D79"/>
<path transform="translate(1184,325)" d="m0 0h4v2l5-1 2 2-3 3h-3l-3-3v-2z" fill="#3B3732"/>
<path transform="translate(428,325)" d="m0 0 1 2 4-2 1 2-3 3-6 2 1-5z" fill="#7A7A76"/>
<path transform="translate(647,292)" d="m0 0 5 1 2 1v2h-3v-2h-2l2 5-3-1-2-4z" fill="#494642"/>
<path transform="translate(1327,556)" d="m0 0 2 4 3 1-2 2-3-2-4 2-2-1 4-1 1-4z" fill="#38342F"/>
<path transform="translate(1037,548)" d="m0 0 2 1v2l5-1 2-2 1 5-3 2-1-2-2 1v-2l-3 1z" fill="#010000"/>
<path transform="translate(1304,533)" d="m0 0h2v2h8l-2 4v-2l-3 1-4-1-3 1v-3h2z" fill="#010000"/>
<path transform="translate(1407,522)" d="m0 0 2 2 1 5h-5v-3zm-4 7h2v2h-2z" fill="#3F3C37"/>
<path transform="translate(1113,422)" d="m0 0 3 4h-2v2h-6l-1-3h5z" fill="#777773"/>
<path transform="translate(1307,414)" d="m0 0h20v1l-9 2-1-1-10-1z" fill="#050403"/>
<path transform="translate(838,414)" d="m0 0h7l-1 4-5 1z" fill="#757470"/>
<path transform="translate(1129,384)" d="m0 0 1 2v7h-7l-1-2h2v-2l2 1 1-1v-4z" fill="#38342F"/>
<path transform="translate(1374,385)" d="m0 0 3 1h-2v4l-4 1-2 1v-5z" fill="#7D7D79"/>
<path transform="translate(617,384)" d="m0 0h7v3l-7 2-2 1 1-4z" fill="#7D7D79"/>
<path transform="translate(533,377)" d="m0 0 5 3-2 4-5-2z" fill="#7D7D79"/>
<path transform="translate(1197,312)" d="m0 0h8v3l-4 2-4-1h3v-3l-4 1z" fill="#676662"/>
</svg>
