<?xml version="1.0" encoding="UTF-8"?>
<svg version="1.1" viewBox="0 0 1916 925" width="464" height="300" xmlns="http://www.w3.org/2000/svg">
<path transform="translate(0)" d="m0 0h1916v925h-1916z" fill="#FDFDFD"/>
<path transform="translate(1029,160)" d="m0 0h504l16 3 13 5 13 7 10 8 7 6 10 13 9 17 4 13 2 12v602l-4 18-7 16-9 13-11 12-14 10-14 7 358 1v2h-1916v-2l1e3 -1-16-8-14-11-10-11-9-14-6-14-4-18v-602l3-16 5-13 7-13 8-10 6-7 13-10 17-9 13-4z" fill="#060615"/>
<path transform="translate(192,730)" d="m0 0h197l5 3 2 4v58l-3 5-4 2h-197l-5-3-2-4v-58l3-5z" fill="#D95317"/>
<path transform="translate(443,730)" d="m0 0h188v2l4 2 1 3h2v58h-2l-2 4-3 1v2h-188l-5-5v-2h-2v-58l6-5z" fill="#F4F4F4"/>
<path transform="translate(1252,369)" d="m0 0h7l-4 2-11 4-5 2-2 4-10 13-5 7-5 13-3 9-1 1-3 19-1 21v3h2l1-3h32l11-1 4-3h2l1-3 35-1 18 1v2l4 2 5 5 2 7 2 2h75l2-3 7 1 1 2v6l-2 3h-5l-2-4h-68l-9-1-9-10v-2h-2l-2-5-4 1-45 1-5 6-3 3-45 1-1-4h-2v14l2 7 1-1h41l10-6 2-7 4-1 34-1 1-3h6l3 3v10l-2 2h-9l-3-2h-24l-9 3-3 5-5 5h-44l-4-2 3 21 3 1v-2l2-1h80l5-4 5-9 2-2 31-1 6-2 5 1 2 2v6l-3 3h-5l-4-4h-27l-4 4-4 7-6 7-5 1-77-1-5-3 1 12-8 12-9 12-6 7-7 5-8 1-5-4-1-2v-20l-8-8v-4l4-4v-2l-6-2 1-6 2-7-12-2-3-2v-6l9-11 6-8 2-11 1-20 2-14 5-16 8-15 8-10 12-10 12-7 9-3 2-1 7-1 11-3z" fill="#D85217"/>
<path transform="translate(1901,23)" d="m0 0h15v459h-15z" fill="#C1C1C1"/>
<path transform="translate(315,269)" d="m0 0h224l5 5v16l-5 5h-224l-5-5v-16z" fill="#270807"/>
<path transform="translate(1554,922)" d="m0 0 362 1v2h-1916v-2z" fill="#010101"/>
<path transform="translate(1237,378)" d="m0 0 2 1-6 7-11 15-5 13-3 9-1 1-3 19-1 21v3h2l1-3h32l11-1 4-3h2l1-3 35-1 18 1v2l4 2 5 5 2 7 2 2h75l2-3 7 1 1 2v6l-2 3h-5l-2-4h-68l-9-1-9-10v-2h-2l-2-5-4 1-45 1-5 6-3 3-45 1-1-4h-2v14l2 7 1-1h41l10-6 2-7 4-1 34-1 1-3h6l3 3v10l-2 2h-9l-3-2h-24l-9 3-3 5-5 5h-44l-4-2 3 21 3 1v-2l2-1h80l5-4 5-9 2-2 31-1 6-2 5 1 2 2v6l-3 3h-5l-4-4h-27l-4 4-4 7-6 7-5 1-77-1-5-3 1 12-2-1-3-12-4-36v-31l3-24 5-16 4-9 6-10 2-4 3-3 2-4h3v-2z" fill="#240909"/>
<path transform="translate(315,269)" d="m0 0h110l-2 5-1 2 10 1v11h-3l-1-9h-2v9h-3v-9l-5 2-5-1v5l6-1v3l-1 1h-8l-4 2-3 5h-88l-5-5v-16z" fill="#D55218"/>
<path transform="translate(1221,401)" d="m0 0 4 2h-2v6h62l2 4 7 3 4 4v2h17l4 5h-3l-1 2v-2l-15 1-2 2-7 3-3 6v1h-6l-9-10-2-3-5-2v-2l-7 1-6 1-5-2-17 1-5-1v2l-12 2-1 2-1-5 2-3 2-7z" fill="#060513"/>
<path transform="translate(1237,378)" d="m0 0 2 1-6 7-11 15-5 13-3 9-1 1-3 19-1 21v3h2l1-3h32l11-1 4-3h2l1-3 35-1 18 1v2l4 2 5 5 2 7 2 2h75l2-3 7 1 1 2v6l-2 3h-5l-2-4h-68l-9-1-9-10v-2h-2l-2-5-4 1-45 1-5 6-3 3-45 1-1-4h-2l-1 14-2-1v-31l3-24 5-16 4-9 6-10 2-4 3-3 2-4h3v-2z" fill="#2F120F"/>
<path transform="translate(1244,422)" d="m0 0 8 1 5 1 6-2 3 1v2l6 2 10 12 15 1 68 2 1-3 7-1 3 3 1 6-7 5-10-3-81-1-9-11-5-3h-8l-5 1-2-2h-15l-10 1-12-2 1-5 4-2h8v-2z" fill="#6E250C"/>
<path transform="translate(1332,421)" d="m0 0 2 3 2 2 4-1 2 3h16l6 1v1l-7 1v5l3 1 2 2-3 1-31 1h-31l-9-1-1-2 5-7 7-3 1-1h19l3 2h7z" fill="#0B0119"/>
<path transform="translate(238,443)" d="m0 0h7l3 9 4 16 3-9 4-15 1-1h6l3 8 4 16 1 1 6-24 1-1h7l-9 34-1 3h-8l-6-22v-4h-2l-1 8-5 18h-8l-8-29z" fill="#D95317"/>
<path transform="translate(1236,369)" d="m0 0m-3 1 6 1-3 2-7 2-7 1-9 4-6 2-1 2-9 6-9 8-9 14-6 13-4 16-1 9-1 20-2 11-7 9-8 10v6l5 2 9 2-1 7-1 6 6 2-2 5-3 1 2 5 7 7v20l5 5 8-1 8-6 8-10 7-10 6-9 1 2-6 11-6 9-8 10-11 7h-9l-5-4-1-3v-19l-1-3-4-2-3-4v-7-3l-3-3 2-11-10-2-4-4 2-9 4-6 3-2 2-5h3l3-11 1-6 1-21 2-12 3-10 3-7 6-12 12-14 3-1 2-4 20-11 10-4z" fill="#1F0304"/>
<path transform="translate(286,512)" d="m0 0 7 1 5 3 3 5v11l-6 7-2 1h-10l-4-2v12h-6v-37h6l1 2z" fill="#D95317"/>
<path transform="translate(681,502)" d="m0 0h6v38h-6v-2l-4 2h-10l-6-5-2-5v-7l3-6 5-4 7-1 7 3z" fill="#D95317"/>
<path transform="translate(448,562)" d="m0 0h6v13l7-3 9 2 5 6 1 3v7l-3 6-5 4h-10l-4-2-1 2h-5z" fill="#D95317"/>
<path transform="translate(320,512)" d="m0 0 7 1 7 6 1 3v9l-4 6-4 3h-10l-4-2v12h-6v-37h6l1 2 2-2z" fill="#D95317"/>
<path transform="translate(1263,459)" d="m0 0h51l9 10 5 6h75l2-3 7 1 1 2v6l-2 3h-5l-2-4h-68l-9-1-9-10v-2h-2l-2-5-50 1-6 7-10 1h-14l-14-1-1-2 3-1 35-1z" fill="#FCFCFC"/>
<path transform="translate(478,452)" d="m0 0 7 1 7 6 1 3v9l-4 6-4 3h-10l-4-2v12h-6v-37h6l1 2 2-2z" fill="#D95317"/>
<path transform="translate(300,622)" d="m0 0h6l1 12 5-2 8 1 5 4 3 6-1 9-4 6-4 2h-10l-3-2-1 2h-5z" fill="#D95317"/>
<path transform="translate(524,269)" d="m0 0h15l5 5v16l-5 5h-38l4-7h7v-2l-4-1 4-1 1 3h8l2-2v-7h-2l-1-3z" fill="#0B0916"/>
<path transform="translate(252,512)" d="m0 0 8 1 6 5 2 5v7l-4 7-5 3h-10l-5-3-4-6v-10l6-7z" fill="#0B0B19"/>
<path transform="translate(554,572)" d="m0 0 7 1 6 4 3 6-1 9-3 5-5 3h-11l-7-6-1-2v-11l3-5 5-3z" fill="#0B0B19"/>
<path transform="translate(352,512)" d="m0 0 7 1 6 4 3 6-1 9-3 5-5 3h-11l-7-6-1-2v-11l3-5 5-3z" fill="#0B0B19"/>
<path transform="translate(603,452)" d="m0 0 7 1 6 4 3 6-1 9-3 5-5 3h-11l-7-6-1-2v-11l3-5 5-3z" fill="#0B0B19"/>
<path transform="translate(587,572)" d="m0 0 6 1 5 2 6-3 6 1 5 5v22h-6l-1-21h-7l-2 3-1 18h-6l-1-19-2-2h-5l-2 3-1 18h-6v-27h6l1 2z" fill="#D95317"/>
<path transform="translate(700,452)" d="m0 0 7 1 5 2 5-3 7 1 4 4 1 3v20h-6l-1-18-2-3h-7l-1 21h-6l-1-18-3-3h-6l-1 21h-6v-27h5l1 2z" fill="#D95317"/>
<path transform="translate(1347,497)" d="m0 0 5 1 2 2v6l-3 3h-5l-4-4h-27l-5 6-10 10h-67l-14-1-1-2 13-1 69-1 9-10 4-4 30-1z" fill="#FCFCFC"/>
<path transform="translate(1241,388)" d="m0 0 3 2h39l2 1h7l2 4h-2v2l-7 2-2 2-39 1-7-1 2-1 1-5-1-6z" fill="#0B021A"/>
<path transform="translate(1278,598)" d="m0 0h24v5l-4 1h-14l-1 26h13l1-10-5-1 1-5h8l1 1v21l-4 1-20-1-1-2z" fill="#504F4F"/>
<path transform="translate(1321,598)" d="m0 0h24v5l-1 1h-17v9l13 1v6h-14l1 10h15l3 1v5l-23 1-1-1z" fill="#434242"/>
<path transform="translate(420,452)" d="m0 0 7 1 5 4 1 3v20h-6l-1-2-3 2h-10l-4-5 1-7 4-3 9-2h4l-2-4h-7l-2 2-5-1 1-4 4-3z" fill="#0E0E1B"/>
<path transform="translate(381,452)" d="m0 0 8 1 5 4 2 5v6h-20l3 5 7 1 3-2 5 1v3l-5 4h-11l-7-6-1-3v-10l4-6z" fill="#D95317"/>
<path transform="translate(492,572)" d="m0 0 8 1 5 5 2 4v6h-20l3 5 1 1h6l3-2 5 1-1 4-4 3h-11l-5-3-3-5v-11l4-6z" fill="#D95317"/>
<path transform="translate(529,512)" d="m0 0 8 1 5 5 2 4v6h-20l3 5 1 1h6l3-2 5 1-1 4-4 3h-11l-5-3-3-5v-11l4-6z" fill="#D95317"/>
<path transform="translate(745,452)" d="m0 0 8 1 5 5 2 4v6h-20l3 5 1 1h6l3-2 5 1-1 4-4 3h-11l-5-3-3-5v-11l4-6z" fill="#D95317"/>
<path transform="translate(332,452)" d="m0 0 8 1 5 5 2 4v6h-20l3 5 1 1h6l3-2 5 1-1 4-4 3h-11l-5-3-3-5v-11l4-6z" fill="#D95317"/>
<path transform="translate(280,632)" d="m0 0 8 1 5 5v22h-6v-2l-3 2h-10l-4-3v-8l4-4 9-2h4l-2-4h-7l-2 2-5-1 1-4 4-3z" fill="#0B0B19"/>
<path transform="translate(696,572)" d="m0 0 8 1 5 5v22h-6v-2l-3 2h-10l-4-3v-8l4-4 9-2h4l-2-4h-7l-2 2-5-1 1-4 4-3z" fill="#0B0B19"/>
<path transform="translate(611,512)" d="m0 0 8 1 5 5v22h-6v-2l-3 2h-10l-4-3v-8l4-4 9-2h4l-2-4h-7l-2 2-5-1 1-4 4-3z" fill="#0B0B19"/>
<path transform="translate(631,572)" d="m0 0 8 1 6 5 1 2v8h-19l2 5 2 1h6l5-2 3 2-2 4-4 2h-10l-6-4-3-6v-7l3-6 5-4z" fill="#D95317"/>
<path transform="translate(775,452)" d="m0 0 8 1 6 5 1 2v8h-19l2 5 2 1h6l5-2 3 2-2 4-4 2h-10l-6-4-3-6v-7l3-6 5-4z" fill="#D95317"/>
<path transform="translate(367,572)" d="m0 0 8 1 6 5 1 3v7l-19 1 2 4 2 1h6l5-2 3 3-4 4-2 1h-11l-6-5-2-5v-8l4-6 4-3z" fill="#D95317"/>
<path transform="translate(1268,427)" d="m0 0 5 5 8 9 6 1h78l1-3 5-1 3 4-1 6-2 2-6-1-2-3-83-1v-2h-2v-2h-2v-2l-3-1-4-6-36-1-12-1 1-2z" fill="#FDFDFD"/>
<path transform="translate(539,452)" d="m0 0 8 1 5 5v22h-5v-2l-4 2h-10l-4-4v-7l4-4 13-2-2-4h-6l-3 2-5-1 2-5z" fill="#0A0A18"/>
<path transform="translate(1191,598)" d="m0 0h23l1 5-1 1h-18v9h13l1 4-1 3h-13v10h18l1 5h-24z" fill="#4D4C4C"/>
<path transform="translate(1147,598)" d="m0 0h18l6 7v31h-5l-1-31-5-1h-7l-1 32-4 1-1-1-1-34z" fill="#484747"/>
<path transform="translate(241,622)" d="m0 0h6l1 12 5-2 6 1 5 5v22h-6l-1-21h-7l-2 2-1 19h-6z" fill="#D95317"/>
<path transform="translate(292,442)" d="m0 0h6l1 12 5-2 6 1 5 5v22h-6l-1-21h-7l-2 2-1 19h-6z" fill="#D95317"/>
<path transform="translate(1365,598)" d="m0 0h18v2l4 2 2 3v31h-5l-1-29-1-3h-11l-1 32-5-1z" fill="#515050"/>
<path transform="translate(1234,598)" d="m0 0h5l1 9 5 4 4-2 3-3 1-8h5v9l-8 10 8 10v9h-5l-1-8-5-6-7 5-1 9h-5v-9l6-8h2l-3-6v-2l-4-2-1-1z" fill="#4E4D4D"/>
<path transform="translate(1245,404)" d="m0 0h43l1 3h2l5 7 3 3h19l3-3h5l3 4-1 6-7 1-3-3-20-1-11-12-37-1-19-1v-2z" fill="#FBFBFB"/>
<path transform="translate(1148,500)" d="m0 0 2 2v4l5 2 9 2-1 7-1 6 6 2-2 5-3 1 2 5 7 7v20l5 5 8-1 8-6 8-10 7-10 6-9 1 2-6 11-6 9-8 10-11 7h-9l-5-4-1-3v-19l-1-3-4-2-3-4v-7-3l-3-3 2-11-10-2-4-4 1-5z" fill="#1F0304"/>
<path transform="translate(636,452)" d="m0 0 7 1 5 6v21h-6l-1-18-3-3-6 1-1 2-1 18h-6v-27h6l1 2z" fill="#D95317"/>
<path transform="translate(455,512)" d="m0 0 7 1 4 4 1 3v20h-6l-1-18-3-3-6 1-1 2-1 18h-6v-27h6l1 2z" fill="#D95317"/>
<path transform="translate(642,512)" d="m0 0 7 1 5 5v22h-6l-1-19-2-2h-5l-2 2-1 19h-6v-27h5l1 2z" fill="#D95317"/>
<path transform="translate(266,573)" d="m0 0h6l1 18 3 3 6-1 1-3 1-17h6v27h-6l-1-2-3 2h-8l-5-4-1-3z" fill="#0C0C19"/>
<path transform="translate(413,513)" d="m0 0h6l1 19 3 2 5-1 1-1 1-19h6v27h-5v-2l-4 2h-9l-4-4-1-2z" fill="#0B0B19"/>
<path transform="translate(1244,422)" d="m0 0 8 1 5 1 6-2 3 1v2l6 2 10 12 15 1 29 1-2 2h-41l-7-6-4-5v-2l-4-2h-45l-7-1 2-2h8v-2z" fill="#5C1E0B"/>
<path transform="translate(523,572)" d="m0 0 8 1 5 4 1 3-3 2-4-1-2-2h-6l-3 3-1 6 3 5 6 1 4-3 6 1-2 5-5 3h-10l-6-4-3-6v-8l4-6 4-3z" fill="#0E0E1B"/>
<path transform="translate(307,572)" d="m0 0 8 1 5 4 1 3-3 2-4-1-2-2h-6l-3 3-1 6 3 5 6 1 4-3 6 1-2 5-5 3h-10l-6-4-3-6v-8l4-6 4-3z" fill="#0E0E1B"/>
<path transform="translate(337,572)" d="m0 0 8 1 6 5v3l-5 1-4-3-7 1-2 3v7l2 3 6 1 4-2 2-2 4 2-1 4-5 4h-11l-7-6-1-2v-11l4-6z" fill="#0A0A18"/>
<path transform="translate(395,572)" d="m0 0 8 1 5 6-5 2-5-3-4 1 1 3 10 4 3 4-1 7-4 3h-11l-5-4-1-3 5-2 1 3 7 1 2-1v-3l-11-4-3-5 1-6 4-3z" fill="#0E0E1B"/>
<path transform="translate(659,572)" d="m0 0 8 1 5 5-3 3-4-2-7-1 1 4 10 4 3 4-1 7-4 3h-10l-6-4-1-3 5-2 3 3 5 1 2-1v-3l-11-4-3-7 3-6z" fill="#0D0D1A"/>
<path transform="translate(248,572)" d="m0 0 8 1 5 5-3 3-4-2-7-1 1 4 10 4 3 4-1 7-4 3h-10l-6-4-1-3 5-2 3 3 5 1 2-1v-3l-11-4-3-7 3-6z" fill="#0D0D1A"/>
<path transform="translate(661,452)" d="m0 0 8 1 5 5-3 3-4-2-7-1 1 4 10 4 3 4-1 7-4 3h-10l-6-4-1-3 5-2 3 3 5 1 2-1v-3l-11-4-3-7 3-6z" fill="#0D0D1A"/>
<path transform="translate(557,512)" d="m0 0 7 1 5 4v3l-5 1v-2l-9-1 1 4 10 4 3 3v7l-5 4h-10l-6-5v-3l4-1 3 3 8 1-1-4-10-4-3-3v-7l4-4z" fill="#0B0B18"/>
<path transform="translate(421,572)" d="m0 0 7 1 5 4v3l-5 1v-2l-6-1-2 1v3l11 4 2 3v7l-4 4h-11l-6-5 1-3 4-1 3 3 7 1-1-4-10-4-3-4 1-7 3-3z" fill="#0A0A18"/>
<path transform="translate(447,452)" d="m0 0 7 1 5 4v3l-5 1v-2l-6-1-2 1v3l11 4 2 3v7l-4 4h-11l-6-5 1-3 4-1 3 3 7 1-1-4-10-4-3-4 1-7 3-3z" fill="#0A0A18"/>
<path transform="translate(1299,636)" d="m0 0 2 4h3v5h2l-1 5-2 2h-7l-2-1h-8l-8-4-1-5 3-3h6v-2z" fill="#0B021A"/>
<path transform="translate(1304,474)" d="m0 0 5 1 2 2v6l-3 3-5-1-2-3h-32l-9 11-3 3h-30l-8-2v-1l37-1 7-8 5-5 33-1z" fill="#F9F9F9"/>
<path transform="translate(527,346)" d="m0 0 1 3 5-3h6l5 4 1 2v7l-3 5-2 1h-8l-3-2-1 9h-2v-25z" fill="#FBFBFB"/>
<path transform="translate(273,526)" d="m0 0h6l3 6 3 2 6-1 3-3 1-4h6v6l-6 7-2 1h-10l-4-2v12h-6z" fill="#0D0D1B"/>
<path transform="translate(307,526)" d="m0 0h6l2 7 8 1 4-1 2-7h6l-1 7-5 6-2 1h-10l-4-2v12h-6z" fill="#0D0D1A"/>
<path transform="translate(465,466)" d="m0 0h6l2 7 8 1 4-1 2-7h6l-1 7-5 6-2 1h-10l-4-2v12h-6z" fill="#0D0D1A"/>
<path transform="translate(238,443)" d="m0 0h7l3 9 4 16 2-2h5l-2 11-1 3h-8l-8-29z" fill="#D95317"/>
<path transform="translate(1225,402)" d="m0 0h61l1 2-56 1v2h19l37 1 6 6-1 2-6-3-1-3h-62l-1-5z" fill="#1F0304"/>
<path transform="translate(572,338)" d="m0 0h1v23l-6 4h-6l-5-4-1-2v-7l6-6h6l3 2v2h2z" fill="#EBEBEB"/>
<path transform="translate(799,447)" d="m0 0h6v6h6v5h-6l1 15 5 2v5h-7l-5-4-1-17-4-1v-5l4-1z" fill="#D95317"/>
<path transform="translate(1315,504)" d="m0 0h27v2h-4v2l4 2-9 3v2l3 3-2 1v-2h-6v2l4 2-8 1 1-5-4-3-4 1v-2l-5 1 4-6h-2l-4 3 2-4z" fill="#0B021A"/>
<path transform="translate(348,627)" d="m0 0h6v6h7v5l-6 1v12l3 3 3 1v5h-7l-5-4-1-3v-15h-4v-5l4-1z" fill="#D95317"/>
<path transform="translate(395,507)" d="m0 0h6v6h7v5l-6 1v12l3 3 3 1v5h-7l-5-4-1-3v-15h-4v-5l4-1z" fill="#D95317"/>
<path transform="translate(488,507)" d="m0 0h6v6h6v5l-5 1v15l5 1v5h-7l-4-4-1-2-1-15-4-1v-5l4-2z" fill="#D95317"/>
<path transform="translate(561,447)" d="m0 0h6v6h6v5l-5 1v15l5 1v5h-7l-4-4-1-2-1-15-4-1v-5l4-2z" fill="#D95317"/>
<path transform="translate(345,398)" d="m0 0h7l2 1v2h2l1 3v9l-4 4h-8l-5-4-1-7 3-5z" fill="#F9F9F9"/>
<path transform="translate(767,346)" d="m0 0h7l2 1v2h2l1 3v9l-4 4h-8l-5-4-1-7 3-5z" fill="#F9F9F9"/>
<path transform="translate(336,346)" d="m0 0h7l2 1v2h2l1 3v9l-4 4h-8l-5-4-1-7 3-5z" fill="#F9F9F9"/>
<path transform="translate(1166,567)" d="m0 0 9 5 3-1 2 4-1 2 6-5 4-2 3 2-1 7 3 1-1 3-21 1-4-3-2-9-1-4z" fill="#0B021A"/>
<path transform="translate(1325,637)" d="m0 0h9l4 2 1 4 3-1-2 4-6 4-3-1-6-3-1 6h5l-1 4-4 3-4 1-2-2-6 1-2-1v-6l3-2 2 3 4 1v-2h2l1-8 3-5z" fill="#0B021A"/>
<path transform="translate(492,276)" d="m0 0h12l3 1v9h5v2h-17l-1-7-3 7h-3l-4-9h-5v2h5v2h-5v3h5v2h-8v-11h11l2 5 2-3z" fill="#F1F1F1"/>
<path transform="translate(659,526)" d="m0 0h6l3 6 3 2 7-1 3-7h6v14h-6v-2l-4 2h-10l-6-5-2-5z" fill="#0B0B19"/>
<path transform="translate(448,586)" d="m0 0h6l3 7 7 1 4-3 2-5h6l-1 7-5 6-2 1h-10l-4-2-1 2h-5z" fill="#0A0A18"/>
<path transform="translate(300,646)" d="m0 0h6l3 7 6 1 5-3 1-5h7l-1 6-4 6-4 2h-10l-3-2-1 2h-5z" fill="#0A0A18"/>
<path transform="translate(1324,470)" d="m0 0 5 3h57l16 1 1-4h8l3 2-1 3-1-2h-7l-2 3h-75l-4-4z" fill="#67220C"/>
<path transform="translate(1342,498)" d="m0 0h3l-2 4-30 1-7 7-2 3h-2l-2 4-69 1-12 1 14 1v1h-15l-1-4 10-1 71-1 5-4 5-9 2-2 31-1z" fill="#63311F"/>
<path transform="translate(328,277)" d="m0 0h8v2h-5v2h5v2h-5v3h6l1-5 2-4 4 1 2 6 1-7h8l1 1v5 3 2h-3l-1-4h-2v4h-6v-2h-5v2h-11z" fill="#F9F4F2"/>
<path transform="translate(187,40)" d="m0 0 4 1 8 11 1-12h4v22l-4-1-9-12-1 13h-3z" fill="#D95317"/>
<path transform="translate(318,518)" d="m0 0h6l5 5v6l-2 4-4 2-6-1-3-3-1-7 3-5z" fill="#FAFAFA"/>
<path transform="translate(476,458)" d="m0 0h6l5 5v6l-2 4-4 2-6-1-3-3-1-7 3-5z" fill="#FAFAFA"/>
<path transform="translate(254,39)" d="m0 0 6 2 3 3-1 2-4-1-1-1h-6l-3 3v8l4 3 6-1 2-4h-6v-3h10v6l-4 5-2 1h-8l-6-5-1-2v-8l4-6z" fill="#D95317"/>
<path transform="translate(284,518)" d="m0 0h6l5 5v7l-4 4-6 1-5-4-1-6 2-5z" fill="#FAFAFA"/>
<path transform="translate(373,513)" d="m0 0h6l1 2 2-2h6v5l-6 2-2 3-1 17h-6z" fill="#D95317"/>
<path transform="translate(459,578)" d="m0 0 7 1 3 3 1 6-3 5-3 2-7-1-3-4v-7z" fill="#FAFAFA"/>
<path transform="translate(671,518)" d="m0 0 7 1 3 4v7l-3 4-7 1-5-4-1-6 3-5z" fill="#FAFAFA"/>
<path transform="translate(1208,637)" d="m0 0h4l4 4v5l-3-1v2h-21l-3-3 1-5 6-1h11z" fill="#0C021B"/>
<path transform="translate(251,518)" d="m0 0h6l4 4 1 6-3 5-3 2-6-1-3-3-1-2v-6z" fill="#FAFAFA"/>
<path transform="translate(511,453)" d="m0 0h6l1 2 2-2h6v5l-7 2-1 2-1 18h-6z" fill="#D95317"/>
<path transform="translate(352,453)" d="m0 0h6l1 2 2-2h6v5l-7 2-1 2-1 18h-6z" fill="#D95317"/>
<path transform="translate(311,638)" d="m0 0 7 1 3 3v9l-3 3-6 1-5-3-1-2v-8z" fill="#FAFAFA"/>
<path transform="translate(553,578)" d="m0 0 7 1 3 3v9l-5 4-7-1-3-4v-7z" fill="#FAFAFA"/>
<path transform="translate(351,518)" d="m0 0 7 1 3 3v9l-5 4-7-1-3-4v-7z" fill="#FAFAFA"/>
<path transform="translate(602,458)" d="m0 0 7 1 3 3v9l-5 4-7-1-3-4v-7z" fill="#FAFAFA"/>
<path transform="translate(554,572)" d="m0 0 7 1 6 4 3 6v3h-7l-2-5-3-2-7 1-3 6h-6l1-7 5-5z" fill="#D95317"/>
<path transform="translate(352,512)" d="m0 0 7 1 6 4 3 6v3h-7l-2-5-3-2-7 1-3 6h-6l1-7 5-5z" fill="#D95317"/>
<path transform="translate(252,512)" d="m0 0 8 1 6 5 2 5v3h-6l-4-6-1-1h-6l-4 4-1 3h-6l1-7 7-6z" fill="#D95317"/>
<path transform="translate(603,452)" d="m0 0 7 1 6 4 3 6v3h-7l-2-5-3-2-7 1-3 6h-6l1-7 5-5z" fill="#D95317"/>
<path transform="translate(1284,603)" d="m0 0 4 1-1 6h-2l-1 10h4l1-3 2-3 2 1v4l4 1v10l-5 1-9-1-1-3 1-23z" fill="#070514"/>
<path transform="translate(370,466)" d="m0 0h26v2h-20l3 5 7 1 3-2 5 1v3l-5 4h-11l-7-6z" fill="#0A0A18"/>
<path transform="translate(481,586)" d="m0 0h26v2h-20l3 5 1 1h6l3-2 5 1-1 4-4 3h-11l-5-3-3-5z" fill="#0B0B19"/>
<path transform="translate(518,526)" d="m0 0h26v2h-20l3 5 1 1h6l3-2 5 1-1 4-4 3h-11l-5-3-3-5z" fill="#0B0B19"/>
<path transform="translate(734,466)" d="m0 0h26v2h-20l3 5 1 1h6l3-2 5 1-1 4-4 3h-11l-5-3-3-5z" fill="#0B0B19"/>
<path transform="translate(321,466)" d="m0 0h26v2h-20l3 5 1 1h6l3-2 5 1-1 4-4 3h-11l-5-3-3-5z" fill="#0B0B19"/>
<path transform="translate(620,586)" d="m0 0h26v2h-19l2 5 2 1h6l5-2 3 2-2 4-4 2h-10l-6-4-3-6z" fill="#0A0A18"/>
<path transform="translate(356,586)" d="m0 0h26v2l-19 1 2 4 2 1h6l5-2 3 3-4 4-2 1h-11l-6-5-2-5z" fill="#0B0B19"/>
<path transform="translate(764,466)" d="m0 0h26v2h-19l2 5 2 1h6l5-2 3 2-2 4-4 2h-10l-6-4-3-6z" fill="#0A0A18"/>
<path transform="translate(705,348)" d="m0 0h8l4 5-1 7-4 4h-6l-4-5v-6z" fill="#FDFDFD"/>
<path transform="translate(396,348)" d="m0 0h8l4 5-1 7-4 4h-6l-4-5v-6z" fill="#FDFDFD"/>
<path transform="translate(508,348)" d="m0 0h8l3 3 1 6-3 6-2 1h-6l-4-5v-7z" fill="#FDFDFD"/>
<path transform="translate(1308,511)" d="m0 0 2 1-9 11-5 1-77-1v-2l53-1h30l2-4z" fill="#2E0A06"/>
<path transform="translate(1234,511)" d="m0 0h13l6 1h5v-1h14l1 2 4 1 21 1v1h-33l-37-1 3-1 1-2z" fill="#080001"/>
<path transform="translate(1252,369)" d="m0 0h7l-4 2-11 4-8 5h-2v2h-3l-1 3-3 1-2-2 1-2h-3l1-5 8-4 11-3z" fill="#FCFCFC"/>
<path transform="translate(280,632)" d="m0 0 8 1 5 5v8h-19l3-2 10-1-2-4h-7l-2 2-5-1 1-4 4-3z" fill="#D95317"/>
<path transform="translate(696,572)" d="m0 0 8 1 5 5v8h-19l3-2 10-1-2-4h-7l-2 2-5-1 1-4 4-3z" fill="#D95317"/>
<path transform="translate(611,512)" d="m0 0 8 1 5 5v8h-19l3-2 10-1-2-4h-7l-2 2-5-1 1-4 4-3z" fill="#D95317"/>
<path transform="translate(539,452)" d="m0 0 8 1 5 5v8h-19l4-2 9-1-2-4h-6l-3 2-5-1 2-5z" fill="#D95317"/>
<path transform="translate(420,452)" d="m0 0 7 1 5 4 1 9h-19l3-2 10-1-2-4h-7l-2 2-5-1 1-4 4-3z" fill="#D95317"/>
<path transform="translate(1239,453)" d="m0 0h6l3 3-2 7h-15l-3-2-1-3-6-1-7-1v-2l15 1z" fill="#0B021A"/>
<path transform="translate(339,46)" d="m0 0h8l4 4v5h-12l2 3h5l2-1 2 1-1 3-2 1h-7l-5-5v-6z" fill="#352B32"/>
<path transform="translate(271,46)" d="m0 0h8l3 3 1 6h-12l2 3 7-1 2 2-3 3h-7l-5-5v-7z" fill="#DD6834"/>
<path transform="translate(212,46)" d="m0 0h8l3 3 1 6h-12l2 3 7-1 2 2-3 3h-7l-5-5v-7z" fill="#DD6834"/>
<path transform="translate(523,572)" d="m0 0 8 1 5 4 1 3-3 2-4-1-2-2h-6l-3 3-2 4h-6l1-6 5-6z" fill="#D95317"/>
<path transform="translate(307,572)" d="m0 0 8 1 5 4 1 3-3 2-4-1-2-2h-6l-3 3-2 4h-6l1-6 5-6z" fill="#D95317"/>
<path transform="translate(337,572)" d="m0 0 8 1 6 5v3l-5 1-4-3-7 1-3 6h-6l1-7 5-5z" fill="#D95317"/>
<path transform="translate(1237,378)" d="m0 0 2 1-6 7-11 15-5 13-3 9-1 1-3 19h-2v-9l4-17 5-12 7-12 2-4 3-3 2-4h3v-2z" fill="#1F0304"/>
<path transform="translate(1304,472)" d="m0 0h6l3 3v10l-2 2h-6l5-4v-6l-2-2-4-1-2 4-1 1-33 1-4 1 1-4 4-1 34-1z" fill="#5B1D0A"/>
<path transform="translate(585,346)" d="m0 0h6l2 1v2h2v7h-14l3 6 7 1h2v2h-9l-5-5v-8l4-5z" fill="#7C7674"/>
<path transform="translate(333,633)" d="m0 0h6v27h-6z" fill="#0F0F1C"/>
<path transform="translate(421,572)" d="m0 0 7 1 5 4v3l-5 1v-2l-6-1-2 1v3l9 3v1h-14l-2-3 1-7 3-3z" fill="#D95317"/>
<path transform="translate(395,572)" d="m0 0 8 1 5 6-5 2-5-3-4 1 1 3 8 3v1h-14l-2-4 1-6 4-3z" fill="#D95317"/>
<path transform="translate(506,513)" d="m0 0h6v27h-6z" fill="#0F0F1C"/>
<path transform="translate(473,513)" d="m0 0h6v27h-6z" fill="#0F0F1C"/>
<path transform="translate(557,512)" d="m0 0 7 1 5 4v3l-5 1v-2l-9-1 1 4 9 3v1h-14l-2-2v-7l4-4z" fill="#D95317"/>
<path transform="translate(579,453)" d="m0 0h6v27h-6z" fill="#0F0F1C"/>
<path transform="translate(499,453)" d="m0 0h6v27h-6z" fill="#0F0F1C"/>
<path transform="translate(447,452)" d="m0 0 7 1 5 4v3l-5 1v-2l-6-1-2 1v3l9 3v1h-14l-2-3 1-7 3-3z" fill="#D95317"/>
<path transform="translate(659,572)" d="m0 0 8 1 5 5-3 3-4-2-7-1 1 4 8 3v1h-14l-2-6 3-6z" fill="#D95317"/>
<path transform="translate(248,572)" d="m0 0 8 1 5 5-3 3-4-2-7-1 1 4 8 3v1h-14l-2-6 3-6z" fill="#D95317"/>
<path transform="translate(661,452)" d="m0 0 8 1 5 5-3 3-4-2-7-1 1 4 8 3v1h-14l-2-6 3-6z" fill="#D95317"/>
<path transform="translate(389,277)" d="m0 0h8l1 5-1 2 1 2 4-9h4l3 11h-3v-2l-5 2h-6l-1-4h-2v4h-3z" fill="#EDDFD8"/>
<path transform="translate(373,39)" d="m0 0h3l1 7h7l3 3v13h-4l-1-12-5 1-1 11h-3z" fill="#180D15"/>
<path transform="translate(281,443)" d="m0 0h7l-6 23h-7l5-22z" fill="#D95317"/>
<path transform="translate(267,466)" d="m0 0h5l2 2 1-2h6l-1 8-2 6h-8l-3-11z" fill="#0C0C1A"/>
<path transform="translate(245,466)" d="m0 0h6l1 2 2-2h5l-2 11-1 3h-8l-3-10z" fill="#0C0C1A"/>
<path transform="translate(1236,369)" d="m0 0m-3 1 6 1-3 2-7 2-7 1-9 4-6 2-1 2-9 6-9 8-2-1 6-7h2l2-4 20-11 10-4z" fill="#1F0405"/>
<path transform="translate(418,398)" d="m0 0h6l5 4 1 6h-17l-1 2v-6l5-5z" fill="#C4C2C1"/>
<path transform="translate(440,346)" d="m0 0h6l5 4 1 6h-17l-1 2v-6l5-5z" fill="#C4C2C1"/>
<path transform="translate(1328,480)" d="m0 0 59 1v2l-32 1h-25v-2h-2z" fill="#0D0101"/>
<path transform="translate(260,759)" d="m0 0h4v4h6l3 5-2 5-1 1h-10z" fill="#F5F5F5"/>
<path transform="translate(1268,426)" d="m0 0 4 1 10 12 15 1 29 1-2 2h-41l-7-6-4-5v-2l-3-1z" fill="#64220C"/>
<path transform="translate(1293,614)" d="m0 0h8l1 1v21l-4 1-20-1 1-2 20 1-1-7h-1v-8l-5-1z" fill="#3F3E3E"/>
<path transform="translate(527,346)" d="m0 0 1 3 5-3h6l5 4 1 2v7l-3 5-2 1h-8l-3-2-1 9h-2v-25zm6 2-3 2v2h-2v8l6 4 6-1 3-4v-7l-4-4z" fill="#9D6B55"/>
<path transform="translate(286,46)" d="m0 0h12l2 3v13h-3l-1-11-5-1-1 12h-4z" fill="#D95317"/>
<path transform="translate(1214,456)" d="m0 0h11l3 2v3l7 2v1h-23z" fill="#040412"/>
<path transform="translate(1315,465)" d="m0 0 1 2h2l7 8 2 3 9 1 68 1v1h-78l-7-7-5-6z" fill="#5F4133"/>
<path transform="translate(358,46)" d="m0 0h8l3 3-1 2-8-1-1 1v6l5 1 3-2 2 1-2 4-1 1h-8l-4-4v-8z" fill="#1F1016"/>
<path transform="translate(320,40)" d="m0 0h16v3h-6v19h-4v-19h-6z" fill="#2A1212"/>
<path transform="translate(226,46)" d="m0 0 5 1 1 2h2l2-3h4l-4 8 4 6v2h-4l-2-5h-2l-2 5h-5l5-9-4-5z" fill="#D95317"/>
<path transform="translate(250,759)" d="m0 0h5l4 12v3h-3l-1-2h-5l-1 2-4-1z" fill="#F8EFEB"/>
<path transform="translate(1315,504)" d="m0 0h27v2l-5 2-10 1-3 3-6-2-4 1 3-4-4 2-3 2 2-4z" fill="#4B2219"/>
<path transform="translate(1291,407)" d="m0 0 4 1 4 3 2 4h15l3-3h9l2 3v7l-2 1-1-7-1-1h-5l-3 3h-19l-1-3-3-1-4-5z" fill="#22090A"/>
<path transform="translate(1269,481)" d="m0 0h32l2 4h2v2l-4-1-2-1h-24l-9 3-4 3 2-4z" fill="#44160B"/>
<path transform="translate(1223,415)" d="m0 0 5 1 4 1 6-1 14 1-3 1-1 3h-25z" fill="#0C021B"/>
<path transform="translate(517,276)" d="m0 0 6 2 1 7-3 3h-6l-3-3 1-7z" fill="#eee"/>
<path transform="translate(276,763)" d="m0 0h7l3 4-1 5-2 2h-7l-2-2v-7z" fill="#F3D5C7"/>
<path transform="translate(348,646)" d="m0 0h6l2 7 5 2v5h-7l-5-4-1-3z" fill="#0E0E1B"/>
<path transform="translate(395,526)" d="m0 0h6l2 7 5 2v5h-7l-5-4-1-3z" fill="#0E0E1B"/>
<path transform="translate(1296,456)" d="m0 0 19 1v2l4 2 5 5-1 4-8-8-1-2-51-1v-1l31-1z" fill="#3E2722"/>
<path transform="translate(799,466)" d="m0 0h6l1 7 5 2v5h-7l-5-4z" fill="#0F0E1B"/>
<path transform="translate(1259,661)" d="m0 0h10v2h-9l1 6 6 1v2h-6v4h9v4h-12v-16z" fill="#8F8F8F"/>
<path transform="translate(488,526)" d="m0 0h6l1 8 5 1v5h-7l-4-4-1-2z" fill="#0C0C1A"/>
<path transform="translate(561,466)" d="m0 0h6l1 8 5 1v5h-7l-4-4-1-2z" fill="#0C0C1A"/>
<path transform="translate(1214,427)" d="m0 0h9l-1 2 28 2v1l-15 1-10 1-12-2z" fill="#230708"/>
<path transform="translate(516,763)" d="m0 0h5l3 3v5l-3 3-7-1-1-1v-7z" fill="#31170D"/>
<path transform="translate(311,759)" d="m0 0h3l1 11 2 1 2-1 1-11h3v12l-3 3h-7l-2-2z" fill="#FCFCFC"/>
<path transform="translate(465,277)" d="m0 0h7l3 3v5l-3 3h-7z" fill="#eee"/>
<path transform="translate(1288,604)" d="m0 0h5v10h-2l-3 6h-4l1-10h2z" fill="#0B021A"/>
<path transform="translate(1550,45)" d="m0 0h2v4l4-1 4 4-1 5-7 1h-2z" fill="#8D807C"/>
<path transform="translate(1365,437)" d="m0 0h6l-3 2-3 3h-39l2-2 35-1z" fill="#2D0C09"/>
<path transform="translate(492,276)" d="m0 0h12l3 1v9h5v2h-8v-2h-6v-3h5v-2h-5v-2h5v-2h-11z" fill="#49241A"/>
<path transform="translate(1234,511)" d="m0 0h13l10 2 1 2h-30l3-1 1-2z" fill="#000001"/>
<path transform="translate(258,646)" d="m0 0h6v14h-6z" fill="#0F0F1C"/>
<path transform="translate(241,646)" d="m0 0h6v14h-6z" fill="#0F0F1C"/>
<path transform="translate(609,586)" d="m0 0h6v14h-6z" fill="#0F0F1C"/>
<path transform="translate(592,586)" d="m0 0h6v14h-6z" fill="#0F0F1C"/>
<path transform="translate(575,586)" d="m0 0h6v14h-6z" fill="#0F0F1C"/>
<path transform="translate(648,526)" d="m0 0h6v14h-6z" fill="#0F0F1C"/>
<path transform="translate(631,526)" d="m0 0h6v14h-6z" fill="#0F0F1C"/>
<path transform="translate(461,526)" d="m0 0h6v14h-6z" fill="#0F0F1C"/>
<path transform="translate(443,526)" d="m0 0h6v14h-6z" fill="#0F0F1C"/>
<path transform="translate(373,526)" d="m0 0h6v14h-6z" fill="#0F0F1C"/>
<path transform="translate(723,466)" d="m0 0h6v14h-6z" fill="#0F0F1C"/>
<path transform="translate(706,466)" d="m0 0h6v14h-6z" fill="#0F0F1C"/>
<path transform="translate(689,466)" d="m0 0h6v14h-6z" fill="#0F0F1C"/>
<path transform="translate(642,466)" d="m0 0h6v14h-6z" fill="#0F0F1C"/>
<path transform="translate(624,466)" d="m0 0h6v14h-6z" fill="#0F0F1C"/>
<path transform="translate(511,466)" d="m0 0h6v14h-6z" fill="#0F0F1C"/>
<path transform="translate(352,466)" d="m0 0h6v14h-6z" fill="#0F0F1C"/>
<path transform="translate(309,466)" d="m0 0h6v14h-6z" fill="#0F0F1C"/>
<path transform="translate(292,466)" d="m0 0h6v14h-6z" fill="#0F0F1C"/>
<path transform="translate(1239,403)" d="m0 0h48v1l-56 1v2l-7 1 1-4z" fill="#D95317"/>
<path transform="translate(347,277)" d="m0 0h8l1 1v5 3 2h-3l-1-4h-2v4h-3z" fill="#EDDFD8"/>
<path transform="translate(1285,656)" d="m0 0h8l-4 3-7 2-10 1-3 1v-2h-10l-1 3v-4l12-1 2-1z" fill="#160E21"/>
<path transform="translate(345,398)" d="m0 0h7l2 1v2h-9l-3 5-1 6h2v2l9 1 3-4 1-7h1v9l-4 4h-8l-5-4-1-7 3-5z" fill="#84807F"/>
<path transform="translate(767,346)" d="m0 0h7l2 1v2h-9l-3 5-1 6h2v2l9 1 3-4 1-7h1v9l-4 4h-8l-5-4-1-7 3-5z" fill="#84807F"/>
<path transform="translate(336,346)" d="m0 0h7l2 1v2h-9l-3 5-1 6h2v2l9 1 3-4 1-7h1v9l-4 4h-8l-5-4-1-7 3-5z" fill="#84807F"/>
<path transform="translate(333,633)" d="m0 0h6v13h-6z" fill="#D95317"/>
<path transform="translate(284,573)" d="m0 0h6v13h-6z" fill="#D95317"/>
<path transform="translate(266,573)" d="m0 0h6v13h-6z" fill="#D95317"/>
<path transform="translate(506,513)" d="m0 0h6v13h-6z" fill="#D95317"/>
<path transform="translate(473,513)" d="m0 0h6v13h-6z" fill="#D95317"/>
<path transform="translate(430,513)" d="m0 0h6v13h-6z" fill="#D95317"/>
<path transform="translate(413,513)" d="m0 0h6v13h-6z" fill="#D95317"/>
<path transform="translate(1262,457)" d="m0 0h32v1h-31l-2 4-3 4h-14l1-2 10-1 4-3h2z" fill="#2A0A07"/>
<path transform="translate(579,453)" d="m0 0h6v13h-6z" fill="#D95317"/>
<path transform="translate(499,453)" d="m0 0h6v13h-6z" fill="#D95317"/>
<path transform="translate(1372,438)" d="m0 0 3 1 2 8-7 5-10-3-12-1 1-2h15l1 3h6l2-3z" fill="#42190F"/>
<path transform="translate(823,348)" d="m0 0h7l3 4v3h-13l1-5z" fill="#FDFDFD"/>
<path transform="translate(585,348)" d="m0 0h6l3 3v4h-13l1-5z" fill="#FDFDFD"/>
<path transform="translate(1464,48)" d="m0 0 5 2 1 5-3 3h-5l-2-2v-5z" fill="#2F140E"/>
<path transform="translate(1541,45)" d="m0 0h3l4 10v3l-3-1v-2l-5 1-1 2h-2l2-9z" fill="#63463E"/>
<path transform="translate(502,759)" d="m0 0h6l3 4-8-1-2 2v7h6l4-1-3 4h-6l-4-3-1-6 3-5z" fill="#2B160E"/>
<path transform="translate(420,277)" d="m0 0h12v11h-3l-1-9h-2v9h-3v-9h-3z" fill="#ECECEC"/>
<path transform="translate(1652,48)" d="m0 0 5 2 1 5-2 3-7-1-1-6z" fill="#2B120D"/>
<path transform="translate(1565,48)" d="m0 0 5 2 1 5-2 3-7-1-1-6z" fill="#2B120D"/>
<path transform="translate(1392,48)" d="m0 0 5 2 1 5-2 3-7-1-1-6z" fill="#2B120D"/>
<path transform="translate(558,763)" d="m0 0h5l3 4v2h-8l1 2h6v2l-7 1-3-4 1-5z" fill="#3B2E28"/>
<path transform="translate(326,763)" d="m0 0h6l2 3-2 1 2 5-1 2h-7l-2-3h4 2l-5-3z" fill="#F9F0EC"/>
<path transform="translate(1237,378)" d="m0 0 2 1-6 7-11 15-2 4h-2l2-6 5-7 1-3 3-3 2-4h3v-2z" fill="#1F0304"/>
<path transform="translate(287,763)" d="m0 0h3l1 8h2l1-8h3v11h-9l-1-1z" fill="#FEFEFE"/>
<path transform="translate(1238,407)" d="m0 0 49 1 6 6-1 2-6-3-1-3-37-1-10-1z" fill="#5F3727"/>
<path transform="translate(670,355)" d="m0 0h2l-1 7-3 2-6-1-1-4 2-3z" fill="#FDFDFD"/>
<path transform="translate(1240,499)" d="m0 0h15l-3 4h-18l-4-2z" fill="#0C021B"/>
<path transform="translate(909,841)" d="m0 0 5 1 2 4-2 4-5 1-3-3 1-5z" fill="#0D0C0C"/>
<path transform="translate(909,764)" d="m0 0 5 1 2 4-2 4-5 1-3-3 1-5z" fill="#0D0C0C"/>
<path transform="translate(1629,468)" d="m0 0 5 1 2 4-2 4-5 1-3-3 1-5z" fill="#0D0C0C"/>
<path transform="translate(928,841)" d="m0 0 5 1 2 5-4 4-4-1-2-5z" fill="#0D0D0D"/>
<path transform="translate(928,803)" d="m0 0h5l2 3-1 5-1 1h-5l-3-3 1-5z" fill="#0A0A0A"/>
<path transform="translate(929,783)" d="m0 0 5 2 1 5-3 3-5-1-2-2 1-5z" fill="#0D0C0C"/>
<path transform="translate(928,764)" d="m0 0 5 1 2 5-4 4-4-1-2-5z" fill="#0D0D0D"/>
<path transform="translate(928,726)" d="m0 0h5l2 3-1 5-1 1h-5l-3-3 1-5z" fill="#0B0A0A"/>
<path transform="translate(909,687)" d="m0 0 5 1 2 4-2 4-5 1-3-3 1-5z" fill="#0C0B0B"/>
<path transform="translate(1648,507)" d="m0 0h5l2 3-1 5-1 1h-5l-3-3 1-5z" fill="#0A0A0A"/>
<path transform="translate(1649,487)" d="m0 0 5 2 1 5-3 3-5-1-2-2 1-5z" fill="#0D0C0C"/>
<path transform="translate(1648,468)" d="m0 0 5 1 2 5-4 4-4-1-2-5z" fill="#0D0D0D"/>
<path transform="translate(1648,430)" d="m0 0h5l2 3-1 5-1 1h-5l-3-3 1-5z" fill="#0B0A0A"/>
<path transform="translate(1629,391)" d="m0 0 5 1 2 4-2 4-5 1-3-3 1-5z" fill="#0C0B0B"/>
<path transform="translate(909,783)" d="m0 0 6 2v6l-3 2-5-1-1-6z" fill="#0B0A0A"/>
<path transform="translate(1629,487)" d="m0 0 6 2v6l-3 2-5-1-1-6z" fill="#0B0A0A"/>
<path transform="translate(928,822)" d="m0 0 5 1 2 5-2 3-7-1-1-5z" fill="#0A0909"/>
<path transform="translate(909,822)" d="m0 0 5 1 1 1v6l-1 1h-6l-2-2 1-6z" fill="#090707"/>
<path transform="translate(928,745)" d="m0 0 5 1 2 5-2 3-7-1-1-5z" fill="#0A0909"/>
<path transform="translate(909,745)" d="m0 0 5 1 1 1v6l-1 1h-6l-2-2 1-6z" fill="#090707"/>
<path transform="translate(962,725)" d="m0 0 5 1 1 1v6l-5 2-4-3 1-5z" fill="#D95317"/>
<path transform="translate(928,707)" d="m0 0h5l2 3-1 4-2 2-5-1-2-2 1-5z" fill="#0A0808"/>
<path transform="translate(929,687)" d="m0 0 5 2 1 5-4 3-5-2-1-4z" fill="#0D0C0C"/>
<path transform="translate(928,668)" d="m0 0 5 1 2 3-1 4-1 1-7-1-1-5z" fill="#0B0909"/>
<path transform="translate(1629,545)" d="m0 0 5 1 2 4-2 4h-6l-2-2 1-5z" fill="#0B0A0A"/>
<path transform="translate(1648,526)" d="m0 0 5 1 2 5-2 3-7-1-1-5z" fill="#0A0909"/>
<path transform="translate(1629,526)" d="m0 0 5 1 1 1v6l-1 1h-6l-2-2 1-6z" fill="#090707"/>
<path transform="translate(1648,449)" d="m0 0 5 1 2 5-2 3-7-1-1-5z" fill="#0A0909"/>
<path transform="translate(1629,449)" d="m0 0 5 1 1 1v6l-1 1h-6l-2-2 1-6z" fill="#090707"/>
<path transform="translate(1577,428)" d="m0 0 5 1 1 1v6l-5 2-4-3 1-5z" fill="#D95317"/>
<path transform="translate(1648,411)" d="m0 0h5l2 3-1 4-2 2-5-1-2-2 1-5z" fill="#0A0808"/>
<path transform="translate(1649,391)" d="m0 0 5 2 1 5-4 3-5-2-1-4z" fill="#0D0C0C"/>
<path transform="translate(1648,372)" d="m0 0 5 1 2 3-1 4-1 1-7-1-1-5z" fill="#0B0909"/>
<path transform="translate(357,277)" d="m0 0 4 1 4 4v-5h2v11l-4-2-2-3-1 5h-2z" fill="#F6F6F6"/>
<path transform="translate(1594,45)" d="m0 0h2l1 10h3l1-10h3v10l-3 3h-5l-2-2z" fill="#2F120D"/>
<path transform="translate(908,707)" d="m0 0 7 1v6l-2 2-6-1-1-6z" fill="#080707"/>
<path transform="translate(909,668)" d="m0 0 5 1 1 1v6l-1 1h-6l-2-2 1-5z" fill="#090909"/>
<path transform="translate(982,648)" d="m0 0 5 2 1 4-4 4-5-2-1-4z" fill="#D95317"/>
<path transform="translate(963,648)" d="m0 0 5 2v6l-5 2-4-3 1-5z" fill="#D95317"/>
<path transform="translate(1648,545)" d="m0 0 5 1 2 5-2 3h-6l-2-5z" fill="#0B0B0B"/>
<path transform="translate(1250,431)" d="m0 0h19l5 7h-3l-6-4h-8l-5 1z" fill="#300C08"/>
<path transform="translate(1628,411)" d="m0 0 7 1v6l-2 2-6-1-1-6z" fill="#080707"/>
<path transform="translate(1629,372)" d="m0 0 5 1 1 1v6l-1 1h-6l-2-2 1-5z" fill="#090909"/>
<path transform="translate(1578,351)" d="m0 0 5 2v6l-5 2-4-3 1-5z" fill="#D95317"/>
<path transform="translate(402,277)" d="m0 0h4l3 11h-3v-2l-7 2 2-9z" fill="#F4F4F4"/>
<path transform="translate(1404,48)" d="m0 0h8l2 2v8h-2v-8l-3 1-1 7h-2l-1-7h-2l-1 7h-2v-9z" fill="#190908"/>
<path transform="translate(962,802)" d="m0 0 5 1 1 1v6l-1 1h-6l-2-2 1-5z" fill="#D95317"/>
<path transform="translate(980,745)" d="m0 0h6l2 5-4 4-4-1-2-5z" fill="#D95317"/>
<path transform="translate(982,725)" d="m0 0 5 2 1 4-4 4-5-2-1-4z" fill="#D95317"/>
<path transform="translate(981,706)" d="m0 0 5 1 2 5-2 3-7-1-1-5z" fill="#D95317"/>
<path transform="translate(981,629)" d="m0 0 5 1 2 5-2 3-7-1-1-4z" fill="#D95317"/>
<path transform="translate(578,533)" d="m0 0h6v8l-3 5-4 1v-3l3-3-2-1z" fill="#0E0D1B"/>
<path transform="translate(1577,505)" d="m0 0 5 1 1 1v6l-1 1h-6l-2-2 1-5z" fill="#D95317"/>
<path transform="translate(1255,491)" d="m0 0 1 2-34 1 5 1v1h-12l-2-3 3-1z" fill="#D95317"/>
<path transform="translate(908,803)" d="m0 0h5l2 2v5l-2 2-6-1-1-5z" fill="#060606"/>
<path transform="translate(981,783)" d="m0 0 5 1 2 4-2 4-7-1-1-5z" fill="#D95317"/>
<path transform="translate(962,783)" d="m0 0 5 1 1 1v5l-2 2h-5l-2-3 1-5z" fill="#D95317"/>
<path transform="translate(909,726)" d="m0 0 5 1 1 1v5l-2 2-6-1-1-6z" fill="#060505"/>
<path transform="translate(962,706)" d="m0 0 5 1 1 1v5l-2 2h-5l-2-3 1-5z" fill="#D95317"/>
<path transform="translate(981,668)" d="m0 0 6 1 1 4-3 4-5-1-2-5z" fill="#D95317"/>
<path transform="translate(1628,507)" d="m0 0h5l2 2v5l-2 2-6-1-1-5z" fill="#060606"/>
<path transform="translate(1577,486)" d="m0 0 5 1 1 1v5l-2 2h-5l-2-3 1-5z" fill="#D95317"/>
<path transform="translate(421,468)" d="m0 0h6l-2 6-4 2-5-1v-5z" fill="#F1F1F1"/>
<path transform="translate(1213,466)" d="m0 0h44v1l-35 1-2 2-7 1-1-4z" fill="#413C3A"/>
<path transform="translate(1629,430)" d="m0 0 5 1 1 1v5l-2 2-6-1-1-6z" fill="#060505"/>
<path transform="translate(1577,409)" d="m0 0 5 1 1 1v5l-2 2h-5l-2-3 1-5z" fill="#D95317"/>
<path transform="translate(1597,351)" d="m0 0 5 2v6l-5 2-4-4 2-5z" fill="#D95317"/>
<path transform="translate(982,802)" d="m0 0 5 2 1 4-2 3h-6l-2-5z" fill="#D95317"/>
<path transform="translate(962,764)" d="m0 0 5 1 1 1v5l-2 2-6-1-1-5z" fill="#D95317"/>
<path transform="translate(962,687)" d="m0 0 5 1 1 1v5l-2 2-6-1-1-5z" fill="#D95317"/>
<path transform="translate(961,668)" d="m0 0h5l2 2v5l-3 2-4-1-2-2 1-5z" fill="#D95317"/>
<path transform="translate(282,648)" d="m0 0h5l-1 5-4 3-5-1-1-4 2-2z" fill="#F0F0F0"/>
<path transform="translate(962,629)" d="m0 0 5 1 1 1v5l-2 2h-5l-2-2 1-5z" fill="#D95317"/>
<path transform="translate(698,588)" d="m0 0h5l-1 5-4 3-5-1-1-4 2-2z" fill="#F0F0F0"/>
<path transform="translate(613,528)" d="m0 0h5l-1 5-4 3-5-1-1-4 2-2z" fill="#F0F0F0"/>
<path transform="translate(1596,486)" d="m0 0 5 1 1 1v6l-1 1-7-1-1-5z" fill="#D95317"/>
<path transform="translate(541,468)" d="m0 0h5l-1 5-4 3-5-1-1-4 2-2z" fill="#F2F2F2"/>
<path transform="translate(1577,467)" d="m0 0 5 1 1 1v5l-2 2-6-1-1-5z" fill="#D95317"/>
<path transform="translate(1595,448)" d="m0 0h6l1 1v6l-3 2-4-1-2-5z" fill="#D95317"/>
<path transform="translate(1597,428)" d="m0 0 5 2v6l-5 2-3-2-1-4z" fill="#D95317"/>
<path transform="translate(1596,409)" d="m0 0 5 1 1 1v6l-1 1-7-1-1-5z" fill="#D95317"/>
<path transform="translate(1577,390)" d="m0 0 5 1 1 1v5l-2 2-6-1-1-5z" fill="#D95317"/>
<path transform="translate(1576,371)" d="m0 0h5l2 2v5l-3 2-4-1-2-2 1-5z" fill="#D95317"/>
<path transform="translate(1596,332)" d="m0 0 5 1 1 1v6l-1 1-7-1-1-4z" fill="#D95317"/>
<path transform="translate(1577,332)" d="m0 0 5 1 1 1v5l-2 2h-5l-2-2 1-5z" fill="#D95317"/>
<path transform="translate(981,764)" d="m0 0 5 1 2 4-3 4-5-1-2-5z" fill="#D95317"/>
<path transform="translate(961,745)" d="m0 0h5l2 2v5l-3 2-4-1-2-2 1-5z" fill="#D95317"/>
<path transform="translate(981,687)" d="m0 0 5 1 2 4-3 4-5-1-2-5z" fill="#D95317"/>
<path transform="translate(1331,662)" d="m0 0h2l1 7h7l-1-7h2v16h-1l-1-6-7-1v7h-2z" fill="#C1C1C1"/>
<path transform="translate(1576,448)" d="m0 0h5l2 2v5l-3 2-4-1-2-2 1-5z" fill="#D95317"/>
<path transform="translate(1596,371)" d="m0 0 6 1v6l-2 2-5-1-2-5z" fill="#D95317"/>
<path transform="translate(541,349)" d="m0 0 3 1 1 2v7l-3 5-2 1h-8l-3-2-1 9h-1v-11l3-1 4 3 6-1 2-3v-7z" fill="#939393"/>
<path transform="translate(1376,45)" d="m0 0h2v6h6v-6h2v13h-2v-5h-6v5h-2z" fill="#582109"/>
<path transform="translate(300,760)" d="m0 0h3v3h3l-1 3h-2l1 5 2 1v2h-5l-1-1v-7h-2l1-4z" fill="#FCFCFC"/>
<path transform="translate(1597,505)" d="m0 0 5 2v6l-1 1h-6l-2-5z" fill="#D95317"/>
<path transform="translate(1596,467)" d="m0 0 5 1 1 1v5l-2 2-5-1-2-5z" fill="#D95317"/>
<path transform="translate(1596,390)" d="m0 0 5 1 1 1v5l-2 2-5-1-2-5z" fill="#D95317"/>
<path transform="translate(445,277)" d="m0 0h8v2h-5v2h5v2h-5v3h5v2h-8z" fill="#F3F3F3"/>
<path transform="translate(1234,598)" d="m0 0h5l1 9 1 2h-2v2l-4-2-1-1z" fill="#787878"/>
<path transform="translate(823,346)" d="m0 0h6l1 2-7 1-2 2-1 4h13l1-3v4l-14 1 1 6-3-3-1-6 3-5z" fill="#7B7471"/>
<path transform="translate(525,277)" d="m0 0h8l1 5-2 2h-4v4h-2z" fill="#D3D1D3"/>
<path transform="translate(1419,48)" d="m0 0 5 2 1 4-3 1h2l-1 3h-5l-2-2v-6z" fill="#463532"/>
<path transform="translate(1501,48)" d="m0 0 5 2v4h-6v2l5-1 1 2-7 1-2-3 1-5z" fill="#463531"/>
<path transform="translate(1223,405)" d="m0 0 2 2h13l10 1v1l-6 1h-19l-1-4z" fill="#240D0E"/>
<path transform="translate(380,277)" d="m0 0h7l1 1v5l-6 1v4h-2z" fill="#F3DFD6"/>
<path transform="translate(1315,465)" d="m0 0 1 2h2l7 8 2 3 9 1 1 2h-11l-7-7-5-6z" fill="#672712"/>
<path transform="translate(1450,45)" d="m0 0h6l2 4-7-1-1 1v5l5 1 3-1-2 4h-6l-3-3v-7z" fill="#1E100F"/>
<path transform="translate(320,391)" d="m0 0h8v1l-9 2-3 4-1 8 3 7 1 2-4-2-3-6 1-9 5-6z" fill="#A7968E"/>
<path transform="translate(1291,407)" d="m0 0 4 1 4 3 3 5 15 1v1h-18l-1-3-3-1-4-5z" fill="#672711"/>
<path transform="translate(861,338)" d="m0 0h2l1 9 7-1 1 2-7 2-3 1v14h-1z" fill="#797878"/>
<path transform="translate(438,276)" d="m0 0 5 2 1 2h-7v5h7l-2 3h-6l-3-3 1-7z" fill="#E7E7E7"/>
<path transform="translate(1681,48)" d="m0 0 4 1v9h-7l-1-4 5-3h-4v-2z" fill="#4F332B"/>
<path transform="translate(1639,45)" d="m0 0 7 1v3l-7-1-1 5 1 2h5 3l-3 3-7-1-2-3 1-7z" fill="#2D130A"/>
<path transform="translate(1272,608)" d="m0 0 3 1v11l-2 3v-3h-2l-2-9z" fill="#0C021B"/>
<path transform="translate(382,457)" d="m0 0 6 2 1 4h-13l3-5z" fill="#FEFEFE"/>
<path transform="translate(414,276)" d="m0 0 5 2v3l-6-1v5l6-1v3l-1 1h-6l-3-4 1-5z" fill="#F1F1F1"/>
<path transform="translate(1238,624)" d="m0 0 3 2-1 1-1 9h-5v-9z" fill="#626262"/>
<path transform="translate(632,577)" d="m0 0 6 2 2 4h-13l1-4z" fill="#FEFEFE"/>
<path transform="translate(776,457)" d="m0 0 6 2 2 4h-13l1-4z" fill="#FEFEFE"/>
<path transform="translate(547,763)" d="m0 0h5l1 3-5-1v2l5 2v4l-1 1h-5l-2-3 6 1v-2l-5-1-1-4z" fill="#2E170E"/>
<path transform="translate(493,577)" d="m0 0 6 2 1 4h-13l3-5z" fill="#FEFEFE"/>
<path transform="translate(368,577)" d="m0 0 6 2 2 4h-13l1-4z" fill="#FEFEFE"/>
<path transform="translate(530,517)" d="m0 0 6 2 1 4h-13l3-5z" fill="#FEFEFE"/>
<path transform="translate(1304,472)" d="m0 0h6l3 3v10l-2 2h-6l5-4v-6l-2-2-4-1-1 3-2-1z" fill="#6C2911"/>
<path transform="translate(1279,472)" d="m0 0h11v3l-7 1h-11v-2z"/>
<path transform="translate(746,457)" d="m0 0 6 2 1 4h-13l3-5z" fill="#FEFEFE"/>
<path transform="translate(333,457)" d="m0 0 6 2 1 4h-13l3-5z" fill="#FEFEFE"/>
<path transform="translate(437,279)" d="m0 0h8v7h-8l-1-1v-5z" fill="#40150C"/>
<path transform="translate(526,763)" d="m0 0h2l1 8h3l1-8h2v11h-8l-1-1z" fill="#210E08"/>
<path transform="translate(570,763)" d="m0 0 5 1 1 2-6-1v2l6 2-1 5h-6l-2-3h6l-5-3v-4z" fill="#341A0F"/>
<path transform="translate(671,348)" d="m0 0 3 1v16l-5-1 3-9-2 1h-7l2-2h7z" fill="#937F76"/>
<path transform="translate(1199,630)" d="m0 0h15l1 5-2-1-1-1v1h-15z" fill="#3D3C3C"/>
<path transform="translate(1298,421)" d="m0 0h20l3 3h7l-3 3h-6l-4-3v-2h-17z" fill="#4A2B22"/>
<path transform="translate(754,339)" d="m0 0 4 1-3 1-2 5h5v2h-6v17h-1v-17h-3v-2h3l2-6z" fill="#A16F59"/>
<path transform="translate(496,277)" d="m0 0h7v2h-5v2h5v2h-5v3h5v2h-7z" fill="#FEFEFE"/>
<path transform="translate(1210,455)" d="m0 0 4 1-2 9-1 2h-2l-1-3v-8z" fill="#080316"/>
<path transform="translate(1471,49)" d="m0 0h2l1 6 3 1v-7h3v9h-7l-2-2z" fill="#462112"/>
<path transform="translate(369,653)" d="m0 0h7v7h-7z" fill="#151520"/>
<path transform="translate(1358,469)" d="m0 0h9l5 1-3 2h-21v-2h8z" fill="#0C021B"/>
<path transform="translate(1149,604)" d="m0 0h1l1 31h-3z" fill="#C1C1C1"/>
<path transform="translate(1355,517)" d="m0 0h7l1 4-10 3-1-4h2z" fill="#0B021A"/>
<path transform="translate(1329,422)" d="m0 0h2v6l-2 2h-7l-3-3 7-1z" fill="#06030D"/>
<path transform="translate(1387,606)" d="m0 0 1 2v27l-4-1 1-9v-18z" fill="#C1C1C1"/>
<path transform="translate(1344,607)" d="m0 0 4 1v7l-5 1-1 2-1-5z" fill="#0C021B"/>
<path transform="translate(1273,413)" d="m0 0 4 2 5 3-1 4-6-2-3-3z" fill="#0C021B"/>
<path transform="translate(1324,632)" d="m0 0h2v2l6-1v-1h13v3h-21z" fill="#BEBDBD"/>
<path transform="translate(504,277)" d="m0 0h3v9h5v2h-8z" fill="#eee"/>
<path transform="translate(1573,49)" d="m0 0h2v7l3-1 1-6h2v9h-7l-1-1z" fill="#1A070D"/>
<path transform="translate(1491,48)" d="m0 0 4 1v2l-4-1v2l4 1 1 3-2 2-6-1v-2l5 1v-2l-4-1v-4z" fill="#2C1813"/>
<path transform="translate(333,623)" d="m0 0h6v7h-6z" fill="#D95317"/>
<path transform="translate(1279,598)" d="m0 0h22l-2 2-17-1 1 3-4 2z" fill="#C1C1C1"/>
<path transform="translate(506,503)" d="m0 0h6v7h-6z" fill="#D95317"/>
<path transform="translate(473,503)" d="m0 0h6v7h-6z" fill="#D95317"/>
<path transform="translate(579,443)" d="m0 0h6v7h-6z" fill="#D95317"/>
<path transform="translate(499,443)" d="m0 0h6v7h-6z" fill="#D95317"/>
<path transform="translate(572,338)" d="m0 0h1v23l-4 2 1-3v-10h2z" fill="#A79790"/>
<path transform="translate(724,346)" d="m0 0 3 1 7-1 1 2-8 1v2h-2v14h-1z" fill="#757575"/>
<path transform="translate(640,346)" d="m0 0 3 1 7-1 1 2-8 1v2h-2v14h-1z" fill="#757575"/>
<path transform="translate(415,346)" d="m0 0 3 1 7-1 1 2-8 1v2h-2v14h-1z" fill="#757575"/>
<path transform="translate(1609,48)" d="m0 0 4 1v2h-4l4 2-1 5h-5l-1-3 5 1v-2l-5-1 1-4z" fill="#3C1B0F"/>
<path transform="translate(1511,48)" d="m0 0 4 1v2h-4l4 2-1 5h-5l-1-3 5 1v-2l-5-1 1-4z" fill="#3B1B10"/>
<path transform="translate(1664,48)" d="m0 0 4 2v8h-2v-8l-3 1-1 7h-2v-9z" fill="#2B110A"/>
<path transform="translate(1691,48)" d="m0 0 5 2-2 2-3-1v4h5l-1 3h-5l-3-4 2-5z" fill="#32170F"/>
<path transform="translate(376,398)" d="m0 0h1v19l-4-2 1-2 1-14z" fill="#B98872"/>
<path transform="translate(682,342)" d="m0 0 1 4h4v2h-4l1 16 3 1h-4l-1-2v-15l-4-1 3-1z" fill="#909090"/>
<path transform="translate(493,342)" d="m0 0 1 4h4v2h-4l1 16 3 1h-4l-1-2v-15l-4-1 3-1z" fill="#909090"/>
<path transform="translate(367,346)" d="m0 0h1v19l-4-2 1-2 1-14z" fill="#B98872"/>
<path transform="translate(516,279)" d="m0 0 5 1v5l-5 1-2-2 1-4z" fill="#1C0C14"/>
<path transform="translate(320,277)" d="m0 0h3v9h4v2h-7z" fill="#FEFEFE"/>
<path transform="translate(1322,598)" d="m0 0h22l-1 4h-8l3-2-16-1z" fill="#C1C1C1"/>
<path transform="translate(1236,369)" d="m0 0m-3 1 6 1-3 2-7 2-5-1 2-3z" fill="#5C2413"/>
<path transform="translate(1225,421)" d="m0 0h22l-3 2-13 1-6-2z" fill="#060616"/>
<path transform="translate(1304,623)" d="m0 0 3 4-1 6-4 2v-9z" fill="#0B021A"/>
<path transform="translate(327,341)" d="m0 0 1 3-5 8h-2v13h-1l-1-14 5-5z" fill="#636262"/>
<path transform="translate(1550,45)" d="m0 0h2l1 10 5 1-1 2h-7z" fill="#0E0107"/>
<path transform="translate(1223,661)" d="m0 0h10v2l-4 1-1 15h-1v-16h-4z" fill="#CACACA"/>
<path transform="translate(1160,536)" d="m0 0h2l3 4v5l-4-1-3-3z" fill="#080418"/>
<path transform="translate(1413,475)" d="m0 0h1v7l-3 4-7-1-6-3v-1h6l2 2h5z" fill="#301512"/>
<path transform="translate(1268,426)" d="m0 0 4 1 8 9v2l-4-1-4-5v-2l-3-1z" fill="#552010"/>
<path transform="translate(506,348)" d="m0 0h2l-2 4v7l3 5-4-1-2-3v-8z" fill="#888482"/>
<path transform="translate(1355,506)" d="m0 0 1 2-4 5h-6l-2-3h7v-2z" fill="#0B0202"/>
<path transform="translate(1242,368)" d="m0 0h18l1 2h-9l-13 1z" fill="#431B12"/>
<path transform="translate(305,52)" d="m0 0h12v3h-12z" fill="#181822"/>
<path transform="translate(438,398)" d="m0 0h5l2 3h-7l-1 3 5 4-6-1-2-4z" fill="#85817F"/>
<path transform="translate(703,348)" d="m0 0h2l-2 5v6l3 5-4-2-2-3v-7z" fill="#867D7A"/>
<path transform="translate(558,348)" d="m0 0h2l-2 5v6l3 5-4-2-2-3v-7z" fill="#89817E"/>
<path transform="translate(394,348)" d="m0 0h2l-2 5v6l3 5-4-2-2-3v-7z" fill="#867D7A"/>
<path transform="translate(1385,576)" d="m0 0 2 3-3 5-2 1h-8v-2l9-2z" fill="#0C021B"/>
<path transform="translate(1403,470)" d="m0 0h8l3 2-1 3-1-2h-7l-3 3-1-2z" fill="#3F1810"/>
<path transform="translate(1699,47)" d="m0 0 5 2-2 2v4l2 1v2h-4l-2-10z" fill="#391A0E"/>
<path transform="translate(1671,47)" d="m0 0 5 2-2 2v4l2 1v2h-4l-2-10z" fill="#391A0E"/>
<path transform="translate(1584,47)" d="m0 0 5 2-2 2v4l2 1v2h-4l-2-10z" fill="#391A0E"/>
<path transform="translate(1540,52)" d="m0 0h6l2 3v3l-3-1v-2l-5 1-1 2h-2l1-4z" fill="#190905"/>
<path transform="translate(517,765)" d="m0 0 4 1v5l-4 1-2-2 1-4z" fill="#F2F2F2"/>
<path transform="translate(1213,466)" d="m0 0h11l-4 4-7 1-1-4z" fill="#D95317"/>
<path transform="translate(516,348)" d="m0 0h3l3 6-1 7-4 2 2-9z" fill="#A29A96"/>
<path transform="translate(375,346)" d="m0 0 1 2 6-1-5 4h-2v14h-1v-18z" fill="#5D5C5C"/>
<path transform="translate(1384,45)" d="m0 0h2v13h-2v-5h-5l4-2z" fill="#150A0A"/>
<path transform="translate(538,763)" d="m0 0h6v2l-3 2-1 7h-2z" fill="#512613"/>
<path transform="translate(1237,444)" d="m0 0h5l3 4-1 1-7-1z" fill="#0C021B"/>
<path transform="translate(402,277)" d="m0 0h4l1 6-4 1-2-2z" fill="#E0D3CD"/>
<path transform="translate(1237,378)" d="m0 0 2 1-6 7-4 2 2-6h3v-2zm-9 10m-2 1 2 1-2 1z" fill="#652C19"/>
<path transform="translate(1224,372)" d="m0 0m-3 1h3l-1 3-8 3h-3l4-4z" fill="#240C0D"/>
<path transform="translate(524,269)" d="m0 0 4 1-5 7-3-1z"/>
<path transform="translate(1216,427)" d="m0 0h7l-1 2 11 1v1h-13l-3-1z" fill="#D95317"/>
<path transform="translate(1258,412)" d="m0 0h12l1 2-9 1-6-1z"/>
<path transform="translate(435,280)" d="m0 0h1l1 5h7l-2 3h-6l-2-2v-5z" fill="#F7F7F7"/>
<path transform="translate(1204,598)" d="m0 0h10l-1 5-6-1 1-3z" fill="#C1C1C1"/>
<path transform="translate(621,343)" d="m0 0 1 4 4 1h-4v14h-1v-14l-4-1 3-1z" fill="#423C3A"/>
<path transform="translate(505,288)" d="m0 0 4 1-4 6-4-1z"/>
<path transform="translate(1314,408)" d="m0 0h11v2l-9 2z" fill="#0C021B"/>
<path transform="translate(320,391)" d="m0 0h8v1l-9 2-5 7-1-3 5-6z" fill="#696868"/>
<path transform="translate(1248,372)" d="m0 0 4 1h-3l-2 4-6 2 3-5z" fill="#542213"/>
<path transform="translate(1464,50)" d="m0 0h3l1 4-1 2-5-1 1-4z" fill="#EFEAE7"/>
<path transform="translate(264,766)" d="m0 0h5v5l-3 1-2-1z" fill="#D95317"/>
<path transform="translate(1233,649)" d="m0 0h9l2 2-11 1z" fill="#0C021B"/>
<path transform="translate(1326,412)" d="m0 0 3 1 1 2v7l-2 1-1-7-6-2v-1z" fill="#4A2116"/>
<path transform="translate(1236,412)" d="m0 0h12l-1 2-7 1-4-2z"/>
<path transform="translate(468,279)" d="m0 0 4 1v5l-4 1z" fill="#210708"/>
<path transform="translate(492,277)" d="m0 0h4v11h-1l-1-7-1 2h-2z" fill="#ddd"/>
<path transform="translate(1652,50)" d="m0 0 4 2-1 4h-4l-1-4z" fill="#EFEFEF"/>
<path transform="translate(1565,50)" d="m0 0 4 2-1 4h-4l-1-4z" fill="#EFEFEF"/>
<path transform="translate(1392,50)" d="m0 0 4 2-1 4h-4l-1-4z" fill="#EFEFEF"/>
</svg>
