<?xml version="1.0" encoding="UTF-8"?>
<svg version="1.1" viewBox="0 0 1600 774" width="464" height="300" xmlns="http://www.w3.org/2000/svg">
<path transform="translate(0)" d="m0 0h1600v774h-1600z" fill="#12131F"/>
<path transform="translate(1236,208)" d="m0 0h13l10 4 17 10 26 15 14 8 13 8 11 6 21 12 19 11 18 11 5 4 1 6-4 5-20 12-14 8-24 14-2 2 25 14 13 8 11 6 8 5 11 6 8 4-2-4-2-1-5-6-3-2-7-1-3-2 2-4 4 1 4 2 3-4v-13l5-5 2-5v-10l8-6v-6l-1-4h3 3l-2-8-1-6 2-2 7 1 7 4 2 9 2 16 2 3 21 2 4 2 7 9v8l-1 8 8 7 2 3v7l-2 1v6h2l2 11 1 11 16 3 6 4-1 9-3 11 2 5 9 6 4 5 3-13v-7l-3-6-7-8-1-10 2-8 7 7 2-4 5 1 14 10 10 8 7 6 2 5v6l-2-2h-15l8 9 2 3-1 4-6-4-8-7-10-7-4-1 3 7 12 12 10 8 4 6 2-4 3 7 2 5 2-5h1l2 9 8 8 7 5 2-5 4-16v-13l4-4 2-6 1-8 3-2v336h-579l-2-5-10-7-4-8-8-24v-6h-2l-4-10v-2l-4-2-4-7v-23l1-3-3-6-5-4-4-13-7-9v-6l3-4v-7l-9-8 5-12 1-7 4 4 4 6 2 6 2-2 5 8 1 3 1 35 4 8 6 6v2h5l2-13 1-6-1-3v-7l4-8v-4l1-4 3-1-4-8 2-7v-7l7 6 5 4 1-8 6-19-1-5-2 2-8 22h-4l-1-5 4-11-1-1-7 7h-2v5l-5 1-1-7 3-1 4-16 4-9 2-2-1-5-11-7-5-4-2-4 1-7 8-7 25-15 28-16 13-8-1-2 6-1 22-12 5-5 9-3 11-7 10-6 11-6 5-3-10-2-5-2-14-7-13-8-7-4-6-3-9-5-4-3-4-1-3-3-21-12-24-14-26-15-14-9-4-4v-6l7-6 52-30 24-14 19-11 17-10 14-8 38-22 21-12 17-10 21-12 9-5 8-5z" fill="#252C3D"/>
<path transform="translate(1236,208)" d="m0 0h13l10 4 17 10 26 15 14 8 13 8 11 6 21 12 19 11 18 11 5 4 1 6-4 5-20 12-14 8-24 14-2 2 25 14 13 8 11 6 8 5 11 6 14 8 9 7 1 6-5 5-16 10-21 12-24 14-13 8 25 14 20 12 10 9v7l-5 6-16 10-2-1 18-12 3-4-1-6-8-7-23-13-17-10-5-3-6 1-13 8-23 13-29 17-14 8-24 14-25 14-26 15-14 7-4 1h-9l-9-3-15-8-24-14-23-13-15-9-10-5-13 8-11 6-25 14-10 6-2-1 16-10 25-14 18-11-1-2 6-1 22-12 5-5 9-3 11-7 10-6 11-6 5-3-10-2-5-2-14-7-13-8-7-4-6-3-9-5-4-3-4-1-3-3-21-12-24-14-26-15-14-9-4-4v-6l7-6 52-30 24-14 19-11 17-10 14-8 38-22 21-12 17-10 21-12 9-5 8-5z" fill="#868696"/>
<path transform="translate(1243,300)" d="m0 0h27l24 5 13 4 16 9 6 4 4 6-5 2 1 4 8 7 1 3-26 15-28 16-17 10-26 15-2 2 8-2h9l16 6 21 12 26 15 14 8 24 14 26 15 18 11 7 7v7l-5 6-16 10-2-1 18-12 3-4-1-6-8-7-23-13-17-10-5-3-6 1-13 8-23 13-29 17-14 8-24 14-25 14-26 15-14 7-4 1h-9l-9-3-15-8-24-14-23-13-15-9-10-5-13 8-11 6-25 14-10 6-2-1 16-10 25-14 18-11-1-2 6-1 22-12 5-5 9-3 11-7 10-6 11-6 5-3-10-2-5-2-14-7-13-8-7-4-6-3-9-5-4-3-4-1 1-4 4-4 18-11 8-5h3v-2l11-7 10-5 9-6h2v-2l-5-2-8-4-9-6 1-3 5-1v-2l6-3 6-2 13 7 6 4 5 1 4-2v-11l3-11 8-11 8-7 6-4h3v-2l8-4 14-5 21-4z" fill="#888AA1"/>
<path transform="translate(1349,454)" d="m0 0 5 1 41 24 8 6 4 5-1 6-7 6-13 8-3 4-10 5-24 14-71 41-28 16-15 9-18 10-13 8-25 14-16 8-7 2h-12l-12-4-17-9-24-14-28-16-24-14-14-8-22-13-9-7-2-4 1-7 8-7 7-4 5-2 25-14 15-9 11-6 6-3 18 10 15 9 49 28 5 3 8 2h9l11-4 25-14 17-10 23-13 43-25 42-24 11-7z" fill="#5A6C8C"/>
<path transform="translate(1102,660)" d="m0 0h5l8 6 3 3 2 5v21l2 1v2l2 6v7l-3 4-1 6 2-3h2v-19l-1-3 8 1 7 3 1-6 2-7 2-6 2-9 4-5 8 1 6 7 2 6 1 7v18l43-2 6-5 6-2 17-3 18-5 9-2 19-2 14-3h11l18 4 3 3-12 2-13 4-11 7-16 13-11 9h-2v2l11-5 20-2h4v2l7-1 3-2h4l1-3 10 2 1 5-8 7-3 3 2 4v16l-3 5 9-4 12-7 5-4h2v2h2l2 6-1 3 5 3 2 2h7l-2-5v-3l5 1 2 3 7-1 9-4h3l1-3 9-1-1 7-2 1v7l3-7 1 4-4 9-5 8h-327l2-4h-7l-4-5 1-4 1 2v-8l-8-5-10-9-3-5-2-1v-2h-2l-4-6-5-6-6-4v-2h8l9 4 17 12 10 9 2 2v3l5 1 5 4 19 11 10 7 2 1-6-22v-5h11l4-1v-7l-7-2-2 2h-9l-2-2v-8l2-5h-2v-10l-2-5v-11l3-7 5-4 3-16 4-5z" fill="#CFF3F7"/>
<path transform="translate(1243,300)" d="m0 0h27l24 5 13 4 16 9 6 4 4 6-5 2 1 4 8 7 1 3-26 15-28 16-17 10-26 15-16 9-13 8-23 13-17 10-19 10-6 2h-12l-5-2-14-7-13-8-7-4-6-3-9-5-4-3-4-1 1-4 4-4 18-11 8-5h3v-2l11-7 10-5 9-6h2v-2l-5-2-8-4-9-6 1-3 5-1v-2l6-3 6-2 13 7 6 4 5 1 4-2v-11l3-11 8-11 8-7 6-4h3v-2l8-4 14-5 21-4z" fill="#A5A7B4"/>
<path transform="translate(1378,688)" d="m0 0h14l8 4 4 4v2l6-3h16l17 3 7 2 20 3 29 6 41 8 56 11 4 1v45h-215l7-14v-4l-2 5h-1v-8l3-1 1-7-9 2-1 2-14 6h-5l-2-4-5-1 3 6-1 3h-7l-4-4-4-2 1-4-1-5h-2v-2l-10 7-12 7-6 1 2-5v-16l-2-5 9-7 2-2v-4l-10-2-1 2-7 3h-7v-2l-4 1-20 2-9 4h-2v-2l14-11 15-12 13-8 8 1 19-1 1-2h12l12-1h19z" fill="#5E607F"/>
<path transform="translate(698,362)" d="m0 0h25l14 4 12 6 11 8 8 8 7 10 7 16 2 8v27l-6 18-8 13-11 12-10 7-15 7-12 3h-23l-15-4-12-6-13-10-8-9-8-14-4-10-2-11v-21l3-12 5-12 7-10 9-10 14-10 14-6z" fill="#121420"/>
<path transform="translate(1236,208)" d="m0 0h13l10 4 17 10 26 15 14 8 13 8 11 6 21 12 19 11 18 11 5 4 1 6-4 5-13 8-3-1 1-1h-9l-7 2-8-1-1-3h-2v2l-19-2-10-5-8-3-5-3-8-3-9-4-5-2-13-1-9-4-9 1-4-2-20-2-4-2h-11l-9-8-2-1v-4l-4-1 1-6-2-4 5-6h-5l-4-5h-7l-3-2v-2l-3-1-2-5-5 1 4-4 10-6 22-12 8-5z" fill="#898BA2"/>
<path transform="translate(1102,660)" d="m0 0h5l8 6 3 3 2 5v21l2 1v2l2 6v7l-3 4-1 6 2-3h2v-19l-1-3 8 1 7 3 1-6 2-7 2-6 2-9 4-5 2 1 4 6 1 3 1 12 2 12 2 4v12l3 1 3 5v3h14l4-13 3-4h4l4 4 8 4-2-5-3-5h9v17h-2v4l5 1 4 5 8 3h11l11-2-1 2-17 4-10 2-11 1-1 3-2-5h-2v-3l-4-1v2h2v2h-2l1 7h8l5 12 4 11v2h-157l2-4h-7l-4-5 1-4 1 2v-8l-8-5-10-9-3-5-2-1v-2h-2l-4-6-5-6-6-4v-2h8l9 4 17 12 10 9 2 2v3l5 1 5 4 19 11 10 7 2 1-6-22v-5h11l4-1v-7l-7-2-2 2h-9l-2-2v-8l2-5h-2v-10l-2-5v-11l3-7 5-4 3-16 4-5z" fill="#6B6A7E"/>
<path transform="translate(1338,343)" d="m0 0 15 8 22 13 14 8 8 5 11 6 14 8 9 7 1 6-5 5-16 10-21 12-36 21-6-1-22-13-23-13-26-15-10-5-11-4h-9l-11 2 5-4 23-13 17-10 43-25z" fill="#6C6C80"/>
<path transform="translate(76,274)" d="m0 0h226l4 4-2 4v4h-2v2h-7l1 1v15l-4-1-1-3-4 2-1-6h-4v9l4 3-3 4-1 4 4 1v2h5v1h-216l-6-4-1-2v-33l5-6z" fill="#24232C"/>
<path transform="translate(1069,500)" d="m0 0 14 7 20 12 56 32-1 3-15 3-22 5h-2l-2 7-3 4-2 2 1 16 2 9 10 16v2h2l4 5-1 3 3 1 6 8 1 3-3 1-17-8-17-10-26-15-21-12-19-11-24-14-14-9-5-4-2-4 1-7 8-7 7-4 5-2 25-14 15-9 11-6z" fill="#5D6080"/>
<path transform="translate(1247,400)" d="m0 0h9l16 6 21 12 26 15 14 8 24 14 26 15 18 11 7 7v7l-5 6-16 10-2-1 18-12 3-4-1-6-8-7-23-13-17-10-5-3-6 1-13 8-23 13-29 17-14 8-24 14-7 4-3-1 9-5-1-2-9-2-7-3-9-3-21-8-5-4-3-4v-8l2-2 3-7 5-8h2l2-4 10-11 5-5 8-9h2v-2l3-3h2v-2l24-24h-16l3-2z" fill="#919AAD"/>
<path transform="translate(978,151)" d="m0 0h19l13 4 14 9 8 8 7 12 4 13v19l-4 12-4 8-8 10-10 8-13 6-4 1h-24l-12-4-11-7-10-10-6-10-3-8-2-9v-13l3-13 6-11 7-9 11-9 11-5z" fill="#5FD6DE"/>
<path transform="translate(1349,454)" d="m0 0 5 1 41 24 8 6 4 5-1 6-7 6-13 8-3 4-10 5-24 14-71 41-28 16-2-1 13-8-8-2v-2h-4v-5l-11-3 5-5 2-3-3-1 1-4 7-6h5l3-9 7-5 3-3 8-4 2-2-1-8 3-2v-9l5-13 3-3h2l1-5 23-13 21-12 11-7z" fill="#707A93"/>
<path transform="translate(1133,350)" d="m0 0 6 2 9 5 6 4 5 1 4-2 1-3 5 2 17 9 5 3v2l5 2 27 15 15 9v3l-10 5-11 7-21 12-24 14-19 10-6 2h-12l-5-2-14-7-13-8-7-4-6-3-9-5-4-3-4-1 1-4 4-4 18-11 8-5h3v-2l11-7 10-5 9-6h2v-2l-5-2-8-4-9-6 1-3 5-1v-2l6-3z" fill="#60D7DF"/>
<path transform="translate(1098,319)" d="m0 0 4 1 25 14 24 14 13 8-1 5h-3l-1 2-7-2-7-5-10-5-12 4v2l-5 2v2l11 7 10 5v2l-11 7-15 8-4 3h-2v2l-10 5-14 9-6 4h-2l-2 4-14-7-15-9-21-12-20-12-2-3 1-6 4-5 2-1-5-5 2-2 5 1 2 1 2-4 5-1 1-2 1 3 4-1-2-1 1-2h-2l1-3 2 1 1-2 6-2h4l3-3h2l3-1h5l2-3h5l3-2 5-1 3-2 3 1 3-3h7l3-3 9-2z" fill="#619BAD"/>
<path transform="translate(1071,419)" d="m0 0h6l4 3 9 5 6 3 7 4 16 10 11 5 7 3 9 1-2 3-11 6-14 8-13 8-7 2-7 6-16 9-6 3-8-2-23-13-24-14-6-5-1-6 5-5 11-7 26-15z" fill="#4D586E"/>
<path transform="translate(1528,716)" d="m0 0h7l57 11 8 2v45h-47l-32-8-5-1v-2l-8-1-24-7-7-3 4-1 12 2 15 2h8l1 2 4-1-2-2-29-8-18-5-4-4 1-5h2v-2l12-3 18-4 8-4h19z" fill="#5A6B8B"/>
<path transform="translate(1098,288)" d="m0 0 12 4 9 2v2l3-1 2 4h7l-2 3 3 5 10 5 9 3 3 4 14 1 5-2 9 1-1 3-8 7-7 11-3 15-5-2-49-28-8-5-4 1-5 4-9 2-3 3h-7l-4 3-3-1-3 3h-5l-2 2-5-1-2 4h-7l-2 2-2-1-3 4-5-1-4 1-1 3-2-1-1 2h2l1 2 2 1-7 2v-3l-6 3-2 3-7-1v3h2l2 4-5 3-2 4 1 6-6-2-12-8-4-4v-6l7-6 52-30 24-14 7-4 3 1 5-4z" fill="#707A93"/>
<path transform="translate(1271,407)" d="m0 0 6 2 23 13 22 13 11 6 24 14 26 15 18 11 7 7v7l-5 6-16 10-2-1 18-12 3-4-1-6-8-7-23-13-17-10-5-3-6 1-13 8-23 13-17 10-3-1 9-5-2-2-8-2-24-4-9-2-16-6-1-1-1-14 2-5 5-5 7-11 8-7 9-9 2-4z" fill="#A6A7B4"/>
<path transform="translate(1104,661)" d="m0 0 6 1 8 7 2 5v21l2 1v2l2 6v7l-3 4-1 6 2-3h2v-19l-1-3 8 1 7 3 1-6 2-7 2-6 2-9 4-5 2 1 4 6 1 3 1 12 2 12 2 4v12l3 1 3 5v3h14l4-13 3-4h4l4 4 8 4-2-5-3-5h9v17h-2v4l5 1 4 5 8 3h11l11-2-1 2-17 4-10 2-11 1-1 3-2-5h-2v-3l-4-1v2h2v2h-2l1 7h8l5 12 4 11v2h-44l-3-9-4-7v-3h-2l-1 3-3-1-4-13-6-16v-3h5l2-7h-18l-1 2h5l-1 2-7 1v9l-10-4-2 2-3-8v-3h-3l-2-9-2-3-1-31-2-4-2-7z" fill="#8689A0"/>
<path transform="translate(1377,695)" d="m0 0 12 6 3 5v3l-5-1h-13l-9 6-7 8-3 9v18l3-1v-13l2-10 7-8 3-3 7-2h9l8 4 2 6 3-3 1 12-3 18-1 3h2v8l4-8 5-19h1v8l-2 10-2 9 4-1 5-12 2-9v-11l-5-1-1-8h3l3 2v-6l2 1 3 9v17l-3 14-3 9-4 10h-25l7-14v-4l-2 5h-1v-8l3-1 1-7-9 2-1 2-14 6h-5l-2-4-5-1 3 6-1 3h-7l-4-4-4-2 1-4-1-5h-2v-2l-10 7-12 7-6 1 2-5v-16l-2-5 9-7 2-2v-4l-10-2-1 2-7 3h-7v-2l-4 1-20 2-9 4h-2v-2l14-11 15-4 9-2h21l9 3 4 5h7l7-9 8-6 4-2h7v-1z" fill="#131421"/>
<path transform="translate(1243,300)" d="m0 0h27l24 5 13 4 16 9 6 4 4 6-5 2 1 4 8 7 1 3-26 15-12 7-2-1-1-5 1-2v-11l-4-6-7-6-12-5-7-2h-27l-14 4-9 5-7 8-2 12-5 1-11-1-1-4 11-10 15-12 1-5-36-1-3-2 5-5 3-2h3v-2l8-4 14-5 21-4z" fill="#C3C3CB"/>
<path transform="translate(1067,501)" d="m0 0 2 1-3 3-5 3-2 10 1 9 2 7v14l4 8 1 3h2l2 9 5 6v3h2l5 12 5 8 4 8 7 6 2 6-5-2-25-14-7-4-10-4-15-9-14-8-22-13-9-7-2-4 1-7 8-7 7-4 5-2 25-14 15-9 11-6z" fill="#49556B"/>
<path transform="translate(1373,557)" d="m0 0h11l10 4 11 7 7 10 3 10v16l-4 10-9 10-10 6-6 2h-16l-10-4-9-7-6-8-3-8-1-5v-13l5-12 9-10 5-4z" fill="#5FD5DE"/>
<path transform="translate(995,152)" d="m0 0 10 1 10 5 10 7 7 7 7 12 3 8v23l-1 4-7 4-6 4-12 3h-10l-13-4-6-3v-2l-4-2-1-3h-2l-6-10-2-6-1-14 4-13 5-8 9-8 4-3h2z" fill="#9BEDF1"/>
<path transform="translate(1338,343)" d="m0 0 15 8v3l5 2-4 2-2 4-10 9-11 10-1 2h-2l-2 4-12 10-5 5-9 14 2 7-6-2-20-12-14-6-6-2h-9l-11 2 5-4 23-13 17-10 43-25z" fill="#5C5371"/>
<path transform="translate(1151,667)" d="m0 0 6 1 6 7 2 6 1 7v18l43-2 6-5 6-2 17-3 18-5 9-2 19-2 14-3h11l18 4 3 3-12 2-13 4-11 7-4 3-5 2-8 5-10 3-8 1h-23l-24-3-4-2v-4l-8 1 4 5 1 9-2-4-4-3-6-3-1-3-4 1-4 9-3 8h-9l-5-1-4-8-2-1-1-12-2-4-2-12-1-12-3-6-2-3z" fill="#EAFAFB"/>
<path transform="translate(1316,736)" d="m0 0h1v16l-3 5 9-4 12-7 5-4h2v2h2l2 6-1 3 5 3 2 2h7l-2-5v-3l5 1 2 3 7-1 9-4h3l1-3 9-1-1 7-2 1v7l3-7 1 4-4 9-5 8h-126l12-12 16-11 15-8 12-4h2z" fill="#5C607E"/>
<path transform="translate(1283,211)" d="m0 0h13l36 5 19 2 5 5 11 14 9 11 4 5 3 7 1 5 12 4 6 3 7 9 9 6v3l-5 1-5-3-1-4-10-3-9-6-4-1-1 4-5 3-5-2-4-3v-3l-4-4 1-3h2l-1-3-7-3-4-2-8-5v-2l-5-2-16-8-5-3-8-5-8-4v-2l-5-2-21-12z" fill="#252B3C"/>
<path transform="translate(957,160)" d="m0 0h1l-1 8-4 13v18l4 14 7 13 11 11 12 7 13 4 12 1h7l2 2-10 6-11 4h-24l-12-4-11-7-10-10-6-10-3-8-2-9v-13l3-13 6-11 7-9z" fill="#50BDCE"/>
<path transform="translate(1107,512)" d="m0 0 4 2h2l2-1h2l2-1 11 4 1-2 10 4h3l-3-3 6 2 5 1-1 3 3 3-1-4h3l-1-2h9l6 3 1 4h8l-7-2-1-4-2-2 3-1 9 3h9l9 4-1-1-4-3h11l12 5 2 4-6 5-23 13-12 6-4 1h-9l-9-3-15-8-24-14-9-5v-9z" fill="#788FA7"/>
<path transform="translate(1071,302)" d="m0 0 2 1 17 10 9 5-5 6-4 2-7 1-3 3h-7l-4 3-3-1-3 3h-5l-2 2-5-1-2 4h-7l-2 2-2-1-3 4-5-1-4 1-1 3-2-1-1 2h2l1 2 2 1-7 2v-3l-6 3-2 3-7-1v3h2l2 4-5 3-2 4 1 6-6-2-12-8-4-4v-6l7-6 52-30 24-14z" fill="#7890A8"/>
<path transform="translate(1410,695)" d="m0 0h16l17 3 7 2 20 3 29 6 26 5v2l-33 3-10 2-13 2-9 2-3 1-6-1-7 1-2 5-5 1-5 7h-2l-1 2-4-6-2-5v-3h-2l-2-10-3-8-3-3-6-2-2-3 1-4z" fill="#7790A8"/>
<path transform="translate(1525,715)" d="m0 0h5l-2 1 1 4h-20l-11 5-17 3-10 2v2l-2 2 1 5 16 5 30 8 8 3-4 3-5-1-1-1-11-1-19-2h-3l16 5 19 5v2l10 1 27 7v1h-23l-28-8-16-5-9-2v-2l-4 1-4-3h-4v-2h-3l-1 2-4-1-12-2-8-2-7-2-1 2-3-9-5-12v-2h2l5 12h2l3-3 5-6 4 1 1-5 1-1 11-1 4 1 5-2 17-3 9-1 10-2z" fill="#6F7993"/>
<path transform="translate(1133,350)" d="m0 0 6 2 9 5 6 4 5 1 4-2 1-3 5 2 17 9 5 4-9 1h-5l-1 2-14 4-3 3-13 3-7 5h-4l-1-2-3 3-5 1-8 4-14 11-5 4h-2l-1 5 1 2-1 2 2 1-1 2v5l3 1-1 3-4-2-5-2-9-5-4-3-4-1 1-4 4-4 18-11 8-5h3v-2l11-7 10-5 9-6h2v-2l-5-2-8-4-9-6 1-3 5-1v-2l6-3z" fill="#51BECE"/>
<path transform="translate(1315,715)" d="m0 0 10 2 1 5-8 7-3 3 1 7-18 7-16 9-13 10-7 7-3 2h-44l-9-24-8-1-1-7h2v-2h-2v-2l4 1v3h2l3 4 2 3 4 10v2l18-5 11-4 10-4 8-3h5l-6 12-5 8 8-6 9-7 10-6 19-19 3-4-2-2 7-1 3-2h4z" fill="#9CEDF1"/>
<path transform="translate(1381,559)" d="m0 0h9l11 6 5 4 7 11 2 8v16l-7 3-6 3-5 1-11-1-9-5-7-8-3-9v-9l4-10 7-7z" fill="#9BEDF1"/>
<path transform="translate(419,569)" d="m0 0h13l7 17 7 15v3h2l3-9 11-26h13v50h-11l-1-28-6 15-5 13h-9l-6-14-5-12-1-3-1 29h-11z" fill="#F0F1F4"/>
<path transform="translate(1378,689)" d="m0 0h11l5 5 4 7v6l-2-3v3l3 1 1 10h-5l-6-4-3-1h-9l-8 3-7 7-2 4-1 8v13l-4 1-1-4v-14l4-10 7-8 9-6h13l5 2-3-6v-2l-6-2-6-3-5 2-4 1-7 1-6 4-6 5-4 6-1 1h-7l-4-5-9-3h-21l-21 5-2-1 14-11 13-8 8 1 19-1 1-2h12z" fill="#888AA1"/>
<path transform="translate(1227,409)" d="m0 0 2 1-2 5-10 9-2 3h-2l-2 4-11 9-4 5-5 5-11 10h-3l-2 5-7 7-6-1-12-7v3l-2 2h-3v4l-4-1 3 4-4-1-5-4 5 7-6-2-4-6-3-3 6-4v-2l12-7-8-1v-1l13-2 17-8 24-14 28-16z" fill="#898898"/>
<path transform="translate(678,566)" d="m0 0h10v53h-10l-1-4-5 4-3 1h-8l-8-4-5-7-1-3v-15l5-8 8-5h9l8 5z" fill="#F5F5F8"/>
<path transform="translate(231,355)" d="m0 0h12l12 18 10 16 1-34h11v53h-11l-8-11-13-20v-2h-2v33h-12z" fill="#F3F4F6"/>
<path transform="translate(316,472)" d="m0 0h11l7 4 3 2v-5h9v41h-10l-1-4-6 4-3 1h-8l-7-3-5-6-3-7v-13l5-9z" fill="#97E7EC"/>
<path transform="translate(127,578)" d="m0 0h9l7 4 1-3h11v40h-11l-1-3-7 4h-9l-9-6-1-4h-2l-2-6v-10l3-7 5-6z" fill="#F2F3F6"/>
<path transform="translate(226,578)" d="m0 0h8l7 4 3 2 7-5h13l6 4 3 4 1 3v29h-11l-1-29-3-1h-9l-2 2-1 4-1 24h-10l-1-26-4-4h-9l-3 4-1 26h-10v-40h11l1 2z" fill="#F5F6F8"/>
<path transform="translate(1377,712)" d="m0 0h9l8 4 2 6 3-3 1 12-3 18-1 3h2v8l4-8 5-19h1v8l-2 10-2 9 4-1 5-12 2-9v-11l-5-1-1-8h3l3 2v-6l2 1 3 9v17l-3 14-3 9-4 10h-25l7-14v-4l-2 5h-1v-8l3-1 1-7-9 2-1 2-9 4h-9l2-3 8-2 3-6h-2l-1-18-3-6v-3z" fill="#141622"/>
<path transform="translate(420,472)" d="m0 0h14l9 6 3 4 2 5v12l-3 6-5 6-5 3-4 1h-10l-7-3-6-6-3-7v-12l3-6 5-5 4-3z" fill="#97E4EA"/>
<path transform="translate(1328,383)" d="m0 0h2l-2 4-9 13-5 8-3 3-1 5 7 2 3 5 15 2 25 3 9 1 4-2 13 1 2 1v2l-6 3-4 4-24 14-6-1-22-13-23-13-2-2 1-2-2-1-1-4 9-14 5-5 8-7 6-5z" fill="#5F6080"/>
<path transform="translate(1011,715)" d="m0 0h8l9 4 17 12 10 9 2 2v3l5 1 5 4 19 11 12 9 1 4h-41l2-4h-7l-4-5 1-4 1 2v-8l-8-5-10-9-3-5-2-1v-2h-2l-4-6-5-6-6-4z" fill="#7790A8"/>
<path transform="translate(90,461)" d="m0 0h14l10 5 7 8v3h-12l-5-5-3-1h-8l-6 3-4 5-1 2v13l4 7 6 3h11l5-3 5-8h-18v-8h28v11l-4 8-7 7-7 3-10 1-9-2-6-4-7-8-3-9v-8l3-10 7-8z" fill="#50BBCB"/>
<path transform="translate(617,578)" d="m0 0h10l9 5 6 9v13l-4 8-9 6-3 1h-10l-8-4-6-8-1-2v-14l5-8 8-5z" fill="#F1F2F4"/>
<path transform="translate(1166,232)" d="m0 0 4 2 1 3-6 4-6 2-2 4-17 8-6 4-7 4-10 6-4 4-6 4h-2v2l-9 4-6 2-3-5 1-10 5-3 8-1 9-6 6-8 8-11 8-6 2-1 26-1z" fill="#252C3D"/>
<path transform="translate(1137,717)" d="m0 0h15l3 1-2 7h-5l2 4 2 7 3 8 3 11 3 2 1-2h2l3 6 3 9 1 4h-36l-1-16-6-16-3-4v-3l8 2 1-3v-4h12l-1-5-11 1 1-4 5-1-4-1z" fill="#6A6A7F"/>
<path transform="translate(1090,720)" d="m0 0h14l4 1v4l2-3h5l3 3v6l-3 4-4 1 8 4 7 11 4 12 1 11h-32l-2-5-1-7-4-15v-5h11l4-1v-7l-7-2h-2v-8l-6-2z" fill="#5E6180"/>
<path transform="translate(301,365)" d="m0 0h10l8 4 6 7 2 5v9h-31l4 8 2 1h7l4-4h12l-1 5-8 7-5 2h-11l-8-4-5-6-2-4v-17l4-6 6-5z" fill="#F6F7F9"/>
<path transform="translate(180,365)" d="m0 0h9l10 4 5 6 2 4v11h-31l3 7 3 2h8l4-4h12l-4 8-8 5-3 1h-10l-7-3-5-4-4-9v-12l3-7 4-5z" fill="#F6F7F9"/>
<path transform="translate(72,568)" d="m0 0h21l11 4 4 5 1 2v10l-4 6-5 4-3 1h-14v19h-11z" fill="#F0F0F3"/>
<path transform="translate(143,472)" d="m0 0h13l8 5 4 5 2 5v9h-31l3 7 3 2h8l5-4h10l-1 5-9 8-4 1h-9l-8-3-6-7-3-8v-8l4-10 8-6z" fill="#50B9CA"/>
<path transform="translate(240,472)" d="m0 0h13l8 5 5 6 1 3v10h-31l4 8 2 1h9l4-4h11l-2 5-4 5-5 3-4 1h-9l-7-3-6-5-3-7v-14l4-8h2v-2z" fill="#98E8ED"/>
<path transform="translate(1185,733)" d="m0 0h12l7 4 2 6-1 4-2-5h-2v-3l-4-1v2h2v2h-2l1 7h8l5 12 4 11v2h-32l-3-12v-5l-9 6-2-17v-5l8 3 3-9z" fill="#6A738A"/>
<path transform="translate(116,352)" d="m0 0h11v18l6-4 3-1h8l8 4 5 8v31h-11l-1-28-4-4h-9l-3 3-1 3-1 26h-11z" fill="#F6F5F7"/>
<path transform="translate(1e3 715)" d="m0 0h6l4 4 5 4 6 8v2h2v2l3 1 6 8 10 8 5 3v8 3l-2-1-2 4h-2l-1-1 1 3-4-2v-2l-6 2-9-7-9-10-9-11-10-11-1-2 1-9z" fill="#5C5371"/>
<path transform="translate(496,578)" d="m0 0h10l8 4 6 7 1 2v11h-29l3 6 2 2h8l4-4h11l-2 6-7 6-5 2h-9l-9-4-4-5-3-7v-11l4-8 8-6z" fill="#F2F3F5"/>
<path transform="translate(1245,336)" d="m0 0h18l11 4 7 6 1 2v8l-5 6-26-1-9-1h-13l-3-4v-7l4-6 9-5z" fill="#C4C4CC"/>
<path transform="translate(296,578)" d="m0 0h9l10 5 5 8v11h-29l2 5 3 3h8l4-4h11l-1 5-8 7-5 2h-9l-10-5-4-7-2-4v-10l3-7 5-5 5-3z" fill="#F3F3F6"/>
<path transform="translate(1073,419)" d="m0 0 5 1 12 7 6 3 7 4 16 10 11 5 7 3 9 1-2 3-11 6-14 8h-2l-1-5h-2v-2l-5-2-9-8-5-5-7-4-7-8-7-6-5-6 1-3z" fill="#252C3E"/>
<path transform="translate(1356,564)" d="m0 0h2l-3 15v10l2 9 6 11 8 7 12 6 15 2v3l-12 5h-16l-10-4-9-7-6-8-3-8-1-5v-13l5-12 9-10z" fill="#50BDCD"/>
<path transform="translate(1199,707)" d="m0 0h9v17h-2v4l5 1 4 5 8 3h11l11-2-1 2-17 4-10 2-11 1-3-7-6-3h-12l-4 1-3 10-8-3v17l-2-2-4-15-3-6-7-1 2-2 6-2v-9l-1-2 3 1 1 9 1-7 1 3h14l4-13 3-4h4l4 4 8 4-2-5z" fill="#9BE9EE"/>
<path transform="translate(1517,400)" d="m0 0 7 7 2-4 5 1 14 10 10 8 7 6 2 5v6l-2-2h-15l8 9 2 3-1 4-6-4-8-7-10-7-5-1-4-8-7-8-1-10z" fill="#242B3C"/>
<path transform="translate(556,566)" d="m0 0h11l1 15 4-2h13l6 4 3 5v31h-10l-1-27-4-4h-8l-3 3-1 28h-11z" fill="#F6F7F9"/>
<path transform="translate(1588,729)" d="m0 0h12v38l-2 1-15-4-9-4-10-5-2-5-1-3 5-6 6-2 1-4 3-3z" fill="#5D6080"/>
<path transform="translate(698,362)" d="m0 0h25l14 4 12 6 11 8 8 8 7 10 7 16 2 8v27l-6 18-8 13-11 12-10 7-15 7-12 3h-23l-15-4-12-6-13-10-8-9-8-14-4-10-2-11v-21l3-12 5-12 7-10 9-10 14-10 14-6zm2 2-11 2-16 7-10 8-10 10-8 13-4 10-2 10v24l6 18 8 13 9 10 13 9 8 4 9 3 9 2h13l13-2 13-4 13-8 10-9 10-13 5-12 4-16v-16l-4-16-5-12-10-13-7-7-15-9-15-5-5-1z" fill="#52B5C6"/>
<path transform="translate(456,472)" d="m0 0h11v4l7-4h11l8 5 3 6v31h-10l-1-27-5-5h-9l-3 3-1 29h-11z" fill="#9AE9EE"/>
<path transform="translate(178,472)" d="m0 0h10l1 4 7-4h11l6 4 4 5 1 3v30h-10l-1-27-4-5h-9l-4 4-1 28h-11z" fill="#5FD3DC"/>
<path transform="translate(1390,745)" d="m0 0h3l-1 7-2 1v7l3-7 1 4-4 9-5 8h-59l4-3 13-6 8-3-4-4 1-2 2 2h9l-2-5v-3l5 1 2 3 7-1 9-4h3l1-3z" fill="#5B5472"/>
<path transform="translate(160,579)" d="m0 0h12l6 16 4 8 5-12 4-11 1-1h11l-2 6-12 28-10 24-1 1h-11l3-9 5-10-3-10-4-9-4-10-4-9z" fill="#F3F3F5"/>
<path transform="translate(327,579)" d="m0 0h11v3l5-3h13l7 5 3 8v27h-11l-1-27-3-3h-10l-2 3-1 27h-11z" fill="#F0F1F4"/>
<path transform="translate(1410,695)" d="m0 0h16l17 3 7 2 15 2v2l5 1-1 3-12 2-16 3-4 2-2 4-2 9-3 3-3-1-4-6-2 2-4-16-4-4-6-2-2-3 1-4z" fill="#90C4CE"/>
<path transform="translate(1015,634)" d="m0 0h7l8 4 5 6 1 2v12l-4 6-5 4-4 1h-8l-7-3-5-6-2-5v-7l4-8 8-5z" fill="#5FD4DD"/>
<path transform="translate(330,366)" d="m0 0h12l7 10v2h2l2-5 4-7h12l-2 5-7 10-3 5 2 5 10 15v2h-12l-8-11-3 4-4 7h-12l2-5 8-12 2-5-12-18z" fill="#F5F5F7"/>
<path transform="translate(1104,661)" d="m0 0 6 1 8 7 2 5v21l2 1v2l2 6v7l-3 4-1 6 2-3h2v-19l-1-3 8 1 6 3-1 7-1 4v10l-1 2-1 9-10-4-2 2-3-8v-3h-3l-2-9-2-3-1-31-2-4-2-7z" fill="#939FB1"/>
<path transform="translate(1048,315)" d="m0 0 2 1-13 10-10 7-5 6-3 10-3 1-2 4-2 3-7-1v3h2l2 4-5 3-2 4 1 6-6-2-12-8-4-4v-6l7-6 52-30z" fill="#6E7891"/>
<path transform="translate(1370,714)" d="m0 0 4 1-2 2 3 4 1 8 1 12 3-1v2l-3 3-2 4-9 3 5 1-2 2h-5l-2-4-5-1 3 6-1 3h-7l-4-4-4-2 1-4-1-5h-2v-2l-4 2 2-4 5-5 7-5 6-12h3l-3 4-3 9v18l3-1v-13l2-10 7-8z" fill="#262D3E"/>
<path transform="translate(1151,667)" d="m0 0 6 1 6 7 2 6 1 7v18l22-1h19l1 2-8 1 4 5 1 9-2-4-4-3-6-3-1-3-4 1-4 9-3 8h-9l-5-1-4-8-2-1-1-12-2-4-2-12-1-12-3-6-2-3z" fill="#D0F3F7"/>
<path transform="translate(69,355)" d="m0 0h40v9h-14v44h-11v-44h-15z" fill="#F6F7F9"/>
<path transform="translate(1008,174)" d="m0 0 9 1 6 4 3 4 1 4v8l-5 8-9 4-10-2-5-4-3-6v-10l6-8z" fill="#D1F4F8"/>
<path transform="translate(1430,748)" d="m0 0h6l3 2 9 2 17 1 10 4h2v2l9 1 26 8 18 5v1h-73v-6l-4-1-1-3 12-1h7l1-1-16-5-20-5-6-2z" fill="#5A6C8C"/>
<path transform="translate(1394,701)" d="m0 0 3 3 2-3 3 3 3 1 1 5 5 2-3-6 5 2 4 5-2 7-5-2v8h5l1 1v11l-3 12-5 10h-4l1-9 2-13-5 17-4 6h-1v-7l1-2h-2l3-21-1-11-3 3-1-6 6 1-1-10-4-1z" fill="#5E5E77"/>
<path transform="translate(1303,707)" d="m0 0h21l9 3 4 5 7 1-2 6-7-4-6 5-6 4 1 2 7-3v-2l6-2-2 5-15 7-3-1-2 1-1-3 9-7 2-2v-4l-10-2-1 2-7 3h-7v-2l-4 1-20 2-9 4h-2v-2l14-11 15-4z" fill="#30394C"/>
<path transform="translate(377,356)" d="m0 0h11v10h9v9h-9l1 23 8 1v9h-12l-5-3-3-4v-26h-5v-9h5z" fill="#F9F9FB"/>
<path transform="translate(376,569)" d="m0 0h11v10h9v9h-9l1 21 8 1v9h-12l-5-3-3-5v-23h-5v-9h5z" fill="#EEEEF1"/>
<path transform="translate(1415,714)" d="m0 0 2 1 3 9v17l-3 14-3 9-4 10h-25l7-14v-4l-2 5h-1v-8l3-1 1-6 2 2 2-2-1 6h2v8l4-8 5-19h1v8l-2 10-2 9 4-1 5-12 2-9v-11l-5-1-1-8h3l3 2z" fill="#202535"/>
<path transform="translate(359,462)" d="m0 0h10v10h10v9h-10l1 23 8 1v9h-12l-6-5-1-2v-26h-5v-8h5z" fill="#CBEBF0"/>
<path transform="translate(1069,500)" d="m0 0 14 7 9 6-1 3-13 4-5 4-4 8-3 12 1 6 1 9-4-5-3-6v-14l-3-12 1-11 1-4 7-4z" fill="#5C5371"/>
<path transform="translate(530,569)" d="m0 0h10v10h9v8h-9l1 22 8 1v9h-12l-5-3-2-4v-25h-5v-8h5z" fill="#F8F9FB"/>
<path transform="translate(997,728)" d="m0 0h2l8 10 11 12 9 11 9 7 6-1 3 3-2-5 3 2v2l5-2 2 2 7 1-2 4h-37l-2-5-10-7-4-8-8-24z" fill="#232A3B"/>
<path transform="translate(1106,697)" d="m0 0 3 3 1 15h2l1-5 2 3v6h3l4 8 10 4 1-8 1 3 7-2 5 1v5h-12l1 6-3 2-7-3 5 10 5 13v16h-4l-4-18-6-12-3-4-7-3-1-2 6-2 1-2v-6l-2-2h-5l-3 4 1-5 1-1-5-2v-13l1-8z" fill="#7B8194"/>
<path transform="translate(1292,370)" d="m0 0 3 1h-2l1 4-8 9-3 5-7 8-7 5-1 2-6-1-6-2h-9l-11 2 5-4 23-13 17-10z" fill="#4B566C"/>
<path transform="translate(1083,490)" d="m0 0 5 2 7 9 7 7 7 6v8l-6-2-24-14-10-5-13 8-11 6-25 14-10 6-2-1 16-10 25-14 18-11-1-2 6-1z" fill="#858697"/>
<path transform="translate(275,472)" d="m0 0h11v5l7-5h5v11l-9 2-2 2-1 27h-11z" fill="#9AEAEF"/>
<path transform="translate(1170,440)" d="m0 0h5l-1 6-6 7-8-1-6 4 6-3 5 1-6 7-4 4h-4l-1 2-2 2h-3v4l-4-1 3 4-4-1-5-4 5 7-6-2-4-6-3-3 6-4v-2l12-7-8-1v-1l13-2 17-8z" fill="#788097"/>
<path transform="translate(1378,688)" d="m0 0h14l8 4 5 6 3 6 6 2 4 4 3 10 2 12 3 22-1 20h-15l4-15 3-7 2-11v-17l-3-11-4-5h-2l2 2-1 3-5-3-1-5-4-1-5-5-5-8-2-1-11-1z" fill="#5C5371"/>
<path transform="translate(1102,660)" d="m0 0h5l-2 2 3 4 2 8 1 2 1 31 1 1v9l-1-2h-2l-2-14-2-3-1 7-2-2 1-10 1-9-1-5h-4l-2 9-2 1v-2l-3 2-4 17h-2v-2h-2v-11l3-7 5-4 3-16 4-5z" fill="#828293"/>
<path transform="translate(1164,357)" d="m0 0 5 2 17 9 5 4-9 1h-5l-1 2-14 4-3 3-13 3-7 5h-4l-1-2-3 3-2-1 1-3 16-10 19-12 1-3z" fill="#91C7D1"/>
<path transform="translate(99,284)" d="m0 0 5 1 7 3 4 9-3 9-2 2-5 2-1 1h-5l-8-4-3-7v-5l4-8 6-2z" fill="#262F40"/>
<path transform="translate(1378,689)" d="m0 0h11l5 5 4 7v6l-2-3v3l3 1 1 10h-5l-6-4-3-1h-9l-8 3-7 7-2 4-1 8v13l-4 1-1-4v-14l4-10 7-8 9-6h13l5 2-5-10v-4l-5-2-9-1 3-2z" fill="#A2DDE5"/>
<path transform="translate(84,24)" d="m0 0h4v9l-6 3-1 2v7l3 3h8l3-4 1-3h9l-1 6-4 6-3 3-5 2h-8l-6-3-5-6-2-5 1-10 6-7z" fill="#EEEFF2"/>
<path transform="translate(226,486)" d="m0 0 8 3 6 4v2h14v1h-18l4 8 2 1h9l4-4h11l-2 5-4 5-5 3-4 1h-9l-7-3-6-5-3-7z" fill="#5FD0D9"/>
<path transform="translate(1156,721)" d="m0 0 1 2-2 11 7 2 4 9 3 12 2-4 1 9 6-5h2l3 13v4h-12l-3-9-4-7v-3h-2l-1 3-3-1-4-13-6-16v-3h5l1-2z" fill="#86899E"/>
<path transform="translate(1334,691)" d="m0 0 6 1-4 1 1 4-9 2-18 2v2h17l2 1h8l-1 4-7 1-5-1h-21l-21 5-2-1 14-11 13-8 8 1 19-1z" fill="#5E6280"/>
<path transform="translate(1465,703)" d="m0 0 10 1 24 5 26 5v2l-34 3-14-2-6-2-10-4 2-3 5-1 1-2z" fill="#5F96A9"/>
<path transform="translate(1133,350)" d="m0 0 6 2 9 5 9 6-4 4-6 1-1 3-3 1v-2l-4-1v-4l-6-1 2 4 6 4-2 2-13-7-9-6 1-3 5-1v-2l6-3z" fill="#7FB2BF"/>
<path transform="translate(386,472)" d="m0 0h11v42h-11z" fill="#8FD2DB"/>
<path transform="translate(1410,695)" d="m0 0h16l9 2 1 2h-2l-1 3-2 16-2 3-4-2-2-2h-4l-3-8-3-3-6-2-2-3 1-4z" fill="#9BE9EE"/>
<path transform="translate(321,481)" d="m0 0h8l6 5 1 2v11l-5 6-10 1-6-5-1-2v-12l5-5z" fill="#161825"/>
<path transform="translate(422,481)" d="m0 0h9l5 4 1 2v13l-6 5-2 1h-7l-6-6v-13l4-5z" fill="#161825"/>
<path transform="translate(1344,755)" d="m0 0h3l3 5 3 2-10 4-17 8h-33l3-2 19-6 9-4 9-3z" fill="#C2EBF0"/>
<path transform="translate(1193,738)" d="m0 0h1l2 8h2v3h8l5 12 4 11v2h-14l-4-8-6-5-3-8 5-2z" fill="#6E6E82"/>
<path transform="translate(1020,635)" d="m0 0 7 1 7 6 2 4v10l-6 3h-8l-6-4-2-4v-9z" fill="#9AECF0"/>
<path transform="translate(1316,736)" d="m0 0h1v9l-4 3-12 4-16 9-10 7-8 6h-8l12-12 16-11 15-8 12-4h2z" fill="#768FA7"/>
<path transform="translate(1006,537)" d="m0 0 3 4 5 13 4 7 4 10-6-2-16-10-6-7 1-7 9-7z" fill="#252C3D"/>
<path transform="translate(1313,725)" d="m0 0 7 2-5 5 1 7-18 7-16 9-13 10-7 7-3 2h-8l5-5 10-9 27-18 19-10v-6z" fill="#8EC6D0"/>
<path transform="translate(1104,741)" d="m0 0h2v2h-2l5 16 4 15h-14l-2-5-1-7-4-15v-5h11z" fill="#5B5471"/>
<path transform="translate(698,362)" d="m0 0h25l14 4 12 6 11 8 8 8 2 5-4-2-9-10-14-9-13-5-9-2h-21l-11 2-16 7-10 8-9 9-8 13-4 10-2 10v28h-2l-1-7v-21l3-12 5-12 7-10 9-10 14-10 14-6z" fill="#85B8C5"/>
<path transform="translate(1149,667)" d="m0 0 2 1 4 6 1 3 1 12 2 12 2 4v12l2 1-9-1-1-5v-16l1-12-5-1-1 6-6 3v-9l3-11z" fill="#9FA1B0"/>
<path transform="translate(998,725)" d="m0 0 7 1 1 3 8 4 7 7 11 19 6 6 3 2-5 2-9-7-9-10-9-11-10-11z" fill="#49556B"/>
<path transform="translate(130,588)" d="m0 0h8l6 5v11l-4 5-2 1h-8l-5-5-1-2v-9l4-5z" fill="#151623"/>
<path transform="translate(1391,573)" d="m0 0h6l6 4 2 5-1 7-5 5-6 1-7-3-3-4v-7l3-5z" fill="#D1F4F8"/>
<path transform="translate(663,588)" d="m0 0h8l5 3 1 2v11l-5 6h-9l-4-4-1-2v-11z" fill="#151623"/>
<path transform="translate(1166,338)" d="m0 0 1 3 22 1 1 4-4 5-13 10-6-2-4-3v-7z" fill="#9099AD"/>
<path transform="translate(617,588)" d="m0 0h8l5 4 1 2v10l-4 5-2 1h-9l-4-5v-12z" fill="#141622"/>
<path transform="translate(1151,667)" d="m0 0 6 1 6 7 2 6 1 7v18l-1 12-4-1-1-12-2-4-2-12-1-12-3-6-2-3z" fill="#C3C3CB"/>
<path transform="translate(1303,707)" d="m0 0h21l1 2-18 4 2 1-2 4h-6l-2-2h-5l-5 3-13 3-9 4h-2v-2l14-11 15-4z" fill="#282F40"/>
<path transform="translate(1359,690)" d="m0 0h17v1l10 2 3 4h-2l1 4-7-3-4-2-5 2-4 1-7 1-6 4h-3l-8 1 1-4 3-3 1-4-2-1v-2z" fill="#6C6D82"/>
<path transform="translate(1067,752)" d="m0 0 5 1 14 8 12 9 1 4h-15l-10-7-7-5-1-8z" fill="#9BEAEE"/>
<path transform="translate(1316,745)" d="m0 0h1v5h-2l-2 4-8 6-17 7-7 3h-4l-5 4h-5l5-5 10-7 19-11 14-5z" fill="#6F7992"/>
<path transform="translate(1394,701)" d="m0 0 3 3 2-1 1 6 3 1 2 5 1 9v17l-5 16-4 4v-7l1-2h-2l3-21-1-11-3 3-1-6 6 1-1-10-4-1z" fill="#76849A"/>
<path transform="translate(1407,733)" d="m0 0h1v8l-2 10-2 9 4-1 3-6 1 4-5 9h-2l-1 4-3 2-4-5-8 7h-4l7-14v-4l-2 5h-1v-8l3-1 1-6 2 2 2-2-1 6h2v8l4-8z" fill="#252C3C"/>
<path transform="translate(316,472)" d="m0 0h11l7 4 3 2v-5h9v9l-1 6-10-1-6-5h-11l-5-4-1-4z" fill="#CAEFF4"/>
<path transform="translate(1359,717)" d="m0 0 2 1-3 4-3 9v18l4-1 2 1-1 2-3-1 3 6-1 3h-7l-4-4-4-2 1-4-1-5h-2v-2l-4 2 2-4 5-5 7-5 6-12z" fill="#2A3345"/>
<path transform="translate(143,472)" d="m0 0h13l8 5 4 5 2 5v9l-11-1-4-5h4l-3-7-4-2-8-1z" fill="#5ED0DA"/>
<path transform="translate(359,481)" d="m0 0h1l1 8h6l1-8h1l1 23 8 1v9h-12l-6-5-1-2z" fill="#97E5EA"/>
<path transform="translate(1377,695)" d="m0 0 12 6 3 5v3l-5-1h-13l-8 4 2-5 2-1-4-1h-8l-1 3-10 5 2-5 10-8 4-2h7v-1z" fill="#283041"/>
<path transform="translate(420,472)" d="m0 0h14l7 5v2l-6 4-4-1h-9l-7 6h-8v-6l4-5 6-4z" fill="#C7EDF2"/>
<path transform="translate(1183,725)" d="m0 0 10 2 3 2 7-1 2 4v5l-5-2-8-1h-7l-4 1-3 10-8-3-2 1-2-10 2-3 13 1z" fill="#92C7D1"/>
<path transform="translate(1118,725)" d="m0 0h1v7l-1 2h2v-3l3 1 6 10 6 16v16h-4l-4-18-6-12-3-4-7-3-1-2 6-2z" fill="#97E4EA"/>
<path transform="translate(1338,744)" d="m0 0h3l2 3v5l-5 1v2l-7 4-21 7-10 4-4-1 12-7 5-4 16-8z" fill="#57C9D6"/>
<path transform="translate(1024,719)" d="m0 0 5 1 12 8 10 8 6 6v3l4 1 2 5-5-1v2l2 1h-6l-2-5-8-7-7-7-4-5-5-5z" fill="#92C9D3"/>
<path transform="translate(1146,694)" d="m0 0 5 5v18l-14 1-1 2h5l-1 2-6 1v-12h2l2-8 5-5z" fill="#858696"/>
<path transform="translate(1118,748)" d="m0 0 4 2 5 10 3 10v4h-16l-3-11 1-4 3 4v-6l2-2 1 1z" fill="#5C5371"/>
<path transform="translate(1123,696)" d="m0 0 8 1 6 3-1 7-1 4v10l-2 4-9-3v-23z" fill="#CAEDF2"/>
<path transform="translate(1109,663)" d="m0 0 4 1 5 5 2 5v21l2 1v2l2 6v7l-5 7-2-2-1-13v-21l-4-10-3-5z" fill="#9AE6EC"/>
<path transform="translate(1187,737)" d="m0 0h5l2 9v5l-5 3 2 4v3l3 1 6 7 1 5h-11l-1-13-2-6-3-1 1-1-4-1 1-9 5-2-3-2z" fill="#59516E"/>
<path transform="translate(1023,669)" d="m0 0 3 1h-2l2 7 1 27-6-4-4-6v-22l-1-2z" fill="#12131F"/>
<path transform="translate(1007,638)" d="m0 0 2 1v14l4 6 5 4 10 3-1 2-4 1h-8l-7-3-5-6-2-5v-7l4-8z" fill="#50BACB"/>
<path transform="translate(1073,495)" d="m0 0 6 2 11 8 6 7h-3l-11-6-5-1-8-4-13 8-11 6-25 14-10 6-2-1 16-10 25-14 18-11-1-2 6-1z" fill="#70768D"/>
<path transform="translate(1008,715)" d="m0 0h3l4 4 5 4 6 8v2h2v2l3 1 6 8 10 8 5 3v8 3l-2-1-2 4h-2l-1-4 3-1v-6l-4-3v-2l-4-2-7-5-7-8-7-7-3-2-2-6-7-6z" fill="#5D6282"/>
<path transform="translate(1090,720)" d="m0 0h14l4 1v4l2-3h5l3 3v6l-3 4-6 1-3-3-8-1v-8l-6-2z" fill="#6A7288"/>
<path transform="translate(1149,735)" d="m0 0 4 2 5 18 3 2 1-2h2l3 6 3 9 1 4h-12l-3-9-2-17-2-3-2-4z" fill="#707A93"/>
<path transform="translate(1148,463)" d="m0 0 6 2 6 4 2 4-12 7h-4v2l-10-3-5-5h3v2l5 1-4-4v-2l3 1v2h3v-3l4 2v-4l3-1 3-3-3-1z" fill="#9D9EAC"/>
<path transform="translate(1323,435)" d="m0 0h6l8 4 14 2 13 2-3 5-7 4-6-1-22-13z" fill="#5F5774"/>
<path transform="translate(1133,350)" d="m0 0 6 2 9 5 9 6-4 4-6 1-1 3-3 1v-2l-4-1v-4l-5-1-2-1 1-3 7-1-1-3-7-4z" fill="#ABD0D8"/>
<path transform="translate(1165,454)" d="m0 0 12 6-2 5-7 7-6-1-8-5 6-7z" fill="#868596"/>
<path transform="translate(770,392)" d="m0 0 4 4 7 15 3 11v27l-6 18-5 8-2-1 6-15 4-16v-16l-4-16-5-12-4-6z" fill="#5BC0CC"/>
<path transform="translate(1410,695)" d="m0 0h12l5 5 1 9-5 1-12-7-6-2 1-4z" fill="#CAEEF3"/>
<path transform="translate(1385,768)" d="m0 0 2 3-2 3h-49l4-1v-2l7-1z" fill="#49556B"/>
<path transform="translate(1132,462)" d="m0 0 2 1-6 4 5 6v3l6 4-4 1-11-1-11-4 4-4 6-3-1-2z" fill="#878697"/>
<path transform="translate(199,293)" d="m0 0h7l4 3 1-3h6l3 3v5l-3 3h-5l-2-2-4 1-1 1h-5l-2-2v-7z" fill="#272834"/>
<path transform="translate(168,713)" d="m0 0 5 2h3l3-2 7 1v10h-8l-4-1-2 1h-6l-2-2v-6z" fill="#191C2A"/>
<path transform="translate(1137,717)" d="m0 0h15l3 1-2 7h-5l2 4v5l-14 2 1-4 9-2-1-5-11 1 1-4 5-1-4-1z" fill="#5F5974"/>
<path transform="translate(83,577)" d="m0 0h11l4 4v7l-3 3h-12z" fill="#161724"/>
<path transform="translate(1481,757)" d="m0 0 8 1 45 10 19 5v1h-13l-18-4-41-12z" fill="#7791A8"/>
<path transform="translate(1065,756)" d="m0 0 2 1 2 6 11 7 4 4h-26l5-10z" fill="#5A6584"/>
<path transform="translate(1410,729)" d="m0 0 5 2v13l-5 13-2 3h-4l1-9 2-10h2v-11z" fill="#5D6885"/>
<path transform="translate(1378,688)" d="m0 0h14l8 4 5 6 3 6 6 2 4 4 1 7-4-5-5-5 2 3-1 3-5-3-1-5-4-1-5-5-5-8-2-1-11-1z" fill="#768397"/>
<path transform="translate(1319,709)" d="m0 0h6l-2 3 4 5-1 4-1-3-10-2-1 2-7 3h-7v-2l-4 1h-12v-1l9-3 1-1h5l2 2h6l2-3-3-1 8-3z" fill="#576C84"/>
<path transform="translate(1298,682)" d="m0 0h11l18 4 3 3-12 2-13 4-11 7v-3l7-5 7-9v-1l-10-1z" fill="#C9EBF0"/>
<path transform="translate(1343,701)" d="m0 0 2 1-1 3 4-2h5l-3 5-6 8h-7l-4-5-2-1v-2l5-1 1-3-2-1z" fill="#707A93"/>
<path transform="translate(263,745)" d="m0 0 5 2 3 2 1-3 5-1 4 4v3h-8l1 2 6-1-1 3h-7l-3-1-2 1h-6l-2-2v-6z" fill="#1A1C29"/>
<path transform="translate(84,24)" d="m0 0h4v9l-6 3-2 7-1-2h-7l-1 3 1-10 6-7z" fill="#60CCD6"/>
<path transform="translate(1061,746)" d="m0 0 8 5-2 1-3 12-4 6h-7l-4-5 1-4 1 2v-6l3-3 2 1 4 10 2-3v-6l-2-4h-2v-2l5 1z" fill="#89A1B3"/>
<path transform="translate(1155,684)" d="m0 0h1l2 10 2 9 1 2v12l2 1-9-1-1-5v-16z" fill="#A2A4B2"/>
<path transform="translate(1322,283)" d="m0 0 2 1-1 2 5 1 1 4h6l1 5 3-2 6 1v4h-3v2l-7-1-1-3-6-1-1-3-6-1-2-1v-3l-3-1z" fill="#CDD5DC"/>
<path transform="translate(1108,735)" d="m0 0 11 5 5 7-1 2-5-4-1 4-5-2v6l-3-2 1 10-2-2-4-16 3-2z" fill="#686B81"/>
<path transform="translate(299,680)" d="m0 0 4 1 1 3-6-1v2l6 2-1 4-5 1-4-2-4 2-5-1-1-1v-8l1-1h7l3 2z" fill="#1B1E2C"/>
<path transform="translate(275,472)" d="m0 0h11l1 6h-2v-5h-9v31l5-1 3 1 1-15h1v25h-11z" fill="#64B6C4"/>
<path transform="translate(1020,573)" d="m0 0 5 2 16 9-2 7v3l-4-2-4-3v-2l-4-2-7-6-1-5z" fill="#131421"/>
<path transform="translate(674,371)" d="m0 0 3 1-11 7-12 12-8 13-4 10-2 10v28h-2l-1-7v-21l3-12 5-12 7-10 9-10z" fill="#79B4C2"/>
<path transform="translate(242,480)" d="m0 0h8l6 5 1 5h-21l1-6z" fill="#222939"/>
<path transform="translate(1490,34)" d="m0 0h3v13h-3v-2l-3 2h-7l-2-1-1-7 4-4h5l3 2z" fill="#343644"/>
<path transform="translate(1404,35)" d="m0 0h2v12h-8l-1-3h-2l-1 3h-7l-1-1 1-7 1-1h6l1 3h2l1-3h6z" fill="#959BAC"/>
<path transform="translate(1314,739)" d="m0 0h2v2l-9 3-10 4-14 10h-2v2l-5 2v2l-8 7-3 3h-6l12-12 16-11 15-8z" fill="#5F9BAD"/>
<path transform="translate(1e3 343)" d="m0 0 2 1-12 11-1 7 5 6 2 1v3l-5-2-8-6-2-2v-6l7-6z" fill="#586988"/>
<path transform="translate(382,293)" d="m0 0h7v2l5-2h6l2 4h-3v-2h-5l1 6 4 1v-2h3l-2 4h-6l-3-2-3 2h-5l-3-3v-6z" fill="#212433"/>
<path transform="translate(1265,38)" d="m0 0h6l2 2 2-2h8v9h-18l-2-2v-5z" fill="#707483"/>
<path transform="translate(178,472)" d="m0 0h10v1h-9v31l8 1 1-18h1v27h-11z" fill="#53A3B4"/>
<path transform="translate(1199,749)" d="m0 0h7l5 12 4 11v2h-6l-2-7h-2l-5-16z" fill="#737B93"/>
<path transform="translate(146,480)" d="m0 0h6l6 4 1 6h-20l1-5 4-4z" fill="#1C1F2E"/>
<path transform="translate(1417,715)" d="m0 0 1 2h2l2 12v15l-2 14-3 8-4 8-3-1 4-14 3-7 2-11v-17z" fill="#4A586E"/>
<path transform="translate(1315,715)" d="m0 0 10 2 1 5-5 5h-5-4l-3-3-3-1 2-4 6-1z" fill="#8EE6EC"/>
<path transform="translate(72,678)" d="m0 0h6l4 4-1 7-5 3-5-1-3-3v-6z" fill="#8D92A4"/>
<path transform="translate(1178,757)" d="m0 0h2l3 13v4h-12v-11z" fill="#99E8ED"/>
<path transform="translate(1133,723)" d="m0 0 1 3 7-2 5 1v5h-12l1 6-3 2-7-2-5-5v-5l12 5z" fill="#7E8B9F"/>
<path transform="translate(351,289)" d="m0 0h2v4h6l2 2v9h-3v-9h-5v9h-4l-5-1-1-10 1-3h2v3h3z" fill="#373C52"/>
<path transform="translate(1307,693)" d="m0 0 3 1-2 1 6 1-10 5-2 6-14 3-4-1 10-8z" fill="#898BA1"/>
<path transform="translate(1340,742)" d="m0 0h2v2h2l2 6-1 3 5 3 2 3-4-2-4-1-11 4-9 3-15 6-6 2h-5l2-2 27-10 7-3 4-1v-2l5-1-2-8-2-1z" fill="#4E5D73"/>
<path transform="translate(1352,453)" d="m0 0 14 7 27 16 10 7 5 5v7l-5 6-16 10-2-1 18-12 3-4-1-6-8-7-23-13-17-10-5-3z" fill="#A4A7B5"/>
<path transform="translate(170,290)" d="m0 0h7l5 4v6l-4 4h-8z" fill="#989DAD"/>
<path transform="translate(366,677)" d="m0 0h3v4h6l2 3v7h-3v-8l-4 1-1 7h-8l-1-1-1-9 1-3 3 1v2h3z" fill="#292B3C"/>
<path transform="translate(1113,736)" d="m0 0 6 1 7 9 6 11 1 3 2-2v16h-4l-4-18-6-12-3-4-5-2z" fill="#5CA3B5"/>
<path transform="translate(387,473)" d="m0 0h9v18l-1-2-7 1-1-3z" fill="#D1F4F8"/>
<path transform="translate(1126,737)" d="m0 0 6 2 1 1 1 7 3 2 1 19h2l1 6h-6l-1-16-6-16z" fill="#5B5472"/>
<path transform="translate(75,710)" d="m0 0h3v4l4-1 4 4v7h-3l-1-8h-4v8h-8l-1-1-1-9 1-3h2v2l3 1z" fill="#1B202E"/>
<path transform="translate(456,472)" d="m0 0h11l1 5h-2v-4h-9l1 34 7-1 1-18h1v26h-11z" fill="#6AB6C5"/>
<path transform="translate(1290,268)" d="m0 0 5 1v3l1 4 8 1 6 1 1 2-6 2h-10l-6-4-2-2v-5z" fill="#F7FAFC"/>
<path transform="translate(1188,705)" d="m0 0h19l1 2-8 1 4 5 1 9-2-4-4-3-6-3-1-3-4-1-20-1v-1z" fill="#C5E2E8"/>
<path transform="translate(495,490)" d="m0 0h1v24h-10v-11l2-2 7-1z" fill="#5DD3DD"/>
<path transform="translate(302,374)" d="m0 0h7l6 5v4h-19l1-5z" fill="#1D1F2D"/>
<path transform="translate(1067,752)" d="m0 0h1v6l5 1 16 12 2 3h-7l-10-7-7-5-1-8z" fill="#5CD1DB"/>
<path transform="translate(181,374)" d="m0 0h7l6 5 1 4h-20l1-4z" fill="#1D1F2C"/>
<path transform="translate(1104,661)" d="m0 0 6 1 1 7 5 10 1 3v21l1 13-2 1-2-11-1-23-4-13z" fill="#92C8D2"/>
<path transform="translate(639,452)" d="m0 0h2l6 16 7 11 8 9 13 9 2 1v2l-5-1-13-10-8-9-8-14-4-10z" fill="#5ABFCC"/>
<path transform="translate(1333,327)" d="m0 0 5 4 4 7-2 5-4-1-9-9 1-4z" fill="#A4A5B3"/>
<path transform="translate(142,289)" d="m0 0 5 1 1 1v11l-2 2h-5l-3-4v-7z" fill="#BFCDD6"/>
<path transform="translate(1279,751)" d="m0 0 2 1-12 11-3 5-7 6h-8l5-5 10-9z" fill="#5DD4DD"/>
<path transform="translate(1338,744)" d="m0 0h3l2 3v5l-26 6 3-3 15-9z" fill="#A1E7EC"/>
<path transform="translate(228,745)" d="m0 0h6l4 3v7l-1 1h-7v5h-3v-15z" fill="#868A9B"/>
<path transform="translate(316,746)" d="m0 0h9v13l-2 2h-7l-1-3 6 1 1-3h-6l-2-2v-6z" fill="#8E91A2"/>
<path transform="translate(1011,715)" d="m0 0h8l-4 2 6 5 4 5 4 2 10 14 11 9 3 2-1 2-9-6-10-9-3-5-2-1v-2h-2l-4-6-5-6-6-4z" fill="#6F7992"/>
<path transform="translate(1088,721)" d="m0 0 5 1 5 2v10h-9l-2-2v-8z" fill="#777489"/>
<path transform="translate(698,608)" d="m0 0h8l2 2v7l-4 3-6-1-2-3v-6z" fill="#F1F1F4"/>
<path transform="translate(389,455)" d="m0 0h6l3 3v6l-3 3h-6l-3-3v-7z" fill="#C4E9EF"/>
<path transform="translate(498,677)" d="m0 0h3v14l-8 1-3-2v-7l2-2h6z" fill="#8E92A3"/>
<path transform="translate(466,710)" d="m0 0h3v14h-9l-2-2v-6l4-3 4 1z" fill="#7F8294"/>
<path transform="translate(497,587)" d="m0 0h8l5 4v4h-18l1-4z" fill="#1A1C29"/>
<path transform="translate(1146,755)" d="m0 0 3 1 3 9 2 9h-9v-18z" fill="#5C5371"/>
<path transform="translate(1161,743)" d="m0 0 3 1 3 4 2 9 2-4v20l-2-3-3-9-2-3v-3h-2l-1-6z" fill="#7790A8"/>
<path transform="translate(436,680)" d="m0 0 7 1v14l-2 1h-7l-1-3 7 1 1-3h-6l-2-2v-6z" fill="#989DAD"/>
<path transform="translate(1415,746)" d="m0 0 1 2-5 15-5 9-3 2h-14l5-5 4-3 3 5 3-2 1-3h2l2-5 2-4 2-10z" fill="#12131F"/>
<path transform="translate(296,587)" d="m0 0h7l5 3 1 5h-18l2-5z" fill="#171825"/>
<path transform="translate(143,710)" d="m0 0h2v14h-9l-2-3 1-6 3-2 5 1z" fill="#989FAE"/>
<path transform="translate(208,681)" d="m0 0h9l2 2v6l-2 2h-6l-1 5h-2z" fill="#8A90A2"/>
<path transform="translate(1365,690)" d="m0 0h11v1l10 2 3 4h-2l1 4-7-3-4-2-12-1v-3z" fill="#838499"/>
<path transform="translate(354,745)" d="m0 0h8v11h-10l-1-2v-6z" fill="#999DAD"/>
<path transform="translate(1110,722)" d="m0 0h5l3 3v6l-3 4h-5l-2-2v-8z" fill="#5A5472"/>
<path transform="translate(742,440)" d="m0 0h2v14h-8l-3-4 1-5 2-2 6 1z" fill="#82B6C4"/>
<path transform="translate(1161,720)" d="m0 0 3 1 1 9v5l3 9 2 2v13l-2-2-4-15-3-6-7-1 2-2 6-2v-9z" fill="#91C6D0"/>
<path transform="translate(204,710)" d="m0 0h2v14h-9l-1-1v-8l3-2 5 1z" fill="#9EA3B2"/>
<path transform="translate(1361,721)" d="m0 0 2 1-3 5-1 8v13l-4 1-1-4v-14l3-9 2 2z" fill="#84D7DF"/>
<path transform="translate(489,711)" d="m0 0h3l2 7 3-7h3l2 7 3-7h2l-2 10-1 3h-3l-3-7-2 7h-3z" fill="#8A92A3"/>
<path transform="translate(208,745)" d="m0 0 7 1v10l-7 1-4-4 1-6z" fill="#82869A"/>
<path transform="translate(1398,738)" d="m0 0 1 3h6l-2 11-4 8-2 1v-7l1-2h-2z" fill="#5C6480"/>
<path transform="translate(534,677)" d="m0 0h2v14h-8l-1-1-1-9 1-3 3 1v2h4z" fill="#505867"/>
<path transform="translate(454,745)" d="m0 0 7 1v10h-9l-2-2v-6z" fill="#9299A9"/>
<path transform="translate(405,745)" d="m0 0 7 1v10h-9l-2-2v-6z" fill="#8D8E9F"/>
<path transform="translate(1521,35)" d="m0 0h2v3h9l1 3h-2v-2l-2 1 4 3v4h-12l-1-9z" fill="#313747"/>
<path transform="translate(91,746)" d="m0 0h9v10h-9l-2-2v-6z" fill="#8F97A7"/>
<path transform="translate(303,746)" d="m0 0h9v10h-9l-2-2v-6z" fill="#9398A8"/>
<path transform="translate(157,746)" d="m0 0h9v10h-9l-2-2v-6z" fill="#8C95A7"/>
<path transform="translate(128,681)" d="m0 0h9v10h-9l-2-2v-6z" fill="#949AAA"/>
<path transform="translate(1165,688)" d="m0 0h1v18l-1 12-4-1-1-12-1-5 5 1v-10z" fill="#9BD0D9"/>
<path transform="translate(399,677)" d="m0 0h2v14h-9l-1-2v-6l2-2h6z" fill="#ACB0BC"/>
<path transform="translate(312,681)" d="m0 0h9v10h-9l-2-2 1-7z" fill="#898EA1"/>
<path transform="translate(1110,676)" d="m0 0h1l1 31 1 1v9l-1-2h-2l-2-14h-1l1-12 1-11z" fill="#888AA1"/>
<path transform="translate(303,290)" d="m0 0h3l3 8 2 1 3-9h3v14h-2l-1-7-2 6h-4l-2-6-1 6h-2z" fill="#BECBD4"/>
<path transform="translate(1357,750)" d="m0 0 5 1 2 3 1 5-10 5-16 4 1-2 11-4-4-4 1-2 2 2h9l-2-5z" fill="#688099"/>
<path transform="translate(1166,706)" d="m0 0 23 1-3 6-11-1-9-2z" fill="#EBFCFD"/>
<path transform="translate(697,443)" d="m0 0 8 1v10h-8l-3-4 1-5z" fill="#64AABB"/>
<path transform="translate(161,41)" d="m0 0h9v10h-9l-2-2v-6z" fill="#5BB9C8"/>
<path transform="translate(1185,733)" d="m0 0h12l7 4 2 6-1 4-2-5h-2v-3l-4-1v2h2v2l-3 1v-7h-8l-9 4 1-5z" fill="#7D859A"/>
<path transform="translate(1461,708)" d="m0 0 2 1-8 5-16 4-2 1-2 6h-1v-6l3-5 4-2 16-3z" fill="#919AAE"/>
<path transform="translate(1330,688)" d="m0 0 4 2v3l-2 1-24 1 2-1v-2l12-3z" fill="#2B3244"/>
<path transform="translate(472,680)" d="m0 0 5 1 2 3-1 6-3 2-5-1-2-2v-6z" fill="#8D90A2"/>
<path transform="translate(269,293)" d="m0 0h6l3 2v6l-3 3h-5l-3-3 1-7z" fill="#9EA3B2"/>
<path transform="translate(1183,756)" d="m0 0h2l3 6 1 12h-6l-2-7v-8z" fill="#5D5673"/>
<path transform="translate(1006,535)" d="m0 0v3l-10 7-1 7 6 7 22 13 1 2-6-2-18-11-6-5-2-4 1-7 8-7z" fill="#60627A"/>
<path transform="translate(1160,453)" d="m0 0 5 1-6 7-4 4-5-1-3-2v-2z" fill="#727B94"/>
<path transform="translate(211,293)" d="m0 0h6l3 3v5l-3 3h-5l-3-3 1-7z" fill="#9498A8"/>
<path transform="translate(321,293)" d="m0 0h6l3 3-1 6-2 2h-6l-2-3v-6z" fill="#C7D8DE"/>
<path transform="translate(339,713)" d="m0 0 5 1 2 3-1 6-1 1h-7l-2-2v-6z" fill="#8B91A2"/>
<path transform="translate(405,293)" d="m0 0h6l3 3v5l-4 3-5-1-2-2v-6z" fill="#989EAD"/>
<path transform="translate(179,713)" d="m0 0 7 1v10h-8l-2-2v-7z" fill="#949BAB"/>
<path transform="translate(314,508)" d="m0 0 11 1 6 3-2 2-3 1h-8l-7-3v-3z" fill="#5FCDD7"/>
<path transform="translate(267,290)" d="m0 0 7 1-4 2-2 3v5l3 4-4-2-3-1v3h-2l-1 2v-2l-3-1h2v-6h5v-2h-5v-4h7z" fill="#1B1B29"/>
<path transform="translate(340,680)" d="m0 0 5 2 1 1v8h-3v-8l-4 1-1 7h-2v-8h-5v8h-3v-10h11z" fill="#898FA1"/>
<path transform="translate(1197,738)" d="m0 0 4 1v3h2l3 4 2 3 6 16-1 4-7-19-8-1-1-7h2v-2h-2z" fill="#96BDC8"/>
<path transform="translate(107,745)" d="m0 0 5 1 4-1 4 4v7h-3l-1-8-3 1-1 7h-2v-8h-5v8h-3v-10z" fill="#8A96A7"/>
<path transform="translate(1188,735)" d="m0 0h8l3 2h-3l1 10-3-3-2-4v-3l-7 2 4 2-4 2h-3l-1 7-2-3v-7l6-4z" fill="#696982"/>
<path transform="translate(1166,723)" d="m0 0 1 3h14l2-1-2 6h-13l-1 3 2 9-1 4-3-11-3-2h3z" fill="#9CEEF2"/>
<path transform="translate(1155,719)" d="m0 0h8v3 9l-7 3-1-3 1-9-2 2z" fill="#949EB0"/>
<path transform="translate(771,472)" d="m0 0 2 4-9 11-10 9-6 3 2-5 9-7 8-9z" fill="#54ADBF"/>
<path transform="translate(406,681)" d="m0 0h6l2 2v6l-2 2h-7l-2-3 1-5z" fill="#9197A8"/>
<path transform="translate(423,681)" d="m0 0h6l2 2-1 7-1 1h-7l-2-3 1-6z" fill="#979DAD"/>
<path transform="translate(1177,460)" d="m0 0 5 2 2 1v3l-14 8h-5l-1-2 5-2 7-8z" fill="#9FA1B2"/>
<path transform="translate(247,713)" d="m0 0 5 2 2 3-1 4-2 2h-6l-2-2v-6z" fill="#9397A7"/>
<path transform="translate(110,38)" d="m0 0h3v5h5v-5h3v13h-3v-5h-5v5h-3z" fill="#C6C7CF"/>
<path transform="translate(1268,311)" d="m0 0h7l5 3-1 4-16-1 1-4z" fill="#D1F4F8"/>
<path transform="translate(1066,757)" d="m0 0h1l2 6 11 7 4 4h-8l-11-7z" fill="#5F9BAD"/>
<path transform="translate(1008,715)" d="m0 0h3l4 4 5 4 5 6-1 4-4-1-4-3-2-6-7-6z" fill="#61627F"/>
<path transform="translate(390,713)" d="m0 0 6 2v7l-2 2h-6l-2-2v-6z" fill="#9298A8"/>
<path transform="translate(380,681)" d="m0 0h7l2 2v6l-2 2h-7l-1-1v-7z" fill="#9397A8"/>
<path transform="translate(1152,668)" d="m0 0h5l6 7 2 6v10l-2-1-3-10-8-11z" fill="#D0EDF2"/>
<path transform="translate(166,681)" d="m0 0h6l2 2v6l-2 2h-7l-1-1v-7z" fill="#9297A8"/>
<path transform="translate(228,713)" d="m0 0 6 1 4-1 3 3v8h-2l-1-7-4-1v8h-3l-1-8-3 1-1 7h-2v-10z" fill="#949AAB"/>
<path transform="translate(151,680)" d="m0 0 5 2v9h-2v-8l-4 1-1 7h-2v-8h-5v8h-3v-10h11z" fill="#8E93A5"/>
<path transform="translate(137,41)" d="m0 0h6l2 2v6l-2 2h-6l-2-2v-6z" fill="#787B86"/>
<path transform="translate(125,41)" d="m0 0h6l2 2v6l-2 2h-6l-2-2v-6z" fill="#DFE3E8"/>
<path transform="translate(85,36)" d="m0 0h6l2 2v6l-2 2h-6l-2-2v-6z" fill="#DCEDF1"/>
<path transform="translate(1317,742)" d="m0 0h1v6h14l-5 4-7 4-6 1 2-5z" fill="#2B3446"/>
<path transform="translate(354,710)" d="m0 0h7v2l-4 1 4 1v10h-3v-8h-2v8h-3l-1-10z" fill="#868A9D"/>
<path transform="translate(1043,765)" d="m0 0 3 2v2l5-2 2 2 7 1-2 4h-18l1-2 4-2z" fill="#272D3F"/>
<path transform="translate(1401,719)" d="m0 0 5 5v14l-4 1-1-1z" fill="#A0A2B1"/>
<path transform="translate(147,38)" d="m0 0h8l2 1-1 5-2-1v-3h-4v4l4 1h-4v4l4-1 1-2h2l-1 5h-9z" fill="#5DBECC"/>
<path transform="translate(738,368)" d="m0 0 6 1 11 7 12 11 3 4v2l-4-2-9-10-14-9-5-3z" fill="#77CCD7"/>
<path transform="translate(1415,714)" d="m0 0 2 1 2 5-2 16h-1l-1-9-5-1-1-8h3l3 2z" fill="#252C3D"/>
<path transform="translate(438,713)" d="m0 0 5 1 2 3v3h-8l1 2 6-1-1 3h-7l-2-2v-6z" fill="#656A7D"/>
<path transform="translate(274,745)" d="m0 0 5 1 2 3v3h-8l1 2 6-1-1 3h-7l-2-2 1-7z" fill="#636778"/>
<path transform="translate(1321,703)" d="m0 0h6l2 1h8l-1 4-7 1-5-1-21-1v-1l18-1z" fill="#5C5471"/>
<path transform="translate(371,290)" d="m0 0 4 1 4 11v2l-3-1v-2h-6v2h-2l2-10z" fill="#898E9E"/>
<path transform="translate(1286,35)" d="m0 0h2v3h2v2h-2v5h3v-7h2l1 6 4 1v-7h2v9h-14l-1-9z" fill="#8B8FA1"/>
<path transform="translate(140,746)" d="m0 0h7l2 3v3h-8l1 2 6-1-1 3h-7l-2-2v-6z" fill="#9398A8"/>
<path transform="translate(70,746)" d="m0 0h7l2 3v3h-8l1 2 6-1-1 3h-7l-2-2v-6z" fill="#7C7F90"/>
<path transform="translate(1123,721)" d="m0 0 10 4v7l-10-4-2 2-1-7z" fill="#92C8D1"/>
<path transform="translate(1378,689)" d="m0 0h11l5 5 1 3h-6l-3-3-13-2 3-2z" fill="#A5A8B5"/>
<path transform="translate(1316,699)" d="m0 0h10v1l-7 1 15 1 1-2h5v3h-5v2h-6l-2-1h-12l-5-1v-2z" fill="#698BA1"/>
<path transform="translate(1024,642)" d="m0 0h5l2 2-1 7-5 1-4-4 1-5z" fill="#D1F4F8"/>
<path transform="translate(116,681)" d="m0 0h7l2 3v3h-8l1 2 7-1-2 3h-7l-2-3 1-5z" fill="#9499A9"/>
<path transform="translate(1223,234)" d="m0 0h5l-4 1v2l5-1v4h-4l-1 5h-5l-5-3 1-3 4-1 4 1-1-4z" fill="#BAC3CD"/>
<path transform="translate(330,745)" d="m0 0 5 1 2 2v4h-8l1 2 7-1-2 3h-6l-2-1v-8z" fill="#676B7C"/>
<path transform="translate(1410,729)" d="m0 0 5 2v10l-2 2h-5l1-13z" fill="#9FA0AF"/>
<path transform="translate(450,713)" d="m0 0 4 1 2 2v4l-7 1 4 1 3-1-1 3h-7l-2-2v-6z" fill="#7E8494"/>
<path transform="translate(1342,708)" d="m0 0 4 2-1 5-1 1h-7l-5-6v-1z" fill="#AFC3CC"/>
<path transform="translate(225,680)" d="m0 0 5 2 1 5h-8l1 2 7-1-1 3-6 1-3-3v-6z" fill="#7C7F90"/>
<path transform="translate(1326,758)" d="m0 0 2 1-12 5-16 6-4-1 12-7 14-3z" fill="#A8E7ED"/>
<path transform="translate(1170,750)" d="m0 0 9 2 2 3-9 8h-1z" fill="#272E3F"/>
<path transform="translate(494,745)" d="m0 0 5 1 2 2v4h-8l1 2 7-1-2 3h-6l-2-2v-7z" fill="#9A9CAA"/>
<path transform="translate(300,713)" d="m0 0 5 2 1 5-7 1 4 1 3-1-1 3h-7l-2-2v-6z" fill="#7E8293"/>
<path transform="translate(1398,701)" d="m0 0 7 4 3 10v11l-2-3-4-13-3-3z" fill="#252C3D"/>
<path transform="translate(699,419)" d="m0 0h6l2 2v4l-7 1h7l-2 3h-6l-2-2v-6z" fill="#7BA2B1"/>
<path transform="translate(1319,768)" d="m0 0 9 1-4 3-3 2h-14v-2z" fill="#C3C4CC"/>
<path transform="translate(72,680)" d="m0 0h6l2 5-3 5-5-1-2-3 1-5z" fill="#151724"/>
<path transform="translate(1299,761)" d="m0 0 3 1-17 9-4 3h-9l5-5 4-1h3z" fill="#676B82"/>
<path transform="translate(372,746)" d="m0 0h6l2 2v4l-7 1 4 1 3-1-1 3h-7l-2-2v-6z" fill="#7F8494"/>
<path transform="translate(483,745)" d="m0 0 5 2 1 5h-8l1 2 7-1-1 3h-7l-2-2v-6z" fill="#656A7A"/>
<path transform="translate(244,745)" d="m0 0 5 2 1 5h-8l1 2 7-1-1 3h-7l-2-2v-6z" fill="#666878"/>
<path transform="translate(126,713)" d="m0 0 5 1 2 2v4h-8l1 2 6-1-1 3h-6l-2-2v-6z" fill="#999DAC"/>
<path transform="translate(240,678)" d="m0 0 3 1v2h2v2h-2v7l2 1-5-1v-7l-4 1-1 7h-2v-10h7z" fill="#878DA1"/>
<path transform="translate(1296,265)" d="m0 0h11l4 2-3 3h-13l-5-2 3-2z" fill="#62D6DF"/>
<path transform="translate(1335,722)" d="m0 0 2 1-2 4-15 7-3-1-2 1-1-3 8-6 2 1v3l7-3v-2z" fill="#252C3D"/>
<path transform="translate(1199,707)" d="m0 0h9v16h-2l-3-10z" fill="#8694A8"/>
<path transform="translate(350,681)" d="m0 0h6l2 2v4h-8l1 2 4 1v-2l3 1-1 2h-8l-1-2v-6z" fill="#979BAB"/>
<path transform="translate(189,681)" d="m0 0h6l2 2v4h-8l1 2 7-1-1 3h-7l-2-2v-6z" fill="#616577"/>
<path transform="translate(423,510)" d="m0 0h13l1 3-6 2h-10l-3-2z" fill="#5ECAD5"/>
<path transform="translate(1045,460)" d="m0 0 2 1 1 2 8 4v2h4v2h-2v2h-3l-1-2-5-1 3-2h-7v-2h-3l1-2 1-1-2-2z" fill="#717187"/>
<path transform="translate(1313,431)" d="m0 0 6 2 14 8 17 10 1 2-6-2-21-12-10-6z" fill="#BFC5CE"/>
<path transform="translate(1176,38)" d="m0 0h5l2 2v6l-1 1h-6l-2-2v-5z" fill="#CFE0E6"/>
<path transform="translate(351,289)" d="m0 0h2v4h6l2 2v9h-3v-9h-5v9h-2z" fill="#BFCAD2"/>
<path transform="translate(1031,728)" d="m0 0 4 2 11 12 8 7-1 4-15-15-7-9z" fill="#5F9BAD"/>
<path transform="translate(1087,687)" d="m0 0h1l1 8h2l-2 11h-2v-2h-2v-11z" fill="#6F7B93"/>
<path transform="translate(1109,663)" d="m0 0 4 1 5 5 1 4v8l-2-3-3-6-3-1-2-4z" fill="#CBECF0"/>
<path transform="translate(724,443)" d="m0 0h5l2 2v4h-7l1 2h6l-2 3h-5l-2-2v-7z" fill="#8ECDD6"/>
<path transform="translate(686,416)" d="m0 0h6l2 3h-8l-1 1v5l7 2v-2l-4-2v-1h7l-1 5-2 2h-6l-4-4v-5z" fill="#5CAEBE"/>
<path transform="translate(1185,38)" d="m0 0h14l1 1v8h-2v-7h-4v7h-2v-7h-5v7h-2z" fill="#C5DAE1"/>
<path transform="translate(723,416)" d="m0 0h11l-1 11h-2v-6l-9 7h-2v-2l9-7-6-1z" fill="#BBC2CC"/>
<path transform="translate(686,418)" d="m0 0 9 1v3l-6 1 4 2-1 2h-6l-2-2v-5z" fill="#1E2332"/>
<path transform="translate(716,362)" d="m0 0h7l14 4 3 2-4 1-15-4-18-1v-1z" fill="#73A1B1"/>
<path transform="translate(130,289)" d="m0 0 5 1 1 1v6l-4 4 5 1v2h-10l2-4 3-1 1-7h-2l-1 2h-3l2-4z" fill="#BDC7D2"/>
<path transform="translate(1054,753)" d="m0 0h6l3 3-1 9-2 2-3-1 2-2z" fill="#7C7F92"/>
<path transform="translate(1169,741)" d="m0 0 8 3 2-3 2 11-11-4z" fill="#7790A8"/>
<path transform="translate(1212,520)" d="m0 0 10 1 6 1 4-1-3 3-11 6-2-1 2-2-4-5z" fill="#838EA5"/>
<path transform="translate(1059,490)" d="m0 0 9 1 7 3-5 4-5-2-7-4z" fill="#252C3D"/>
<path transform="translate(1130,351)" d="m0 0 6 2 4 3v2l2 1-7 1-1-2-6-2-2-2z" fill="#AACDD6"/>
<path transform="translate(367,677)" d="m0 0h2v4h6l2 3v7h-3v-8l-4 1-1 7h-2z" fill="#888C9F"/>
<path transform="translate(1156,721)" d="m0 0 1 2-2 11h-4l-3-6v-3h5l1-2z" fill="#7D7E90"/>
<path transform="translate(1013,716)" d="m0 0h9l4 2v3l5 6h-3l-5-4-7-4z" fill="#5F98AB"/>
<path transform="translate(76,710)" d="m0 0h2v4l4-1 4 4v7h-3l-1-8h-4v8h-2z" fill="#8D90A1"/>
<path transform="translate(1307,693)" d="m0 0 3 1-2 1 6 1-10 5-2 6-2-2-1-6 4-4z" fill="#727A92"/>
<path transform="translate(1163,349)" d="m0 0 1 3 4-1 5 1 1 3-3 4-5-1-3-2z" fill="#888AA0"/>
<path transform="translate(331,293)" d="m0 0h8l2 1v10h-2l-1-8-4-1v9h-3z" fill="#C2CCD6"/>
<path transform="translate(428,293)" d="m0 0h8l2 2v9h-3l-1-8h-3l-1 8h-2z" fill="#9296A6"/>
<path transform="translate(1371,35)" d="m0 0h6l1 1v6h-6v5h-2v-11z" fill="#636677"/>
<path transform="translate(1319,709)" d="m0 0h6l-2 3 2 4h-2v-2h-11l-1 2-5-2 1-2z" fill="#5B5370"/>
<path transform="translate(654,481)" d="m0 0h2l6 7 13 9 2 1v2l-5-1-13-10-5-6z" fill="#5BB9C8"/>
<path transform="translate(222,293)" d="m0 0h2l1 8h3l1-8h3v10l-1 1h-7l-2-2z" fill="#8D9BA9"/>
<path transform="translate(1126,760)" d="m0 0 2 3 2 7v4h-7l1-11h2z" fill="#49556B"/>
<path transform="translate(1113,736)" d="m0 0 6 1 7 9 3 5v6l-3-3-5-10-3-4-5-2z" fill="#629AAD"/>
<path transform="translate(416,293)" d="m0 0h2l1 8h3l1-8h3v10l-4 1-5-1-1-1z" fill="#8F9DAB"/>
<path transform="translate(1310,38)" d="m0 0h6l2 2v3h-8l1 2 6-1-1 3-5 1-3-3v-5z" fill="#9A9EAD"/>
<path transform="translate(286,745)" d="m0 0 5 1 1 1v9h-2l-1-7-3-1-1 8h-3v-10z" fill="#8E91A3"/>
<path transform="translate(1118,725)" d="m0 0h1v10l3 1 5 8 1 6-4-5-5-7-6-1-3-1v-1l6-2z" fill="#8CC6D0"/>
<path transform="translate(1374,698)" d="m0 0 8 1 4 2-1 3h-7l-11-2 4-2z" fill="#12131F"/>
<path transform="translate(1119,697)" d="m0 0 3 1 2 6v7l-4 1-1-1z" fill="#CCEEF2"/>
<path transform="translate(1141,687)" d="m0 0 2 4 4-2-2 5-6 9-3 8-1-4 4-13z" fill="#8B93A7"/>
<path transform="translate(234,293)" d="m0 0h8l2 2v9h-3v-9l-4 1-1 7h-2z" fill="#969BAA"/>
<path transform="translate(1102,284)" d="m0 0 2 1-11 7-17 10-4 2 2-4 14-8z" fill="#878A9D"/>
<path transform="translate(1500,38)" d="m0 0h6l2 2v3h-7l1 2 5-1v3h-7l-2-3 1-5z" fill="#828798"/>
<path transform="translate(1481,35)" d="m0 0h5l3 2v2l-8-1-1 4 1 2h8l-2 3h-7l-2-1-1-7z" fill="#8C97A7"/>
<path transform="translate(1413,759)" d="m0 0h1l-1 8-3 7h-7l1-2h2l2-5z" fill="#242B3C"/>
<path transform="translate(185,745)" d="m0 0 5 2v9h-2v-8h-5v8h-3v-10z" fill="#9093A5"/>
<path transform="translate(677,499)" d="m0 0 10 3 5 2 6 1 1 3-9-1-15-6z" fill="#57A8B8"/>
<path transform="translate(1404,35)" d="m0 0h2v12l-7-1v-6l4-2z" fill="#5E6373"/>
<path transform="translate(1390,745)" d="m0 0h3l-1 6h-7l-7 1v-2l5-1 1-3z" fill="#72A1B1"/>
<path transform="translate(1408,706)" d="m0 0 5 2 4 5-2 7-6-2v-6h2l-2-4z" fill="#48556C"/>
<path transform="translate(1122,695)" d="m0 0 3 1h-2l2 3v15l-1 4h-2l-1 4-2-1 2-7 2-3v-7l-3-8z" fill="#546076"/>
<path transform="translate(1265,38)" d="m0 0h6l1 5h-6v3h4v-2h2l-1 3h-6l-2-2v-5z" fill="#9DA2B1"/>
<path transform="translate(172,41)" d="m0 0h9l1 1v9h-2v-7l-5-1v8h-3z" fill="#5DBECB"/>
<path transform="translate(185,37)" d="m0 0h2l1 6 2-2 3 1-2 5 2 4-4-1-1-2-1 3h-2z" fill="#5AC1CE"/>
<path transform="translate(1153,734)" d="m0 0 8 1 3 4 2 8-3-3-4-1-3-5v-2h-3z" fill="#9099AD"/>
<path transform="translate(1039,728)" d="m0 0 5 2 12 11-1 4-12-12-4-3z" fill="#95E0E6"/>
<path transform="translate(287,710)" d="m0 0h2l1 6 3-3h2l-2 4v4l2 3-4-1-1-1-1 2h-2z" fill="#9597A6"/>
<path transform="translate(399,713)" d="m0 0h2l1 9 3-1 1-7h2v10h-8l-2-2v-8z" fill="#8A93A5"/>
<path transform="translate(445,681)" d="m0 0 3 1 1 5h2l1-5 3-1-3 9-3 6h-2v-8z" fill="#9295A6"/>
<path transform="translate(515,681)" d="m0 0h8l2 2v8h-3v-8l-4 1-1 7h-2z" fill="#8E93A5"/>
<path transform="translate(1339,294)" d="m0 0 6 1v4h-3v2l-7-1-1-4z" fill="#63C3CF"/>
<path transform="translate(1204,38)" d="m0 0h5l2 2v3h-7v2l7-1-1 3h-6l-2-3 1-5z" fill="#B6C4CC"/>
<path transform="translate(1163,35)" d="m0 0h2v5h5v-5h2v12h-2v-5h-5v5h-2z" fill="#BED6DE"/>
<path transform="translate(1322,761)" d="m0 0 4 1-14 6-9 3h-5l2-2z" fill="#455166"/>
<path transform="translate(439,745)" d="m0 0h2v10l4-2 1-7h2v10h-8l-2-2v-8z" fill="#8E92A4"/>
<path transform="translate(474,713)" d="m0 0 5 2v2l-5-1-1 2 5 1 2 1v2h3v2h-11l-1-3 5 1-5-4 1-4z" fill="#868C9B"/>
<path transform="translate(515,714)" d="m0 0 4 3v3l-8 1 4 1 3-1-1 3h-7l-2-2v-6l3-1v2l5 1z" fill="#9399A9"/>
<path transform="translate(427,713)" d="m0 0 5 2 1 2v7h-3l-1-8-3 1-1 7h-2v-10z" fill="#9396A7"/>
<path transform="translate(1369,710)" d="m0 0 2 1-2 2-2 5-3 3-3 1-3 3 1-6 8-8z" fill="#A9E3E9"/>
<path transform="translate(544,681)" d="m0 0 3 1 1 5h2l2-6h2l-3 10-4 6-1-3v-7z" fill="#8C95A5"/>
<path transform="translate(1126,737)" d="m0 0 6 2 1 1 1 14-2-1-4-11z" fill="#2B3547"/>
<path transform="translate(211,713)" d="m0 0 4 1 1 3-5-1v2l5 1 1 4-1 1h-7l-1-3 6 2v-3l-5-1-1-4z" fill="#86899C"/>
<path transform="translate(262,681)" d="m0 0h2l1 8h3l1-8h3v10h-9l-1-1z" fill="#8C91A4"/>
<path transform="translate(84,681)" d="m0 0h2l1 8h3l1-8h3v10h-9l-1-1z" fill="#888B9F"/>
<path transform="translate(679,440)" d="m0 0 5 1 1 3-6-1v2l6 3-1 5-5 1-2-4 6 2-1-3-6-3 1-5z" fill="#549FB3"/>
<path transform="translate(1519,767)" d="m0 0 8 1 19 5v1l-10-1-14-3-3-1z" fill="#949FB1"/>
<path transform="translate(1206,735)" d="m0 0h9l8 4v1h-10l-7-1z" fill="#D0F3F7"/>
<path transform="translate(320,713)" d="m0 0h2l-1 5-5 11h-2l1-6-3-9 3 1 1 5h2l1-5z" fill="#8C93A4"/>
<path transform="translate(1090,720)" d="m0 0h14l4 1-2 4-4-1-1 2h-2v-3l-9-2z" fill="#202636"/>
<path transform="translate(91,713)" d="m0 0 5 1 1 2-2 2v-2l-5 1-1 2h6v1l-5 1 4 1 3-1-1 3h-7l-2-2v-6z" fill="#8C94A5"/>
<path transform="translate(299,680)" d="m0 0 4 1 1 3-6-1v2l6 2-1 4-5 1-3-2v-2h3v2l3-2-5-2 1-5z" fill="#888D9F"/>
<path transform="translate(507,680)" d="m0 0 5 2 1 5h-8l1 2 7-1-1 3h-8l-1-1v-6l1 2h7l-1-2-6-2z" fill="#9497A8"/>
<path transform="translate(394,293)" d="m0 0h6l2 4h-3v-2h-5l1 6 4 1v-2h3l-2 4h-6l-2-2v-7z" fill="#9496A6"/>
<path transform="translate(173,292)" d="m0 0 6 1v8l-6 1z" fill="#23232E"/>
<path transform="translate(1130,288)" d="m0 0 5 1 3 2-1 4h-6l-4-3 1-3z" fill="#B9C1CB"/>
<path transform="translate(1204,749)" d="m0 0 3 1 8 22v2h-2l-7-17z" fill="#7D93A9"/>
<path transform="translate(430,745)" d="m0 0 4 1 2 2v8h-2l-1-7h-4l-1 7h-2v-10z" fill="#8E9CAB"/>
<path transform="translate(418,745)" d="m0 0 4 1 2 2v8h-2l-1-7h-4l-1 7h-2v-10z" fill="#8C98A8"/>
<path transform="translate(770,392)" d="m0 0 4 4 6 13-1 4-3-5-6-12-2-3z" fill="#65BDCA"/>
<path transform="translate(1111,370)" d="m0 0 4 1 6 3-4 2 3 2-2 1-8-4-3-2v-2z" fill="#A0DAE2"/>
<path transform="translate(1120,726)" d="m0 0 12 5 1 3-3 1-7-1-3-3z" fill="#6797AA"/>
<path transform="translate(375,714)" d="m0 0h2l3 5 2-5h2l-1 6-4 9h-2v-8l-2-4z" fill="#8B92A3"/>
<path transform="translate(1332,698)" d="m0 0h4l-2 5-15-1-1-2z" fill="#88C5D0"/>
<path transform="translate(1378,693)" d="m0 0h8l3 4h-2l1 4-7-3-4-4z" fill="#626A83"/>
<path transform="translate(1194,763)" d="m0 0 9 1 1 3v7h-3l-4-8z" fill="#5E6080"/>
<path transform="translate(1423,733)" d="m0 0 2 3 4 13 2 2-5 1-1-1-2-13z" fill="#5E6584"/>
<path transform="translate(1147,728)" d="m0 0 3 1v5l-14 2 1-4 9-2z" fill="#46475F"/>
<path transform="translate(1396,694)" d="m0 0 4 1v2l3 1 2 7-4-1-5-5z" fill="#55556F"/>
<path transform="translate(285,681)" d="m0 0h7v3l-6-1v3h5v1h-5l1 2 6-1-1 3-5 1-3-2v-8z" fill="#8E93A4"/>
<path transform="translate(189,293)" d="m0 0h5v3l-4-1v2l5 1 1 5-7 1-1-4h2v2h4l-1-2-5-2z" fill="#999BAB"/>
<path transform="translate(382,293)" d="m0 0h7l1 3-7-1v7l7-2-2 4h-5l-3-3v-6z" fill="#A1A2B0"/>
<path transform="translate(1104,714)" d="m0 0 1 4h2l1-2v2h6v2h2l2 5-3-2h-5l-3 4 1-5 1-1-5-2z" fill="#7091A6"/>
<path transform="translate(1359,690)" d="m0 0h6v2h7v1l-11 1h-8v-1l-6-1v-1z" fill="#626782"/>
<path transform="translate(275,681)" d="m0 0h6l1 3-6-1v2l6 2-1 4-5 1-2-1v-3h2v2h4l-1-2-5-2z" fill="#8E92A2"/>
<path transform="translate(1018,362)" d="m0 0 6 2v2h4v2l-5 2-5-3-1-2h-3v-2z" fill="#8AA0B2"/>
<path transform="translate(131,745)" d="m0 0 5 2v9h-2l-1-8-3 1-1 7h-2v-10z" fill="#959BAB"/>
<path transform="translate(173,745)" d="m0 0 5 2v9h-2v-8h-5v8h-2v-10z" fill="#9498A8"/>
<path transform="translate(1e3 355)" d="m0 0 5 1 4 2 1 2 3 1-7 2-1-2 1-2h-2v2l-5-2v-3z" fill="#8C99AD"/>
<path transform="translate(199,293)" d="m0 0h7l1 3h-6v5l4 1v-2l3 1-3 3h-5l-2-2v-7z" fill="#9B9DAB"/>
<path transform="translate(258,290)" d="m0 0h8v2h-6v4h5v2h-5v6h-2z" fill="#9B9EAE"/>
<path transform="translate(1191,253)" d="m0 0h6l4 2v3l-7 1-4-2z" fill="#BAC3CD"/>
<path transform="translate(475,742)" d="m0 0 3 1v3 2h-2v8h-3l-1-10z" fill="#7D8293"/>
<path transform="translate(108,713)" d="m0 0 4 1 2 1v2h-7l1 5 6-1-1 3h-7l-2-2v-6z" fill="#8A91A2"/>
<path transform="translate(1352,453)" d="m0 0 14 7 12 7-2 2-24-14z" fill="#9597A8"/>
<path transform="translate(303,290)" d="m0 0h3l3 8v3h2v2h-3l-2-6-1 6h-2z" fill="#CDE9ED"/>
<path transform="translate(267,290)" d="m0 0 7 1-4 2-3 7-2-4h-5v-4h7z" fill="#1C1E2B"/>
<path transform="translate(385,745)" d="m0 0 5 2v2l-5-1 5 4v4h-7l-1-3 6 2v-3l-5-1-1-4z" fill="#949AAB"/>
<path transform="translate(364,743)" d="m0 0 5 2v3h-2v7l2 1-5-1-1-10z" fill="#7E8397"/>
<path transform="translate(248,681)" d="m0 0h5l1 3-5-1v2l6 2-1 4-5 1-2-1v-3h2v2h4l-1-2-5-2z" fill="#9194A5"/>
<path transform="translate(1112,298)" d="m0 0h6v4l2 1v-2h2l-2 4-5-1-4-2z" fill="#C2CAD2"/>
<path transform="translate(394,295)" d="m0 0h5v2l4-1v5l-4-1v2l-5-1z" fill="#1A1C29"/>
<path transform="translate(141,292)" d="m0 0h5v9l-4 1-1-1z" fill="#292B37"/>
<path transform="translate(245,681)" d="m0 0 2 1v4l6 2v2h-4v-2h-2l-1 3-3-1v-7h2z" fill="#1B1E2D"/>
<path transform="translate(709,416)" d="m0 0h3v3h2v2h-2v6h2v2l-5-1-1-9z" fill="#74A0B3"/>
<path transform="translate(1124,749)" d="m0 0 2 2 4 12 1 11-2-4-4-12-1-2z" fill="#5D6A8A"/>
<path transform="translate(505,745)" d="m0 0 4 1v3l-3-1-1 2 5 1 1 4-1 1h-6v-3l4 1-3-2-2-1 1-5z" fill="#959BAA"/>
<path transform="translate(193,746)" d="m0 0h2l1 8h3l1-8h2v10h-8l-1-1z" fill="#94A1AF"/>
<path transform="translate(1399,720)" d="m0 0 2 4 1 14h4v3l-5 1-2-1z" fill="#75798E"/>
<path transform="translate(258,713)" d="m0 0 5 2v2l-5-1-1 2 5 1 1 4-1 1h-6l-1-3 6 2v-3l-5-1-1-4z" fill="#969EAE"/>
<path transform="translate(440,290)" d="m0 0h3v3h2v2h-2v7l2 1-5-1-1-9z" fill="#9296A8"/>
<path transform="translate(246,290)" d="m0 0h3v3h2v2h-2v7l2 1-5-1-1-9z" fill="#9397A8"/>
<path transform="translate(1155,274)" d="m0 0 6 1 3 2-1 3-5 1-5-3 1-3v2h3v-2z" fill="#C2CCD4"/>
<path transform="translate(1162,269)" d="m0 0h6l-1 6 3-3h2v3l-7 1v-2l-4-1z" fill="#C4CCD4"/>
<path transform="translate(1167,753)" d="m0 0 2 4 2-4v20l-2-3-2-11z" fill="#5E98AA"/>
<path transform="translate(316,746)" d="m0 0h8v7l-2-4h-5l1 5 3 2h-5l-2-2v-6z" fill="#959CAC"/>
<path transform="translate(1088,726)" d="m0 0h9v5h-9z" fill="#969BAD"/>
<path transform="translate(1422,722)" d="m0 0 4 5 1 3h4l-1 4-2 1-2-1v-2h-2l-1-5-2-1z" fill="#6299AC"/>
<path transform="translate(1161,720)" d="m0 0 3 1 1 9v4l-4 1h-7l2-2 6-2v-9z" fill="#93CDD6"/>
<path transform="translate(168,713)" d="m0 0 5 2 1 2-6-1-1 5 4 1 3-1v2l-2 1h-6l-2-2v-6z" fill="#9298A9"/>
<path transform="translate(1290,488)" d="m0 0 2 1-10 10-2-1-1-4z" fill="#6C6D81"/>
<path transform="translate(780,411)" d="m0 0 2 3 2 8v8l-3-3-3-15z" fill="#5AB0C0"/>
<path transform="translate(1343,300)" d="m0 0h7l3 3-5 3-6-2z" fill="#65BFCC"/>
<path transform="translate(1061,746)" d="m0 0 8 5-2 1-2 6-5-5-2-1v-2l5 1z" fill="#738EA2"/>
<path transform="translate(1e3 716)" d="m0 0 4 2 1 3h-2l-1 3h-4l-2-5z" fill="#49546B"/>
<path transform="translate(1319,713)" d="m0 0 4 1v2l4 1-1 4-1-3-10-2-1 2-6 1 2-3h2v-2z" fill="#67869B"/>
<path transform="translate(1394,701)" d="m0 0 3 3 2-1 1 6 3 1 2 5-1 3-3-4h-2v-6l-4-1z" fill="#62768D"/>
<path transform="translate(1334,691)" d="m0 0 6 1-4 1v2l-17 1h-12v-1l25-2h2z" fill="#5D5B78"/>
<path transform="translate(1073,495)" d="m0 0 2 1-2 5 5 2 2 1-1 2-10-5-4 1 2-3-1-2 6-1z" fill="#7C7F94"/>
<path transform="translate(1033,456)" d="m0 0h5v2l4 1-2 1v2l2 1-5 1v-2h-2l-1-3h-3z" fill="#767689"/>
<path transform="translate(688,441)" d="m0 0h2v2h3v2h-2v7h2v2l-4-1-1-1-1-9z" fill="#548DA1"/>
<path transform="translate(263,745)" d="m0 0 5 2 1 2-8-1 1 6 6-1-1 3h-6l-2-2v-6z" fill="#9499A9"/>
<path transform="translate(1145,719)" d="m0 0 1 3-1 2-11 2 1-4z" fill="#6C6C80"/>
<path transform="translate(1183,257)" d="m0 0h4l1 5h2v-2h3v3l-6 1-6-3z" fill="#C3C6CE"/>
<path transform="translate(1320,38)" d="m0 0h5l1 3h-4l4 2v4h-6l-1-3 5 2v-2l-5-2z" fill="#979AAA"/>
<path transform="translate(1510,38)" d="m0 0h7l1 1v8h-2v-7h-4v7h-2z" fill="#979AAA"/>
<path transform="translate(1183,755)" d="m0 0h4l3 6v13l-2-3-1-9-2-3v-3z" fill="#6C6B7F"/>
<path transform="translate(502,748)" d="m0 0 1 3 6 2-1 2-4-1h-3l-7 1-1-3h8z" fill="#1F2231"/>
<path transform="translate(87,745)" d="m0 0 1 2-2 5 2 4h-3v-2l-5 2 1-7-1-3 3 1v2h2z" fill="#9196A7"/>
<path transform="translate(1340,747)" d="m0 0 2 3-9 3-4-1 3-4z" fill="#CBF2F6"/>
<path transform="translate(1124,714)" d="m0 0 2 4 8 3-1 4-9-3z" fill="#9BECF0"/>
<path transform="translate(357,714)" d="m0 0h4v10h-3v-8h-2v8h-1v-9z" fill="#626778"/>
<path transform="translate(199,681)" d="m0 0h2l2 2 4-2-2 6 2 4h-3l-1-2-4 2 1-6z" fill="#9097A7"/>
<path transform="translate(696,506)" d="m0 0 22 1-1 2h-18v-2z" fill="#55BDCC"/>
<path transform="translate(1135,359)" d="m0 0 6 1 1 3-3 2-5-1-2-1 1-3z" fill="#F7FCFD"/>
<path transform="translate(1232,229)" d="m0 0h6v2l4 1-1 3-5 1-1-3 1-3-3 1-1 2h-2v-3z" fill="#C8D0D7"/>
<path transform="translate(1408,38)" d="m0 0h2l1 7h3l1-7h2v9h-8l-1-1z" fill="#9198AB"/>
<path transform="translate(1255,35)" d="m0 0h7v2h-5v3h4v2h-4v5h-2z" fill="#989BAB"/>
<path transform="translate(380,749)" d="m0 0 1 2 7 1v3l-6-1-2 1v-2l-3 2-4-1-1-2h8z" fill="#202231"/>
<path transform="translate(158,748)" d="m0 0h5l1 5-2 2-4-1-1-5z" fill="#1B1E2C"/>
<path transform="translate(92,748)" d="m0 0h5l1 5-2 2-4-1-1-5z" fill="#1B1D2C"/>
<path transform="translate(1149,735)" d="m0 0 4 2 4 15-1 3-2-7-2-3-2-4z" fill="#707A93"/>
<path transform="translate(364,711)" d="m0 0h2v2l3 1-1 2h-2v6l3 1v1h-5l-1-11z" fill="#8A90A2"/>
<path transform="translate(738,368)" d="m0 0 6 1 11 7v3l-14-8z" fill="#83C1CD"/>
<path transform="translate(1132,363)" d="m0 0 7 2v4l4 1-1 4-2-1-5-4-1-3-2-1z" fill="#7BB3C1"/>
<path transform="translate(270,295)" d="m0 0h5l1 5-2 2h-4l-1-6z" fill="#2B2D3A"/>
<path transform="translate(344,290)" d="m0 0h2v3h3v2h-3v7h3v2l-5-1-1-10z" fill="#C8DDE4"/>
<path transform="translate(1420,38)" d="m0 0h6l2 3-7-1 1 5 6-1-1 3h-7l-1-1v-7z" fill="#9698A8"/>
<path transform="translate(1334,753)" d="m0 0h4v2l-7 4-6-1 1-3z" fill="#58BECC"/>
<path transform="translate(270,749)" d="m0 0h2v2h7v-2h2v3h-8l1 2 6-1-1 3h-7l-2-2z" fill="#959EAD"/>
<path transform="translate(453,748)" d="m0 0h5l1 5-2 2-4-1-1-5z" fill="#1B1E2C"/>
<path transform="translate(304,748)" d="m0 0h5l1 5-2 2-4-1-1-5z" fill="#191C29"/>
<path transform="translate(235,713)" d="m0 0 4 1 2 2v8h-2l-1-7-4-1v8h-1l-1-9z" fill="#81899C"/>
<path transform="translate(1340,692)" d="m0 0h16v1l-7 1v1h-13v-2z" fill="#757D95"/>
<path transform="translate(1091,684)" d="m0 0h2l-1 9-1 2h-2l-1-9z" fill="#9FD5DD"/>
<path transform="translate(423,683)" d="m0 0h5l1 5-2 2-4-1-1-5z" fill="#1B1E2C"/>
<path transform="translate(313,683)" d="m0 0h5l1 5-2 2-4-1-1-4z" fill="#191B28"/>
<path transform="translate(129,683)" d="m0 0h5l1 4-2 3-4-1-1-5z" fill="#191C29"/>
<path transform="translate(178,677)" d="m0 0h3v2h-2v2h2v2h-2v8h-2v-8h-2l2-5z" fill="#8E90A1"/>
<path transform="translate(727,504)" d="m0 0 3 1 1 2-9 2h-5l-3-3z" fill="#539CAF"/>
<path transform="translate(406,295)" d="m0 0h5l1 4-2 3h-4l-1-5z" fill="#1D212F"/>
<path transform="translate(1393,746)" d="m0 0 2 4v2l-1 3-1-1-3 7h-1v-8l3-1zm3 0 1 3-2-1z" fill="#2B3345"/>
<path transform="translate(1093,722)" d="m0 0 6 1v3h2v4h5v3l-8-1v-8l-5-1z" fill="#5C5772"/>
<path transform="translate(180,715)" d="m0 0 4 2v5l-4 1-2-1v-6z" fill="#1B1C2A"/>
<path transform="translate(266,711)" d="m0 0h2v2l3 1-1 2h-2v7l2 1h-4l-1-8v-3z" fill="#888E9F"/>
<path transform="translate(1350,700)" d="m0 0h9l-5 5-6-1-4 1 1-4z" fill="#5F617F"/>
<path transform="translate(1390,696)" d="m0 0 6 1 2 4v6l-2-3-2-2-5-3-2-2z" fill="#93C3CD"/>
<path transform="translate(208,681)" d="m0 0h2l1 7 6 2v1h-6l-1 5h-2z" fill="#9098AB"/>
<path transform="translate(736,445)" d="m0 0h5l1 5-2 2-4-1-1-4z" fill="#212535"/>
<path transform="translate(322,295)" d="m0 0h5v6l-5 1-1-1v-5z" fill="#252836"/>
<path transform="translate(212,295)" d="m0 0h5l1 5-2 2-4-1-1-4z" fill="#262935"/>
<path transform="translate(1203,765)" d="m0 0h2v2l3-1 1 8h-5z" fill="#6B6A7F"/>
<path transform="translate(353,748)" d="m0 0h5l1 1v5l-5 1-1-1z" fill="#1B1B29"/>
<path transform="translate(140,746)" d="m0 0h7l1 3-1 2h-7l-1-4z" fill="#636677"/>
<path transform="translate(1133,723)" d="m0 0 1 3h11v3h-12z" fill="#9398AA"/>
<path transform="translate(459,715)" d="m0 0h2v6l3 1 2-1 1-5h1v8h-8l-2-2v-6z" fill="#9FA4B3"/>
<path transform="translate(338,716)" d="m0 0h5l1 4-2 3-4-1-1-5z" fill="#181A27"/>
<path transform="translate(246,716)" d="m0 0h5v6l-4 1-2-1v-5z" fill="#1A1C29"/>
<path transform="translate(200,715)" d="m0 0 4 2-1 5-4 1-1-1v-6z" fill="#171926"/>
<path transform="translate(139,715)" d="m0 0 4 2-1 5-4 1-1-1v-6z" fill="#181A28"/>
<path transform="translate(69,711)" d="m0 0h2v2l3 1v2h-3l1 6 2 2-5-1-1-9z" fill="#8D95A7"/>
<path transform="translate(329,711)" d="m0 0h2v2l3 1-1 2h-2v7l3 1-5-1-1-7-1-2h2z" fill="#9193A3"/>
<path transform="translate(1378,688)" d="m0 0h14l2 1v2h2v2l2 1h-2l-1 3-4-6-2-1-11-1z" fill="#787A8D"/>
<path transform="translate(139,681)" d="m0 0h7v2h-4v8h-3z" fill="#81869B"/>
<path transform="translate(493,683)" d="m0 0h5v6l-5 1-1-6z" fill="#191B29"/>
<path transform="translate(394,683)" d="m0 0 5 1v5l-5 1-1-1v-5z" fill="#1A1B29"/>
<path transform="translate(108,678)" d="m0 0h2l3 3v2h-3l1 6 2 2-5-1-1-9z" fill="#8A91A4"/>
<path transform="translate(136,292)" d="m0 0h2l1 11-8-1 4-5z" fill="#2D2D3B"/>
<path transform="translate(1298,271)" d="m0 0h6l2 4-2 1h-6l-1-4z" fill="#A5E6EC"/>
<path transform="translate(150,40)" d="m0 0h4l2 6-2 3h-4z" fill="#2C4051"/>
<path transform="translate(1129,753)" d="m0 0 2 1 3 10v7l-2-1-3-12z" fill="#59CDD9"/>
<path transform="translate(481,746)" d="m0 0h2l-2 5h5v1h-5l1 2 7-1-1 3h-7l-2-2v-6z" fill="#9CA0AF"/>
<path transform="translate(404,748)" d="m0 0h5v6l-4 1-2-2z" fill="#171926"/>
<path transform="translate(317,748)" d="m0 0h5v6l-4 1-2-2z" fill="#171926"/>
<path transform="translate(231,748)" d="m0 0 5 1v5l-4 1-2-1v-5z" fill="#181A27"/>
<path transform="translate(295,743)" d="m0 0h2v3h3v2h-3l1 6 2 2-5-1-1-9z" fill="#9096A7"/>
<path transform="translate(389,716)" d="m0 0h5v6l-4 1-2-2z" fill="#181A27"/>
<path transform="translate(1327,704)" d="m0 0h10l-1 4-7 1-4-4z" fill="#5B6989"/>
<path transform="translate(1337,695)" d="m0 0h6v3l-4 2h-3v-2l-8 1 2-2h7z" fill="#85889B"/>
<path transform="translate(1324,696)" d="m0 0h13v1l-9 2h-13l4-2z" fill="#5D5573"/>
<path transform="translate(471,683)" d="m0 0h5v6l-4 1-2-2z" fill="#181A27"/>
<path transform="translate(435,683)" d="m0 0h5l1 5-2 2-4-1z" fill="#171826"/>
<path transform="translate(211,683)" d="m0 0h5l1 5-2 2-4-1z" fill="#171826"/>
<path transform="translate(340,680)" d="m0 0 5 2 1 1v8h-3v-8h-4z" fill="#7E8297"/>
<path transform="translate(462,678)" d="m0 0h2v3h3v2h-3l1 6 2 2-5-1-1-9z" fill="#9599AA"/>
<path transform="translate(540,677)" d="m0 0h3v2h-2v2h2v2h-2v8h-2l-1-10z" fill="#959AA8"/>
<path transform="translate(698,445)" d="m0 0 5 1v5l-5 1-1-1v-5z" fill="#1C202F"/>
<path transform="translate(1317,39)" d="m0 0h2l1 3 4 2v2l-5-2v2h-4l-5-1v-2h8z" fill="#32384A"/>
<path transform="translate(1292,38)" d="m0 0h1l1 6 4 1v-7h2v9h-7l-1-1z" fill="#96A0AF"/>
<path transform="translate(1415,746)" d="m0 0 1 2-5 15h-2l2-6 2-10z" fill="#151724"/>
<path transform="translate(1376,751)" d="m0 0 3 1-4 3-8 3-4-1 1-2 10-3z" fill="#586A87"/>
<path transform="translate(242,746)" d="m0 0h2l-2 5 4 1h-4l1 2 7-1-1 3h-7l-2-2v-6z" fill="#999DAC"/>
<path transform="translate(208,748)" d="m0 0 5 1-1 5-4 1-1-1v-5z" fill="#171927"/>
<path transform="translate(1454,745)" d="m0 0 8 1 10 3 1 2-8-1-11-4z" fill="#5A6C8C"/>
<path transform="translate(1338,744)" d="m0 0h3l2 3v5l-5 1v-2l3-2-1-1h-6z" fill="#87DCE3"/>
<path transform="translate(1206,740)" d="m0 0 15 1-4 2-11 1-1-2z" fill="#84C7D2"/>
<path transform="translate(116,714)" d="m0 0h6v2h-3v8h-3z" fill="#83869B"/>
<path transform="translate(461,716)" d="m0 0h5v6l-4 1-2-2z" fill="#161824"/>
<path transform="translate(407,683)" d="m0 0 5 1-1 5-4 1-1-1v-5z" fill="#151724"/>
<path transform="translate(382,683)" d="m0 0 5 1-1 5-4 1-1-1v-5z" fill="#151724"/>
<path transform="translate(167,683)" d="m0 0 5 1-1 5-4 1-1-1v-5z" fill="#141623"/>
<path transform="translate(527,678)" d="m0 0 3 1v2l2 1h-3l1 7 2 2-5-1-1-9z" fill="#8A91A4"/>
<path transform="translate(360,678)" d="m0 0 3 1v2l2 1h-3l1 7 2 2-5-1-1-9z" fill="#8990A4"/>
<path transform="translate(1095,669)" d="m0 0 2 2 1 8-3 6-3-2 1-1z" fill="#66657B"/>
<path transform="translate(139,41)" d="m0 0 5 1 1 1v6l-2 2h-5l4-4v-3l-4-2z" fill="#E4EAEE"/>
<path transform="translate(83,41)" d="m0 0h10l-1 4-1 1h-6l-2-2z" fill="#5DC9D4"/>
<path transform="translate(1357,750)" d="m0 0 5 1 2 3-1 4h-3l-3-5z" fill="#93DFE6"/>
<path transform="translate(1399,743)" d="m0 0h2l-2 16-2 2v-7l1-2h-2l1-8z" fill="#4E556D"/>
<path transform="translate(114,745)" d="m0 0 5 2 1 2v7h-3l-1-8-4-1z" fill="#81869A"/>
<path transform="translate(1393,734)" d="m0 0 1 4-1 7-7 1z" fill="#242A3A"/>
<path transform="translate(1206,728)" d="m0 0 5 1 3 5h-8z" fill="#92C7D1"/>
<path transform="translate(435,717)" d="m0 0 1 2h7v-2h2v3h-8l1 2 6-1-1 3h-7l-1-1z" fill="#9FA1B0"/>
<path transform="translate(1342,708)" d="m0 0 4 2-1 4v-2l-10-1-1 2-2-4z" fill="#88C3CE"/>
<path transform="translate(1335,700)" d="m0 0h5v3h-5v2h-6l-6-2v-1h11z" fill="#728CA3"/>
<path transform="translate(187,683)" d="m0 0h2v3l8-1v2h-8l1 2 7-1-1 3h-7l-2-2z" fill="#9B9FAF"/>
<path transform="translate(716,441)" d="m0 0h2v2h2v2h-2v7h2v2l-4-1-1-10z" fill="#8EBDCA"/>
<path transform="translate(720,443)" d="m0 0 2 1 1 9-3 1v-2h-2v-7h2z" fill="#1D2130"/>
<path transform="translate(1171,264)" d="m0 0h5v5l4-1-1 3h-5l-5-3z" fill="#CACFD6"/>
<path transform="translate(354,745)" d="m0 0h8v11h-1l-1-6-7-3z" fill="#76758A"/>
<path transform="translate(153,711)" d="m0 0h2v3l3 1-3 1v7l3 1-5-1-1-9z" fill="#999EAD"/>
<path transform="translate(1200,708)" d="m0 0h7v7h-3z" fill="#62637F"/>
<path transform="translate(1407,704)" d="m0 0 7 2 4 4 1 7-4-5-5-5-3-1z" fill="#6BA9B9"/>
<path transform="translate(688,422)" d="m0 0h7l-1 5-2 2h-6l-1-2h7v-2l-4-2z" fill="#58A9BA"/>
<path transform="translate(103,293)" d="m0 0h3l-2 4-7 6-1-2z" fill="#57B1C3"/>
<path transform="translate(1527,38)" d="m0 0h5l1 3h-2v-2l-2 1 4 3v4h-6l1-2 3 1-1-2-3-1z" fill="#9B9FAE"/>
<path transform="translate(1166,768)" d="m0 0h2l3 6h-9l2-5z" fill="#636882"/>
<path transform="translate(402,747)" d="m0 0h2v6l4 1 1-5h1v7h-7l-2-2v-6z" fill="#93A0AF"/>
<path transform="translate(1340,742)" d="m0 0h2v2h2l2 6-2 4h-6l3-2h2l-2-8-2-1z" fill="#536E85"/>
<path transform="translate(1197,738)" d="m0 0 4 1v3h2l2 5-5 1-1-8h-2z" fill="#BEC9D0"/>
<path transform="translate(1166,723)" d="m0 0h1v11l2 9-1 4-3-11-3-2h3z" fill="#99DEE4"/>
<path transform="translate(1322,725)" d="m0 0 2 1-2 5-7 3-1-3z" fill="#1F2434"/>
<path transform="translate(143,710)" d="m0 0h1v5l-7 1v5h-3l1-6 3-2 5 1z" fill="#7E889C"/>
<path transform="translate(1343,706)" d="m0 0h4v7l-1-3-4-1-11 1v-2z" fill="#6A90A6"/>
<path transform="translate(1364,695)" d="m0 0h7l4 2-3 2h-11z" fill="#5E5B77"/>
<path transform="translate(116,681)" d="m0 0h7l1 2-1 3h-7v-4z" fill="#585A6D"/>
<path transform="translate(1103,372)" d="m0 0 4 2 5 3 5 2v1l-9-1-5-5z" fill="#9CE0E6"/>
<path transform="translate(183,293)" d="m0 0h3v11h-3z" fill="#8091A2"/>
<path transform="translate(159,290)" d="m0 0h2l-2 6-5 8h-2l2-6z" fill="#BAD1D8"/>
<path transform="translate(1393,753)" d="m0 0 1 4-4 9-3 3 2-7z" fill="#6DB5C3"/>
<path transform="translate(209,746)" d="m0 0h6v10h-4l1-7z" fill="#939BAB"/>
<path transform="translate(1169,741)" d="m0 0 8 3 1 3-9-1z" fill="#669AAD"/>
<path transform="translate(505,711)" d="m0 0h2l-2 10-1 3h-3v-3h2l1-9z" fill="#9299A9"/>
<path transform="translate(333,715)" d="m0 0 3 1v7h-5v-7z" fill="#1C1D2A"/>
<path transform="translate(126,713)" d="m0 0 5 1 1 2-1 2h-7v-3z" fill="#5E6171"/>
<path transform="translate(399,677)" d="m0 0h1v11l-2-4-5 1-2 2 1-5 1-1h6z" fill="#848DA1"/>
<path transform="translate(724,443)" d="m0 0h5l1 5h-7v-4z" fill="#738292"/>
<path transform="translate(1117,359)" d="m0 0 6 2 7 3-2 2-5-1-6-4z" fill="#EAF8FA"/>
<path transform="translate(1133,350)" d="m0 0 6 2 5 3v2l-4 1-4-4-4-3z" fill="#EDFAFC"/>
<path transform="translate(291,290)" d="m0 0h4v14h-2v-12h-2z" fill="#C5D6DD"/>
<path transform="translate(130,289)" d="m0 0 5 1 1 1v6h-2l-1-5h-2l-1 2h-3l2-4z" fill="#C8D7DE"/>
<path transform="translate(1421,40)" d="m0 0 7 1v3l-3 2-4-1z" fill="#1D202E"/>
<path transform="translate(1048,760)" d="m0 0h3l2 6-3-1-2 4h-2l-1-4 3-1z" fill="#7A7E93"/>
<path transform="translate(361,710)" d="m0 0 3 1-2 13h-1v-10l-6-1v-1h6z" fill="#212636"/>
<path transform="translate(1377,695)" d="m0 0 7 4-3 1-6-1-4 1-1-3z" fill="#252C3D"/>
<path transform="translate(320,681)" d="m0 0h1v10h-8l4-2 1-5-1-2z" fill="#A0A6B4"/>
<path transform="translate(639,452)" d="m0 0h2l4 11-1 3-3-4-2-6z" fill="#5BAFBF"/>
<path transform="translate(1131,366)" d="m0 0h3l7 7-2 1-9-5z" fill="#EEFAFC"/>
<path transform="translate(1145,358)" d="m0 0 6 1 6 4-1 2-10-4-2-2z" fill="#EAFAFC"/>
<path transform="translate(1302,38)" d="m0 0h5v2h-2v7h-3z" fill="#8A8FA2"/>
<path transform="translate(1064,765)" d="m0 0 1 2 5 2 6 4-4 1-8-6z" fill="#707A93"/>
<path transform="translate(180,746)" d="m0 0 4 2-1 8h-3z" fill="#878CA0"/>
<path transform="translate(282,746)" d="m0 0 4 2-1 8h-3z" fill="#888EA1"/>
<path transform="translate(102,746)" d="m0 0 4 2-1 8h-3z" fill="#878DA0"/>
<path transform="translate(494,745)" d="m0 0 5 1v4h-7l-1-3z" fill="#585C6D"/>
<path transform="translate(1324,686)" d="m0 0 5 1 1 2-18 3 2-2 6-2h4z" fill="#8695A9"/>
<path transform="translate(367,677)" d="m0 0h2l1 7-1 7h-2z" fill="#969DAB"/>
<path transform="translate(330,681)" d="m0 0 9 1-1 9h-2v-8l-6-1z" fill="#8B99A8"/>
<path transform="translate(1047,448)" d="m0 0h2v2h3v2l3 1-7 1-3-1z" fill="#A7A8B5"/>
<path transform="translate(1364,307)" d="m0 0 2 1-1 1 2 2-5 1-1 3-1-3-3 1 1-3z" fill="#5CD2DC"/>
<path transform="translate(179,294)" d="m0 0h3v6l-4 4h-8v-1h7v-2h2z" fill="#787B90"/>
<path transform="translate(1122,293)" d="m0 0h2v5h4v-2h2v3l-6 1-3-4-3 1v-2z" fill="#D0DADF"/>
<path transform="translate(1310,38)" d="m0 0h6l2 2-1 3-1-1h-6l-1-3z" fill="#6B7081"/>
<path transform="translate(1521,35)" d="m0 0h2v3l2 1h-2v7l2 1h-4l-1-9z" fill="#97A5B3"/>
<path transform="translate(327,749)" d="m0 0 7 2v1h-5l1 2 7-1-2 3h-6l-2-1z" fill="#9DA0AF"/>
<path transform="translate(1392,727)" d="m0 0 3 1-5 4-4 4h-2l2-4 3-4z" fill="#242735"/>
<path transform="translate(994,552)" d="m0 0 5 5 9 6v2l-5-2-9-7z" fill="#5B5F76"/>
<path transform="translate(1353,304)" d="m0 0 6 1v4l-5 2v-2l3-3-8 2z" fill="#5CD2DC"/>
<path transform="translate(423,293)" d="m0 0h3v10l-3-1z" fill="#88889C"/>
<path transform="translate(280,293)" d="m0 0h5v2l-2 1-1 8h-2z" fill="#A0A3B1"/>
<path transform="translate(229,293)" d="m0 0h3v10l-3-1z" fill="#8D8FA1"/>
<path transform="translate(1147,278)" d="m0 0h2l1 5 3 1v-3h2l-1 4h-5l-2-4-4 1z" fill="#D3DEE3"/>
<path transform="translate(1176,40)" d="m0 0h5v6l-5-1z" fill="#2B2F3E"/>
<path transform="translate(1430,35)" d="m0 0h2v3l2 1h-2v7l2 1-4-1-1-8z" fill="#98A7B4"/>
<path transform="translate(159,746)" d="m0 0h7v10h-2l-1-7z" fill="#969CAA"/>
<path transform="translate(252,746)" d="m0 0h6l-3 3-1 7h-2z" fill="#8E97A9"/>
<path transform="translate(1185,733)" d="m0 0 4 2-10 5 1-5z" fill="#8392A7"/>
<path transform="translate(474,713)" d="m0 0 5 2v2l-5-1-1 2h4v2l-5-1-1-4z" fill="#929CAC"/>
<path transform="translate(204,710)" d="m0 0 2 1-1 4-7 1v5l-2-4 1-3 5-1 2 1z" fill="#7C8297"/>
<path transform="translate(1348,703)" d="m0 0h5l-3 5-3 3-1-7z" fill="#69748F"/>
<path transform="translate(467,682)" d="m0 0h1v8l-4-1v-6z" fill="#1A1D2B"/>
<path transform="translate(687,503)" d="m0 0 11 2 1 3-9-1-3-2z" fill="#539EB2"/>
<path transform="translate(1120,468)" d="m0 0 4 1-13 8-3-1 11-7z" fill="#989AAA"/>
<path transform="translate(775,465)" d="m0 0h3l-2 6-3 4-2-1z" fill="#59BBCA"/>
<path transform="translate(708,443)" d="m0 0h5v2l-2 1-1 8h-2z" fill="#81B9C7"/>
<path transform="translate(1397,304)" d="m0 0 2 1v2l-8 5-3-1h2v-2h3l1-4z" fill="#868596"/>
<path transform="translate(1085,294)" d="m0 0 2 1-11 7-4 2 2-4z" fill="#84889D"/>
<path transform="translate(1322,283)" d="m0 0 2 1-1 2 4 1-7 1-1 3v-3l-3-1z" fill="#C8D1D9"/>
<path transform="translate(176,41)" d="m0 0h5l1 1v9h-2v-7l-4-2z" fill="#5DC5D1"/>
<path transform="translate(1388,40)" d="m0 0h5v5l-4 1-1-1z" fill="#1D1F2E"/>
<path transform="translate(119,38)" d="m0 0h2v13h-2v-6l-2-1h2z" fill="#E2E3E7"/>
<path transform="translate(86,33)" d="m0 0 2 1 1 2-5 2-1 5-3-3 2-5z" fill="#1E2231"/>
<path transform="translate(322,755)" d="m0 0 1 3-2 2-4-1-2-1-1 2v-3z" fill="#262B3C"/>
<path transform="translate(344,746)" d="m0 0h5v2l-2 1-1 7h-2z" fill="#989CAD"/>
<path transform="translate(1212,739)" d="m0 0h18l-3 2-6 1-9-1z" fill="#9CEEF2"/>
<path transform="translate(1156,721)" d="m0 0 1 2-2 11-2-2v-9z" fill="#828FA4"/>
<path transform="translate(1117,725)" d="m0 0h1v6l-3 4h-2l1-7z" fill="#646A87"/>
<path transform="translate(92,715)" d="m0 0 6 2v3l-9-1 1-3z" fill="#505162"/>
<path transform="translate(1008,715)" d="m0 0h3l4 4 5 4-1 2-8-6-4-2z" fill="#5A6B8B"/>
<path transform="translate(1408,706)" d="m0 0 5 2 2 4-1 6-2-1-1-7z" fill="#556985"/>
<path transform="translate(352,682)" d="m0 0 6 1v4l-8-1z" fill="#565968"/>
<path transform="translate(96,681)" d="m0 0h5v2l-2 1-1 7h-2z" fill="#989AA9"/>
<path transform="translate(76,678)" d="m0 0 5 2 1 7h-3l-1-7-4-1z" fill="#838598"/>
<path transform="translate(1054,467)" d="m0 0h2v2h4v2h-2v2h-3l-1-2-5-1v-1h5z" fill="#787A8F"/>
<path transform="translate(1123,356)" d="m0 0 6 2v3h-5l-3-4z" fill="#EBF7F9"/>
<path transform="translate(213,293)" d="m0 0 6 1 1 7-2 2-3-1 2-2v-4z" fill="#A0A6B4"/>
<path transform="translate(269,293)" d="m0 0h6l3 2v6h-1v-5h-7l-2 2z" fill="#9497A7"/>
<path transform="translate(1272,40)" d="m0 0 2 1 1 6-3-1v-2h-2v2h-4v-3h6z" fill="#42475D"/>
<path transform="translate(163,43)" d="m0 0 4 1-1 5h-4v-5z" fill="#1A1D2A"/>
<path transform="translate(1481,35)" d="m0 0h5l3 2v2l-8-1-2 3-1-4z" fill="#8A8DA0"/>
<path transform="translate(1370,36)" d="m0 0h2v5h5v1h-5v5h-2z" fill="#96AFBB"/>
<path transform="translate(1049,761)" d="m0 0 4 5 7 1-1 2h-7l-3-4z" fill="#95C8D2"/>
<path transform="translate(1056,755)" d="m0 0h2l4 10-2 2-3-1 2-2-3-6z" fill="#878BA2"/>
<path transform="translate(1400,749)" d="m0 0h2v6l-4 4 1-9z" fill="#5B6987"/>
<path transform="translate(1195,735)" d="m0 0 4 2h-3l1 10-3-3v-8z" fill="#47465D"/>
<path transform="translate(1118,725)" d="m0 0h1v10l-4 2-5-1v-1l6-2z" fill="#6DB8C6"/>
<path transform="translate(1134,730)" d="m0 0h9l-1 2h-5l-1 4-2-2z" fill="#5F5B75"/>
<path transform="translate(1313,725)" d="m0 0 7 2-5 4-3-1z" fill="#5B90A6"/>
<path transform="translate(456,716)" d="m0 0 2 1-1 5-7 1-2-3h8z" fill="#1F2332"/>
<path transform="translate(1024,719)" d="m0 0 5 1 5 4h-4l-1 2z" fill="#89C1CC"/>
<path transform="translate(411,714)" d="m0 0h5v2h-3v8h-2z" fill="#A1A1AE"/>
<path transform="translate(189,714)" d="m0 0h5v2h-3v8h-2z" fill="#9799A8"/>
<path transform="translate(445,681)" d="m0 0 3 1 1 5h2l-2 6h-1z" fill="#848EA1"/>
<path transform="translate(286,683)" d="m0 0h8v4l-8-1z" fill="#545567"/>
<path transform="translate(771,472)" d="m0 0 2 4-4 4-4 2 2-4z" fill="#529FB3"/>
<path transform="translate(1230,405)" d="m0 0h5l-4 3-8 4-2-1z" fill="#99A1B1"/>
<path transform="translate(382,293)" d="m0 0h7l1 3-7-1-2 6h-1v-6z" fill="#8D93A5"/>
<path transform="translate(127,43)" d="m0 0 4 1-1 5-4-1z" fill="#232534"/>
<path transform="translate(1265,38)" d="m0 0h6l1 2-1 2h-6l-1-3z" fill="#6B7082"/>
</svg>
