<?xml version="1.0" encoding="UTF-8"?>
<svg version="1.1" viewBox="0 0 1712 1632" width="1200" height="1280" xmlns="http://www.w3.org/2000/svg">
<path transform="translate(1486,598)" d="m0 0 3 1-1 253-3 5-16 8-28 15-25 13-19 10-28 15-19 10-16 8-42 22-66 34-22 12-20 10-22 12-27 14-22 12-41 21-19 10-46 24-39 20-19 10-25 13-22 12-24 12-16 9-16 8-23 12-27 14-22 12-24 13-6 3h-3l-1-243-1-7 3-5 9-7 16-9 48-24 22-12 34-18 28-15 20-10 16-9 16-8 33-17 22-12 27-14 19-10 21-11 38-19 22-12 27-14 16-9 34-18 43-22 19-10 29-15 19-10 23-12 36-18 19-10 39-20 23-13 21-12z" fill="#01C4FD"/>
<path transform="translate(986,391)" d="m0 0 2 1v252l-2 5-9 6-38 19-39 20-19 10-24 13-34 18-35 18-22 12-39 20-22 12-19 10-19 9-19 10-31 16-19 10-28 15-32 17-22 12-22 11-19 10-31 16-19 10-27 14-35 18-39 20-34 18-24 13-18 10-4 1-2-4-1-246 3-6 17-10 54-28 22-12 28-15 33-17 19-10 18-10 54-27 19-10 29-15 22-12 29-15 22-12 27-14 19-10 33-17 24-13 41-21 16-8 46-24 27-14 22-12 41-21 19-10 35-18 18-10z" fill="#6255FD"/>
<path transform="translate(983,62)" d="m0 0h5v245l-2 9-7 6-33 16-19 10-27 14-19 10-16 8-69 36-22 12-24 12-12 7-16 8-32 17-27 14-19 10-97 50-22 12-41 21-24 13-31 16-22 12-24 12-22 12-26 13-19 10-33 17-23 13-14 7h-4l-1-247 2-7 9-6 23-12 16-9 16-8 26-14 25-13 19-10 41-21 25-13 22-12 41-21 22-12 29-15 19-10 28-15 39-20 19-10 28-14 19-10 18-10 16-8 33-17 28-15 45-23 18-10 47-24 16-8 44-23z" fill="#6255FD"/>
<path transform="translate(1484,932)" d="m0 0 5 1-1 253-9 6-21 10-16 9-28 15-27 14-19 10-32 16-19 10-25 13-18 10-16 8-27 14-19 10-22 12-16 8-28 15-27 14-19 10-33 17-43 22-22 12-39 20-22 12-37 19-53 28-27 14-33 17-43 22-6 3-1-1v-251l6-7 47-24 25-13 22-12 30-15 19-10 29-15 19-10 50-26 22-12 34-18 25-13 19-10 52-27 45-23 22-12 43-22 53-28 27-14 20-11 16-8 46-24 21-10 19-10 18-10z" fill="#01C4FD"/>
<path transform="translate(1167,312)" d="m0 0 4 1 14 10 18 13 19 13 14 10 23 16 14 10 18 13 16 12 14 10 20 15 10 7 72 52 13 10 16 11 11 8 10 9-1 4-45 23-20 10-22 12-25 13-19 10-28 15-34 18-39 20-19 10-20 10-23 13-7 3h-3l-1-3z" fill="#01C4FD"/>
<path transform="translate(559,945)" d="m0 0h4v380l-6-1-10-8-18-14-22-15-18-13-14-10-13-9-17-12-20-15-18-13-14-10-34-25-28-20-19-14-18-13-20-14-11-8-7-6 1-4 8-5 19-10 23-11 19-10 26-14 27-14 19-10 26-14 32-17 27-14 70-35z" fill="#6255FD"/>
</svg>
